<?xml version="1.0" standalone="no"?>
<!DOCTYPE svg PUBLIC "-//W3C//DTD SVG 1.1//EN" "http://www.w3.org/Graphics/SVG/1.1/DTD/svg11.dtd" >
<svg>
<metadata>
Created by FontForge 20110222 at Wed Jul  2 01:47:12 2014
 By Orthosie Webhosting
/!\  This font is Free for Personal Use. 
</metadata>
<defs>
<font id="PinkVapor" horiz-adv-x="354" >
  <font-face 
    font-family="Pink Vapor"
    font-weight="400"
    font-stretch="normal"
    units-per-em="1000"
    panose-1="2 0 0 0 0 0 0 0 0 0"
    ascent="800"
    descent="-200"
    x-height="319"
    cap-height="577.5"
    bbox="-511.222 -395 1106.57 753"
    underline-thickness="50"
    underline-position="-50"
    unicode-range="U+0020-20AC"
  />
<missing-glyph horiz-adv-x="318" 
 />
    <glyph glyph-name=".notdef" horiz-adv-x="318" 
 />
    <glyph glyph-name="B" unicode="B" horiz-adv-x="473" 
d="M402 514q7 -11 12.5 -24t9.5 -27q3 -14 4.5 -29t-0.5 -29q-5 -53 -28 -100q-25 -49 -66 -82l-8 -6l-8 -6q5 -2 11 -4l12 -4q22 -9 39 -25t27 -39q5 -11 7 -21.5t4 -20.5q0 -5 0.5 -10t-0.5 -10v-9.5t-1 -9.5l-2 -18t-3 -18q-9 -36 -27 -66q-9 -15 -20.5 -27.5
t-23.5 -23.5t-25 -19t-26 -14q-24 -11 -47 -17t-43 -8q-8 -3 -14 -4t-10 3q-19 -1 -34.5 1t-29.5 4q-15 4 -27 7.5t-20 6.5q-4 2 -7 3t-5 2q-3 1 -4 2t-2 4q-1 2 -2.5 4.5t-2.5 6.5q60 -27 127 -24q-34 0 -67 7.5t-63 24.5q-2 8 -2.5 15.5t2.5 12.5q7 9 32 -2
q18 -8 40 -12.5t48 -5.5l-13 52l-15 60q-7 26 -13.5 53t-12.5 55l-6 29l-3 15l-2 14l-3 13l-3 15q-2 8 -2.5 14.5t-2.5 14.5q-5 29 -7 57.5t-4 54.5q-1 26 -1 48.5v42.5t-0.5 35t-0.5 26v23q2 1 5 2l12 3q0 -15 -0.5 -40t-0.5 -49v-42q0 -10 1 -18q2 6 2.5 25t0.5 42
q1 23 1 46t-1 37q10 3 23.5 6t25 3t19.5 -3t8 -12v-25t-2 -35q-1 -19 -1.5 -41.5t-1.5 -47.5t-1 -51.5t2 -54.5q1 -10 2 -19.5t2 -19.5q17 3 33.5 7.5t31.5 11.5q43 20 71 51t39 74q2 8 4 22q1 3 1 10l1 6v4q0 16 -6 34q-14 34 -47 59q-17 13 -35 22t-37 15q-39 13 -78.5 13
t-75.5 -8q-35 -8 -66 -23.5t-57 -32.5t-46 -35.5t-36 -35.5t-27.5 -31t-19.5 -24l-15 -21q-2 -1 -6 -1q-3 0 -7 -0.5t-9 -0.5q12 17 29.5 40t40.5 47q22 23 48 45t53 39t53.5 28t46.5 17q10 2 18.5 4t14.5 3q7 1 12 2q-8 0 -24.5 -2.5t-39.5 -9.5q-23 -8 -48.5 -20
t-51.5 -30q-26 -17 -50 -38.5t-44 -43.5q-20 -23 -35 -44t-26 -38q-14 -1 -29 0t-26 6t-12.5 17t14.5 35q9 13 21.5 29t29.5 35q16 19 36.5 39.5t46.5 40.5t57.5 39t69.5 33q37 14 79.5 22t87.5 6t91 -16t88 -43q20 -14 39 -32.5t33 -42.5zM-171 456q3 4 2 3t-9 -8
q-15 -15 -29 -33t-24 -34q-5 -8 -9.5 -14.5t-7.5 -11.5q-4 -6 -6 -11q5 6 11.5 15.5t14.5 20.5t17 22t17 22zM315 559q29 -21 49 -48q11 -14 18.5 -30.5t11.5 -33.5q3 -20 2 -35q0 -8 -1 -15.5t-3 -15.5q-4 -29 -14 -53q1 2 6.5 14.5t10.5 34.5l2 12t2 13t1.5 14.5
t-0.5 15.5q-3 33 -20 64q-8 15 -19.5 28.5t-23.5 24.5q-26 22 -53 35q-26 14 -47.5 20t-32.5 8q-12 2 -5 0q2 -1 8 -2.5l14 -3.5q17 -5 42.5 -16t51.5 -31zM184 7q2 -9 5 -20t6 -19t4.5 -11.5t1.5 2.5q-1 6 -3.5 14t-5.5 16zM131 343q-1 7 -2.5 -6.5t-0.5 -35.5q0 -18 2 -38
t5 -36h2q-1 8 -1.5 19.5t-1.5 24.5q-2 23 -2 43.5t-1 28.5zM115 537q-2 -5 -2 -15.5t1 -19.5t2 -13.5t2 3.5q1 7 0.5 15t-1.5 15q-1 8 -2 15zM262 -74q36 17 59 49q24 31 30 77q0 5 0.5 11t0.5 12q0 5 -0.5 10t-1.5 10q-3 19 -13 29q-12 12 -32 18q-23 7 -47 8q-20 2 -40 2
t-41 -1q8 -56 17 -107.5t16 -91.5q2 -12 3.5 -22.5t3.5 -20.5q11 3 22.5 7t22.5 10zM401 52q-2 -14 -5 -29.5t-9 -30.5q-6 -16 -14 -29.5t-16 -24.5t-15 -18l-10 -10q-6 -7 7 3q17 14 30 35q16 22 22 46q7 24 9 41q1 9 1 17z" />
    <glyph glyph-name="L" unicode="L" horiz-adv-x="361" 
d="M395 103q7 0 14 -1t11.5 -4t5 -9t-5.5 -16q-7 -11 -15 -24t-19 -27t-23.5 -29t-29.5 -30q-15 -14 -39 -28q-23 -13 -49 -19q-13 -3 -26.5 -4t-27.5 -1q-14 1 -26 2t-24 3q-24 4 -46 5.5t-42 -2.5q-20 -3 -39 -12q-11 -5 -19 -10l-5 -3l-1 -1h-1l-2 -2q-2 0 -4 -1l-4 -2
t-3.5 -1t-3.5 -1h-4h-6q-4 0 -6 1t-3.5 1t-3.5 1q-7 3 -13 9q-2 1 -2.5 2t-1.5 2q-3 3 -3 5q-2 2 -2 4q-1 1 -1 2t-1 2q0 1 -0.5 2t-0.5 3t-0.5 2.5t-0.5 1.5v3v3q0 10 1 14q2 10 4 16q2 10 4 14q2 7 4 13.5t4 13.5q5 13 9 25t9 25l37 97q37 95 68 183q14 42 26.5 81
t21.5 72t15 59.5t9 44.5q2 9 2 16t1 12q0 5 1 10q2 1 5 2q2 1 5 2t8 3q-1 -13 -3.5 -31t-6.5 -38q-5 -21 -10 -43t-11 -42q-6 -21 -11.5 -39.5t-10 -32.5t-7 -22l-2.5 -8q5 10 16 42t22 72q6 20 11 40t8 40q4 19 5.5 35.5l2.5 27.5q11 5 24 9.5t25 5.5q13 0 19 -6
q8 -8 7 -26q-2 -20 -7 -48.5t-15 -63.5q-9 -35 -22 -75.5t-30 -85.5q-16 -45 -35 -92t-39 -96l-41 -99q-8 -18 -15.5 -36.5t-14.5 -36.5q12 3 24 5t24 2q29 2 55 -3q26 -4 47.5 -8t39.5 -4q35 0 64 16q27 16 48 38q19 19 32 37q6 8 11 14.5t8 11.5q4 5 7 9h4q2 0 4 0.5
t5 0.5q-11 -19 -21.5 -36.5t-23.5 -34.5q14 17 27 34.5t25 36.5zM177 580l-3 -24t3 5q4 14 5.5 28t1.5 26v20v8q-1 -8 -3 -28q-2 -8 -2.5 -17.5t-1.5 -17.5zM79 226q-16 -37 -32.5 -79t-25.5 -70q6 13 13 29q6 14 13.5 31t15.5 36t15.5 38.5t14.5 36t11.5 29.5t6.5 19t0 3
t-6.5 -13t-11 -25.5t-14.5 -34.5zM266 -21q2 4 -5 0q-5 -2 -10 -3.5t-11 -3.5t-12.5 -3.5t-13.5 -3.5q-14 -3 -22 -3h-10q17 -2 35 0q16 1 31 8q7 2 11.5 4.5t6.5 4.5z" />
    <glyph glyph-name="S" unicode="S" horiz-adv-x="541" 
d="M546 21q7 -11 11.5 -24t6.5 -28q2 -31 -11 -56q-6 -12 -13 -21.5t-15 -17.5t-15 -14.5t-15 -11.5q-4 -3 -7.5 -5.5t-7.5 -5.5l-8 -4l-7 -4q-15 -10 -30.5 -17.5t-31.5 -13.5q-16 -5 -32.5 -9t-33.5 -6q-17 -1 -35 0.5t-36 8.5q-8 4 -16 8.5t-16 10.5q-14 10 -24 25
q-6 6 -9 13q-1 2 -2 3.5t-2 3.5l-2 4q0 1 -2 5q-1 2 -1.5 4t-1.5 4q0 2 -0.5 3.5t-0.5 3.5q-2 7 -3 12q-2 11 -2.5 21t-1.5 19q0 34 3 55q1 9 3 15q1 4 1 6q2 1 6 4q5 4 16 10q-6 -14 -8.5 -28.5t-3.5 -31.5q-1 -16 -0.5 -32.5t3.5 -36.5q2 -6 2 -9q1 -3 1.5 -5.5t1.5 -6.5
l3 -6l2 -3l1 -3q2 -2 3 -4.5t3 -5.5q6 -9 14 -17.5t19 -15.5q10 -7 21 -10.5t22 -5.5t21.5 -2.5t20.5 0.5q20 2 37 6.5t32 10.5q28 11 51 26q11 6 18 11q4 2 7.5 4.5t6.5 4.5q2 2 4 3.5t4 3.5l3 3l-10 -7.5t-14 -9.5l-8 -5l-9 -5q-3 -2 -11 -6q-3 -2 -11 -6
q-12 -6 -25.5 -11.5t-29.5 -10.5t-33.5 -7.5t-36.5 -0.5q-10 1 -20 2.5t-20 5.5q-22 10 -36 24q-4 4 -7 8t-6 9q-4 6 -6 8l-2 5q-2 2 -2 5q-3 7 -4 11.5t-2 9.5t-1.5 8.5t-0.5 8.5q-2 17 -2.5 32t0.5 30q2 14 4.5 27.5t7.5 26.5q4 2 7.5 3t8.5 2t15 -1q15 -3 22 -14
q4 -4 6.5 -8t4.5 -7q1 -2 2 -3l2 -2v-3t-1 -7q-2 -8 -3.5 -22t-0.5 -31v-9t1 -9q0 -2 0.5 -4t0.5 -4q1 -2 1 -4t1 -3v-2q1 -2 4 -5q2 -3 7 -8q9 -7 26 -7q21 -2 45 6q12 4 25 9t25 12l14 8l6 4l6 4q11 7 21 17q9 9 12 16q2 4 2.5 6t0.5 5q0 8 -7 16q-5 9 -18 22
q-11 11 -25 21t-29 20q-32 18 -66 36q-35 17 -71 33t-74 31l-38 16q-10 4 -19 8t-20 9q-2 2 -5 3t-5 3q-3 2 -5.5 3t-5.5 3q-9 5 -20 13l-18 16t-17 18q-18 23 -25 46q-9 27 -8 52q1 26 9 48.5t19 42.5q12 19 26 35.5t29 30.5q29 26 61 49q32 24 63 41q17 9 34 16.5t37 12.5
q5 1 10.5 1.5t10.5 0.5q2 1 7 1q2 -1 6 -1q5 0 13 -2q13 -2 23 -9.5t17 -18.5q2 -2 3 -5t3 -5q3 -6 4 -10q5 -10 6 -17q2 -8 3.5 -16t3.5 -16q5 -31 5 -57.5t-1 -50.5q-1 -23 -1.5 -43t-2.5 -37l-5 -68l-11 -11q0 32 1 64.5t0 64.5q-1 -34 -3 -67.5t-4 -67.5q-6 -5 -12.5 -9
t-12.5 -3q-13 0 -12 32l4 89q1 24 1 50.5t-2 55.5t-6 56q-3 13 -8 25q0 1 -2 5q0 1 -1 1v1l-3 3q-4 2 -5 2h-2h-3q-11 -2 -24 -6q-28 -11 -56 -30q-29 -19 -55 -41q-14 -12 -27 -24t-24 -24q-23 -27 -35 -54q-11 -30 -5 -54t29 -44q6 -5 12 -9t14 -9q6 -3 14.5 -6.5
t17.5 -7.5q17 -8 35.5 -14.5t36.5 -14.5q19 -7 37.5 -14t36.5 -15q37 -16 72.5 -33t69.5 -38q17 -11 33.5 -23t32.5 -28q8 -8 15 -16.5t14 -19.5zM240 17q2 5 4.5 7.5t1.5 2.5q-2 -2 -5.5 -6.5t-5.5 -9.5t-3.5 -11.5t-3.5 -13.5q-2 -13 -2.5 -27t0.5 -27t2.5 -22t3.5 -14
t2 -3.5t-2 12.5q-2 20 -2 41.5t2 40.5q3 16 8 30zM258 587q-4 -2 -6.5 -3t-4.5 -2q-3 -1 -4 -2q13 5 27.5 10t32.5 6q9 0 18.5 -1.5t17.5 -6.5q14 -10 22 -26q7 -12 9.5 -21t4.5 -14t2 -3t-2 10q-2 9 -6 21q-1 3 -2 5.5t-3 5.5q-2 4 -4.5 7t-4.5 6q-10 13 -26 18q-4 2 -8 2
t-8 1h-8t-7 -1q-13 -2 -23 -5.5t-17 -6.5zM500 -17l2.5 -5t0.5 1q-1 2 -2 6.5t-6 11.5q-4 6 -10 14t-14 16q-19 18 -43 34q-26 17 -55.5 32.5t-58.5 28.5q-29 14 -56.5 24.5t-47.5 17.5l44 -19q20 -9 46 -21t53 -26q28 -14 54 -29.5t46 -32.5q22 -17 33 -31q6 -7 9 -12.5
t5 -9.5z" />
    <glyph glyph-name="C" unicode="C" horiz-adv-x="631" 
d="M661 89q8 -1 15.5 -3.5t10.5 -7.5t-1 -12.5t-19 -18.5q-26 -19 -57.5 -41t-71.5 -45q-20 -11 -41.5 -22t-46.5 -21q-25 -9 -52 -16t-58 -9q-29 -1 -63 5q-32 6 -63 23q-56 30 -101 80q-45 49 -73.5 110.5t-38.5 130.5q-11 69 0 139q11 71 43 134q8 16 18 31.5t23 29.5
q25 30 62 49q18 9 39 14t42 3q20 -1 39 -6t36 -13q15 -7 32 -17q2 -2 4 -3t4 -3l7 -5q3 -2 6.5 -4.5t6.5 -5.5q13 -11 25 -21.5t23 -22.5q22 -23 40.5 -47t35.5 -49q2 -5 5 -9t5 -9q6 22 12 42q15 41 29 68q4 6 7.5 10.5t5.5 7.5q3 4 5 7q4 2 8 3q6 1 22 3q-9 -7 -16 -15
t-13 -17q-5 -9 -10 -18.5t-9 -19.5q-9 -20 -15.5 -41.5t-12.5 -44.5q0 -2 -0.5 -3t-0.5 -3l3 -6q1 4 1.5 7t1.5 7q11 46 27 86l9.5 19t10.5 18q6 8 13 16t16 15q20 -2 31 -13q5 -6 7.5 -12.5t3.5 -11.5q0 -6 -0.5 -10.5t-1.5 -8.5q0 -2 0.5 -3t0.5 -3q1 -1 -3 -6
q-8 -8 -19 -35q-6 -12 -11 -28t-10 -34q-10 -35 -18 -82q-2 -11 -4 -23l-4 -24q-4 -20 -6 -45v-2h-1v-2v-2q-2 -19 -17 -30.5t-34 -9.5q-18 2 -29.5 16t-10.5 32v2v3q1 21 -4 45t-15 48q-21 53 -58 105q-18 25 -40 48.5t-46 42.5l-12 9q-6 4 -13 8q-11 7 -26 12q-25 9 -49 4
q-24 -4 -46 -25q-11 -10 -20.5 -22t-17.5 -26t-15 -29t-12 -31q-6 -18 -9 -32q-2 -7 -4 -17q-1 -4 -1.5 -8t-1.5 -9q-11 -66 2 -131.5t45 -120.5q32 -56 77 -95q11 -9 23 -17.5t24 -15.5q22 -13 47 -18t50 -3.5t48 6.5t44.5 13.5t40.5 17.5q38 18 68 36t50 32q10 7 18 12
t13 9q6 4 10 7h5q2 0 5 -0.5t7 -0.5q-29 -22 -57.5 -43t-58.5 -41q32 20 63 40.5t62 42.5zM541 228h-3h3zM545 430q-1 -5 0 -4t5 12q7 22 15.5 45t19.5 40q10 17 24 26q2 2 4.5 2.5t4.5 1.5t4 1q-10 0 -21 -8q-12 -11 -20 -22q-8 -13 -14 -27t-11 -28q-9 -26 -11 -39z
M483 232h-3h3zM146 566q-12 -10 -21 -20.5t-16 -20.5q0 1 2 3q1 2 3 3.5t4 4.5q5 5 11.5 12t15.5 14t21 13t26 10q27 7 60 -2q31 -9 58 -29t47 -41q21 -21 35 -38.5t21 -26.5q7 -8 4.5 -3t-13.5 19q-11 15 -29 36.5t-44 43.5q-14 12 -27 20q-8 5 -15.5 9t-15.5 8
q-17 7 -34 10t-34 1t-32.5 -9t-26.5 -17zM382 -48q4 2 2.5 2t-9.5 -1q-9 -2 -19.5 -3t-21.5 -2q-22 -1 -47 2q-11 2 -20 5t-16 5q-8 3 -15 6q23 -14 54 -20q15 -2 30 -2.5t27 1.5q13 2 21.5 3.5t13.5 3.5z" />
    <glyph glyph-name="D" unicode="D" horiz-adv-x="714" 
d="M611 430q17 -36 28.5 -74.5t17.5 -79.5q2 -20 3.5 -40.5t-0.5 -40.5q0 -11 -1 -21t-3 -21q-3 -20 -9 -39q-11 -42 -31 -78q-22 -38 -55 -65q-32 -28 -72 -42q-38 -14 -75 -18q-36 -4 -69.5 -2.5t-65.5 5.5q-31 5 -58.5 10.5t-53.5 11.5q-51 14 -90 26.5t-66 21.5l-56 19
q-2 2 -3 6q-2 3 -2.5 6.5t-2.5 8.5q19 -7 45 -16t55.5 -19t61.5 -20t63 -18q32 -8 59.5 -13.5t49.5 -8.5q11 -2 19.5 -3t14.5 -1q7 -1 13 0q-8 1 -25 3t-41 7q-23 4 -51 10.5t-57 14.5q-30 8 -59.5 17.5t-56.5 18.5t-50.5 17t-41.5 14q-4 13 -6.5 27.5t0.5 25.5
q2 12 12.5 17t33.5 -3q24 -8 60 -21.5t83 -27.5q18 -6 37 -12t40 -11q-3 21 -7 46t-8 53q-7 48 -11 100.5t1 106.5q3 54 18 102q15 47 38 83q11 17 22 29.5t19 20.5t11 10q-25 -6 -47.5 -17t-42.5 -25q-21 -14 -39 -28.5t-35 -28.5q-16 -14 -29 -26.5t-24 -23.5l-46 -45
q-1 -1 -4 -1h-11q20 23 40.5 45.5t40.5 44.5q-23 -22 -44.5 -44.5t-44.5 -45.5q-8 0 -15 2t-10.5 6.5t-2 11.5t12.5 18q12 14 26.5 29.5t31.5 32.5t35.5 35t41.5 37t49 37.5t58 32.5q17 8 34 13.5t37 8.5q19 3 39.5 3t40.5 -5q20 -4 39 -11.5t36 -18.5q9 -5 17 -10.5
t16 -11.5q15 -11 31 -27q29 -28 51.5 -61t39.5 -70zM26 25q23 -7 33.5 -9.5t-7.5 4.5q-17 7 -36.5 13.5t-36.5 11.5q-8 2 -15.5 3.5t-12.5 3.5q-6 2 -11 3q13 -5 38 -14t48 -16zM212 549q14 7 32 17t36 16q9 4 17 6t14 4q7 2 13 2q-11 0 -23.5 -2.5t-24.5 -6.5
q-27 -9 -44 -21q-20 -11 -26 -17q-5 -5 6 2zM247 12h1q0 1 -0.5 1.5t-0.5 1.5v-3zM243 110q1 -8 2.5 -18t3.5 -17.5t3.5 -10.5t1.5 2q0 13 -5 28zM253 405q1 6 -4 -4.5t-10 -29.5q-5 -18 -8 -40t-1 -36q1 7 2 15q1 7 2.5 16t3.5 19q4 19 8.5 36.5t6.5 23.5zM346 -2
q31 -2 61 0.5t58 13.5q27 11 49 30t36 47q8 14 13 29t9 32q2 8 3.5 17t3.5 17q1 8 1.5 16.5t0.5 17.5q1 35 -4.5 69.5t-16.5 67.5q-23 70 -63 123q-19 26 -44 48l-12 10t-13 10q-6 5 -12.5 8.5t-12.5 6.5q-28 14 -54 17q-23 3 -47 -2q2 -2 4.5 -3t4.5 -3q-6 -5 -14.5 -12
t-16.5 -15q-8 -9 -16 -18.5t-14 -20.5q-13 -20 -20 -36q-4 -8 -7 -15q4 5 12 21t22 34q13 19 29 35q8 8 15 14t12 11q9 -7 18.5 -16t16.5 -19q7 -9 9.5 -17t-2.5 -12t-13 -10.5t-17 -17.5q-19 -20 -35 -56q-8 -17 -14 -38.5t-11 -44.5t-6.5 -47.5t-2.5 -49.5q-2 -50 1 -96.5
t5 -83.5q3 -30 3 -52q20 -4 40.5 -6.5t40.5 -3.5zM308 531q-5 -6 -7 -9.5t3 0.5l9.5 9.5l9.5 9.5l9 10q-5 -2 -12 -7.5t-12 -12.5zM606 158q2 13 3 24.5t1 22.5q0 -5 -1 -12q-1 -6 -2 -14t-3 -18q-4 -20 -12 -45t-22 -49t-34 -43q-21 -19 -42 -29q-21 -11 -39 -15.5
l-26 -6.5q-9 -2 -4.5 -2t19.5 2q14 3 36 10.5t45 24.5q23 18 40 41q8 13 15 26.5t12 27.5q11 28 14 55z" />
    <glyph glyph-name="E" unicode="E" horiz-adv-x="704" 
d="M724 100q6 -3 12.5 -6.5t9.5 -8t2 -10t-9 -12.5q-18 -15 -42.5 -35t-55.5 -42t-68 -44.5t-82 -40.5q-23 -9 -48 -16t-52 -9q-27 -3 -55.5 -0.5t-56.5 13.5q-56 21 -95 65q-5 5 -9.5 10.5t-9.5 10.5q-5 6 -8 10.5t-8 12.5q-17 24 -25 55q-8 28 -10.5 54.5t-1.5 52.5
q1 8 1 15.5t2 15.5l-21 -6q-46 -12 -83 -20q-19 -5 -33.5 -7t-25.5 -4q-12 -2 -22 -3q-1 1 -2 4q-1 2 -2 5t-3 7q15 1 38.5 4.5t46.5 8.5q11 2 21 4.5l18 4.5q9 2 16 4q-6 0 -23.5 -3.5t-39.5 -7.5t-43 -7l-35 -5q-4 10 -8 23t-5.5 24t0.5 19.5t10 9.5q17 2 51.5 6t79.5 14
q20 4 40 9t42 10q9 35 20 66.5t22 57.5q16 35 30.5 62.5t25.5 44.5q-18 4 -32 8.5t-24 9.5q-11 5 -20 10v3q0 4 1 8q17 -7 39 -10q-22 7 -38 16q2 12 7.5 23.5t13.5 7.5q9 -3 21.5 -7t28.5 -6q16 -3 34.5 -5t38.5 -1q40 -1 85 5.5t88 16.5q44 10 83 21.5t68 21.5
q14 5 26.5 9.5t20.5 7.5q10 4 17 6q1 -2 3 -4q4 -6 7 -10l-31.5 -10.5l-37.5 -12.5q-10 -4 -18 -6.5t-14 -4.5q-7 -3 -14 -4q5 0 20 3.5t33 9.5q17 5 34.5 11t28.5 11q6 -9 12.5 -20.5t11 -22.5t4.5 -19t-7 -11q-16 -5 -47.5 -14.5t-73.5 -19.5q-42 -11 -90.5 -19.5
t-99.5 -12.5q-20 -2 -39 -2h-38q0 -9 -6 -16q-9 -12 -22 -31.5t-27 -47.5q-22 -40 -43 -95q5 1 9.5 2t9.5 2q26 7 52.5 12.5t52.5 9.5q49 7 91 9q20 1 36 1.5t27 0.5q13 0 23 -1l5 -10q-11 -2 -22 -3.5t-22 -3.5q11 1 22.5 1h22.5q5 -11 5.5 -24t-10.5 -14q-26 -2 -64.5 -6
t-85.5 -14q-23 -5 -47 -11t-48 -14q-21 -7 -42 -13.5t-42 -14.5l-6 -30q-3 -21 -4.5 -43t0.5 -43q1 -11 3 -20.5t5 -19.5q2 -5 3.5 -9t3.5 -9l2 -4t3 -4q1 -2 5 -8q27 -39 60 -61q34 -21 76 -24q21 -2 41.5 1t40.5 8q41 11 76 28.5t65 34.5q29 18 52 34t39 28q8 5 14 10
t11 8q5 4 9 7q1 0 3 -1q3 -2 9 -3q-15 -14 -29.5 -27t-29.5 -26q17 13 33 25.5t32 25.5zM442 340q-6 0 -14 -2l-16 -4q-9 -3 -17 -6q9 1 19.5 3t18.5 4t11.5 3.5t-2.5 1.5zM712 623q-6 -3 -11 -7q-5 -3 -11 -5.5t-12 -3.5t-3 1t9.5 5.5t14.5 6.5t13 3zM-86 193
q5 -1 14.5 0.5t17.5 3.5t12 3.5t-3 1.5t-14 -1.5t-13 -3.5zM256 468q7 9 13 19.5t12 19.5h-5q-7 -10 -14 -22q-8 -14 -10.5 -21t4.5 4zM257 520q1 1 1.5 2t1.5 2h-4q-1 -1 -1.5 -2t-1.5 -2h4zM529 555q-18 -3 -38 -6.5t-33 -8.5q7 0 15 1q7 1 15 2t18 3q18 3 35.5 6.5
t22.5 5.5q6 2 -5 1t-30 -4zM188 402q-9 -20 -15 -37.5t-11 -31.5q-5 -16 -9 -29q4 10 15.5 41t28.5 68q9 18 18.5 36.5t19.5 35.5q5 7 8.5 13.5t7.5 12.5q-1 0 -1.5 0.5t-2.5 0.5q-5 -8 -9.5 -15.5t-9.5 -16.5q-11 -18 -21 -38t-19 -40zM87 244q-6 -2 5.5 -1t30.5 6q1 2 1 5
q-13 -3 -22.5 -5.5t-14.5 -4.5zM167 82q4 -20 11.5 -35.5t15.5 -25.5q-2 2 -4 6q-2 3 -4.5 8t-4.5 11q-5 12 -8 28.5t-4 35.5q-2 28 1 55.5t6 45.5q-1 0 -2 -0.5t-2 -0.5q-2 -10 -4 -22.5t-4 -27.5q-2 -18 -1.5 -38.5t4.5 -39.5zM561 -7q11 8 16 12.5t-4 -0.5t-21 -12
t-23 -15l-27 -17q14 6 30.5 15t28.5 17z" />
    <glyph glyph-name="F" unicode="F" horiz-adv-x="351" 
d="M186 736q6 0 18.5 -1t29.5 -4q18 -1 39 -4t44 -8t44.5 -12.5t41.5 -14.5q20 -8 37 -16t31 -13q0 -14 -3.5 -29t-8.5 -26q-5 -12 -14.5 -17t-23.5 1q-14 9 -37 19.5t-55 19.5q-15 5 -32 9.5t-36 6.5q-10 2 -20.5 3t-21.5 3q-5 0 -10 0.5t-10 0.5h-20q-9 -1 -18.5 -2
t-17.5 -5q-8 -2 -14.5 -4.5t-12.5 -8.5q-11 -9 -16 -25q-5 -8 -7.5 -18.5t-4.5 -21.5q-1 -12 -1 -24v-24v-1q15 -1 31.5 -3t31.5 -4q34 -5 64 -9.5t54 -8.5q11 -3 20.5 -5t16.5 -4q8 -2 14 -3v-11q-14 0 -26 -3q6 -1 12.5 -2t13.5 -2q1 -13 -1 -26.5t-8 -13.5q-16 1 -40 1.5
t-53 1.5t-60.5 1h-62.5q2 -15 6 -30t8 -31q13 -51 30.5 -99.5t37.5 -93.5q18 -45 36.5 -86t34.5 -76q15 -36 26.5 -66t20.5 -51q6 -22 11 -33q3 -7 4 -11l-2 -4q-1 -1 -7 -9q-17 40 -36 81q8 -21 16.5 -42t15.5 -44q-11 -12 -23.5 -17t-20.5 14q-17 50 -52 122
q-17 36 -37 76t-42 85t-43.5 94t-38.5 101q-10 26 -17 53.5t-13 55.5q0 2 -0.5 4.5t-0.5 4.5q-16 -1 -28.5 -1h-21.5h-19q0 2 -1 5q-2 5 -3 13q13 -1 34 -0.5t35 1.5q-1 0 -1 3q-7 0 -16 0.5t-19 0t-18.5 -1t-14.5 -1.5q-2 12 -3.5 26.5t-2 27.5t1.5 21.5t8 8.5q7 -1 22 -1
t34 -1v2q0 16 0.5 30.5t4.5 30.5q2 14 5.5 30t9.5 32q7 16 18 30t25 27q14 11 28.5 19t29.5 11q16 5 29.5 7.5t26.5 4.5q25 1 51 0q22 -1 43 -3.5t42 -6.5q38 -8 68 -17.5t50 -17.5q11 -5 19 -8.5t13 -5.5q6 -3 11 -5q0 -2 1 -6q0 -3 0.5 -7t0.5 -8q-14 6 -33 15t-41 17
q-23 10 -47 16t-48 10q-23 5 -44.5 7.5t-37.5 3.5h-34zM-69 473q3 -1 9 -0.5t11 1t7.5 2t-1.5 2.5q-10 2 -17 -1q-4 -2 -9 -4zM54 492v-4h2q-1 1 -1 4h-1zM233 23q-4 11 -11.5 24.5t-15.5 26.5q-9 15 -19 30q7 -15 16.5 -34t17.5 -33t12 -19.5t0 5.5zM88 483h13.5t12.5 2
l-8 2t-8.5 1t-10.5 1q0 -4 1 -6zM262 487q-4 1 -8.5 0.5t-9.5 -1.5t-11 -3q11 -1 23.5 0t5.5 4zM123 675q5 2 1.5 1.5t-12.5 -3.5q-5 -3 -10.5 -5.5t-10.5 -9.5q-7 -4 -12 -10.5t-10 -15.5q-8 -17 -12.5 -39.5t-6.5 -42.5q-1 -6 -0.5 -13.5t0.5 -12.5q3 0 5 -1q0 14 1 28.5
t3 29.5l4.5 18t5.5 19q3 8 8 15l10 14q10 14 20 19.5t16 8.5zM409 663q-17 5 -25 7t5 -3q11 -8 25.5 -13t25.5 -10l26 -12q-8 8 -25 16.5t-32 14.5z" />
    <glyph glyph-name="G" unicode="G" horiz-adv-x="794" 
d="M733 247q9 -16 11 -34q1 -5 1 -9v-9t-0.5 -8t-0.5 -7q-1 -7 -2 -13t-3 -12q-7 -24 -18 -46q-11 -21 -24 -40t-29 -37q-15 -18 -32 -34t-36 -31q-40 -31 -85 -51q-23 -10 -48.5 -17t-52.5 -9q-14 -2 -27.5 -1.5t-26.5 2.5t-25.5 4.5t-24.5 5.5q-49 12 -95 35
q-23 11 -44.5 24.5t-41.5 30.5t-37.5 36t-31.5 41q-28 42 -44 92q-13 49 -15 98q0 25 2.5 49.5t8.5 47.5q14 48 38 87q25 40 58.5 69.5t68.5 49.5q36 20 72.5 32t71.5 17t67 4t61 -7q28 -6 51.5 -17t40.5 -24t28 -26t17 -23q3 -5 4.5 -8.5t3.5 -6.5l3 -6v-5q0 -2 -1 -5.5
t-2 -7.5q-15 38 -47 64q-31 27 -67 37q19 -7 36.5 -17t31.5 -24q15 -14 25.5 -31.5t17.5 -36.5q-4 -8 -9.5 -14t-10.5 -7q-6 0 -11 5q-3 3 -5.5 7.5t-6.5 11.5q-8 17 -22 32t-35 26t-48 17.5t-58 5.5q-31 0 -64 -6t-65 -20t-62.5 -34t-55.5 -48t-41 -62t-21 -72
q-3 -20 -3 -39q0 -21 3 -40q4 -39 20 -76q16 -36 42 -66.5t60 -53.5t72.5 -38t77.5 -23q10 -2 19.5 -3t18.5 -1q17 0 35 3q34 6 69 23q33 17 61.5 41.5t51.5 51.5q22 27 37 56q9 17 11 28l3 12v5v3q0 2 -2 2q-1 0 -6 -0.5t-10 -1.5q-6 -2 -12.5 -3.5t-13.5 -3.5
q-26 -8 -51.5 -18.5t-48.5 -19.5t-44 -16.5t-40 -12.5q-18 -5 -33.5 -8t-26.5 -5q-6 -1 -10.5 -1.5t-7.5 -0.5h-6q-3 2 -7 5q-3 2 -7 5.5t-8 8.5q17 -3 34 -1.5t35 4.5q18 4 36 9.5t37 11.5q37 14 73.5 28.5t71.5 25.5l16 4l16 4q2 0 3.5 0.5t3.5 0.5h4l2 1q4 0 6 -1
q6 0 10 -6q2 -6 2 -10t-1 -7q0 -5 -1 -8q-2 -10 -3 -14q-2 -3 -2 -4.5t-1 -3.5t-1 -3q2 3 4 9t4 14q1 2 1 4t1 4q0 2 0.5 4t0.5 4q0 7 -1 11q-3 6 -9 9q-2 0 -3.5 0.5t-3.5 0.5h-9q-14 -2 -29.5 -6.5t-32.5 -9.5q-34 -12 -68.5 -26t-69.5 -25q-17 -6 -33.5 -11t-32.5 -8
q-35 -6 -63 -2q-11 14 -14 29q-2 8 0 14.5t5 11.5t6.5 8.5t7.5 6.5q3 2 7 3t13 1q21 0 63 12q20 6 44.5 15t53.5 20q14 5 29.5 10.5t32.5 11.5q9 2 17.5 5t18.5 5t20.5 4t22.5 4h17q5 0 8.5 -0.5t8.5 -1.5q9 -2 17 -5.5t15 -8.5q15 -9 23 -26zM455 178q9 4 -10 -1
q-23 -7 -47 -14t-45 -9q-11 -2 -20 -1.5t-15 1.5q-7 1 -10 3q-2 1 -4 1q4 -2 9 -4t12 -3t14 -1.5t15 0.5q16 2 31.5 5t29.5 8t24.5 9t15.5 6zM199 560q-12 -7 -21.5 -13.5t-16.5 -11.5q-8 -6 -14 -12q12 9 26.5 18.5t30.5 17.5q31 16 60 26q13 5 23 7.5t15 4.5t3.5 2.5
t-11.5 -1.5q-18 -4 -46 -14q-13 -5 -25.5 -11t-23.5 -13zM630 33q8 9 3 5t-19 -18q-14 -13 -38.5 -31t-56.5 -34q-33 -17 -71 -26t-78 -6q-38 4 -70.5 13.5t-56.5 18.5q2 -1 16 -6.5t37 -13.5q26 -8 58 -14q16 -3 35 -3q9 -1 18 -0.5t19 1.5q35 6 72 20q17 8 32 16t29 17
q27 18 45 35t26 26z" />
    <glyph glyph-name="H" unicode="H" horiz-adv-x="909" 
d="M862 440q-5 -60 -10 -127t-7 -134q-2 -34 -2.5 -66.5t0.5 -62.5t3 -57.5t4 -50.5q5 -47 11 -74.5t5 -27.5l-2 -2q-1 -1 -2.5 -2t-3.5 -3q-11 25 -18 51q3 -14 6 -27.5t7 -27.5q-5 -3 -11 -6.5t-11.5 -4.5t-10 0.5t-6.5 8.5q-5 16 -10.5 37t-10.5 47t-9 54t-7 60
q-5 49 -7 101.5t-1 105.5q-23 -3 -57 -7.5t-67 -10.5q-18 -4 -34 -7.5t-28 -7.5q0 -2 -0.5 -2.5t-0.5 -2.5q-3 -20 -4.5 -41t-3.5 -42v-21v-14v-20q1 -11 1.5 -21.5t2.5 -21.5t3.5 -22.5t4.5 -25.5q-10 -6 -15 -10t-9 -8q-7 -9 -8 -13h-1h-1l-1 1h-4q-3 1 -9 1q-8 1 -29 -2
q-18 23 -35.5 42t-34.5 36l-9 8l-5 4l-10 9q-10 9 -20 17q-39 33 -82 59q-42 25 -83 41.5t-79 27.5q-38 10 -68.5 15t-53.5 7q-21 1 -34 3q-7 1 -12 1q-2 1 -3 3q-2 2 -2.5 3.5t-2.5 3.5q44 3 88 0q-45 6 -92 6q-8 12 -9 24.5t22 13.5q23 0 50.5 -1t59.5 -6t67.5 -12.5
t73.5 -20.5t76 -31t76 -42q19 -12 37.5 -25.5t35.5 -28.5q9 -6 17 -14l3 -2v-1h1l1 -1q2 -2 3 -2.5t3 -2.5l7 -7q-3 7 -3 13q-1 2 -1 7v1l-1 8v14v13.5t1 14.5q1 28 3 54t7 52q8 52 21 97t29 83t33.5 67t32.5 49q7 9 13 16t11 12t9 10q2 0 6 -1q3 -1 6 -1.5t8 -1.5
q-12 -11 -26.5 -27.5t-28.5 -36.5t-26 -42.5t-22 -45.5t-16.5 -42.5t-11.5 -35.5q-5 -18 -9 -34q4 11 15.5 46.5t31.5 77.5q21 44 47 81q13 18 25.5 32.5t23.5 25.5q12 -3 24.5 -9.5t20.5 -15.5q8 -8 9.5 -17.5t-9.5 -20.5q-9 -9 -21 -23.5t-26 -34.5q-14 -21 -27.5 -48
t-24.5 -59q-8 -20 -15 -46q16 2 32.5 2h33.5q32 -1 58.5 -2.5t40.5 -3.5v1q2 66 3.5 125t2.5 104q0 23 0.5 40.5t0.5 30.5v26q2 1 5 2q2 1 5 1.5t7 2.5l-3 -104l-1 -68q2 7 3 28.5t3 48.5q1 26 1 52.5v43.5q10 3 23.5 6.5t25 4t19 -3.5t7.5 -15q0 -23 -2 -69t-7 -106z
M652 507q-11 -14 -14 -21.5t5 3.5q9 11 18.5 23t17.5 22q4 5 8 9t6 7q3 4 5 6q-8 -5 -23 -20l-12 -14t-11 -15zM221 166q7 -2 13.5 -3.5t11.5 -3.5t10 -3q-16 8 -35.5 14.5t-35.5 9.5q-16 4 -23 5t4 -3t26 -8t29 -8zM765 272h4v1zM556 213q-1 -1 -3 -1v-5q1 1 3 1v5z
M548 137q1 15 2 28.5t3 25.5q0 -1 -1 -1l-2 6q-1 -6 -2 -12.5t-2 -14.5q-2 -16 -3.5 -34t-1.5 -38v-9v-10v-23q1 -11 2 -21.5t3 -21.5q-1 -13 -0.5 -24t1.5 -19v10q0 5 0.5 12t2.5 16q-2 16 -3 33t-2 36q0 5 0.5 8.5t0.5 7.5v15q1 8 1 15t1 15zM596 218q-2 1 -10 1v-3z
M618 261q8 0 17 1t14 4h-21h-16t-10 -2t3 -2.5t13 -0.5zM726 277q7 0 15 2t3 4q-4 1 -11 -2q-4 -2 -7 -4zM820 629q-1 -6 -1 -18t0.5 -22.5t1.5 -15.5t2 4q2 18 0 34q-1 9 -3 18zM825 319q2 26 4 51t1 33q0 9 -2.5 -6.5t-5 -41.5t-4 -55t0.5 -47zM829 7q1 -11 3 -23.5
t4 -22.5t3.5 -14t1.5 3t-2 17t-4 19q-3 11 -6 21z" />
    <glyph glyph-name="I" unicode="I" horiz-adv-x="451" 
d="M13 495q-2 10 -4 23.5t-2.5 25t1.5 19.5t8 8q12 0 37 0.5t60 2.5t75 3.5t82 -0.5q21 -1 41 -2.5t39 -4.5t36 -7t32 -9q14 -5 25.5 -9.5t19.5 -9.5q9 -5 16 -10v-3q0 -1 -2 -7q-16 6 -32 9q15 -6 30 -15q-4 -11 -10.5 -22t-12.5 -9q-17 8 -39 14q-25 6 -59 9
q-32 2 -69.5 0.5t-74.5 -5.5q-38 -5 -72 -9t-60 -7q-14 -2 -25 -2.5t-19 -1.5q-10 -1 -16 -1q0 2 -1 5q-2 4 -3 12q11 0 28.5 1t34.5 3q19 2 28 3q6 1 12 1q-5 1 -17.5 0.5t-28.5 -1.5zM388 551q-3 0 -5.5 -0.5t-4.5 -0.5h-4q6 -2 14 -2.5t14 -1.5q13 0 8 2q-4 2 -10.5 2.5
t-11.5 0.5zM139 546q-5 -1 4.5 -2t24.5 -1t31.5 1t27.5 4h-12q-5 0 -12 0.5t-15 0.5q-16 0 -30 -0.5t-19 -2.5zM39 524q-5 0 -10 -0.5t-10 -1.5l-10 -2q4 -2 11 -1.5t13 1.5t8.5 2.5t-2.5 1.5zM288 4q-1 0 -3 -1q-4 -2 -7 -3l-6 34v-35q-11 -3 -24 -3.5t-14 8.5
q-2 20 -3.5 51.5t-3 69.5t-3.5 79.5t-3 82.5q-4 95 -6 202q2 0 5 1q2 1 5 1t7 2q-1 -11 -0.5 -29.5t1.5 -35.5q1 -20 1 -43q1 4 1.5 18t0.5 30.5v33t-1 26.5q10 2 23.5 4t25 2.5t19.5 -2t8 -8.5q0 -14 -1 -42.5t-2.5 -65.5t-4 -79t-4.5 -84q-5 -99 -11 -214zM278 111
q0 -7 0.5 -15t1.5 -14t2 -9t2 2q2 8 -2 22zM260 497q-2 -4 -2 -11.5t1 -13.5t2 -9t2 2t0.5 10.5t-1.5 10.5t-2 11zM278 357q-1 5 -3 -4.5t-3 -25t-1 -33.5t2 -30q1 23 3 42q1 17 2 31.5t0 19.5zM526 -73q-10 2 -20 3t-21 3q11 -3 21 -6l20 -6q0 -13 -3.5 -25t-13.5 -10
q-23 6 -58.5 13t-78.5 11q-22 2 -45 2t-47 -1q-47 -2 -95 -9q-47 -6 -90 -13.5t-77 -12.5t-54.5 -8t-19.5 -3q-1 2 -2 5q-1 2 -2 5t-3 7q14 1 36 3.5t43 5.5q11 2 20 2.5t16 2.5q8 1 15 3q-5 1 -21.5 -1t-36.5 -4t-40 -5t-33 -5q-4 10 -7.5 23.5t-5 25t0.5 19.5t10 9
q17 2 49.5 4.5t77.5 7.5t96.5 9.5t104.5 3.5q26 0 52 -2t49 -5q24 -4 45.5 -8t39.5 -9q36 -10 57 -17.5t21 -6.5v-11zM-71 -91q4 -1 13.5 0t17 2.5t11 3t-2.5 1.5q-7 0 -13.5 -1t-12.5 -3q-7 -2 -13 -3zM131 -53q20 2 41 4t35 5h-15q-7 0 -16 -0.5t-19 -1.5
q-20 -2 -38.5 -3.5t-24.5 -3.5t5.5 -2t31.5 2zM394 -42q8 -1 18 -2t17.5 -2t11 -0.5t-1.5 2.5t-13 2.5t-15 0.5q-9 0 -17 -1z" />
    <glyph glyph-name="J" unicode="J" horiz-adv-x="639" 
d="M568 540q11 -2 21.5 -3t21.5 -3q2 -12 0.5 -25t-12.5 -12q-22 2 -55 4t-74 2q5 -11 10.5 -22.5t11.5 -25.5q14 -33 31 -73.5t32 -88.5q8 -24 14 -50t11 -54q4 -28 5 -57.5t-4 -60.5t-16.5 -61.5t-31.5 -56.5q-18 -26 -43 -46q-22 -20 -52 -37q-28 -15 -61 -21
q-17 -3 -33 -2.5t-32 2.5q-32 6 -58 19t-48 30q-23 17 -40.5 34.5t-33.5 35.5q-28 36 -51 71q-22 35 -36 64t-23 50q-5 11 -8 19t-5 14q-3 7 -4 12q1 1 2 3l2 4t3 4q8 -20 18.5 -40t21.5 -39q-20 39 -36 85q4 5 9.5 9.5t11 6t10.5 -1.5t9 -13q9 -23 23.5 -52.5t34.5 -61.5
q20 -34 47 -67q14 -17 29 -33t32 -30q17 -15 36 -26.5t39 -18.5q41 -14 79 -2q20 7 37.5 19.5t34.5 29.5q31 32 43 74q7 21 9 43t0 44q-2 23 -6 44.5t-10 43.5q-12 42 -27.5 80t-29.5 70q-15 32 -27.5 58t-21.5 45q-3 6 -5.5 11.5t-4.5 9.5q-26 -2 -52.5 -5t-52.5 -6
q-49 -7 -93 -13.5t-78 -11.5q-17 -2 -31 -3.5t-24 -3.5q-11 -2 -20 -3q-1 2 -2 5q-1 2 -2 4.5t-2 6.5q14 1 36 4t43 6q25 4 52 7q-5 1 -22 -0.5t-37 -4t-40.5 -5t-32.5 -4.5q-4 10 -7.5 23t-5 24.5t0 19.5t9.5 9l130 12q45 4 97 7.5t105 5.5q40 1 78 0q9 3 16 0
q26 -1 49.5 -3t43.5 -4q38 -5 60 -9.5t22 -3.5q1 -1 1 -3q0 -5 1 -8h-42zM2 494q5 -1 14 0.5t17 3t11.5 3t-3.5 1.5t-13.5 -1t-12.5 -3q-7 -2 -13 -4zM134 -16q5 -6 10.5 -10.5t9.5 -7.5q4 -4 8 -7q-13 13 -27 29t-24 29q-11 13 -16 18t1 -5t16.5 -22.5t21.5 -23.5zM551 142
q1 -21 -1 -44.5t-7 -45.5q-5 -23 -12.5 -41.5t-15.5 -32.5q2 4 5 8q2 4 5 9t7 13q7 14 13 33.5t9 41.5t2.5 44t-2.5 41t-5 33t-5 21t-1.5 3t2.5 -15t3.5 -29t2.5 -39zM429 478q-5 12 -10 23h-5q9 -18 15 -27.5t0 4.5zM170 532q-6 -2 6 -2t31.5 1t41.5 3t36 6q-8 -1 -16 -1
q-8 -1 -16.5 -1t-18.5 -1q-20 -1 -38.5 -2t-25.5 -3zM441 378q9 -20 17 -37.5t13 -31.5q6 -16 11 -30q-2 11 -14 42q-11 33 -29 72q-12 27 -25.5 55t-24.5 51h-4q13 -27 27.5 -59t28.5 -62zM473 553h18.5t18 0.5t11 1.5t-2.5 2q-5 1 -13 0.5t-15 -1.5q-9 -1 -17 -3z" />
    <glyph glyph-name="K" unicode="K" horiz-adv-x="419" 
d="M446 102q6 1 12.5 1.5t12 -1.5t8 -6.5t0.5 -12.5q-6 -25 -17 -56.5t-28 -68.5q-8 -19 -17.5 -38.5t-22.5 -39.5q-3 -5 -6.5 -10.5t-7.5 -10.5q-5 -6 -9.5 -11.5t-11.5 -11.5l-8 -6t-12 -7q-9 -3 -21 -3q-14 0 -25 9q-1 0 -3 2l-2 2l-2 2l-2 2l-5 4l-9 9
q-35 36 -65.5 75.5t-59.5 80.5q-15 20 -28.5 40t-26.5 40q-5 8 -10.5 15.5t-10.5 15.5q-2 -68 -3.5 -120t-2.5 -73q1 -1 3 -1q41 -6 71 -22q15 -8 26.5 -17t18.5 -17l14 -17q-1 -2 -3 -4l-4.5 -4.5t-4.5 -5.5q-4 6 -9 13t-13 15q-15 15 -33 24q-9 5 -16.5 7.5l-13.5 4.5
q-7 2 -13 4q4 -3 17 -8t29 -15q19 -10 30 -23q7 -6 11.5 -12.5t8.5 -11.5q-18 -17 -40 -29q-10 -5 -17.5 -7.5t-9.5 -0.5q-4 8 -14 17q-6 5 -15 10t-22 9q-27 8 -62 11q-35 2 -73 0t-73 -6t-63 -7q-14 -2 -25.5 -3t-19.5 -1q-10 -1 -18 0q-1 1 -1 3q-1 2 -1 3.5t-1 3.5
q8 2 15.5 4.5t15.5 4.5q-8 -1 -16.5 -2t-16.5 -1q-3 11 -4 24t6 14q17 2 44 8t62 14t74 14.5t79 8.5q6 0 11.5 0.5t10.5 0.5q-2 31 -3.5 75.5t-4 96t-4.5 107.5t-4 110q-2 58 -3.5 110.5t-2.5 92.5q-1 47 -2 87q2 1 5 2q2 1 5 1.5t7 2.5q-1 -17 -1 -42.5t1 -50.5
q1 -29 2 -61q1 6 1.5 25.5t0.5 43t-0.5 47t-1.5 38.5q11 3 24 6t25 3.5t20 -3t8 -12.5q0 -19 -1 -56t-2 -86t-2.5 -105.5t-2.5 -113.5l8 9l31 35q14 17 26.5 32t23.5 27q1 2 2 3t2 3q-4 0 -8 0.5t-8 0.5q-17 2 -27 5t-9 3v11q5 0 9.5 0.5t9.5 1.5q-5 1 -9 1.5t-9 2.5
q2 11 5.5 23.5t5.5 12.5q7 0 19 0.5t29 3.5q16 3 34.5 7.5t38.5 8.5t40 6t40 0t33 -8q3 -2 5.5 -3.5t4.5 -2.5q2 -2 4 -2q0 1 -7 -15q-4 2 -9 5.5t-11 5.5t-12 3t-11 2q-11 1 -17.5 0.5t-6.5 0.5q2 -2 9.5 -3t17.5 -3q5 -1 10.5 -2t10.5 -3q12 -5 17 -9q-5 -10 -12 -20.5
t-15 -19.5t-13 -14.5t-5 -6.5v1h-1q-2 0 -2 1q-3 2 -19 4q-4 1 -13 1q-2 -6 -5 -9q-10 -14 -26 -33.5t-38 -43.5q-11 -13 -23 -26t-25 -27l-27 -29l-4 -3l-1 -1l-1 -1l-2 -1q1 -1 1 -2v-1l1 -1l1 -3l7 -11l14 -24t15 -24q14 -24 29.5 -48t31.5 -48l32 -46t33 -44
q7 -8 13.5 -15.5t12.5 -15.5q2 0 2 2q7 8 13.5 17t12.5 19t11 19t10 19q21 38 32 65q12 28 18 45q4 9 6 16q1 1 3 1q5 0 8 1q-6 -32 -15 -62q6 16 11.5 31.5t10.5 31.5zM341 394q-4 1 -5.5 0.5t0.5 -2.5q4 -2 10 -4q1 0 2 -0.5t2 -0.5h1q0 2 -3.5 4t-6.5 3zM149 -162
q-5 5 -7.5 6t0.5 -3q2 -5 6 -8.5t7 -6.5l7 -8q0 4 -4 10t-9 10zM58 13q1 6 0.5 15t-2.5 17l-4 20q0 -9 0.5 -20.5t1.5 -20.5t2 -13t2 2zM47 418q-1 7 -2.5 -6.5t-2.5 -36.5t-1 -49t3 -42q1 32 2 59q1 23 1.5 45t-0.5 30zM28 618q-1 -5 -1 -16t1 -20t2 -13.5t2 3.5t0.5 15.5
t-1.5 14.5q-1 8 -3 16zM-203 -160q4 -1 9.5 1t10.5 4l12 6q-6 -1 -13.5 -2.5t-13 -3.5t-7.5 -3.5t2 -1.5zM51 -134q5 0 -3.5 3.5t-22.5 5.5t-30.5 2t-27.5 -3q5 -1 11 -1q5 0 12 -0.5t15 -0.5q14 -2 27.5 -4t18.5 -2zM50 -75l-3 30v-30h3zM354 -88q7 10 14 23.5t11.5 24
t5 15.5t-3.5 -2t-8 -17t-9 -21zM321 -131q-2 -1 -1 0h1zM245 383v2l-2 -1zM212 337q8 8 14 17h-1h-4q-1 -2 -3 -4q-7 -11 -10 -16t4 3zM272 388h-9.5t-9.5 -1q2 -1 5 -2t5 -2q8 0 14.5 -0.5t8.5 0.5t-2 2.5t-12 2.5zM152 363q4 -1 11 2q4 2 7 4q-7 0 -15 -2t-3 -4zM143 303
q-11 -13 -20 -24t-17 -19q-9 -10 -16 -18q7 5 24.5 24t38.5 42q10 11 19.5 22.5t18.5 22.5h-6q-10 -12 -20.5 -25t-21.5 -25zM118 137q15 -26 34 -55t33 -46q-6 10 -13 21q-6 10 -13 21.5t-15 25.5l-31 52l-9 16q-5 6 -6 9q-5 7 0 -5q2 -3 3.5 -6.5t3.5 -7.5l3 -6l3 -6z" />
    <glyph glyph-name="M" unicode="M" horiz-adv-x="516" 
d="M464 87q3 -24 5 -46t4 -42t2.5 -35t1.5 -26q1 -13 1 -23q-2 -1 -5 -2q-2 -1 -5 -2t-7 -2q1 16 0 41t-3 49q-2 11 -2.5 21.5t-1.5 18.5q-1 9 -2 17q-1 -5 0 -23.5t2 -41.5q2 -23 3 -46t2 -37q-11 -3 -24 -5.5t-24.5 -3t-20 2.5t-8.5 12q0 18 -0.5 54.5t-3.5 86.5
q-3 49 -7 106.5t-3 116.5q0 14 0.5 28.5t1.5 28.5t1 27t1 26q0 5 0.5 9t0.5 8q-18 -26 -35 -54.5t-30 -57.5q-17 -36 -26.5 -70.5t-13.5 -60.5q-2 -14 -3 -24t-1 -18v-15l-17 -4q1 11 2 29t4 35q1 8 2 15.5t3 13.5t3 12q-2 -4 -6 -16.5t-7 -29.5t-4 -33t0 -26q-8 -2 -12 -2
q0 -1 1 -1q-1 -1 -3 -2t-6 -5l-3 6q-1 0 -2 -0.5t-3 -0.5q1 -2 1.5 -4t1.5 -4q-11 -6 -23 -10t-15 5q-2 3 -2.5 6.5t-2.5 7.5q-8 3 -8 10q0 5 1 9q-8 19 -18 42.5t-23 50.5q-6 13 -12.5 27t-13.5 28q2 -27 4 -54.5t4 -55.5q5 -56 6.5 -107.5t-0.5 -92.5q-1 -21 -3.5 -38
t-4.5 -29q-2 -7 -2.5 -11.5t-1.5 -8.5t-2 -7h-18q6 17 11 44q4 25 6 51q1 12 1 23.5v19.5v18q-2 -6 -3 -25.5t-3 -42.5q-2 -26 -6 -48q-2 -12 -4.5 -22l-4.5 -18q-11 0 -24.5 2t-24.5 7q-11 4 -17.5 9t-4.5 11q5 15 11 48q2 17 4 38.5t3 45.5q2 50 1 107.5t-2 115.5
q-1 56 -1 107t2 93q-2 7 -3.5 13.5t-3.5 13.5q-6 22 -9 42t-5 38q-2 17 -2.5 31t-0.5 24v21q2 0 5 1l12 3q-2 -14 -1.5 -36t2.5 -43q1 -21 5 -37q2 -8 3 -15q0 5 -1.5 21.5t-3.5 36.5t-2 40.5t1 32.5q10 2 23.5 3.5t25 1t19 -3.5t7.5 -10q-1 -14 -1 -44t5 -69
q3 -20 7.5 -40.5t11.5 -42.5q12 -45 30 -90l33 -87q2 -5 3 -9t3 -8q14 41 35 81q22 44 50 81q27 38 55 70t51 55l32 32l2 2q8 11 13.5 16t4.5 6q1 0 3 -1t8 -3q-2 -2 -2.5 -3.5t-2.5 -3.5q1 0 1 -0.5t1 -0.5q-5 -6 -8.5 -12t-8.5 -13l-1 -2l3 3q8 15 24 29q11 -6 19.5 -15
t2.5 -16q0 -5 -2 -7q-2 -3 -5 -6t-6 -7q-7 -14 -11 -29q-9 -35 -9 -84q0 -12 0.5 -24.5t1.5 -26.5v-28t1 -27q1 -27 3.5 -54t5.5 -54q2 -26 5.5 -52t6.5 -51zM57 126v-43.5t1 -28.5q1 -7 2 6t2 36q1 22 0 46.5t-4 40.5zM49 635q1 -7 2 -13q2 -13 0 -25q-1 -6 -2 -3t-2 11
t-0.5 16.5t2.5 13.5zM42 401q-1 2 -1.5 5t-1.5 5q0 -6 2 -12q1 -3 1 -5v7zM65 -104q2 9 1.5 13.5t-2.5 -2.5q-4 -13 -6 -29l-3 -16q4 5 6.5 15t3.5 19zM92 410q3 -11 7 -20t8 -16q-2 6 -4 14q-2 6 -4.5 14.5t-4.5 17.5q-1 3 -1.5 5.5t-1.5 5.5q0 -5 0.5 -10.5t0.5 -10.5z
M181 214q1 -2 1.5 -3.5t1.5 -3.5v2q-1 1 -1 2t-1 2zM219 97q1 0 1 2q-1 2 -1 3t-1 2q0 -2 0.5 -3t0.5 -2v-2zM244 275l16.5 33t12.5 29q-3 -6 -7 -12q-3 -5 -7.5 -11.5t-8.5 -14.5q-8 -16 -14.5 -31.5t-7.5 -20.5q-2 -6 3 3.5t13 24.5zM383 509q-4 -3 -7.5 -9t-6.5 -11
q-4 -6 -7 -13q5 5 10 12t9 12.5t5 8.5t-3 0zM390 425q1 1 1 5l-1 -1v-4zM405 90q1 -7 1.5 6t0 34.5t-3 46t-5.5 39.5v-17q0 -8 0.5 -18t1.5 -21q1 -22 2 -42.5t3 -27.5zM434 -97q1 5 1 15t-1 19t-2.5 13t-1.5 -3q-1 -8 -0.5 -15t1.5 -14q1 -8 3 -15z" />
    <glyph glyph-name="N" unicode="N" horiz-adv-x="458" 
d="M394 142q15 -51 34 -103t41 -106q6 -14 0 -29t-20 -21q-11 -5 -22.5 -2t-19.5 11h-1q-72 75 -141 157t-126 174q-21 34 -39 69q1 -33 2 -63.5t2 -57.5q1 -43 1.5 -77t0.5 -58v-49l-5 -5q-2 -2 -5 -5.5t-7 -6.5q1 26 1 60.5t-1 73.5q0 39 -1 80.5t-3 81.5l-2 60q-2 4 -4 7
q1 -22 1.5 -45t1.5 -47q1 -38 2 -76.5t1.5 -74.5t0.5 -67.5v-55.5q-11 -9 -24 -18t-25 -10t-19.5 9.5t-7.5 39.5q1 38 1 100.5t-2 144.5q-2 79 -4.5 171.5t-4.5 196.5q0 5 -0.5 8.5t-0.5 8.5h1v2v1q0 18 12.5 30.5t29.5 12.5q17 1 29.5 -11t13.5 -29v-2h2v-12.5t1 -12.5
q4 -39 13 -78.5t23 -78.5q34 -93 86 -180q30 -50 64 -97t71 -92q-9 30 -16.5 59t-14.5 58q-15 68 -21 129t-6 113q0 53 3.5 94.5t8.5 70.5q2 14 3.5 25t3.5 19l3 15q1 2 3 4t10 8q-6 -38 -9.5 -76.5t-4.5 -76.5q5 80 21 158q7 5 14.5 8.5t12.5 2t7 -10t-1 -27.5
q-9 -57 -14.5 -134.5t5.5 -171.5q6 -47 16 -96t25 -100zM318 223q3 -13 6.5 -23.5t5.5 -18.5q3 -10 6 -18q-8 29 -15.5 65t-12.5 65q-5 28 -7 39.5t-1 -7.5q2 -20 7 -48t11 -54zM28 619h4v2v1q0 10 11 10q9 0 11 -10v-1h3v1q-1 6 -5 10t-10 3q-6 0 -10 -4.5t-4 -9.5v-2z
M61 -51q1 9 1.5 22.5t0.5 29v32t-1 31.5q0 15 -0.5 26t-1.5 16.5t-1.5 4t-0.5 -13.5q-1 -24 -0.5 -50t1.5 -48q1 -26 2 -50zM131 340q11 -23 22 -42t21 -35l-5.5 10.5t-15 28.5t-21.5 42.5t-23 53.5l-8 22l-8 22q1 -5 1 -8.5v-8.5q8 -23 17.5 -44t19.5 -41z" />
    <glyph glyph-name="O" unicode="O" horiz-adv-x="556" 
d="M456 577q15 -19 25 -39t18 -41q14 -42 17.5 -84.5t0.5 -84.5q-2 -21 -5 -42t-8 -41q-2 -11 -5 -20.5t-6 -19.5q-4 -11 -7.5 -20.5t-8.5 -19.5q-33 -75 -83 -137q-27 -33 -55 -57q-15 -14 -32.5 -25.5t-37.5 -19.5q-11 -4 -21.5 -7t-22.5 -5q-21 -3 -47 2q-11 2 -22 6.5
t-21 9.5t-18 11.5t-15 13.5q-15 13 -25 28q-7 7 -10 13q-3 5 -6 9t-5 9q-9 19 -13 35t-6 31q-5 30 -5 56.5t2 49.5q2 20 5 38t6 33q2 14 4.5 26.5t5.5 26.5q-8 -32 -14 -64t-11 -64q-7 -5 -14 -8.5t-12 -1.5t-8 8.5t-1 23.5q5 39 15 88.5t30 107.5q10 29 23 59t33 60
q10 15 21 30t25 29t30 26t36 22q19 9 41 15q8 2 22 4q6 1 11 1t11 1q21 1 43.5 -2.5t44.5 -13.5q45 -18 75 -56zM114 445q-2 -4 -1 -3.5t5 7.5q8 14 18.5 33t22.5 36q5 8 10.5 15t10.5 12q5 6 10 11q-18 -15 -36 -38q-8 -11 -15 -22.5t-12 -21.5t-8 -17.5t-5 -11.5zM195 3
q9 -2 20 -0.5t23 6.5t25 13t25 19q25 21 47 48.5t41 59.5q20 32 33 64q4 8 7 17l3 9l2 8q3 9 5.5 18t4.5 18q8 36 9.5 73t-3.5 72t-17.5 66.5t-34.5 52.5q-20 20 -51 28q-7 2 -14.5 3t-15.5 1q-8 1 -15 0h-8q-4 0 -7 -1q-29 -4 -53.5 -19.5t-44.5 -37.5t-34.5 -46.5
t-25.5 -48.5q-11 -23 -19.5 -45.5t-15.5 -42.5q3 1 5.5 1.5t6.5 1.5q-13 -22 -22.5 -51.5t-15.5 -63.5q-5 -34 -6.5 -70.5t3.5 -72.5q3 -17 8 -34.5t15 -34.5q1 -3 5 -7l4 -7q6 -8 9 -11q10 -13 19 -21q9 -9 18 -15t16 -10l15 -6q-5 2 -12 5.5t-15 10.5q-18 12 -36 33
q-5 5 -8.5 11t-8.5 12q-5 8 -8.5 15.5t-6.5 15.5q-10 31 -13 66q-2 34 0.5 67.5t7.5 64.5q12 63 35 104q7 2 14.5 2.5t15.5 -1.5q13 -1 24 -9q9 -8 11 -17q3 -9 -5 -25q-8 -18 -17.5 -53t-12.5 -83q-2 -25 1 -48q2 -26 9 -45l3 -9q2 -2 2 -3l4 -6q4 -5 7.5 -10t8.5 -9
q17 -18 34 -23zM108 305q6 16 12 27l6 10q-5 -5 -11 -15t-11 -22t-9 -25.5t-6 -25.5l-3.5 -21t-1.5 -14q-1 -5 0 -3.5t3 11.5q5 19 10 40t11 38zM444 216q9 27 12 48l-3 -12q-2 -6 -4.5 -14.5t-5.5 -18.5q-8 -20 -20 -44t-28 -50q-17 -26 -35 -49t-37 -41q-18 -18 -33.5 -29
t-23.5 -16t-3 -3q2 1 6.5 3t11.5 6q13 8 31.5 23t38.5 38q41 47 70 104q15 29 23 55z" />
    <glyph glyph-name="P" unicode="P" horiz-adv-x="646" 
d="M566 461q8 -15 14.5 -30.5t11.5 -32.5t8 -35t1 -38q-1 -10 -2.5 -20t-5.5 -20q-4 -11 -9.5 -20t-12.5 -17q-14 -17 -30 -27t-31 -16q-16 -6 -30 -9.5t-28 -5.5h-3q1 -1 1 -1.5t1 -1.5q13 -24 25 -49t20 -51q8 -25 12.5 -50.5t3.5 -48.5q0 -17 -2.5 -32.5t-6.5 -27.5
q3 -2 3 -1q0 -2 -1 -5q-1 -2 -2 -5.5t-2 -7.5q-1 1 -2 1.5t-2 1.5q0 -1 -0.5 -1.5t-0.5 -1.5q2 -2 4 -2q-3 -11 -8.5 -23t-12.5 -22t-14 -15t-13 0q-14 10 -43.5 28t-71.5 34q-22 8 -45.5 14.5t-49.5 10.5q-26 5 -53 7t-54 3q-28 1 -55.5 0.5t-53.5 0.5t-50 2t-46 5
q-21 4 -38 9t-29 10q-6 2 -10.5 4.5t-7.5 4.5l-6 3v3q0 5 1 8q21 -8 46 -13q-26 8 -45 19q2 12 8 23.5t15 7.5q11 -5 25 -9.5t32 -6.5q40 -5 87 -2q25 1 51.5 2.5t54.5 3.5q29 2 58 2t58 -2t56.5 -6.5t53.5 -11.5q22 -5 41.5 -12t36.5 -15q2 13 2.5 30t-3.5 37t-12 43
t-19 47q-5 14 -11.5 27.5t-14.5 27.5q-11 0 -22 0.5t-21 1.5q-18 1 -33.5 2t-27.5 2l-51 3q-1 2 -3 5q-2 2 -4 5t-4 8q17 -1 40.5 -3t51.5 -4q16 -2 32.5 -3t33.5 -1q0 2 -2 4l-38 2t-36 3q-25 2 -46.5 3t-37.5 2q-6 11 -11.5 24t-7.5 25q0 13 7 19q10 8 30 7
q19 -1 44.5 -3.5t56.5 -5.5l-21 45q-11 24 -19.5 46.5t-13.5 42.5q-12 41 -13.5 66.5t-2.5 25.5q1 0 3 1q4 2 7 4q4 -24 12 -45q-4 22 -6 47q12 5 24.5 5.5t13.5 -9.5q2 -12 5 -27t9 -33q12 -36 35 -79q11 -23 25 -46t28 -48q9 1 17.5 1t16.5 1q11 2 22 3.5t21 4.5
q2 1 4.5 2t4.5 2q6 2 8 4q7 3 12 9q9 9 10 28q2 20 -6 46t-21.5 52t-30.5 51q-5 6 -9 12t-9 11l-9 12q-3 2 -5.5 5t-5.5 6q-21 20 -46 40q-24 18 -51 33t-56 26t-57.5 16t-56.5 3q-57 -3 -98 -35q-11 -8 -19.5 -16.5t-16.5 -19.5t-14.5 -21t-11.5 -21q-11 -23 -16.5 -45
t-7.5 -43t0 -40.5t6 -36.5t9 -31.5t10 -25.5q11 -23 19 -34t7 -11q-1 -2 -1 -4t-0.5 -4.5t-0.5 -4.5q-17 19 -30.5 41t-23.5 46q9 -26 22 -49.5t30 -44.5q-2 -8 -4.5 -14.5t-7.5 -9.5q-11 -9 -27 13q-11 14 -21.5 31t-19.5 38q-9 20 -16 44.5t-10 51.5q-4 27 -2 56.5
t11 59.5q7 30 23 60q8 14 17 28t20 28q11 13 24 25t29 22q15 11 32 18.5t35 12.5q36 10 73.5 10t72.5 -8t68.5 -21.5t64.5 -30.5q31 -18 59 -39.5t52 -47.5q13 -13 23.5 -26.5t21.5 -27.5q10 -14 18.5 -28.5t16.5 -29.5zM-25 527q2 8 5 15t5 12q3 6 5 11q-5 -8 -10 -18.5
t-9 -21.5q-8 -23 -11 -41q-2 -9 -2 -15.5v-10.5q0 -7 3 5q2 13 5.5 30t8.5 34zM279 382q6 -8 8 -11t3 -4q-3 8 -7.5 17.5t-9.5 17.5q-8 18 -7 8q2 -6 5.5 -13.5t7.5 -14.5zM-29 -41q5 0 13 2q3 1 6 1h-40q-9 -1 -12.5 -1t2.5 -2q13 -3 31 0zM316 -53q7 -2 -5 3.5t-32 10.5
q-21 5 -44.5 8t-39.5 1q8 -1 17 -2q8 -1 17.5 -2.5t20.5 -3.5q21 -4 40 -9t26 -6zM483 490q14 -20 25.5 -42.5t19.5 -42.5t10.5 -35.5t3.5 -23.5q1 -6 2 -3v6t-1 10q-1 13 -6 32.5t-16 42.5q-22 47 -56 89q-17 20 -35 35.5t-32 26.5l8 -7t21 -19.5t28 -30t28 -38.5zM260 235
q20 -1 30 -0.5t-7 2.5t-34.5 3t-33.5 2q-8 0 -14 -0.5t-11 -0.5h-9q11 -2 35 -3t44 -3zM413 140q9 -20 15.5 -38.5t9.5 -24.5q2 -6 0 6t-9 32q-7 19 -16.5 38.5t-18.5 32.5h-1q3 -6 8.5 -18.5t11.5 -27.5zM469 -101l-2 -4l2 -2l2 4zM454 -66q1 -1 2 -1t2 -1q0 2 0.5 2.5
t0.5 1.5q-2 2 -3 2q-1 -1 -1 -2t-1 -2zM413 -41q-21 10 -34 14q-8 3 -14 5q5 -3 17.5 -8.5t29.5 -13.5q1 1 1 3zM471 -107l7 -3.5t6 -3.5t6 -3q-2 3 -8 8q-3 0 -11 2zM482 -82q0 1 0.5 1.5t0.5 2.5q-1 0 -3 2l-2 -4zM497 -11q0 29 -3 45q-2 10 -4 18q0 -6 2.5 -25.5
t0.5 -45.5q-1 -20 -8 -41q1 -1 2 -1.5t2 -1.5q8 27 8 52zM536 236l11 8q-4 -2 -9.5 -6t-13.5 -8q-18 -10 -39 -14q-23 -7 -46 -8l2 -4q36 4 63 15q5 2 9.5 4t8.5 4q5 2 8 4.5t6 4.5z" />
    <glyph glyph-name="Q" unicode="Q" horiz-adv-x="516" 
d="M372 516q32 -42 56.5 -88.5t37.5 -98.5q14 -51 9 -106q-1 -26 -9 -52q-3 -13 -7.5 -25t-9.5 -23q-20 -44 -48 -78q4 -5 8 -9.5t8 -9.5q29 -32 42 -51t14 -18v-19q-19 26 -39.5 49t-43.5 45l-1 -1q46 -48 84 -102q-1 -9 -3.5 -17t-7.5 -10q-5 -3 -13 1.5t-20 21.5
q-14 18 -31 38t-37 41q-8 -8 -16.5 -14.5t-17.5 -11.5q-19 -13 -39 -23t-40 -16q-11 -4 -21 -6.5t-20 -4.5q-11 -2 -21 -3t-19 -1q-20 -2 -39 0l-20 2t-21 5q-11 3 -22 8.5t-21 13.5q-19 16 -29 38q-5 10 -7.5 19t-4.5 18q-3 16 -3 30q-1 14 -0.5 25.5t1.5 22.5l2 35l2 16
t3 16l1 4l1 4q2 6 3 8q2 4 3 7t2 5t2 3.5t2 3.5l2 2l2 1l8 4q10 5 25 5q-21 -11 -30 -36q-2 -3 -2.5 -6.5t-2.5 -6.5q-1 -3 -1 -6t-1 -5q-1 -5 -1.5 -10t-0.5 -10l-3 -39q-1 -11 -1.5 -21.5t0.5 -22.5t3 -24.5t7 -26.5q5 -16 15 -27q10 -12 24 -22q14 -8 27.5 -11.5
t26.5 -5.5q23 -3 48 -1t45 6q22 4 42 12q19 7 35 15.5t29 17.5q11 7 18.5 13t13.5 11q0 1 -1 1q-10 -8 -24 -17.5t-32 -19.5q-15 -8 -32.5 -15t-37.5 -12q-10 -2 -20.5 -4t-21.5 -3t-21.5 -1.5t-21.5 0.5q-25 0 -47 7q-12 4 -25 12q-12 8 -22 19q-9 12 -14 24.5t-7 24.5
t-2.5 22.5t-0.5 21.5t0.5 20.5t1.5 18.5q0 9 0.5 18t1.5 18q1 5 1.5 9.5t1.5 9.5q3 10 8 22q5 11 13 18t16 12q22 -3 33 -17q5 -6 7 -13t1 -12q0 -6 -2 -10.5t-3 -8.5v-6v-2h1v-2l-1 -3q0 -2 -0.5 -4t-0.5 -4q-1 -4 -1 -9t-1 -11l-2 -25q-1 -11 -1 -23t2 -22q0 -9 4 -17
q1 -3 5 -7q2 -1 5.5 -2.5t8.5 -2.5q10 -3 26 -3h16h8q3 1 8 1q15 1 32 6q46 11 86 42q-9 8 -18.5 15.5t-19.5 15.5q-58 46 -127.5 94t-144.5 105q-19 15 -38 32t-36 40q-8 11 -15.5 24.5t-12.5 27.5q-11 30 -9 61q2 33 10 58q2 7 4.5 13.5t5.5 13.5q2 7 6 13q2 4 3 6.5
t3 6.5q14 25 33 47q21 24 47 40q27 16 59 24q33 6 63 2q31 -4 58.5 -15.5t51.5 -26.5q6 -5 11.5 -8.5t11.5 -8.5l10 -7l10 -9q11 -8 20.5 -17t19.5 -18q20 -18 37 -37.5t34 -40.5zM81 199l6 2t5 1h4q-5 1 -11 0t-13 -5q-14 -8 -20 -27q-3 -9 -4 -17.5t-2 -17.5l-2 -33
q-1 -17 -0.5 -29t1.5 -18q2 -6 2 -4v15t1 26t2 27t1.5 27t4.5 24q2 6 4.5 10.5t5.5 8.5q7 7 15 10zM184 214q25 -17 35.5 -24t-5.5 6q-17 14 -41.5 30.5t-47.5 31.5l-55 37q25 -20 57 -42t57 -39zM117 279q33 -26 64.5 -49t60.5 -45q26 -20 50 -39.5t45 -38.5q20 26 33 55
q2 5 4 9.5t4 9.5l3 9l3 9q4 19 6 39q2 41 -9.5 83.5t-34.5 83.5q-45 83 -119 149q-5 4 -9 8t-9 8l-10 7l-9 8q-9 8 -18.5 14t-19.5 11q-20 10 -39.5 15.5t-39.5 3.5q-39 -1 -69 -30q-8 -8 -14.5 -15.5t-12.5 -16.5t-11 -19q-2 -2 -2.5 -4.5t-2.5 -4.5q-1 -2 -1.5 -5t-2.5 -5
q-17 -42 -11 -77q4 -17 14 -33.5t24 -31.5t31 -28.5t34 -27.5t34 -27t34 -25zM422 242q1 16 0 33t-5 36q-8 37 -25 75.5t-40 71.5q-23 34 -47.5 61t-45.5 45q5 -6 12 -12q5 -6 13 -13.5t17 -18.5q17 -21 38 -50t38 -64q18 -33 29 -71q10 -36 12 -69t-3 -57.5t-9 -35.5
q-2 -6 -2.5 -7t1.5 1q2 3 4.5 9t4.5 16q7 21 8 50z" />
    <glyph glyph-name="R" unicode="R" horiz-adv-x="1028" 
d="M1103 97q5 -3 3 -12.5t-13 -26.5q-15 -23 -33 -48t-43 -52q-13 -13 -27.5 -26t-33.5 -25q-9 -6 -20 -11.5t-24 -8.5q-7 -2 -14 -3t-15 0q-15 0 -32 7q-4 2 -7 4t-7 4l-9 6q-5 4 -9.5 7.5t-9.5 7.5q-9 8 -17 15t-16 15q-17 15 -32.5 30.5t-32.5 30.5t-34 29.5t-34 25.5
q-2 0 -3 1q-5 0 -10.5 0.5t-10.5 1.5q-17 2 -34 8t-33 18h-1q-11 8 -12.5 20.5t6.5 23.5q6 9 17 12q23 6 47 1q11 -2 20.5 -5.5t18.5 -7.5q1 -1 2 -1t2 -1q20 0 43 5q31 5 59 17q15 6 26 14l6 3l2 2q1 0 1 0.5t1 0.5l4 4q3 3 4 5q17 19 24.5 47t8.5 60q0 16 -1 32t-4 33
q-2 16 -6 32l-2 8v1l-1 3l-6 15q-24 62 -65 109q-21 24 -44 40q-4 2 -12 8q-8 4 -11 6q-6 2 -11.5 4t-10.5 3q-19 3 -36 -7q-9 -5 -18.5 -13.5t-17.5 -19.5q-17 -21 -29.5 -47t-22.5 -52q-11 -27 -18.5 -54t-12.5 -53q-2 -7 -3 -13.5t-2 -12.5l-2 -13q-1 -3 -1 -6t-1 -6
q-2 -12 -2 -24v-23q1 -47 9.5 -86.5t22.5 -69.5t28.5 -50.5t26.5 -31.5q12 -13 20 -17q4 -4 7 -5q0 -3 1 -7q1 -3 1 -7t2 -9q-11 7 -21.5 15t-21.5 19t-21.5 25t-20.5 30q-18 32 -29.5 70.5t-16.5 76.5q-2 20 -2.5 38t0.5 35q1 8 1.5 15.5t1.5 15.5l1 7l1 8l3 13q5 26 9 41
t3 15q-3 -9 -8.5 -29.5t-10.5 -49.5q-5 -27 -5 -61.5t6 -71.5t18.5 -72.5t31.5 -64.5q9 -14 19 -26t21 -22q11 -11 21.5 -18t19.5 -12q2 -5 2.5 -11t1.5 -12q2 -2 3 -2t2 -1t2 -1v-5q0 -4 -2 -14l-2 2q0 -3 -1 -4q1 0 1.5 -0.5t1.5 -0.5q-2 -12 -6 -25t-10 -23
q-7 -10 -15 -14t-18 2q-11 7 -28 16t-43 19q-25 10 -56 19t-69 18q-37 8 -77.5 17t-84.5 20q-23 5 -45 12t-45 16q-22 9 -44.5 21.5t-42.5 30.5q-10 9 -18.5 19t-15.5 22q-15 24 -21 49q-6 26 -5.5 50t3.5 46q4 22 9.5 41.5t12.5 37.5t13.5 34t13.5 31q14 29 27 51.5
t22 38.5q5 8 9 14t6 10q3 4 5 8h3q2 0 4 0.5t5 0.5q-8 -17 -15 -32.5t-15 -32.5q9 17 18 32.5t19 31.5q13 -1 24.5 -6.5t2.5 -20.5q-10 -19 -22 -42.5t-25 -52.5t-25 -62t-20 -68q-4 -18 -5 -35.5t1 -34.5q3 -32 23 -57q22 -25 56 -40q17 -8 35.5 -14t38.5 -11
q39 -10 78.5 -17t77.5 -14q64 -11 115 -24q-2 2 -3.5 4.5t-3.5 4.5q-20 34 -35 76t-22 91q-4 24 -5.5 50t0.5 53q0 7 0.5 13.5t1.5 14.5l2 14t2 13l12 54q7 28 16 55t20 56q12 28 26.5 55.5t35.5 54.5q11 14 24 26.5t30 23.5t37 17q11 4 21.5 5t21.5 1q23 -1 42 -7.5
t36 -16.5q15 -9 29 -20t27 -23q26 -25 45.5 -53t34.5 -59q14 -28 27 -62l3 -10v-3l1 -2l1 -5q1 -4 1.5 -8t1.5 -8q2 -8 3 -16.5t2 -17.5q5 -33 4 -67.5t-10 -69.5q-8 -36 -29 -68q-5 -8 -11 -15t-14 -14l-3.5 -3.5l-3.5 -3.5q-2 -1 -2.5 -1.5t-2.5 -1.5l-4 -3q-7 -5 -16 -10
q-28 -15 -62 -25q-4 -1 -7.5 -2t-7.5 -2q17 -16 33 -31.5t30 -29.5l20.5 -20.5t19.5 -18.5q5 -5 9 -8.5t9 -7.5q3 -3 9 -7l6 -4l2 -2q4 -2 12 -4q10 0 15 2q8 2 16 6t16 9q16 11 29 23t24 24q21 24 36 42q7 9 12 16t9 12t7 10q2 1 5 2q6 2 11 4q-10 -17 -21 -33l-22 -32
q-24 -32 -51 -60q30 28 55 61q13 17 25 33.5t23 33.5q8 2 16.5 3t12.5 -3zM12 308q-2 -6 -2.5 -11.5t-1.5 -9.5t-1 -8q4 14 9 30t10 29q4 13 5.5 18.5t-3.5 -2.5t-9 -21t-7 -25zM330 -39q11 -2 -8.5 3.5t-52.5 13.5q-17 5 -34.5 9t-34.5 9q-18 4 -33.5 8t-27.5 8q3 -1 7 -3
q3 -2 7.5 -3.5l10.5 -3.5q12 -4 27 -8.5t32 -9.5q34 -8 65 -14.5t42 -8.5zM483 -28q-18 5 -33.5 9t-27.5 6q-14 3 -25 5q8 -3 33 -9t57 -16q-2 1 -4 5zM611 -116q-1 2 -7 6q-2 0 -3 -1zM497 39q-7 10 4 -10q6 -11 14 -21.5t16 -20.5q11 -13 25 -23q3 -2 6.5 -3t6.5 -3
q-13 10 -24.5 22t-21.5 23q-9 12 -15.5 21.5t-10.5 14.5zM757 588q30 -28 50.5 -58.5t34.5 -54.5q-2 2 -9 16.5t-21 36.5q-8 11 -17.5 24t-22.5 27q-13 13 -28 25t-32 23q-16 10 -39 16q-23 5 -43 2q-20 -4 -40 -14q-17 -10 -30 -23q-14 -13 -23 -25.5t-16 -23.5
q-8 -11 -12.5 -20t-6.5 -15q-3 -5 -3.5 -6.5t1.5 0.5q2 3 5.5 9t8.5 15t12.5 20t18.5 24q11 12 25 24.5t33 20.5q17 8 40 10q21 0 43 -8q11 -4 20 -9t18 -11q8 -5 16.5 -11.5t16.5 -13.5zM798 -1q22 -20 31.5 -27t-4.5 7t-35.5 34t-42.5 38q-8 6 -15 11.5t-13 10.5h-3
q22 -18 43.5 -38t38.5 -36z" />
    <glyph glyph-name="T" unicode="T" horiz-adv-x="592" 
d="M937 711q17 5 34.5 11t34.5 11q9 -10 13.5 -22t-11.5 -17q-20 -7 -44.5 -16t-53.5 -21q-29 -11 -62.5 -25t-68.5 -30q-63 -28 -132 -59t-140 -60q-2 -21 -3.5 -48t-3.5 -58q-3 -51 -3 -109t6 -115q4 -29 8.5 -55.5t11.5 -51.5t14.5 -47t15.5 -40q17 -37 30.5 -57
t12.5 -20q0 -1 -1 -3t-2 -3t-2 -3q-8 8 -16 16.5t-16 17.5q7 -10 13.5 -20t14.5 -20q-7 -10 -16.5 -18.5t-17.5 1.5q-10 11 -21.5 27t-23.5 36q-11 20 -22.5 44t-21.5 51q-20 54 -32 114q-6 29 -10 59.5t-6 59.5q-5 60 -5.5 112.5t1.5 92.5q-24 -8 -47.5 -16t-46.5 -14
q-37 -11 -71 -18.5t-64 -12.5q-60 -10 -95 -12q-20 -2 -36 -1q-2 2 -3 5q-2 2 -2.5 5t-2.5 7q12 -1 28 -0.5t34 2.5q40 3 75 9q18 3 34 6t28 6q14 3 26 6q-9 -1 -37 -6t-63 -10t-70 -7.5t-57 -3.5q-5 11 -8.5 24t-4 25t4 20t17.5 8q14 0 34.5 0.5t47.5 3.5q27 2 59 7t68 13
q35 8 73.5 18.5t78.5 24.5q40 13 80.5 28t81.5 30l154 62q37 14 71 26.5t63 22.5q29 11 53 18.5t41 12.5q20 6 36 10q1 -1 3 -2t3 -2.5t3 -3.5q-16 -6 -32 -12.5t-32 -13.5zM86 417q14 2 20 3.5t-5 1.5t-22.5 -1t-21.5 -2q-11 -2 -23 -3q8 -2 23 -1.5t29 2.5zM529 -10
q-2 3 -3.5 6t-3.5 5q-2 3 -3 5q2 -9 6.5 -18.5t9.5 -17.5t7.5 -10.5t0.5 3.5q-2 5 -6 12.5t-8 14.5zM430 506q2 0 2.5 0.5t1.5 0.5v5q-1 0 -1.5 -0.5t-2.5 -0.5v-5zM458 516q1 1 2 1t2 1v3q-1 0 -2 -0.5t-2 -0.5v-4zM314 475q-10 -3 9.5 0.5t51.5 12.5q18 6 39 12v6
q-32 -11 -61 -19t-39 -12zM426 385q2 6 3 25t2 43q-1 0 -1.5 -0.5t-2.5 -0.5v-7q-1 -13 -1 -23.5v-18.5v-18zM469 231q0 8 -0.5 18.5t0.5 21.5q0 23 0.5 44t-0.5 29t-2.5 -5.5t-2.5 -36.5t0 -48t5 -41v18zM786 660q12 5 27.5 11.5t27 12t16.5 8.5t-4 1t-20 -8t-22 -11
q-12 -7 -25 -14z" />
    <glyph glyph-name="U" unicode="U" horiz-adv-x="960" 
d="M981 91q10 -6 19.5 -14.5t4.5 -14.5q-5 -7 -12.5 -15t-16.5 -18q-10 -9 -22 -19.5t-28 -20.5q-5 -2 -9 -4.5t-9 -4.5q-3 -2 -11 -4q-1 -1 -2 -1t-3 -1q-2 0 -3.5 -0.5t-3.5 -0.5q-14 -3 -29 -1.5t-28 9.5q-2 2 -4 2.5t-4 2.5q-4 -13 -8.5 -25.5t-10.5 -24.5
q-8 -15 -17 -29t-22 -28q-11 -13 -29 -24q-9 -6 -17 -10q-7 -4 -19 -7q-10 -3 -20 -5t-21 -1q-21 0 -43 8q-20 8 -35 19t-28 25q-24 27 -39 57q-17 32 -26 63q-2 8 -4 16.5t-4 17.5q-1 5 -1 10l-1 8l-1 15q-3 32 -3.5 63t0.5 63q2 63 9.5 124.5t21.5 121.5q-14 -17 -29 -34
t-29 -33q-54 -58 -107 -104t-107 -76q-27 -15 -53 -26t-51 -17q-24 -6 -46 -8t-40 0q-19 2 -32.5 5.5t-22.5 6.5q-5 2 -8.5 3t-5.5 2q-3 1 -4 2q-2 2 -4 5q-2 2 -4 4.5t-4 6.5q42 -19 87 -21q44 -1 87 13q-22 -6 -44.5 -9t-45.5 -1q-48 5 -88 27q-4 8 -5 16.5t3 12.5
q3 4 12 4q10 -2 26 -9q14 -5 29 -8.5t32 -3.5q34 -1 74 11q39 12 80 37t82 60q80 70 157 166q20 23 38.5 48.5t36.5 51.5l18 26t18 27q8 14 17 27t17 27t23 18t29 -4t18 -23t-4 -29v-1q-16 -27 -28 -57.5t-23 -62.5q-10 -32 -18 -65t-13 -67q-24 -136 -18 -271q2 -17 3 -33
t3 -32v-2v-1l1 -3q0 -2 0.5 -3t0.5 -3q2 -4 2.5 -7.5t1.5 -6.5q2 -7 5 -14t5 -13q12 -28 29 -49q18 -23 34 -30q9 -5 16 -5t15 2l9 3q2 2 4 2q2 1 4 3q8 5 15 13t13 18t11 21q5 12 8.5 24t7.5 25q6 26 9 51.5t5 51.5q1 17 1.5 32.5t0.5 30.5q-1 9 -1.5 16t-0.5 12v11h1
q-2 45 -6 84t-10 70l-1 4q0 4 -1 5l-1 8l-3 15q-2 14 -6 26q-3 13 -6 23.5t-5 18.5q-3 8 -5 15t-4 12l-3 9q1 3 3 7q2 3 3.5 7t3.5 9q9 -26 20 -61.5t18 -76.5l1 -11l3 -11l3 -21q2 -11 3 -22l2 -22q4 -42 6 -85h1v-10v-27q0 -5 0.5 -8.5t0.5 -7.5q0 -8 0.5 -15t1.5 -12
q1 16 1 33v34q-1 5 -1 8v6v12t-1 12q-1 20 -2.5 41t-4.5 42q-2 10 -3 20t-3 20l-2 10q-1 3 -1 6t-1 5q-1 5 -1.5 9.5t-1.5 9.5q-8 38 -18.5 70t-18.5 56q6 14 14.5 28t19.5 19q10 5 22 -3t23 -40q7 -20 14.5 -46.5t15.5 -60.5l3 -18l1 -9l2 -8l3 -18q1 -5 1.5 -9.5t1.5 -9.5
l4 -40t4 -42q1 -14 1.5 -27.5t0.5 -27.5q3 -2 3 -4q0 -11 -1 -33.5t-1 -50.5q1 -14 1.5 -29t2.5 -30q1 -13 5 -27q2 -6 4 -10l1 -4q1 -1 1 -2q3 -5 8 -6h2h1h1h1q4 0 10 2q11 4 22 10.5t20 12.5q9 7 16 12.5t12 10.5q6 5 11 9q1 -1 3 -2l3 -1.5t3 -2.5q-4 -5 -7.5 -11
t-7.5 -11q5 5 10 9.5t10 9.5zM402 348q9 11 17 20.5t14 17.5q7 9 13 16q-11 -13 -23.5 -27t-26.5 -28q-28 -30 -52 -52l-33 -32q-5 -4 -3 -3.5t11 7.5q18 14 40.5 36t42.5 45zM728 -113q6 5 7 6.5t-2 -0.5t-9.5 -7.5t-17.5 -10.5q-9 -4 -26 -9q-8 -2 -16.5 -2.5t-17.5 1.5
q-17 1 -37 13q-17 9 -32 26q-14 15 -26 34t-21 39q-9 22 -15 43q-2 5 -3 10.5t-2 10.5q0 2 -0.5 3t-0.5 3l-1 6l-1 10q-4 44 -5 83t-1 68q-1 -8 -1 -18q-1 -8 -1 -20.5v-26.5q0 -31 3 -68l1 -19l1 -10v-5q0 -1 0.5 -2.5t0.5 -2.5q3 -20 11 -41q7 -20 16 -40t22 -37
q12 -17 27.5 -32t35.5 -23q18 -9 38 -9q9 -1 17.5 1t15.5 4q8 2 14 5t11 6t9 6t6 5zM770 457q5 -16 7 -28.5t4 -18.5q2 -5 2 -3.5t-2 15.5q-4 26 -12 54t-16 51q-5 11 -8.5 20.5t-6.5 16.5q-4 8 -6 15q3 -9 7.5 -23.5t10 -31t11 -34t9.5 -33.5zM755 29q2 8 5.5 23t6.5 37
q0 4 -1 7q0 -5 -1 -8l-3.5 -24.5t-3.5 -18.5q-2 -9 -3 -16zM917 48l-3 -3t-2 -3t-2 -3q4 2 9 6t8 8t4 6t-2 1q-7 -3 -12 -12z" />
    <glyph glyph-name="V" unicode="V" horiz-adv-x="426" 
d="M720 530q-20 -14 -42.5 -27t-46.5 -27q-25 -13 -52 -25t-56 -23q-15 -5 -31 -9t-33 -6q-33 -6 -70 -3q-18 2 -36 6t-35 10q-1 1 -2 1l4 -15l4 -15q1 -2 1.5 -4l1.5 -6l1 -8q7 -32 11 -62.5t8 -62.5q3 -31 5 -61.5t2 -61.5q0 -32 -3 -63q-2 -17 -6 -33.5t-12 -34.5
q-5 -10 -11.5 -20t-17.5 -19q-13 -10 -27 -14q-2 -1 -4 -1t-4 -1h-4l-2 -1h-3h-3h-7q-15 0 -26 4q-10 2 -21 10q-10 5 -17.5 11.5t-13.5 12.5q-12 13 -20.5 25.5t-16.5 25.5q-14 24 -25 49l-10 23q-3 5 -5.5 10t-4.5 10q-2 3 -3 6.5t-3 6.5l-4 11q-3 5 -5.5 11t-4.5 11
q-8 23 -15.5 44t-13.5 42q-12 42 -19.5 78t-11.5 67q-5 31 -6.5 54.5t-2.5 40.5q-1 8 -1.5 14t-0.5 11v9l5 5q2 2 4.5 5.5t6.5 8.5q1 -27 3 -63.5t7 -78.5t14.5 -85t22.5 -83q7 -20 13.5 -39t14.5 -36q3 -9 6.5 -17t7.5 -16q3 -7 6 -13.5t6 -12.5q11 -26 19 -41t8 -14
q-2 5 -5.5 12t-8.5 18l-21 48q-13 28 -26 63t-24 74t-18.5 79.5t-12.5 78.5t-6.5 71t-2.5 57q11 11 24 20.5t24 10.5q12 2 20 -9t9 -40q1 -35 5 -88t19 -119q8 -34 18.5 -69.5t26.5 -73.5l4 -9l1 -4l2 -4q3 -6 5.5 -11.5t4.5 -10.5q5 -10 8.5 -19.5t8.5 -19.5q10 -21 19 -37
q5 -8 11 -15.5t11 -13.5q5 -5 9 -7l4 -2q0 1 0.5 1.5t0.5 1.5q3 5 6 13.5t5 19.5t3 22t2 23q1 24 0.5 48.5t-2.5 50.5t-4 51t-6 51q-2 13 -4 25.5t-4 25.5l-1 6v1l-1 4l-3 12l-7 26q-5 19 -10.5 37.5t-12.5 37.5q-2 2 -4 3l-6 6t-7 6q-29 24 -52 57q-11 16 -20 34t-15 38
t-8.5 41.5t1.5 44.5q3 16 16 25.5t29 6.5q14 -3 24 -14q22 -26 39.5 -55t31.5 -58q13 -25 19.5 -52.5t23.5 -49.5q11 -15 29 -22t34 -13q17 -6 33.5 -8.5t33.5 -3.5q34 0 66 9q32 8 62 20t57 26t50.5 27.5t44.5 26.5q20 13 38 24.5t32 21.5t25 17.5t19 12.5q9 6 15 11h5h13
q-31 -24 -62.5 -47.5t-63.5 -46.5q35 23 68.5 46t66.5 48q9 -1 17 -3t10.5 -7t-2 -13t-20.5 -20q-27 -21 -61 -46t-76 -51zM48 453q4 -31 7 -44.5t0 10.5q-2 25 -4.5 51.5t-4.5 49.5l-3 52q-1 -9 -1 -23t1 -30.5t2 -33.5t3 -32zM302 118q2 37 0 78t-7 80q-3 20 -5.5 39
t-6.5 36q-2 8 -3.5 16.5t-3.5 15.5q-2 8 -4 14.5t-4 13.5l4 -16l4 -18q1 -5 2 -11l2 -12q5 -27 9 -61.5t6 -72.5t2.5 -76t-4.5 -70q-2 -16 -5.5 -29t-8.5 -23q-4 -8 -9 -13t-9 -6q-3 -1 -4.5 -1t1.5 0q2 0 6.5 1t9.5 6q13 13 19 42q7 28 9 67zM552 496q5 2 3.5 2t-10.5 -3
q-19 -7 -45 -16t-51 -14t-42.5 -4.5t-17.5 -0.5q14 -2 31 -1.5t34 3.5t32.5 8t29.5 10q13 5 22.5 9.5t13.5 6.5z" />
    <glyph glyph-name="W" unicode="W" horiz-adv-x="895" 
d="M848 131q2 -5 2.5 -9t2.5 -9q1 -5 2 -11t0 -14q0 -5 -1 -9l-1 -2q0 -3 -1 -4q0 -2 -1 -4l-1 -1v-1q-1 -1 -1 -2q-1 -1 -1 -2t-0.5 -1.5t-0.5 -1.5q-3 -3 -4 -5l-2 -2l-2 -2q-6 -6 -12 -8q-5 -2 -8 -3.5t-6 -2.5q-8 -2 -9 -2q-8 -1 -13 -3l-3 -1q-1 0 -1 -1q-1 0 -1 -1
l-6 -4l-11 -9l-22 -17q-6 -5 -11.5 -9t-10.5 -8l-10 -9l-15 -13q-10 -9 -19.5 -18t-19.5 -20q-10 -10 -20 -22.5t-21 -29.5l-21 9q-4 1 -7 2t-5 1q-2 1 -3.5 1t-3.5 1h-3h-1q0 2 -7 8q-5 3 -11.5 7l-19.5 12q0 1 0.5 1.5t0.5 1.5l1 3l2 5l2 6t2 5l2 9q2 6 2 9q2 8 3 15.5
t2 14.5v9q-21 -8 -46.5 -19.5t-54.5 -28.5q-4 -1 -10 -5v-4q-2 -13 -3.5 -26.5t-3.5 -27.5t-5.5 -28t-8.5 -30q-2 -4 -3.5 -7.5t-3.5 -7.5l-2 -4l-2 -4l-3 -4q-1 -2 -1.5 -2.5t-1.5 -2.5q-15 -21 -35 -30q-11 -5 -22.5 -7t-22.5 -1q-14 2 -22 4q-5 2 -9 3.5t-8 3.5
q-13 6 -21 19q-4 8 -7 16.5t-5 17.5q-2 8 -2.5 17.5t1.5 17.5q2 17 7.5 31.5t12.5 25.5q8 12 15.5 21.5t15.5 17.5q15 17 32 29q8 7 15.5 13t15.5 11l2 6q3 13 5.5 25.5t4.5 26.5q5 26 8 53t5 54q5 62 6 125t0 127q-10 -21 -20 -41t-21 -40q-17 -29 -36 -55.5t-42 -49.5
q-22 -23 -47.5 -40t-52.5 -26q-14 -5 -27.5 -7.5t-26.5 -2.5q-27 -2 -48 3q-23 5 -40 12t-31 15q-14 7 -23.5 13t-15.5 11q-4 2 -6 4l-4 4t-3 2q0 2 -1 5q-2 6 -3 11q14 -11 29 -20t32 -17q16 -8 33.5 -13.5t34.5 -8.5q-36 8 -70 26q-32 18 -60 42q-2 8 -1 15.5t6 11.5
q4 4 11.5 2.5t21.5 -11.5q11 -8 22.5 -15.5t25.5 -13.5q14 -7 28.5 -12t30.5 -7q32 -4 66 8q32 12 64 42q30 29 55.5 69.5t46.5 87.5q10 23 19.5 47.5t17.5 50.5q5 13 8.5 25.5t7.5 25.5q2 7 3.5 13.5t3.5 13.5q2 6 3 13t3 12q4 16 17 25t29 5q14 -3 22.5 -13.5t8.5 -23.5
v-1q1 -112 6.5 -229t-1.5 -233q-2 -25 -4.5 -49t-5.5 -48q20 10 37 16.5t29 11.5q9 4 15 5.5t10 3.5q-3 44 -6 74q-3 35 -4.5 55t-0.5 20q1 1 4 3q2 2 5 4t7 4q0 -28 4 -69t6 -82q0 -4 0.5 -7t0.5 -6l4 -2q0 5 -0.5 10t-0.5 10q-2 41 -6 81.5t-5 66.5q11 6 24 11t24 6
q12 1 19.5 -4.5t8.5 -21.5l2.5 -42.5l3.5 -59.5q3 -33 3 -75v-22v-5v-2v-1v-1l-1 -3q-1 -2 -1.5 -5t-2.5 -7h1l1 1q2 2 4 3l4 3l2 2h1v1h1l1 1l4 3q14 11 28.5 21.5t28.5 21.5l14 11l9 6q5 4 13 7q2 1 3.5 1.5t3.5 1.5l4 1l3 1q2 0 3.5 0.5t3.5 0.5q-2 5 -3 9.5t-3 9.5
q-23 68 -37 133t-22 124q-9 58 -13.5 106.5t-7.5 83.5l-6 74l3 3q2 2 3.5 3t3.5 3l14 -86l-9 90q6 4 12 7.5t11.5 3.5t9.5 -4t6 -15q4 -28 8.5 -64.5t10.5 -80.5t14.5 -92.5t19.5 -99.5q6 -26 13.5 -52t15.5 -52q2 -7 4 -13.5t4 -13.5l3 -6l1 -3l1 -3q0 -2 1 -2q0 -2 1 -5
l2 -6q7 -16 11 -29zM719 408q2 -8 3 -14t3 -11t3 -10q-3 17 -6.5 37.5t-6.5 36t-5 22.5t-2 -4q1 -11 4 -27t7 -30zM572 48q1 0 2 0.5t2 0.5v3q-2 0 -2.5 -0.5t-1.5 -0.5v-3zM587 264q-2 -10 -0.5 -29.5t3.5 -36t3.5 -24.5t1.5 6t-1 28.5t-3 26.5zM575 80l-4 -2v-3q2 1 4 1v4
zM556 74q-21 -8 -45 -17.5t-50 -21.5q0 -2 -0.5 -3t-0.5 -2q26 13 50.5 22.5t45.5 17.5v4zM394 -7q4 2 6 4l2 5l-6 -3zM414 97q-2 -16 -5 -32.5t-6 -32.5l-3 -12q2 1 3.5 1.5t3.5 2.5q12 59 17 122q3 35 3.5 66.5t-0.5 54.5q0 -25 -2 -52q-2 -24 -4 -54.5t-7 -63.5zM313 287
q13 21 20.5 36.5t7.5 14.5q-7 -11 -15.5 -24.5t-17.5 -27.5t-19 -26t-19 -22q-19 -21 -27 -27q-6 -7 7 3q8 6 16.5 14t16.5 18q17 21 30 41zM323 -233q4 -1 9 -1h4q-4 0 -9 0.5t-10 1.5q-10 2 -23 9h-1q-8 4 -12 12q-5 10 -9 23.5t-2 29.5q1 16 7 31t15 28q8 14 19 25t23 22
q7 6 13.5 11.5t13.5 10.5q1 2 1 6q-9 -7 -17.5 -13.5t-16.5 -14.5q-25 -23 -42 -49q-18 -29 -19 -60q0 -17 4 -28q3 -13 9 -22v-1q4 -8 14 -13q10 -4 15 -5q7 -3 14 -3zM379 -113q-2 -9 -0.5 -6.5t3.5 13.5q0 -1 -2 -3q0 -1 -0.5 -2t-0.5 -2zM473 8q-5 -3 -3 -2.5t12 4.5
q18 8 38 16.5t37 15.5v4q-25 -9 -49 -20q-12 -5 -21 -10t-14 -8zM567 -44q2 6 2.5 11.5t1.5 10.5t1.5 9t0.5 9l-2 -1q-1 -6 -1 -12t-2 -11q0 -3 -0.5 -5.5t-0.5 -5.5l-2 -9q-1 -2 -1.5 -5t-1.5 -5l-2 -4v-2l-1 -2l3 -3l-2 4q1 2 1 3t1 2l1 6l2 5q1 2 1 3t1 2zM683 11
q13 11 24.5 20t19.5 17l-9 -6q-5 -3 -10.5 -8t-12.5 -10q-17 -12 -29.5 -22.5t-25.5 -22.5l-13.5 -13.5t-11.5 -12.5q-3 -4 -5.5 -7t-4.5 -6l-4 -6l-1 -2l1 2q3 7 3 10q2 4 -0.5 -1.5t-7.5 -17.5l-2 -4l2 2l4 5q2 3 4.5 6t5.5 6q12 15 29 31q5 5 10.5 10t10.5 10l11 9z" />
    <glyph glyph-name="X" unicode="X" horiz-adv-x="563" 
d="M590 108q11 -5 20 -14.5t1 -17.5q-16 -18 -40 -62l-13 -22q-2 -3 -3.5 -6l-3.5 -7l-4 -6l-2 -4l-3 -4q-7 -10 -15.5 -18.5t-19.5 -14.5q-23 -12 -47 -4q-12 3 -23 11q-6 3 -11 8q-4 3 -9 8l-7 7l-6 6q-3 3 -6 6.5t-6 6.5q-11 13 -21.5 26t-20.5 27q-11 14 -20 27.5
t-19 27.5l-18 28l-4 6l-2 3q-1 1 -1 1.5t-1 1.5l-2 4l-8 13q-7 14 -17 29q-29 -51 -55.5 -96.5t-47.5 -81.5q-14 -22 -24.5 -39.5t-18.5 -29.5q-9 -15 -16 -26q-2 0 -5 1q-3 0 -13 2q12 17 29.5 45t34.5 56q8 14 15.5 26t12.5 21q6 11 11 20q-5 -6 -18 -27t-30 -47
t-32.5 -51.5t-25.5 -42.5q-11 3 -24 7t-23 10t-14 13.5t2 17.5q14 22 42 64.5t64 99.5q20 32 42 67t45 72q-14 23 -26.5 44.5t-22.5 41.5q-11 20 -19 37t-13 30q-6 14 -11 26q1 1 4 3q2 2 4.5 4t5.5 5q3 -9 7.5 -21t10.5 -25q11 -26 25 -53q6 -13 12 -23.5t11 -18.5
q5 -10 10 -18q-2 7 -12 26.5t-22 43.5t-22.5 49t-16.5 42q9 7 20.5 14t22.5 11t19.5 3t11.5 -10q3 -10 8.5 -24.5t14.5 -33.5q6 -15 14 -31.5t18 -35.5q5 7 9 14t9 14q41 66 79.5 126t68.5 106q15 23 27 41.5t21 31.5q11 15 19 27h3q2 0 4 -0.5t5 -0.5l-28 -55l34 54
q13 -2 24 -7.5t3 -19.5q-18 -32 -47 -82t-63 -110l-125 -220l29 -52l15 -30l7 -12l8 -15q9 -14 17.5 -28.5t16.5 -28.5q9 -14 17.5 -27t17.5 -25q5 -7 9.5 -13t9.5 -11t9.5 -10.5t4.5 -6.5q4 -5 9 -6q4 -1 10 3q1 1 2 1.5t2 1.5l2 2l1 1l1 2q4 5 7 9.5t6 9.5q6 10 12 19.5
t12 17.5q5 8 10.5 15.5t10.5 12.5q5 6 8.5 10t6.5 7l6 6q1 -1 3 -1q2 -1 4 -1t4 -1q-10 -11 -17 -23l-14 -24q8 12 17 23t20 21zM168 425q5 -10 8 -13.5t0 4.5q-2 8 -6 16t-7 15q-4 6 -6 11q-1 3 -2 5q1 -6 4.5 -17.5t8.5 -20.5zM50 -88q5 8 9 18q4 8 9 17t11 17t4 3
t-7.5 -15.5t-13 -22.5t-12.5 -17zM429 588q-5 -6 -9.5 -16t-9.5 -20q-5 -11 -10 -23q6 10 13.5 23t12.5 23t6.5 14.5t-3.5 -1.5zM170 139q-3 -6 1.5 -0.5t13.5 18.5t20.5 30.5t22.5 36.5q-1 1 -3 5q-17 -27 -33.5 -53.5t-21.5 -36.5zM332 149q2 -2 3 -4t3 -4l-3 5l-3 6l-2 2
l-2 4q-4 8 -9 19t-11 23q-5 8 -9 16t-9 16l-3 -5q6 -11 12.5 -23t13.5 -24q3 -6 6.5 -11.5t6.5 -10.5l3 -5q0 -1 3 -4zM485 -21q7 2 12 10q3 3 5 6t4 8q5 9 6 13t-3 -1q-2 -3 -4.5 -6.5t-4.5 -7.5q0 -1 -1 -2l-2 -3q0 -3 -2 -5q-2 -4 -7 -9z" />
    <glyph glyph-name="Y" unicode="Y" horiz-adv-x="884" 
d="M907 91q10 -6 19.5 -14.5t4.5 -14.5q-5 -7 -12.5 -15t-16.5 -18q-10 -9 -21.5 -19.5t-28.5 -20.5q-8 -5 -18 -9q-2 -2 -5 -2.5t-5 -1.5t-3 -1t-3 -1q-2 0 -3.5 -0.5t-3.5 -0.5q-14 -3 -29 -1.5t-28 9.5q-13 7 -24 20q-1 1 -2 2.5t-2 2.5q-2 2 -4 6q-2 2 -2.5 4t-2.5 4
q-12 -24 -27 -48q-12 -17 -26.5 -33.5t-31.5 -30.5q-32 -29 -75 -48q-39 -19 -84 -28q-21 -4 -41.5 -6.5t-41.5 -4.5q-43 -3 -86 0t-86 15q-21 6 -41.5 15t-39.5 21t-35.5 27.5t-30.5 32.5t-23.5 35.5t-17.5 38.5q-8 17 -13 39q-2 9 -4 18.5t-4 19.5q-7 38 -7.5 74t2.5 70
q2 35 8 65.5t13 59.5q15 57 33.5 100t34.5 73q8 14 14 25.5t11 19.5q5 9 10 15q1 0 4 1q6 2 11 3q-17 -28 -30.5 -57t-25.5 -59q14 31 29.5 60.5t34.5 57.5q8 2 15 1.5t12 -4.5t4 -11t-9 -21q-18 -32 -38 -74.5t-37 -96.5q-8 -27 -14.5 -56t-10.5 -60q-9 -63 -3 -130
q2 -17 4.5 -33t6.5 -33q5 -17 10 -32t13 -29q15 -29 38.5 -51t53.5 -36t64.5 -20.5t69.5 -6.5q18 0 36 1.5t36 3.5q18 1 36 6q19 3 34 7q67 18 111 62q17 17 30 36t24 40l-16 -4t-17 -4q-8 -1 -16.5 -1.5t-17.5 0.5q-18 0 -39 9q-10 4 -19 11t-17 15q-3 5 -6.5 9t-5.5 9
q-4 6 -5 9q-1 2 -2 5t-2 5l-1 3l-3 6q-2 8 -2 10q-3 10 -3 18q-3 18 -3 34q-2 32 -2 63.5t1 61.5q2 61 5.5 115.5t5.5 96.5l3 65l1 23q2 0 5 1q2 1 5 1.5t7 2.5l-10 -158q2 6 4.5 26t4.5 45q2 24 3.5 48.5t0.5 38.5q11 3 24.5 5.5t24.5 3.5t19.5 -3t7.5 -15q-1 -22 -5 -64
t-10 -96q-3 -27 -6 -56.5t-6 -59.5q-3 -31 -5 -62t-3 -61q-1 -8 -1 -15v-14q1 -8 1 -14.5t1 -12.5q0 -3 0.5 -5.5t0.5 -3.5l1 -2v-2l1 -1v-1q1 -1 1 -2t1 -2q3 -10 9 -14q3 -5 12 -8q4 -2 8 -2.5t9 -1.5q10 -1 20 0.5t20 3.5q11 3 22 6.5t20 6.5q5 17 8 35t5 35q4 28 5 55
t1 52q-1 51 -5 91t-8 69q-2 14 -3.5 25.5t-3.5 19.5l-3 15q2 2 4 5q4 6 10 12q4 -20 8 -48t8 -60t6 -65t2 -65v-33.5t-2 -31.5h2v-15q2 22 3.5 47.5t0.5 52.5q-1 31 -3.5 62.5t-6.5 60.5q-3 29 -7.5 54t-8.5 44q9 10 20.5 19.5t22.5 13.5q11 3 20.5 -4t14.5 -32
q5 -27 10.5 -68.5t8.5 -95.5q2 -27 2.5 -57t-1.5 -62q-1 -5 -1 -8.5v-8.5q4 -2 4 -5q0 -11 -1 -33.5t0 -50.5q0 -14 0.5 -29t2.5 -30q1 -13 5 -27q1 -3 2 -5.5t2 -4.5l2 -4q0 -2 1 -2q1 -4 7 -6h2h2h1q4 0 10 2q11 4 22 10.5t20 12.5q9 7 16 12.5t12 10.5q6 5 11 9
q1 -1 3 -2l3 -1.5t3 -2.5q-4 -5 -7.5 -11t-7.5 -11q5 5 10 9.5t10 9.5zM521 624q1 -8 2 -17q1 -8 1 -16t-2 -16q-1 -8 -2 -3t-1 14.5t0.5 20.5t1.5 17zM524 415q0 8 -2.5 -6t-5.5 -37.5t-5 -50t0 -43.5l6 61q3 24 5 46t2 30zM606 98q8 2 11 4.5t-2 1.5q-6 -1 -14 -2.5
t-15 -3.5q-10 -2 -13 -2q-3 -1 -5 -1q8 -2 19 -0.5t19 3.5zM26 299q4 24 5 34.5t-4 -6.5q-4 -16 -7 -39.5t-4 -45.5q-1 -11 -0.5 -20.5t0.5 -17.5q0 -9 1 -16q0 27 3 57q2 14 3 28.5t3 25.5zM685 154q-1 -2 -1 -4v-1q0 3 1 4v1zM697 562q2 -14 6.5 -42t8.5 -52t6.5 -35
t0.5 9t-5 41t-7 39q-2 8 -3.5 16t-3.5 13q-2 6 -3 11zM693 37q4 10 1.5 5t-10.5 -19q-9 -15 -23.5 -36.5t-37.5 -42.5q-11 -11 -24.5 -21t-27.5 -19q-14 -8 -29.5 -15t-30.5 -13q-32 -11 -60 -15q-27 -6 -50 -9q6 0 13 1q6 1 15 2t20 3q22 3 50 10.5t57 21.5q14 8 27.5 16.5
t26.5 18.5q12 11 22.5 21.5t19.5 21.5q17 22 27 40.5t14 28.5zM745 90q2 -10 4 -19t6 -14l-2 10l-2 10t-1 12q-1 5 -1 14q-2 -3 -2.5 -6.5t-1.5 -6.5zM843 48l-3 -3t-2 -3t-2 -3q4 2 9 6t8 8t4 6t-2 1q-7 -3 -12 -12z" />
    <glyph glyph-name="Z" unicode="Z" horiz-adv-x="700" 
d="M677 715q33 10 62.5 12.5t51.5 2.5q9 -11 16 -24.5t7 -25.5q0 -13 -9 -19q-5 -3 -12.5 -5t-19.5 -2q-26 -1 -64.5 -7.5t-80.5 -34.5q-41 -27 -83 -79q-20 -26 -38 -56t-36 -64q-17 -34 -34.5 -71t-35.5 -75q-18 -39 -38 -78.5t-43 -79.5q-9 -17 -19 -32.5t-21 -31.5
q4 1 7.5 1t6.5 1q10 1 19 1.5t18 0.5q5 0 9 0.5t9 0.5h8h2h5q21 1 38 -2l34 -6q16 -4 31 -7.5t29 -6.5q26 -6 52 -9q24 -3 39 2q1 0 5 2l5 2q2 1 4.5 2t4.5 2q5 2 9 5t8 5q16 11 28.5 23t22.5 23q11 11 18.5 19.5t12.5 14.5q6 7 11 12q2 0 5 1q2 1 4.5 1t6.5 1
q-10 -14 -20 -26.5t-21 -25.5t-22 -25t-23 -23q14 11 25.5 23t23.5 25q11 13 22.5 26t22.5 27q8 0 16 -1t12 -5t2 -12t-12 -21q-10 -11 -20.5 -24t-23.5 -27q-6 -7 -13 -14l-15 -15q-16 -16 -36 -29q-5 -3 -10.5 -6.5t-11.5 -5.5q-3 -2 -11 -6l-5 -2q-2 -1 -4 -1.5t-4 -1.5
q-16 -5 -30 -6t-28 0q-27 2 -51.5 7t-49.5 10q-13 2 -25 4l-24 4q-6 1 -11.5 1.5t-10.5 0.5q-2 0 -3 -0.5t-2 -0.5h-3h-3h-6h-3l-6 -1q-26 -1 -52 -4t-52 -10q-9 -2 -18 -4.5t-18 -6.5q-17 -17 -35 -32t-38 -29q-39 -27 -84 -44l-1 -1q-14 -5 -27 0.5t-18 19.5q-8 19 5 34
l12 15h1q26 29 57 51t64 36q2 1 3.5 1.5t3.5 1.5q5 6 10.5 11.5t10.5 11.5q31 38 56 79.5t47 85.5t41.5 88t39 87t39 84t42.5 78q24 38 48 68q-48 -14 -96.5 -31.5t-92.5 -39.5q-25 -12 -47 -25.5t-40 -28.5q-36 -30 -51 -57q-8 -14 -12 -25t-6 -19q-1 -5 -1.5 -8t-0.5 -5
v-4l-17 -4q1 7 2 16t4 19q7 22 18 39q11 18 22.5 29.5t10.5 11.5q-5 -2 -17 -14.5t-23 -30.5q-5 -9 -9.5 -18.5t-6.5 -19.5q-2 -9 -3 -17.5t-1 -14.5q-11 -2 -24 -4.5t-25 -3.5q-11 -1 -19 3.5t-7 16.5t5 31.5t15 42.5t28.5 45.5t40.5 42.5t50 36t56 30q58 27 119 45
q60 18 116 29.5t99 19.5l8 1q20 14 39.5 23t37.5 15q26 9 48 12.5t36 5.5q8 1 13.5 1.5t9.5 0.5h8l5 -5l5 -5t6 -7q-23 1 -56 -2.5t-70 -15.5q-16 -5 -37 -15l17 3q19 8 35 12zM98 388q2 9 2 13.5t-3 -2.5q-3 -8 -4 -16t-1 -15v-11q0 -3 1 -5q2 5 2.5 16t2.5 20zM565 682
q-7 -1 -15 -4l-16 -6q-9 -4 -19 -8q10 2 22 5.5t20 6.5q2 2 4 3t4 3zM221 551q20 11 44 22.5t39 19.5q-8 -3 -18 -7q-8 -3 -18 -7t-21 -9t-21.5 -10.5t-19.5 -11.5q-19 -11 -25 -17q-6 -5 6.5 2t33.5 18zM356 34h5h8q7 1 16 0q8 0 15.5 -1t15.5 -2q16 -2 30.5 -5t26.5 -5
q24 -5 34.5 -5.5t-6.5 3.5q-16 4 -40.5 9t-47.5 7q-12 1 -23 1.5t-19 -0.5q-2 0 -3.5 -0.5t-3.5 -0.5t-3 -0.5t-2 -0.5h-3zM417 369q4 9 1 4.5t-11 -19.5q-8 -16 -19.5 -39.5t-25.5 -52.5t-29.5 -60.5t-31.5 -61.5q-17 -29 -33 -55t-29 -46q5 5 9 11q4 5 9 13t12 18
q13 19 28.5 45t30.5 55t29 58t26 55t20.5 45.5t13.5 29.5zM468 550q10 15 22.5 30.5t26.5 32.5q-2 -1 -3 -1t-3 -1q-19 -21 -32.5 -41t-24.5 -36q-7 -11 -11.5 -19t-7.5 -14q-4 -7 -7 -12q5 7 15 23t25 38zM763 703q9 1 17 1.5t14 0.5h13q-8 1 -20 1.5t-26 -0.5
q-29 0 -56 -8q-8 -2 -15.5 -4.5l-13.5 -4.5l2 -2q20 6 42.5 10t42.5 6z" />
    <glyph glyph-name="a" unicode="a" horiz-adv-x="357" 
d="M374 183q10 -5 18.5 -13t4.5 -13q-5 -5 -11.5 -13t-17.5 -17q-8 -9 -18.5 -18.5t-26.5 -17.5q-8 -6 -15 -9q-3 -1 -11 -3q-2 -1 -2.5 -1t-2.5 -1q-1 0 -2 -0.5t-3 -0.5q-14 -4 -28 -1.5t-25 8.5q-6 3 -11 8t-11 10l-1 1l-5 -5q-10 -11 -21.5 -21.5t-26.5 -18.5
q-8 -4 -16.5 -7.5t-16.5 -5.5q-20 -4 -42 -1l-10 2t-10 3q-1 1 -2.5 1t-3.5 2q-2 1 -2.5 1.5t-2.5 1.5q-5 1 -10 6l-4 4l-4 4t-4 5.5t-4 5.5q-2 4 -4.5 8.5t-5.5 9.5q-8 18 -11 34t-4 31q-2 33 7 63q3 14 12 33q3 3 4 8q1 1 1.5 2t1.5 2q3 1 3 3q2 3 5 6.5t5 6.5
q11 14 25 22t25 13q14 5 25.5 8.5t20.5 5.5q23 4 40 4.5t28 0.5q6 -1 11 -1h8h6q0 -1 1 -4q0 -2 2 -12q-16 3 -42 3t-52 -5q-25 -5 -42 -12q-5 -2 -8 -3.5t-5 -3.5q-3 -2 -4 -3q7 6 25 11q19 6 44 9q18 2 35.5 3t31.5 0q16 1 27 0t11 -6v-19.5t-1 -27.5q10 2 14 2
q12 0 12 -12q-1 -17 -5 -36t-13 -42q0 -2 -3 -5q1 -4 2 -7.5t2 -8.5q1 -6 3 -9l1 -3q1 -1 1 -2q2 -6 7 -6q1 0 2 -1h1h1h1q2 1 4.5 1t5.5 2q22 10 36 20q8 6 15 11t12 10t9 10q0 -1 2 -2q1 -1 2.5 -2t3.5 -3q-3 -5 -6 -9.5t-6 -9.5q4 4 8.5 7.5t9.5 8.5zM75 244q3 4 -5 -2
q-3 -4 -8 -11t-8 -16q-4 -10 -5.5 -21t-2.5 -21q0 -24 5 -38q-1 2 -1 5q-1 3 -1 12q0 6 1 15.5t2 20.5q3 22 11 37q2 3 3.5 6.5t3.5 5.5l2 4t3 3zM150 129q19 16 33 33q-5 15 -6.5 29.5t-3.5 27.5q-1 9 -1.5 18t-1.5 16q-15 -1 -31 -4t-29 -11q-8 -3 -13 -8l-3 -3t-3 -2
q0 -3 -2 -5q-4 -7 -6 -17.5t-4 -22.5q-3 -20 0 -44q1 -8 5 -15q0 -1 0.5 -2.5t0.5 -2.5q1 0 1 -1q0 -2 2 -2q6 -3 13 -4t16 1q8 2 16.5 7.5t16.5 11.5zM186 255q-2 0 -3 -2q0 -4 0.5 -6.5t0.5 -4.5q0 -3 1 -5q0 2 0.5 6.5t0.5 11.5zM184 142q1 1 1.5 2.5t1.5 2.5v2zM209 297
q0 2 1 2.5t1 2.5h-5q1 -2 1 -5h2zM309 135q4 3 8.5 6.5t7.5 7t4 5.5t-2 1q-4 -1 -7 -4t-5 -6z" />
    <glyph glyph-name="q" unicode="q" horiz-adv-x="359" 
d="M371 183q10 -5 19 -13t5 -13q-11 -10 -28 -30q-8 -9 -19 -18.5t-26 -17.5q-10 -7 -16 -9t-11 -3q-1 -1 -2.5 -1t-2.5 -1q-2 0 -3.5 -0.5t-3.5 -0.5q-17 -5 -33 1q-2 -33 -2.5 -66t-1.5 -66q-2 -58 -4.5 -111t-7.5 -94q-2 -20 -3.5 -36t-3.5 -28q-2 -14 -3 -25l-9 -3
q0 11 -0.5 23t-0.5 23q-1 -12 -1.5 -24t-2.5 -23q-11 -2 -23.5 -1.5t-11.5 10.5q2 27 2.5 68.5t-0.5 92.5q0 51 -0.5 107.5t-2.5 110.5l-1 33q-7 -7 -18 -11q-6 -4 -15 -7.5t-18 -5.5q-18 -4 -41 -1l-10 2t-10 3q-4 1 -5 3q-4 2 -5 3q-7 2 -11 6l-4 4t-5 4q-2 2 -3.5 5.5
t-3.5 5.5q-8 6 -11 18q-7 18 -9.5 34t-3.5 31q0 31 6 63q3 16 10 33q2 4 5 8q2 1 2.5 2t2.5 2q0 1 2 3q6 8 11 13q11 14 24 22t25 13q13 5 24.5 8.5t22.5 5.5q22 4 38.5 4.5t27.5 0.5q6 -1 10.5 -1h7.5h7q1 -1 2 -4q1 -5 3 -12q-16 3 -42 3t-51 -5q-13 -2 -24.5 -5t-19.5 -7
q-9 -3 -13 -6.5t-5 -3.5q6 5 27 11q10 3 20 5t23 4q36 5 67 3q5 0 9.5 0.5t9.5 0.5q1 0 1.5 -0.5t2.5 -0.5q6 0 11 -1.5t5 -4.5q2 -2 2 -6v-40q3 1 10 1q5 0 8.5 -2.5t3.5 -9.5q0 -17 -5 -36t-13 -42q-2 -4 -3 -5q1 -4 1.5 -7.5t1.5 -8.5q2 -3 2.5 -5t1.5 -4l2 -3q0 -1 1 -2
q2 -6 6 -6q0 -1 1 -1h2h1h1q2 1 4 1t4 2q12 5 21.5 10t17.5 10q18 12 27 21q5 5 9 10l2 -2q3 -3 6 -5q-4 -5 -7 -9.5t-6 -9.5q5 4 9 7.5t8 8.5zM149 129l10.5 10.5t10.5 11.5l-2 75v14.5t-1 11.5v1q-14 -1 -30 -4t-30 -11q-5 -3 -12 -8q-2 -3 -5 -5q-2 -4 -3 -5
q-8 -14 -11 -40q-1 -10 -1 -21.5t2 -22.5t4 -15q1 -1 1 -2.5t2 -2.5v-1l2 -2q6 -3 13 -4t16 1q8 2 17 7.5t17 11.5zM183 237q1 2 1 18h-3v-9l1.5 -3t0.5 -3v-3z" />
    <glyph glyph-name="i" unicode="i" horiz-adv-x="180" 
d="M205 154q9 -5 17.5 -13t3.5 -13t-11 -13t-14 -17q-10 -9 -21 -18.5t-25 -17.5q-10 -7 -18 -9l-9 -3q-1 -1 -2 -1t-2 -1q-2 0 -4 -0.5t-4 -0.5q-12 -4 -25.5 -1.5t-25.5 8.5q-7 3 -11.5 8t-9.5 10q-5 3 -6 6q-1 1 -1.5 2t-1.5 2q-4 6 -5 11q-5 8 -8.5 17t-6.5 17
q-5 17 -7 33t-4 30q-4 28 -6 50q-1 11 -1 19v14v13q1 0 4 1q3 0 11 2v-22t1 -26q0 -8 0.5 -13.5t0.5 -10.5t1 -9q1 4 1 14v22t-0.5 25t-0.5 20q10 1 22 3t22.5 2t18 -1.5t7.5 -5.5q0 -10 -1 -31t0 -47v-26t2 -27q1 -7 2 -13l2 -12q2 -7 6 -9l1 -3q0 -1 1 -2q2 -6 6 -6l2 -1
h1h2q2 1 4 1t5 2l20 10t18 10q18 13 26 21q5 5 9 10q1 -1 3 -2t3.5 -2t3.5 -3q-5 -5 -8.5 -9.5t-6.5 -9.5q5 4 9.5 7.5t9.5 8.5zM41 268q1 5 0.5 8.5t-1.5 7.5t-3 8q-1 -3 -1 -8.5t0.5 -10.5t2 -7t2.5 2zM55 168q0 -12 3 -25t8 -19q-1 0 -2.5 8.5t-3.5 19.5q-1 13 -1.5 24
t-1.5 14q-1 5 -1.5 -2.5t-0.5 -19.5zM140 106q4 3 8.5 6.5t7.5 7t3.5 5.5t-2.5 1q-5 -2 -11 -10q-2 -2 -3 -3.5t-2 -3.5t-1 -3zM4 328q-6 5 -11 15q-5 7 -8 17l-6 20q-3 13 -2 28q0 5 1 10t5 10q2 4 3.5 7.5t5.5 5.5q2 3 6 5.5t8 5.5q4 2 7.5 3t8.5 2h12q3 -1 6 -1t5 -2
q1 0 2 -0.5t3 -0.5q2 -1 3 -1h1h-1h1l3 -2q2 0 3.5 -1t3.5 -2q2 -2 4.5 -3.5t5.5 -3.5q4 -5 7 -9t5 -7q9 -17 12 -31q3 -11 1 -30q-1 -5 -2 -9t-3 -8q-2 -2 -3 -5t-3 -5q0 -1 -2 -3l-2 -2v-1l-2 -2q-5 -5 -14 -11q-8 -8 -18 -10q-11 -2 -17.5 -2t-11.5 1t-8 1.5t-5 1.5l-7 1
zM48 399q-2 6 -7 8v-1q0 -2 2 -4l3 -9q1 -7 0.5 -11.5t-0.5 -6.5q1 -2 3 1t2 9q1 7 -3 14zM29 326q-3 -3 -4 -3q2 -1 5 -1h7t10 1q10 3 15 7q3 2 5.5 3.5t4.5 3.5l1 1l1 1l1 2q2 2 2 4l2 2l-5 -5q-2 -2 -1.5 -1.5t-2.5 -2.5l-3 -3q-3 -2 -11 -6q-3 -1 -7.5 -2t-9.5 -1
q-5 -2 -10 0z" />
    <glyph glyph-name="d" unicode="d" horiz-adv-x="355" 
d="M374 183q9 -5 17.5 -13t4.5 -13q-5 -5 -12 -13t-16 -17q-8 -9 -19 -18.5t-26 -17.5q-8 -6 -15 -9l-12 -3q-1 -1 -2 -1t-2 -1q-2 0 -3 -0.5t-3 -0.5q-13 -4 -27 -1.5t-26 8.5q-6 3 -11 8l-10 10q-1 0 -1 1q-2 -2 -2.5 -3t-2.5 -2q-18 -23 -48 -40q-7 -4 -16.5 -7.5
t-17.5 -5.5q-9 -2 -20.5 -2.5t-20.5 1.5q-8 1 -19 5q-5 2 -5 3q-5 1 -6 3q-7 1 -12 6l-4 4l-4 4t-3.5 5.5t-3.5 5.5q-8 9 -10 18q-8 18 -11 34t-3 31q-2 16 0 31.5t6 31.5q2 8 4.5 16t6.5 17q1 2 2 3.5l3 4.5q1 1 1.5 2t1.5 2q0 1 2 3q3 3 5.5 6.5t5.5 6.5q12 14 25 22
t24 13q14 5 25.5 8.5t21.5 5.5q13 2 23 3t18 1q1 29 2 60t3 61q2 42 5.5 79.5t7.5 66.5q3 31 6 46q2 10 3 18q1 1 3 1q4 0 7 1q1 -9 1 -17.5t1 -17.5q1 9 1.5 17.5t1.5 17.5q11 2 22.5 0.5t10.5 -9.5q-1 -20 -1.5 -49.5t-0.5 -64.5q0 -36 0.5 -75t2.5 -77l7 -126h6
q11 0 11 -12q0 -32 -17 -78q-1 -2 -4 -5q1 -4 2 -7.5t2 -8.5q4 -8 5 -9l1 -3q0 -1 1 -2q2 -6 6 -6l2 -1h1h1q2 1 5 1t5 2q9 5 19 10t18 10q8 6 15 11t12 10l10 10l2 -2l5 -5q-6 -11 -13 -19q5 4 9.5 7.5t9.5 8.5zM94 309q-7 -3 -11 -7q-3 -2 -4 -3q5 5 27 11q16 6 42 9
q8 2 15 2t14 1v4q-9 0 -18.5 -1.5t-20.5 -3.5q-24 -5 -44 -12zM74 244q2 2 0.5 1.5t-5.5 -3.5q-3 -4 -7 -11t-8 -16q-8 -21 -8 -42q-1 -11 0.5 -20.5t3.5 -17.5q-1 2 -1 5v12q-1 6 0 15.5t4 20.5q3 22 11 37q3 6 5 12q2 2 3 4t2 3zM151 129q9 8 16.5 16.5t14.5 16.5
q-4 15 -6 29.5t-4 27.5q-1 9 -1.5 18t-1.5 16q-14 -1 -30 -4t-29 -11q-3 -2 -7 -3.5t-8 -4.5q-1 -2 -4 -5q-2 -4 -3 -5q-7 -16 -10 -40q-1 -10 -1 -21.5t2 -22.5t4 -15q1 -1 1 -2.5t1 -2.5v-1q2 -2 3 -2q5 -3 12.5 -4t15.5 1t16.5 7.5t18.5 11.5zM183 142q1 1 2 2.5t2 2.5
q0 1 -1 2zM201 600q-2 -5 -1.5 -11.5t1.5 -11.5q1 -7 3 -13q1 6 1 14t-1 14l-1.5 9t-1.5 -1zM204 326h2h-2zM208 340q1 17 1.5 40t-2.5 37l-2 -28q-1 -12 -1.5 -25.5t-0.5 -23.5h5zM310 135q7 5 14.5 13.5t0.5 6.5q-2 -1 -5 -4t-5 -6t-4 -7q-1 -2 -1 -3z" />
    <glyph glyph-name="c" unicode="c" horiz-adv-x="305" 
d="M321 181q11 -4 21 -9.5t1 -16.5q-17 -24 -53 -53q-17 -14 -38 -26.5t-47 -23.5q-15 -5 -29 -8.5t-31 -5.5q-15 -2 -32 -1.5t-35 5.5q-4 2 -8 3t-9 3q-2 1 -3.5 2l-4.5 3q-3 1 -11 5q-2 2 -4.5 4t-4.5 5q-4 6 -8 10q-3 5 -5.5 9t-4.5 8q-8 18 -11 35q-3 16 -3 32
q-1 29 5 64q2 8 4.5 15.5t6.5 16.5q1 2 5 8q0 2 2 4l3 4q3 3 5.5 6.5t4.5 5.5q12 14 25.5 22.5t25.5 13.5q13 5 24.5 8.5t22.5 5.5q22 4 38.5 4.5t30.5 0.5q5 -1 9 -1h7h6q1 -1 2 -4q1 -5 3 -12q-16 3 -42 3t-52 -5q-12 -2 -23.5 -5t-19.5 -7q-5 -2 -8.5 -3.5t-5.5 -3.5
q-3 -2 -4 -3q3 1 9.5 4.5t16.5 6.5q20 6 43 9q24 5 48 4t38 -2q2 -9 3.5 -22t-0.5 -23q-2 -11 -5.5 -18t-10.5 -6q-8 1 -20 2t-28 -1q-14 -1 -31.5 -4t-31.5 -11q-7 -3 -11 -9q-3 -2 -6 -6l-1 -1q-1 -1 -1 -1.5t-2 -1.5q-3 -6 -5.5 -16.5t-3.5 -22.5q-3 -20 0 -44
q2 -10 5 -15q0 -1 0.5 -2.5t0.5 -2.5l1 -1q0 -1 1 -1l1 -1l2 -1q8 -4 18 -7t19 -3q11 -1 22 0t22 4q22 5 40 14t35 17q15 11 27 19t20 16q4 3 7 5.5t5 4.5t3 4q1 -1 3 -1q2 -1 3.5 -1t3.5 -1q-5 -8 -12 -16.5t-15 -15.5q10 6 17.5 14t14.5 16z" />
    <glyph glyph-name="b" unicode="b" horiz-adv-x="364" 
d="M381 183q4 -3 8.5 -6.5t8 -7t5 -7t-0.5 -5.5q-5 -5 -11.5 -13t-14.5 -17q-11 -9 -21 -18.5t-24 -17.5q-4 -3 -9 -5l-10 -4q-2 -1 -8 -3q-2 -1 -3 -1t-3 -1q-2 0 -3 -0.5t-3 -0.5q-14 -4 -27.5 -1.5t-24.5 8.5q-7 3 -12 8l-10 10l-1 1q-2 -2 -2.5 -3t-2.5 -2
q-10 -11 -21.5 -21.5t-26.5 -18.5q-8 -4 -16.5 -7.5t-17.5 -5.5q-19 -4 -41 -1l-10 2t-10 3q-1 1 -2 1t-3 2q-2 1 -2.5 1.5t-2.5 1.5q-5 2 -11 6q-2 2 -4.5 4t-4.5 4t-3.5 5.5t-3.5 5.5q-5 6 -10 18q-8 18 -10 34t-4 31v46q0 26 -4 46.5t-3 50.5q1 35 2.5 75t4.5 80
q2 42 5 79.5t8 66.5q3 31 6 46q2 10 3 18q1 1 3 1q3 0 6 1q0 -9 0.5 -17.5t0.5 -17.5q1 9 2 17.5t3 17.5q11 2 22.5 0.5t11.5 -9.5q-1 -20 -2 -49.5t-1 -64.5q0 -36 1 -75t3 -77l4 -82l12 6q12 5 24 8.5t22 5.5q23 4 40 4.5t28 0.5q6 -1 10.5 -1h7.5h6q1 -1 2 -4q1 -5 3 -12
q-17 3 -42.5 3t-50.5 -5q-13 -2 -24.5 -5t-18.5 -7q-5 -2 -8.5 -3.5t-5.5 -3.5q-3 -2 -4 -3q3 2 10 5t15 6q11 3 21 5t23 4q37 5 68 3q15 1 26.5 0t11.5 -6q0 -7 -0.5 -19.5t-0.5 -27.5q8 2 12 2q5 0 9.5 -2.5t4.5 -9.5q0 -17 -6 -36t-14 -42q-1 -2 -1 -3t-1 -2
q1 -4 1.5 -7.5t1.5 -8.5q1 -6 3 -9l2 -3q1 -1 1 -2q2 -6 7 -6q2 0 2 -0.5t1 -0.5h2h1q2 1 4.5 1t4.5 2q9 5 18.5 10t19.5 10q8 6 14 11t11 10t9 10q1 -1 3 -2t3.5 -2l4.5 -3q-5 -5 -8.5 -9.5t-8.5 -9.5q13 8 21 16zM27 600q-2 -5 -1.5 -11.5t1.5 -11.5q1 -7 3 -13q1 6 1 14
t-0.5 14t-1.5 9t-2 -1zM30 327q1 -5 2 4.5t2 24.5t1 32.5t-2 28.5q-2 -23 -3 -41q-1 -16 -1.5 -30t1.5 -19zM59 188q1 2 1 4t1 4q-2 0 -2.5 -0.5t-2.5 -0.5q-1 -5 -1.5 -11t-0.5 -11q0 -23 4 -38q-1 2 -1 5v12v15.5t2 20.5zM69 225q1 2 1.5 4t2.5 4q-1 2 -1 5q-1 -1 -3 -5
v-8zM156 129q11 8 18.5 16.5t15.5 16.5q-5 15 -7 29.5t-4 27.5q-3 18 -3 34q-16 -1 -31.5 -4t-29.5 -11q-8 -4 -11 -8q-2 -2 -2.5 -3t-2.5 -2q0 -3 -5 -5q-3 -7 -5.5 -17.5t-3.5 -22.5q-5 -20 0 -44q1 -8 5 -15q0 -4 1 -5l1 -1q0 -2 2 -2q7 -3 13.5 -4t16.5 1q8 2 16 7.5
t16 11.5zM193 255q-2 0 -3 -2q0 -4 0.5 -6.5t0.5 -4.5v-5q2 4 2 18zM190 142q2 1 2.5 2.5t1.5 2.5v2zM216 302h-3q0 -2 0.5 -2.5t0.5 -2.5h2v5zM314 135q11 5 17.5 13.5t1.5 6.5q-2 -1 -5.5 -4t-8.5 -6q-2 -3 -4 -7q-1 -2 -1 -3z" />
    <glyph glyph-name="e" unicode="e" horiz-adv-x="301" 
d="M342 172q9 -8 0 -20q-14 -16 -31.5 -32t-43.5 -33q-11 -8 -24.5 -15.5t-28.5 -14.5q-32 -14 -71 -18q-18 -2 -41 0q-11 2 -21 4.5t-21 7.5l-3 1.5t-3 0.5q-2 1 -3.5 2t-3.5 2l-3 2l-2 2q-2 1 -3.5 2.5l-2.5 2.5q-3 3 -5 7t-4 6q-5 5 -6 11q-8 11 -11.5 22.5t-5.5 20.5
q-3 22 -3 43.5t5 42.5q3 20 18 44l2 4q1 1 1 1.5t1 1.5l3 4q2 2 3 4.5t3 4.5l8 8t9 8q9 9 19.5 14.5t21.5 9.5q21 9 45 10q11 1 21.5 0.5t21.5 -2.5q3 -1 5.5 -1.5t5.5 -1.5h2l3 -1q5 -1 8 -4q7 -3 13.5 -6.5t11.5 -8.5q10 -12 16.5 -26t7.5 -29q1 -7 0.5 -13t-1.5 -12
q-3 -13 -7 -23q-5 -8 -10.5 -17t-10.5 -15q-10 -13 -24 -23q-11 -11 -22 -17t-22 -11q-11 -6 -19 -10t-16 -6q-4 -1 -7 -2.5l-5 -2.5q2 0 4 -0.5t5 -0.5q13 -2 26 0t26 6q26 6 46 18q22 10 38 21.5t27 20.5q11 8 15.5 13.5t4.5 3.5h3q2 0 3 -0.5l3 -1.5q-7 -10 -16 -20.5
t-20 -20.5q13 10 23 20t19 20q7 -2 13 -3.5t10 -4.5zM65 241q2 3 9 10q14 17 38 25q11 5 23.5 6t23.5 -1q5 -1 10 -1.5t10 -2.5q2 -1 3 -1t2 -1t3 -1q2 -1 2 0l-5 5q-1 0 -7 2q-2 1 -4 1.5l-6 1.5q-5 1 -10.5 1.5t-12.5 0.5q-13 0 -26.5 -3t-24.5 -11q-12 -7 -20 -19
q-2 -2 -3.5 -4t-3.5 -4q-4 -6 -5 -8zM75 195q-1 -3 -1 -7t-1 -8q9 4 24.5 9t32.5 13q8 4 16 10t14 13q3 3 6 6.5t6 6.5l2 6q0 3 1 3q0 2 -1 3l-1 1h-1l-4 1q-1 1 -5 1q-23 8 -46 -3q-11 -4 -19 -12q-5 -4 -8 -9l-3 -2l-2 -1v-1q-2 -4 -2 -5q-3 -5 -4.5 -11.5t-3.5 -13.5z
M75 132q7 1 17 4t19 9q11 4 15.5 6.5t-4.5 0.5q-8 -3 -17.5 -6.5t-17.5 -8.5l-12 -4v-1zM87 110q9 2 22 5.5t27 10.5q15 6 30 15t29 19q14 12 24 25.5t15 26.5q5 10 7 21q1 4 1 9q-1 -6 -3.5 -17t-10.5 -23q-16 -25 -44 -45q-26 -19 -54 -29t-47 -16l1 -1q1 0 1 -0.5t2 -0.5
zM205 105q9 5 12.5 7.5t-3.5 0.5t-15.5 -7t-16.5 -8q-5 -2 -8.5 -4t-6.5 -4l-6 -3q11 3 23.5 8t20.5 10z" />
    <glyph glyph-name="g" unicode="g" horiz-adv-x="348" 
d="M394 194q5 -2 4.5 -10.5t-9.5 -20.5q-21 -26 -50.5 -52.5t-66.5 -55.5q-5 -3 -10 -7t-10 -7q-1 -18 -1 -35t-1 -36q-1 -29 -2.5 -56.5t-3.5 -58.5l-2 -30q-2 -9 -3.5 -17.5t-3.5 -16.5q-6 -35 -24 -68q-13 -31 -43 -60q-12 -14 -31 -23q-18 -10 -41 -17
q-11 -2 -23.5 -1.5t-23.5 5.5q-21 6 -39 18q-5 3 -8 6t-7 5q-3 4 -6.5 7.5l-6.5 6.5q-6 7 -12.5 14.5t-11.5 15.5q-11 19 -15 38q-6 18 -4 40q1 20 7.5 38t15.5 33q17 30 38 54q11 12 21.5 22.5t21.5 22.5q22 18 43 36t43 33q10 8 19.5 16t19.5 15v14q-6 -4 -9 -5
q-8 -4 -16.5 -7.5t-17.5 -5.5q-19 -4 -40 -1q-5 1 -10.5 2t-10.5 3q-3 2 -4 3q-2 1 -3.5 1.5t-2.5 1.5q-6 1 -11 6l-4 4t-6 4q-2 2 -3 5.5t-3 5.5q-6 7 -9 18q-8 18 -11.5 34t-4.5 31q0 34 7 63q2 8 4.5 16t7.5 17l4 8q2 2 2 4l3 3q2 3 5.5 6.5l6.5 6.5q11 14 23.5 22
t25.5 13t24.5 8.5t22.5 5.5q21 4 38 4.5t29 0.5q6 -1 10.5 -1h7.5h6q1 -1 2 -4q1 -5 3 -12q-17 3 -42 3t-51 -5q-13 -2 -24.5 -5t-19.5 -7q-5 -2 -8 -3.5t-5 -3.5q-3 -2 -5 -3q9 6 27 11q8 3 19.5 5t23.5 4q20 3 40 3.5t34 -0.5q14 3 23 -3t9 -29v-21q6 2 11 2t9.5 -2.5
t4.5 -9.5q-1 -17 -6 -36t-14 -42q-4 -8 -6 -13v-2v-27t-1 -28q20 14 35 27t26 22q10 8 16.5 14.5l11.5 11.5t8 10h4q2 0 4 0.5t5 0.5q-7 -11 -14 -19.5t-15 -18.5q-9 -8 -18 -17t-18 -17q10 8 20 17t19 17q8 9 16.5 18t16.5 20h14t10 -3zM75 244q2 2 0 1.5t-5 -3.5
q-4 -4 -7.5 -11t-7.5 -16q-4 -10 -5.5 -21t-1.5 -21q-1 -20 5 -38q-1 2 -1 5v12q-2 6 -1 15.5t3 20.5q2 10 4.5 19.5t5.5 17.5q2 3 3.5 6.5t2.5 5.5q2 2 3 4t2 3zM152 129q7 5 16 17l-1 107q-14 -1 -28.5 -4t-28.5 -11q-3 -2 -6 -3.5t-6 -4.5q-1 -2 -2.5 -3t-2.5 -2
q-2 -4 -3 -5q-6 -14 -11 -40q-1 -10 -0.5 -21.5t2.5 -22.5t4 -15q1 -1 1 -2.5t1 -2.5v-1l2 -2q14 -7 27 -3q10 2 19 7.5t17 11.5zM211 253h-4q1 -24 2 -37.5t2 3.5v34zM207 297h2v5h-2v-5zM186 255q-2 0 -2.5 -1t-1.5 -1v-92q2 1 3 3t2 3v45.5t-1 42.5zM183 58l3 2v16
q-2 0 -3 -3v-15zM186 52q-3 -2 -4 -3v-4l4 2v5zM184 142q1 0 3 3v1zM144 16q-6 -6 -11.5 -10.5t-10.5 -8.5t-9 -8q28 19 55 44v6q-6 -5 -12 -11.5t-12 -11.5zM91 -302q8 3 16.5 10t16.5 16q14 18 23 41.5t14 47.5q0 3 0.5 5.5t0.5 7.5q0 2 0.5 4.5t0.5 7.5l1 27
q1 14 1.5 27.5t0.5 27.5q1 14 1 27v25q-13 -11 -27 -22t-28 -25q-20 -17 -39 -37t-34 -41q-9 -11 -15 -22t-11 -22q-4 -11 -5.5 -21.5t0.5 -18.5q3 -19 19 -38q3 -4 8 -8t9 -8q6 -7 17 -11q16 -6 30 0zM215 -162q2 21 3 37t1 24t-0.5 4t-1.5 -17l-4 -32l-2 -22
q-1 -5 -1.5 -11t-1.5 -11q-4 -25 -13.5 -50t-23.5 -47q-7 -11 -15 -20.5t-18 -17.5q-17 -17 -36 -22q5 0 11 3q5 2 11.5 6t13.5 10q16 11 30 29.5t24 41.5q13 22 17 49q2 6 2.5 12t1.5 11q1 6 1.5 12t0.5 11z" />
    <glyph glyph-name="h" unicode="h" horiz-adv-x="375" 
d="M388 153q9 -5 18 -13t4 -13t-12 -13t-15 -17q-10 -9 -20.5 -18.5t-24.5 -17.5q-5 -5 -18 -9q-2 -1 -8 -3q-2 -1 -2.5 -1t-2.5 -1q-3 0 -4.5 -0.5t-3.5 -0.5q-13 -4 -26 -1.5t-26 8.5q-12 7 -20 18q-1 2 -2.5 3t-2.5 3q-1 1 -1.5 2t-1.5 2q-6 6 -7 11q-5 8 -8.5 17
t-5.5 17q-4 17 -6.5 33t-4.5 30q-3 21 -3 36h-15q-11 -2 -21.5 -4t-21.5 -7q-6 -2 -10.5 -5l-7.5 -5q-1 -1 -3 -5q-1 0 -1 -0.5t-1 -0.5l-1 -1q-1 -1 -2.5 -3.5t-2.5 -4.5q-2 -5 -4 -11l-4 -12l-1 -2l2 -51l2 -40h-1q-1 0 -1.5 -0.5t-1.5 -0.5q1 -2 1 -2.5t1 -2.5
q2 -5 -3.5 -9.5t-11.5 -6.5q-3 -2 -15 -3.5t-25 0t-23 7t-9 18.5l-1 98q-1 32 -1 71t3 84q1 20 3.5 44t5.5 48l3 23q1 2 1 5t1 9l3 12q2 12 4.5 23.5t6.5 24.5q6 24 13 48.5t18 48.5q1 7 5 13l2 7q2 3 3 6t3 5q6 8 12 17t14 17q12 13 33 16q5 1 9.5 0.5t8.5 -1.5q7 -1 16 -6
t15.5 -13.5t12.5 -16.5q5 -7 9 -16q2 -7 4 -10t3 -7q12 -24 18 -50q12 -52 1 -104q-5 -24 -14 -46t-20 -41q-10 -20 -21 -35.5t-21 -29.5q-2 -5 -4 -8.5t-4 -5.5q12 2 25.5 3.5t24.5 2.5q24 1 37 0t14 -1v-4q0 -7 1 -11q-8 2 -22.5 3t-29.5 0q-7 -1 -13.5 -1t-11.5 -1
q-6 -1 -11 -2q3 -1 15 -0.5t25 0.5h25q15 1 28 0t13 -6q0 -10 -0.5 -31t-0.5 -47t3 -53q1 -7 1.5 -13t2.5 -12q2 -3 2.5 -5t1.5 -4l1 -3q1 -1 1 -2q2 -6 7 -6q1 0 1 -0.5t1 -0.5h1h2q2 1 4.5 1t4.5 2l20 10t18 10q18 13 26 21l10 10q1 -1 3 -2t3 -2l3 -3q-6 -10 -16 -19
q11 7 20 16zM70 289v10t1 9q0 4 1 7q-3 -11 -3 -28q0 1 1 2zM93 323q10 14 19.5 29t21.5 32q8 17 16 34.5t13 37.5q5 19 8.5 37.5t-1.5 38.5q-2 9 -4 19t-5 20q-2 5 -3.5 9.5t-3.5 9.5q-1 7 -3 10t-2 4q-2 4 -6 4q-1 0 -1.5 -0.5t-1.5 -0.5q-1 -1 -1 -1.5t-1 -1.5l-3 -7
q-2 -6 -3.5 -11t-3.5 -10q-6 -11 -9 -21.5t-6 -21.5q-9 -45 -17 -88l-1 -5v-3l-1 -12l-2 -21q-2 -11 -2.5 -21t-1.5 -21q-1 -13 -1.5 -25.5t-0.5 -26.5q3 9 7 13zM198 207q2 4 2 18q-2 0 -3 2q0 -5 0.5 -9t0.5 -6v-5z" />
    <glyph glyph-name="f" unicode="f" horiz-adv-x="199" 
d="M243 194q5 -2 5 -9.5t-8 -16.5q-25 -32 -64.5 -65.5t-87.5 -70.5v-9v-18t1 -24v-13v-7v-11l-1 -19l-2 -15l-7 -75q-1 -5 -1 -10t-1 -13q-2 -5 -2.5 -11t-1.5 -12q-3 -12 -6.5 -23.5t-6.5 -24.5q-4 -11 -8.5 -23.5t-11.5 -25.5q-5 -12 -13 -24t-18 -25q-6 -5 -11.5 -11
t-13.5 -11q-15 -13 -34 -18q-20 -6 -42 -3t-35 12q-17 10 -29 20t-21 21q-11 12 -20.5 25.5t-14.5 29.5q-13 34 -10 67q3 34 16 62q8 14 17 26.5t17 23.5t18 21t19 18q20 20 39 35.5t39 31.5q14 11 28.5 21.5t27.5 21.5v1l1 249l1 89v48q0 13 1 25t2 25q2 26 4.5 51t7.5 51
l2 13l2 7l1 8q4 20 14 41q3 10 7.5 18.5t9.5 14.5q9 13 22 23q4 2 6.5 3t6.5 3q7 3 15 3q16 -2 28 -14q5 -5 9.5 -10.5t7.5 -12.5q7 -13 12 -36q3 -8 6.5 -17.5t5.5 -19.5l1 -7l1 -7q0 -3 0.5 -6t0.5 -6q2 -13 2 -24.5v-25.5q0 -47 -12 -89q-5 -21 -10.5 -40t-11.5 -36
q-12 -34 -25 -60t-21 -43l-12 -23l2 -55q1 -23 1 -43.5v-37.5q29 20 50 37.5t37 30.5q7 7 12.5 12t8.5 9q4 4 6 8h14q-23 -33 -56 -63q18 15 33 30t29 32q6 0 12 -1t10 -3zM142 399q-4 -16 -5 -22.5t2 3.5q10 25 13 52q2 14 2 24.5t0 9.5q-2 -15 -5.5 -34t-6.5 -33z
M-146 -198q-4 -9 -5 -18.5t0 -17.5q0 -8 3 -16t7 -16l12 -16l12 -16q16 -12 30 -18q4 -1 9 -1t8 3q11 4 20 16q5 8 9.5 16t9.5 17q7 17 12.5 35.5t8.5 36.5q1 4 1.5 7.5t1.5 8.5q0 5 0.5 8.5t0.5 8.5l2 36l4 63l1 14v4v3v6q-17 -13 -34 -28t-34 -29q-17 -17 -32 -34.5
t-28 -35.5q-13 -20 -19 -37zM10 -303q2 7 0.5 3.5t-9.5 -11.5q-3 -5 -7 -10.5t-10 -12.5t-13.5 -12.5t-18.5 -10.5q-21 -10 -46 -5q-11 3 -20.5 8.5t-17.5 11.5q-19 14 -31 29t-20 28q1 -4 4 -8q2 -4 5 -9t8 -10q4 -7 10 -13.5t13 -13.5l16 -12t19 -11q5 -2 10.5 -3.5
t12.5 -1.5q13 -2 24 1q11 2 21 7.5t17 11.5q14 14 21 26zM20 -49q1 3 1 7l-1 9v12q-1 -1 -2 -1.5t-2 -1.5l1 -7v-9v-4v-4l-1 -10l-1 -23l-4 -44l-3 -40q-1 -9 -1.5 -16.5t-2.5 -14.5t-3 -11.5t-2 -8.5l-2 -8q2 4 5 14.5t6 24.5q2 8 2 15l2 18l4 40l3 41zM43 71q1 2 4 5
q-1 17 -2 26.5t-2 -4.5v-27zM33 419q1 20 1 40t2 40q1 20 2 38t2 32q0 -4 -1 -8t-1.5 -10t-1.5 -13q-2 -14 -4 -30.5t-3 -36.5t-1.5 -39t-0.5 -35.5t0.5 -28.5t0.5 -17q1 -14 2.5 8.5t2.5 59.5zM43 -40q1 -4 1 -3v8v16.5t-1 17.5q-1 -1 -1.5 -1t-1.5 -1v-7.5t1 -8.5
q0 -15 2 -21zM43 57l3 1.5t3 0.5v6q-2 -2 -3.5 -2.5t-2.5 -1.5v-4zM67 227q2 4 2 7v9q-1 -1 -1 -2.5t-1 -2.5v-11zM67 221q0 -30 0.5 -65t0.5 -66l4 2q0 31 -1 65.5t-1 63.5h-3zM68 78q2 1 3 1t2 1v3q-3 0 -5 -2v-3zM81 363q12 32 20 66.5t10 72.5q1 20 0 41.5t-5 41.5l-1 4
v1v1l-1 2q0 2 -1 3q-1 7 -4 8q-1 1 -3 -1q-1 -1 -1 -1.5t-2 -1.5q-2 -8 -2 -9v-2l-2 -10q-1 -5 -1.5 -11t-1.5 -11q-2 -12 -3 -22.5t-2 -21.5q0 -12 -0.5 -23t-0.5 -22v-22v-24zM83 268q3 6 5.5 12.5t4.5 13.5q-5 -13 -10 -22v-4z" />
    <glyph glyph-name="k" unicode="k" horiz-adv-x="289" 
d="M302 183q8 -5 17.5 -13t5.5 -12q-7 -8 -18.5 -22t-28.5 -29q-8 -8 -17.5 -16t-22.5 -14q-4 -2 -6.5 -4t-6.5 -4q-11 -6 -22 -7q-9 -2 -18.5 -1.5t-19.5 5.5q-20 6 -32 23q-3 4 -5.5 8t-5.5 9l-3 3l-2 3q-2 2 -2 4q-8 -11 -15.5 -19.5t-13.5 -16.5l1 -32q-2 -2 -5 -3
q-2 -2 -5 -2.5t-7 -2.5v22q0 -1 -1 -1l-2 1q0 -6 0.5 -12t0.5 -11q-10 -6 -22 -11.5t-22.5 -6t-18 5.5t-7.5 21v101q1 33 2 72.5t3 85.5q3 42 9 92q2 11 2.5 23t2.5 25l3 24l1 6l1 4v5l3 13q7 26 14.5 50.5t18.5 50.5q5 12 11 24.5t16 25.5l4 6t5 7q4 6 7 9.5t7 7.5
q9 6 18.5 10.5t19.5 6.5q9 2 19.5 0t18.5 -7q9 -5 16 -12.5t15 -16.5l3 -5l2 -3l3 -7q2 -4 3 -6.5t3 -5.5q2 -5 5 -12t5 -14q5 -14 7.5 -27t3.5 -27q2 -30 -4 -55q-5 -25 -15 -47t-21 -41q-12 -19 -23 -34.5t-22 -29.5q-23 -29 -40.5 -51t-28.5 -39q-3 -6 -6 -10t-5 -9v-38
q4 4 7 8.5t8 8.5q13 15 24.5 30.5t18.5 27.5q4 5 6.5 10.5t4.5 9.5l4 8l12 -3q0 -5 -0.5 -9t-0.5 -8q2 3 3 7t3 9q9 -3 20 -7t10 -8q-3 -11 -9 -27.5t-14 -35.5q-4 -6 -5 -9q1 -5 2 -11.5t3 -14.5q1 -7 2 -15t3 -16q1 -2 1 -3.5t2 -3.5l1 -2v-3q0 -3 1 -6q0 -2 3 -2
q0 -1 2 -1h1h1h1q8 2 17 7.5t16 10.5q9 5 16.5 10l13.5 9q6 5 10.5 9t8.5 7q4 4 8 7l7 -6q-2 -5 -4 -9l-4 -8l6 6t7 6zM209 440q-7 -14 -17 -31.5t-17.5 -30.5t-10.5 -19t5 3q6 8 13 21t13 26l5.5 11t4.5 10zM88 345q0 -9 -1 -11q3 4 6 10t7 10q11 14 22 30.5t21 32.5
q10 17 20.5 34.5t15.5 35.5q5 19 7.5 37t-2.5 37q-3 18 -11 37q-5 10 -13 18l-1 1v1l-1 1l-1 1q-2 3 -4 3t-3 -3q-1 -1 -2 -3l-2 -3l-3 -4q-2 -2 -2.5 -4t-2.5 -4q-8 -20 -16.5 -41t-14.5 -44q-2 -11 -4 -21.5t-4 -21.5l-2 -4l-1 -4l-1 -12l-2 -24q-2 -21 -3 -43t-2 -42z
M86 263q7 15 15 26q-5 -5 -8.5 -11t-6.5 -11v-4zM46 28q1 8 1 22t-1 29q-1 1 -5 3q0 -11 1 -20t2 -17q1 -9 2 -17zM41 90q1 1 2.5 1.5t1.5 2.5v6q-2 -1 -4 -3v-7zM67 221v-41l3 3v11v27h-3zM67 229q1 2 1.5 3.5t1.5 3.5v8q-2 -2 -2 -5q-1 -3 -1 -10zM67 81q2 2 3 4v6
q-1 -1 -1.5 -2.5t-1.5 -2.5v-5zM61 514q5 19 9.5 36t9.5 31q-6 -13 -11 -28q-5 -13 -10 -30.5t-10 -36.5l-1 -5v-2q-1 -2 -1 -4l-1 -8l-4 -20q-1 -10 -2 -19.5t-2 -17.5q-3 -35 -3 -48q0 -12 3 10t8 60l5 40q0 3 2 5l1 6l2 10q1 5 2 10.5t3 10.5zM86 102l3.5 3.5t2.5 3.5
t2 3q-2 0 -8 -6v-4zM87 158q3 2 5.5 5.5t4.5 6.5q-1 1 -1 4l-5 -4q-4 -4 -5 -8v-5zM136 212q0 1 1 2t1 2t2 3q-2 -2 -2 -3t-1 -2t-1 -2zM145 250q3 7 4.5 14.5t-1.5 5.5q-2 -2 -2.5 -5.5t-0.5 -6.5v-8zM179 109q5 -3 12 -1h-1l-4 2q-5 1 -9 6q-5 9 -6 11l-2 4q0 1 -0.5 1
t-0.5 1q-1 0 -1 1q-2 2 -1.5 -2.5t3.5 -9.5q3 -9 10 -13zM255 148q5 4 10 11t1 4q-2 -1 -4 -3.5t-4 -4.5q-2 -4 -3 -7z" />
    <glyph glyph-name="l" unicode="l" horiz-adv-x="202" 
d="M230 152q10 -5 18.5 -13t3.5 -13q-5 -6 -12 -14.5t-16 -16.5q-10 -9 -21 -18.5t-28 -17.5q-7 -5 -16.5 -8.5t-20.5 -5.5l-12 -2t-13 1q-14 2 -27 6q-12 6 -22 14.5t-17 16.5q-6 10 -10 18.5t-8 18.5q-8 14 -13 31t-7.5 32.5t-3.5 28.5t-1 18q0 2 -0.5 3.5t-0.5 4.5
q-2 11 -1.5 22.5t0.5 21.5q0 11 1 23v33v34t1 35v19.5t1 18.5q0 11 0.5 20.5t1.5 20.5q2 20 5.5 41t9.5 42l1 6l2 7q2 5 2.5 10t2.5 9q5 17 11 33q4 8 8 14.5t9 12.5q5 5 10 9.5t10 8.5q5 3 10 5.5t13 2.5q5 1 8 0.5t7 -1.5t6.5 -2.5t4.5 -3.5q20 -13 32 -42q3 -8 6 -16.5
t5 -16.5q1 -8 3 -18l2 -8v-4l1 -3q0 -5 1 -7.5t1 -4.5q1 -3 1 -11q1 -5 1 -10.5t1 -10.5q1 -41 -5 -84q-5 -40 -16.5 -73.5t-24.5 -62.5q-11 -26 -21.5 -48t-18.5 -38l-4 -6q-1 -6 -1 -10q0 -2 -0.5 -3.5t-0.5 -3.5v-3q2 -22 7 -42q2 -5 3.5 -11t3.5 -12q3 -5 5.5 -8.5
t4.5 -5.5q6 -6 10 -7q3 0 7.5 0.5t10.5 2.5q11 4 21 9.5t18 10.5q8 6 15.5 11t12.5 10q6 5 10 10l2 -2q3 -3 6 -5q-3 -5 -7 -10l-8 -10q6 5 10 8.5t9 8.5zM75 316q-1 17 -1.5 31.5t-0.5 25.5v25q-2 -8 -2.5 -35t0.5 -59v-9q3 4 4 8v13zM90 248l1 2q-1 -1 -1 -2zM86 374
v-18.5t1 -16.5q7 21 13.5 43t10.5 45q6 37 5 70q0 18 -3 36q-1 5 -1.5 9.5t-1.5 8.5q0 3 -0.5 4.5t-0.5 3.5v1q-2 4 -2 5q-1 5 -5 6l-2 -1q-1 -1 -1 -5q-1 -1 -1 -2t-2 -2v-2v-1l-1 -4l-1 -8q-2 -10 -3 -19l-2 -18q-2 -17 -3 -34.5t-1 -34.5t0.5 -33.5t0.5 -32.5z" />
    <glyph glyph-name="m" unicode="m" horiz-adv-x="498" 
d="M520 162q8 -5 17.5 -13t4.5 -13t-11.5 -13t-15.5 -17q-10 -9 -20.5 -18.5t-24.5 -17.5q-8 -6 -18 -9q-2 -1 -8 -3q-2 -1 -3 -1t-3 -1q-2 0 -3.5 -0.5t-3.5 -0.5q-13 -4 -26.5 -1.5t-25.5 8.5q-11 6 -20 18q-1 2 -2 3t-2 3q-1 1 -2.5 2t-2.5 2q-2 2 -3.5 4.5t-2.5 6.5
q-5 8 -8.5 17t-5.5 17q-5 17 -7 33t-4 30q-3 21 -3 36h-12q-26 -3 -45 -10q-12 -5 -18 -11q-2 -2 -4 -3.5t-4 -3.5q-1 0 -1.5 -2.5t-2.5 -4.5q-2 -4 -4 -10l-4 -12q-2 -5 -2.5 -12.5t-1.5 -12.5q-2 -13 -2.5 -25t-0.5 -22q0 -11 1.5 -18.5l2.5 -12.5q0 -3 0.5 -5t0.5 -3
q0 -2 1 -2l-9 -5q-5 6 -10 20q2 -14 6 -23q-4 -5 -8.5 -8t-9.5 -6q-11 -5 -14 2q-19 36 -21 101q0 14 1 30t5 34q-2 1 -2.5 2t-2.5 3q-4 2 -10.5 5t-13.5 5q-17 1 -33 -4q-4 -2 -7.5 -4.5t-6.5 -6.5l-3 -3l-2 -4q-4 -3 -6 -7q-5 -11 -6.5 -23t-2.5 -23q-2 -12 -1.5 -24
t2.5 -20q2 -20 5 -31t2 -11l-7 -5q-4 5 -6.5 10t-6.5 10q2 -6 4 -11.5t4 -10.5q-9 -7 -20 -12t-14 1q-7 14 -14.5 37.5t-9.5 54.5q-2 15 -1.5 32t3.5 36q2 9 5.5 18.5t8.5 20.5q3 5 6 8t6 8q5 4 8.5 7t6.5 7q17 14 35.5 21.5t36.5 9.5t34.5 -1.5t30.5 -8.5q16 -6 26 -13l1 2
q17 11 33.5 17t32.5 10q15 3 29.5 4.5t25.5 2.5h37q8 0 14 -1v-4q0 -7 1 -11q-9 2 -23.5 3t-28.5 0q-7 0 -13 -0.5t-11 -1.5q-6 -1 -11 -2q3 -1 14.5 -0.5t24.5 0.5h25q15 1 28 0t13 -6q0 -10 -0.5 -31t-0.5 -47t3 -53q2 -7 2.5 -13t2.5 -12q1 -6 3 -9l1 -3q1 -1 1 -2
q2 -6 6 -6q1 0 1 -0.5t2 -0.5h1h2q2 1 4.5 1t4.5 2l20 10t18 10q18 13 26 21l10 10q0 -1 2 -2q1 -1 7 -5q-4 -5 -7.5 -9.5t-8.5 -9.5q11 7 20 16zM194 268q0 3 2 3q-5 3 -9.5 6t-9.5 7q-8 2 -15 4t-12 3q-6 1 -12 1q3 -2 15.5 -5t25.5 -11q4 -2 7.5 -3.5t7.5 -4.5zM330 216
q2 4 2 18q-1 0 -1.5 1t-1.5 1q0 -5 0.5 -9t0.5 -6v-5z" />
    <glyph glyph-name="n" unicode="n" horiz-adv-x="352" 
d="M365 166q11 -5 20 -13t4 -13t-12 -13t-17 -17q-8 -9 -19 -18.5t-26 -17.5q-6 -6 -16 -9l-9 -3q-2 -1 -2.5 -1t-2.5 -1q-2 0 -4 -0.5t-4 -0.5q-12 -4 -25.5 -1.5t-25.5 8.5q-13 7 -22 18q-1 2 -2 3t-2 3q-1 1 -1.5 2t-1.5 2q-5 5 -6 11q-5 8 -8.5 17t-6.5 17q-4 17 -6 33
t-4 30q-3 11 -4 19.5t-1 16.5h-12q-11 -2 -22.5 -4t-20.5 -6q-5 -2 -10.5 -5t-8.5 -6l-7 -7q-1 -1 -1.5 -3t-2.5 -4q-3 -4 -4.5 -10t-2.5 -11q-2 -6 -2.5 -13t-1.5 -13q-3 -26 0 -46q1 -11 1.5 -19t2.5 -13q1 -6 3 -11l-7 -5q-5 5 -8 10t-6 11q3 -14 8 -23
q-9 -7 -18.5 -12.5t-12.5 1.5q-10 16 -17.5 41t-9.5 56q-1 15 -0.5 32.5t5.5 37.5q2 5 3 9.5t4 9.5q1 4 3 6.5t4 6.5l1 2l2 2q1 2 3 4q6 9 13 16.5t15 15.5q18 11 35 17t33 10q15 3 28.5 4.5t25.5 2.5h38q8 0 14 -1v-4q0 -7 1 -11q-9 2 -23.5 3t-29.5 0q-7 0 -13 -0.5
t-11 -1.5l-10 -2q4 -1 14.5 -0.5t24.5 0.5h23q17 1 29.5 0t12.5 -6q0 -10 -0.5 -31t-0.5 -47t3 -53q1 -7 1.5 -13t2.5 -12q2 -7 4 -9l1 -3q2 -1 2 -2q2 -6 6 -6q1 0 1 -0.5t2 -0.5h1h1q2 1 4.5 1t5.5 2q9 5 19 10t17 10q18 12 27 21l10 10l2 -2q3 -3 6 -5q-6 -11 -13 -19
q5 4 8.5 7.5zM56 113q0 5 -4.5 15t-3.5 10q-1 -9 3 -19.5t5 -5.5zM128 262q4 2 -3 1.5t-18 -3.5q-5 -2 -11 -3.5t-11 -4.5q-8 -5 -15 -14q3 2 7 5q3 2 7 4.5t9 4.5q11 4 21.5 6t13.5 4zM176 220q1 2 2 7t1 11q-2 0 -2.5 1t-1.5 1q0 -5 0.5 -9t0.5 -6v-5zM215 180
q2 -12 4.5 -25t7.5 -19q-1 5 -2 9q-2 10 -2 19q-2 13 -2 24t-1 14q-2 5 -3.5 -2.5t-1.5 -19.5zM302 118q8 5 15 13.5t0 6.5q-2 -1 -5 -4t-5 -6q-1 -3 -3 -7q-1 -2 -2 -3z" />
    <glyph glyph-name="o" unicode="o" 
d="M374 183q9 -5 18 -13t3 -13q-5 -6 -12 -15t-18 -17q-10 -10 -22 -19.5t-29 -19.5q-7 -4 -15 -7.5t-18 -8.5q-11 -3 -21.5 -5.5t-21.5 -2.5q-22 0 -44 8q-13 -11 -29 -18.5t-35 -10.5q-22 -4 -43 0q-5 1 -10.5 2t-10.5 3q-2 2 -4.5 2.5t-4.5 2.5q-8 3 -12 6q-3 2 -5.5 4
t-4.5 5q-2 2 -4.5 6t-4.5 6q-6 6 -10 19q-4 9 -7 18.5t-5 17.5q-6 34 -1 68q2 18 8 34q2 5 2.5 8t2.5 8t4 9t6 9q11 15 24 27t27 19q13 8 26 12t25 6q23 5 41 6t32 1q6 0 10.5 -0.5t8.5 -0.5h7q0 -1 1 -4q1 -5 3 -12q-17 3 -45.5 3t-54.5 -7q-29 -4 -47 -16q-5 -3 -8.5 -5.5
t-5.5 -4.5q-3 -3 -5 -4q7 6 27 17q11 4 23 7t24 5q26 5 51.5 5t40.5 -2q1 0 1 -1q11 5 19 6t11 -10q3 -16 5 -35.5t1 -44.5q-2 -24 -7 -50.5t-19 -54.5q17 -2 35 6q14 6 24.5 12t19.5 11q9 6 16.5 12t12.5 11q6 5 11 10l2 -2q3 -3 6 -5q-4 -5 -8 -10.5t-7 -12.5q10 11 20 20
zM108 237l-4 -2q1 -4 1 -6.5t1 -6.5q1 -8 2 -14t3 -11q2 -6 3 -11q0 5 -2 16t-4 26v9zM66 233q2 3 0.5 2t-4.5 -6q-2 -5 -5 -13t-7 -19q-4 -24 -3 -47q2 -12 5.5 -21.5t6.5 -16.5q0 1 -1 4q-1 2 -1.5 4.5l-1.5 7.5q-3 7 -4 17.5t0 21.5q1 10 3.5 21t4.5 19q2 10 4 16.5
t3 9.5zM107 108q6 -1 14.5 0t15.5 4q-10 13 -17 26t-12 24q-5 16 -10 31t-7 28v1q-4 -6 -5 -14q-3 -9 -5.5 -21.5t-2.5 -24.5v-10.5t2 -12.5q1 -10 5 -17q0 -1 2 -5v-1v-1q1 0 1 -1h1l1 -1q4 -2 8.5 -3t8.5 -2zM200 302q-11 -2 -15 -2.5t3 -2.5q7 -1 14 -0.5t13 0.5v5h-15z
M177 146q-6 9 -10.5 18.5t-6.5 12.5t-1 -4t6 -18l4 -6t4 -7zM193 170q7 14 11 27t6 26q2 8 3 15.5t2 13.5q-8 1 -18.5 2t-22.5 -1q0 -11 2 -23.5t5 -26.5q2 -8 4.5 -16.5t7.5 -16.5zM217 204q2 9 1.5 12.5t-2.5 -1.5q-2 -7 -3.5 -14.5t-2.5 -15.5q-2 -10 -2 -12q-1 -3 -1 -5
q3 7 6 17.5t4 18.5zM229 297v3h-4v-3h4zM302 132q4 3 9.5 7t9 7.5t4 5.5t-3.5 1q-5 -3 -12 -11q-2 -2 -3 -3.5t-2 -3.5t-2 -3zM362 149q2 1 3 2t3 2t3 2q-1 0 -9 -6z" />
    <glyph glyph-name="p" unicode="p" horiz-adv-x="355" 
d="M372 183q10 -5 18.5 -13t3.5 -13t-11 -13t-15 -17q-8 -9 -19.5 -18.5t-25.5 -17.5q-10 -7 -17 -9l-9 -3q-2 -1 -3.5 -1t-2.5 -1q-2 0 -3.5 -0.5t-3.5 -0.5q-12 -4 -25.5 -1.5t-26.5 8.5q-6 3 -11 8l-10 10q-1 0 -1 1q-2 -2 -2.5 -3t-2.5 -2q-10 -11 -21.5 -21.5
t-26.5 -18.5q-7 -4 -16.5 -7.5t-18.5 -5.5q-15 -3 -33 -2q0 -8 -0.5 -17t-0.5 -17q-1 -35 -2 -75.5t-3 -81.5q-2 -42 -5 -79t-7 -67q-2 -14 -3.5 -25.5t-2.5 -19.5q-2 -10 -2 -17q-1 -1 -3 -1h-8q0 7 -0.5 15t-0.5 17q-1 -9 -2 -17t-3 -16q-11 -2 -22.5 -1t-11.5 9
q2 19 3.5 48t1.5 66q0 35 -2 74t-4 79l-5 135q-2 13 -2.5 24t-0.5 19v16q-1 10 -1 20q-1 8 -1 17v15q-2 31 6 63q2 8 4.5 16t7.5 17l4 8q1 1 1.5 2t1.5 2q0 1 2 3q2 3 4.5 6.5t7.5 6.5q11 14 23.5 22t24.5 13q14 5 25 8.5t22 5.5q22 4 39 4.5t29 0.5q5 -1 10 -1h8h6
q1 -1 2 -4q1 -5 3 -12q-17 3 -43 3t-50 -5q-25 -4 -44 -12q-5 -2 -8.5 -3.5t-5.5 -3.5q-3 -2 -4 -3q2 2 9.5 5t17.5 6q18 6 43 9q17 2 34.5 3t31.5 0q16 1 28 0t12 -6q0 -7 -0.5 -19.5t-0.5 -27.5q10 2 12 2q13 0 13 -12q0 -17 -5 -36t-13 -42q-2 -4 -4 -5q2 -6 4 -16
q2 -7 4 -9l1 -3q0 -1 2 -2q2 -6 6 -6q0 -1 1 -1h2h1h1q2 1 4 1t4 2q11 5 21 10t18 10q8 6 15 11t12 10t9 10q0 -1 2 -2q1 -1 2.5 -2t3.5 -3q-3 -5 -6.5 -9.5t-7.5 -9.5q12 8 18 16zM22 10q1 5 1.5 27.5t-0.5 44.5q-2 4 -4 7q0 -13 0.5 -27t1.5 -25q1 -14 1 -27zM63 -17
q-1 6 -2.5 -3.5t-2.5 -24.5t-1 -32.5t2 -28.5q2 22 3 40q1 16 1.5 30t-0.5 19zM66 -288q1 4 0.5 10.5t-1.5 11.5q-1 6 -2 13q-1 -6 -1 -14t0.5 -14t1.5 -9t2 2zM73 244q2 2 0 1.5t-5 -3.5q-3 -4 -7 -11t-8 -16q-2 -10 -4.5 -21t-2.5 -21q-1 -20 5 -38q-1 2 -1 5v12
q-2 6 -1 15.5t3 20.5q3 22 11 37q3 6 5 12q2 2 3 4t2 3zM150 129q9 8 16 16.5t15 16.5q-3 15 -6 29.5t-5 27.5q-1 9 -1.5 18t-1.5 16q-14 -1 -30 -4t-28 -11q-7 -3 -12 -8q-2 -2 -3.5 -3t-2.5 -2q-2 -2 -2.5 -3t-1.5 -2q-3 -7 -6 -17.5t-5 -22.5q-1 -10 -1 -21.5t2 -22.5
t5 -15q1 -1 1 -4q2 -1 2.5 -2t2.5 -2q1 -1 3 -2q11 -4 24 -1q8 2 17.5 7.5t17.5 11.5zM185 255q-1 0 -3 -2q0 -8 1 -11q0 -3 1 -5q1 2 1 18zM182 142q2 1 3 2.5t2 2.5q0 1 -1 2zM209 302h-3q0 -3 1 -5h2v5zM308 135q4 3 8 6.5t7 7t4 5.5t-2 1q-5 -2 -11 -10z" />
    <glyph glyph-name="j" unicode="j" horiz-adv-x="173" 
d="M226 194q4 -2 3.5 -10t-8.5 -18q-21 -27 -50 -54t-64 -56l-10 -8t-11 -9v-30.5t-1 -31.5q-2 -52 -9 -112l-3 -30l-1 -7v-3l-1 -5v-3q-2 -4 -3 -7.5t-2 -8.5q-10 -33 -21 -62q-8 -15 -15.5 -30t-18.5 -30q-5 -7 -11.5 -14.5t-12.5 -13.5q-8 -6 -16.5 -12.5t-19.5 -11.5
q-9 -6 -25 -8q-6 -1 -12.5 -0.5t-13.5 1.5q-13 4 -23 10t-18 13q-8 6 -14.5 13t-13.5 14q-2 5 -4.5 8t-4.5 8q-2 4 -4 7.5t-5 7.5q-8 17 -13.5 35.5t-5.5 37.5q1 20 6 38t12 33q8 16 16 29t19 27q9 12 18.5 22.5t20.5 23.5q21 19 41.5 37t40.5 33q9 7 17.5 15t18.5 14
q-1 17 -1 34.5v33.5l-3 129l-2 47q1 2 4 4q2 2 4.5 4t6.5 5q0 -17 0.5 -39t1 -47.5t1 -52t0.5 -51.5q1 -15 1 -29.5v-27.5q3 3 3 2q2 34 0 72q-2 49 -3 97t-1 79q10 6 22.5 11t23 5.5t17.5 -6t7 -24.5l1 -122v-60q19 14 34 27.5t26 22.5q9 8 15.5 14.5l11.5 11.5t8 10h3
q2 0 4 0.5t4 0.5q-12 -20 -28.5 -37.5t-32.5 -34.5q18 17 36 34.5t32 37.5q8 1 14.5 0.5t11.5 -3.5zM38 316q-1 -11 -0.5 -33t2 -41t3 -27.5t1.5 6.5q0 34 -3 63q-2 16 -3 32zM20 49q0 1 -3 -2v-5q2 2 3 2v5zM-16 16q-7 -6 -12 -10.5t-9 -8.5t-9 -7q11 8 24 18.5t26 22.5v4
q-7 -5 -11.5 -10t-8.5 -9zM-71 -303q13 11 26 36q26 45 37 95l1 6v3v1l2 14q0 6 1 13t2 12q2 14 2.5 26.5t1.5 25.5q0 11 0.5 20.5t0.5 18.5q-26 -19 -47 -42q-19 -18 -36.5 -37.5t-31.5 -41.5q-15 -22 -21 -44q-5 -23 -2 -41q2 -11 6 -20.5t12 -20.5q3 -5 7 -9.5t7 -9.5
q4 -3 8 -5t6 -4q3 -1 7 -1q2 1 4.5 2t6.5 3zM53 -91q1 8 0.5 4.5t-2.5 -16.5l-4 -34l-3 -20l-1 -9q0 -2 -1 -3.5t-1 -3.5l-1 -7q-6 -22 -15 -46.5t-20 -47.5q-12 -22 -25.5 -40t-28.5 -30q4 3 9 7q4 3 9.5 8t10.5 12q11 13 23 32.5t21 42.5q5 11 8.5 23t7.5 23q5 11 6 23
q1 3 1 6t1 5l1 11q2 20 3 36t1 24zM-6 372q-4 7 -7 17t-5 20q-4 12 -3 28q0 5 1 10t5 10q4 10 7 13q4 3 8 5.5t7 5.5q5 2 8.5 3t7.5 2h13q3 -1 6 -1t5 -2q1 0 1.5 -0.5t2.5 -0.5q1 -1 3 -1h1h-1h1l3 -2q2 0 4 -1l4 -2q2 -2 5 -3.5t5 -3.5q5 -5 7.5 -9t5.5 -7q5 -8 6.5 -15.5
t3.5 -15.5q3 -11 1 -30q-1 -5 -1.5 -9t-2.5 -8q-2 -5 -5 -10q0 -1 -2 -3l-3 -2v-1l-2 -2q-2 -3 -6 -5.5t-7 -5.5q-10 -8 -20 -10t-16.5 -2t-11.5 1t-8 1.5t-5 1.5h-3q-4 0 -4 1q-10 11 -8 19.5t-1 13.5zM50 428q-1 6 -6 8v-1q0 -3 1 -4l3 -9q1 -7 0.5 -11.5t-0.5 -6.5
q1 -2 2.5 1t1.5 9q0 9 -2 14zM31 355l-3 -3q1 -1 4 -1h7.5t9.5 1q4 2 8 3.5t7 3.5q6 3 10 7l1 1l1 1l1 2q3 3 3 4l2 2q-2 -2 -6 -5q-2 -2 -1.5 -1.5t-1.5 -2.5q-2 -2 -4 -3q-5 -3 -12 -6q-3 -1 -6.5 -2t-7.5 -1q-8 -2 -12 0z" />
    <glyph glyph-name="space" unicode=" " horiz-adv-x="318" 
 />
    <glyph glyph-name="r" unicode="r" horiz-adv-x="339" 
d="M355 163q8 -5 17 -13t4 -13q-5 -6 -12 -14.5t-17 -16.5q-9 -9 -20.5 -18.5t-27.5 -17.5q-8 -5 -17 -8.5t-20 -5.5q-5 -1 -12 -2t-14 1q-13 1 -25 6q-14 6 -23.5 14.5t-14.5 16.5q-8 10 -13 18.5t-8 18.5q-8 17 -12 33.5t-6 31.5q-2 11 -3 20.5t-2 17.5q-8 -2 -14.5 -3.5
t-11.5 -3.5q-6 -2 -10 -5l-8 -6q-2 -2 -4 -3.5t-3 -3.5q-1 -1 -2.5 -3t-2.5 -4q-1 -1 -5 -11q-2 -4 -3 -10q-3 -12 -3 -26q-2 -13 -1.5 -24.5t1.5 -21.5q1 -19 5 -32q2 -6 3 -11l-8 -5q-6 9 -12 21q3 -14 8 -23q-10 -7 -20.5 -12.5t-13.5 1.5q-8 16 -15.5 41t-9.5 56
q0 2 -2.5 18.5t-4.5 34.5q-3 21 -6 47q-4 3 -9 8q-4 4 -5.5 8t-3.5 7t-2.5 6.5t-2.5 6.5v4l-1 3v2v6v9.5t1 9.5q2 5 3 12t4 13q2 7 9 14q3 4 11 9q3 3 8 4.5t11 3.5q2 0 3 1q11 0 20 -4q5 -3 8.5 -6t8.5 -5q6 -8 8 -11q2 -2 2.5 -4t1.5 -4q2 -8 3 -14.5t2 -11.5q2 -5 2 -15
h2h2q12 6 23.5 10t22.5 7q16 3 30.5 4.5t25.5 2.5h37q8 0 14 -1v-4q0 -2 0.5 -5t0.5 -6q-8 2 -23 3t-28 0q-8 0 -14.5 -0.5t-11.5 -1.5q-6 -1 -10 -2q4 -1 14 -0.5t23 0.5q14 2 27 0q7 -1 13 -1h10q1 -10 1 -22.5t-1.5 -23t-3.5 -17.5t-6 -7q-1 0 -2 1v-14q1 -26 6 -55
q2 -5 3.5 -11t3.5 -12q5 -10 9 -14l4 -4t7 -3q4 0 8.5 0.5t9.5 2.5q9 4 20 9.5t19 10.5q18 12 27 21l10 10q0 -1 2 -2q1 -1 7 -5q-5 -5 -8 -10t-7 -10q5 5 9.5 8.5t10.5 8.5zM17 318q1 0 1 -0.5t1 -0.5q-1 2 -1.5 2.5t-1.5 2.5l-1 3h-1h1l-1 -3v-2v-1l1 6v-3v3v-3v-2h1h-1h1
q0 -1 1 -2l-1 1zM19 317h-1h1zM55 110q0 5 -4 15l-4 10q0 -9 3.5 -19.5t4.5 -5.5zM68 235q1 0 1 1t1 1h-1h-1v-2zM145 213q2 5 0 22q-1 0 -3 -2q1 -5 1 -8t1 -6q0 -4 1 -6zM186 175q2 -13 6 -26t11 -18q-1 4 -3 8t-3.5 9t-2.5 11q-2 12 -3.5 23.5t-3.5 14.5q-1 3 -1.5 -3.5
t0.5 -18.5zM212 276h10q2 0 4 1q-2 2 -5.5 2.5t-8.5 0.5v-4zM287 115q4 3 8.5 6.5t7.5 7t4.5 5.5t-1.5 1q-7 -4 -12 -10q-3 -3 -5 -7q-1 -2 -2 -3zM353 136q-7 -2 -12 -6q5 4 12 6z" />
    <glyph glyph-name="s" unicode="s" horiz-adv-x="339" 
d="M351 185q9 -6 19 -13.5t5 -13.5q-7 -6 -14 -14t-16 -17q-17 -19 -50 -36q-10 -5 -20.5 -7.5t-23.5 -2.5q-6 0 -13.5 1t-12.5 3q-2 1 -5 2t-6 3q-2 -6 -4.5 -12.5t-5.5 -12.5q-1 -3 -3 -5q-1 -2 -3 -4t-4 -4.5t-4 -4.5q-6 -6 -18 -13q-12 -8 -21 -9q-7 -2 -11.5 -2.5
t-9.5 -0.5q-9 0 -17 2l-16 4q-14 4 -24.5 8t-21.5 8q-8 4 -14.5 7.5t-10.5 5.5q-5 3 -8 5q0 2 1 5q2 6 4 11q12 -12 37 -22q5 -3 9.5 -4.5t8.5 -3.5t8 -3q-2 2 -10 6.5t-18 9.5l-34 19q4 9 9.5 19.5t11 19.5t11 14.5t8.5 2.5l19 -11q5 -4 12.5 -8.5t16.5 -8.5q3 -2 7 -3
t8 -3q2 0 3 -0.5t2 -0.5h5q1 -1 4 0l1 1l2 3l2 2l3 3q7 18 8 40q1 3 1 10q-1 2 -1 4.5t-1 4.5q-5 17 -10 32t-7 29q-1 5 -1.5 8.5t-1.5 7.5l-2 -2q-15 -11 -32 -28q-15 -15 -29.5 -31t-27.5 -28q-6 -6 -11 -10.5t-8 -7.5l-7 -7q-1 0 -3 1t-4 1.5t-4 2.5q3 6 6.5 10t5.5 8
q-4 -3 -8.5 -6t-7.5 -7q-8 7 -15.5 14t-5.5 12q6 8 15 20.5t23 29.5q11 16 23 35.5t30 36.5q8 11 17 19.5t19 15.5t19.5 12t19.5 12q16 6 27 9q5 2 10 3q0 -2 1 -4q2 -6 4 -10q-5 -1 -11 -3.5t-15 -5.5q8 2 14.5 3t11.5 1h1q8 2 12.5 -0.5t4.5 -5.5q2 -11 3 -31.5t5 -46.5
l4 -28l4 -28q2 -7 3 -14.5t3 -12.5t4.5 -10.5t6.5 -9.5q3 -4 7 -8q4 -2 15 0q9 1 18 6q14 5 20 10q8 7 15 11.5t12 8.5l10 11q0 -1 2 -2q1 -1 2.5 -1.5t3.5 -2.5q-7 -14 -13 -21q5 5 8.5 9t8.5 9zM42 163q2 2 3.5 5.5t2.5 6.5q1 4 2 7q-5 -5 -8.5 -13t0.5 -6zM116 263
q4 4 8 6t7 4q0 2 -0.5 2.5t-0.5 1.5l-8 -4q-7 -4 -13 -10.5t-10 -12.5l5 5q2 2 5.5 4t6.5 4zM139 325q1 0 2 1v2q-1 0 -2 -1v-2zM150 255l-1 -2q0 -1 0.5 -1.5t0.5 -1.5v-1v6zM34 100q1 -2 5 -4.5t8 -4t5.5 -1.5t-1.5 2q-5 5 -11 7q-4 1 -6 1zM149 71q9 7 10 11l-1 -1
q-2 -2 -3 -2q-2 -2 -6.5 -2.5t-7.5 -0.5q-8 -1 -15.5 1t-10.5 2t2 -3.5t13 -5.5q5 -1 9.5 -0.5t9.5 1.5zM162 333l2 1q-2 2 -2 3v-4zM190 235q1 1 1 0h-1zM284 137q9 5 16.5 13t1.5 6q-3 -2 -11 -10q-4 -4 -5 -6t-2 -3z" />
    <glyph glyph-name="t" unicode="t" horiz-adv-x="216" 
d="M231 151q8 -5 16.5 -13t4.5 -13q-5 -6 -11.5 -14.5t-15.5 -16.5q-11 -9 -22.5 -18.5t-26.5 -17.5q-8 -5 -17.5 -8.5t-20.5 -5.5l-12 -2t-12 1q-14 1 -28 6q-12 6 -21.5 14.5t-16.5 16.5q-14 20 -19 37q-8 17 -12 33.5t-6 31.5t-3.5 27.5t-2.5 25.5q-2 11 -2.5 20.5
t-1.5 17.5v2q0 10 0.5 31t1.5 47q0 8 1 15.5t1 15.5h-39q-9 0 -15 1v15q11 -2 30.5 -2.5t24.5 -0.5q-7 2 -25.5 4t-29.5 2v21.5t0.5 23t2.5 18t6 7.5q13 -3 49 -8q0 3 0.5 6t0.5 7q2 31 6 60.5t7.5 52t6.5 35.5l3 13q0 1 2 1q4 0 8 1l2 -27l3 27q11 1 23 0t12 -8
q-2 -16 -2.5 -38.5t-1.5 -50.5q-2 -42 0 -88q8 0 12 -1q20 -2 39 -3.5t33 -1.5q17 -1 32 0l3 -9l-15 -6l16 1q2 -11 4.5 -22t-2.5 -12q-9 -4 -25.5 -7t-36.5 -6q-13 -2 -27.5 -2.5t-28.5 -1.5l3 -64l1 -35q1 -1 1 -3q0 -10 -0.5 -30.5t1.5 -46.5q2 -14 3 -27.5t4 -27.5
q2 -5 3 -11t3 -12q4 -5 6.5 -8.5t5.5 -5.5l4 -4t5 -3q4 0 8.5 0.5t9.5 2.5q10 4 20.5 9.5t18.5 10.5q16 12 27 21q6 5 11 10l2 -2q3 -3 6 -5q-4 -5 -7.5 -10t-7.5 -10q5 5 10 8.5t10 8.5zM162 443q-6 0 -12 -3q-4 -2 -7 -3q7 0 15 2.5t4 3.5zM-49 425q2 -1 5.5 -1t6.5 0.5
t4.5 1t-0.5 1.5q-5 2 -10 0zM22 201q1 3 0.5 13.5t-2.5 24.5q0 7 -0.5 13.5t-0.5 12.5h-3v-15.5t1 -14.5q0 -8 1 -13.5t2 -10.5zM31 585q-2 -4 -1.5 -8t1.5 -9t2 -11q1 5 1 11.5t-0.5 11t-1 6.5t-1.5 -1zM30 372q1 -4 3 12h-3v-12zM33 433q0 -2 2 -2v5h-2v-3zM45 267h-3
q0 -4 1.5 -5t1.5 2v3zM43 289q2 0 2.5 0.5t1.5 0.5q-2 7 -4 1v-2zM71 350q-2 -4 -2 -21.5t1 -37.5q1 -1 3 -1q0 11 -0.5 22t-0.5 19q-1 10 -1 19zM63 163q2 -13 6.5 -26t9.5 -18q-1 0 -3.5 8t-4.5 20t-3.5 23.5t-2.5 14.5q-2 3 -3 -3.5t1 -18.5zM163 103q4 3 8.5 6.5t7.5 7
t3.5 5.5t-2.5 1q-3 -2 -11 -10q-2 -3 -4 -7q-1 -2 -2 -3zM229 124q-4 -2 -7 -3q3 1 7 3zM214 117q3 1 4.5 2t3.5 2q-2 -1 -3.5 -2t-4.5 -2z" />
    <glyph glyph-name="u" unicode="u" horiz-adv-x="350" 
d="M366 185q10 -6 19 -13.5t4 -13.5q-5 -5 -11.5 -13.5t-15.5 -16.5q-9 -9 -20 -18.5t-26 -17.5q-4 -2 -7.5 -4.5t-7.5 -4.5q-4 -1 -10 -3l-6 -2q-1 0 -2 -0.5t-3 -0.5q-27 -6 -55 7q-11 8 -20 18q-4 -5 -8.5 -10.5t-10.5 -10.5q-10 -9 -21.5 -17t-26.5 -15
q-7 -3 -14.5 -4.5t-16.5 -3.5q-9 -1 -18 -0.5t-18 2.5q-8 1 -19 6q-10 4 -17 10q-9 7 -14.5 16.5t-8.5 18.5q-3 8 -4.5 14.5t-3.5 14.5q-1 5 -2 11.5t-2 13.5q-1 11 -1.5 22.5t-0.5 22.5q0 43 3 76q2 16 4.5 30t5.5 23q1 5 2 9.5t2 7.5q1 4 2 7h18q-5 -10 -7.5 -19t-5.5 -18
q-5 -23 -6 -42q-3 -20 -3 -34v-15q1 4 2.5 19.5t4.5 34.5q2 19 6.5 38.5t11.5 34.5q5 0 10.5 -2.5t10.5 -4.5t10.5 -4.5t9.5 -4.5q5 -2 8.5 -5t7.5 -5q6 -4 5 -6q-6 -8 -11 -37q-2 -13 -4.5 -30t-4.5 -35q-1 -10 -1.5 -20.5t-0.5 -19.5v-20t2 -20q0 -2 0.5 -3.5t0.5 -3.5
l2 -4v-3q0 -1 2 -3l2 -2q1 0 2 -0.5t2 -0.5q6 -2 13 0q13 0 28 12q15 8 29 25q5 4 8 7.5t6 7.5q-4 15 -5.5 29.5t-3.5 27.5q-2 14 -2.5 26.5t-2.5 23.5q-1 10 -1 18.5v14.5q0 7 -1 13q1 0 4 1q3 0 11 2v-22t1 -27v-12.5t1 -10.5q0 -5 1 -9q1 4 1 14v22q-1 12 -1 25t-1 20
q10 1 22.5 3t23 2t18 -1.5t7.5 -6.5v-19t-1 -28q8 2 13 2q11 0 11 -11q0 -29 -12 -65q-2 -5 -3.5 -10t-4.5 -10q1 -3 1.5 -6.5t2.5 -7.5q1 -6 3 -9l2 -3v-2q2 -5 6 -5q0 -1 1 -2h1h1h1h1q2 2 5 2t6 1q10 4 19.5 9.5t17.5 10.5q17 12 26.5 21.5t10.5 9.5l2 -2q1 -1 2 -1.5
t3 -2.5q-6 -11 -13 -20q5 4 9 8t8 9zM50 313q-2 -8 -1.5 -12t2.5 4q2 5 3.5 10.5t2.5 11.5q0 4 2 8q1 2 1 3q-3 -3 -6 -11t-4 -14zM58 102q4 -8 8 -9q-1 1 -2.5 3t-3.5 6q0 2 -0.5 3t-0.5 3l-1 2l-1 3q-1 5 -2 9t-1 8q-2 17 -2 33v22q-1 7 -2.5 -4t-1.5 -28q0 -8 1 -18
t3 -19q2 -6 2 -8q2 -2 2.5 -3.5t1.5 -2.5zM203 297q1 7 -1 17l-2 8q-1 -3 -1 -8.5t1 -10.5t2 -7.5t1 1.5zM302 136q8 5 15.5 13.5t1.5 6.5q-6 -3 -11 -10q-2 -3 -4 -7q-1 -2 -2 -3z" />
    <glyph glyph-name="v" unicode="v" horiz-adv-x="305" 
d="M345 221q4 -4 5.5 -8.5t-3.5 -12.5q-6 -9 -16 -20.5t-27 -22.5q-7 -5 -16 -9t-20 -6t-22 -2.5t-22 1.5q-8 1 -15.5 3t-15.5 4q-9 -11 -18 -21.5t-20 -20.5q-8 -8 -15.5 -15t-15.5 -15q-10 -7 -16 -14q-5 -4 -9 -7l-8 -6h-1l-4 -2q-2 -2 -7 -2q0 -1 -5 -3h-4h-9q-2 1 -6 1
q-1 2 -4 2q0 1 -1 1q-4 2 -5 3h-1q-9 5 -13.5 15t-3.5 20q-2 6 -2 11l-6 23l-15 44q-6 21 -10.5 40t-8.5 36q-8 35 -9 55q-1 5 -0.5 10t0.5 8v6q1 1 4 3q3 3 11 6q-1 -8 -1 -14.5v-12.5q1 -9 1.5 -17t2.5 -16q5 -33 14 -61q5 -16 8 -29t6 -24q3 -12 6 -22q-1 9 -6 32t-13 52
q-4 14 -7.5 29.5t-5.5 29.5q-1 7 -1.5 14t-1.5 15q0 6 -0.5 12.5t1.5 12.5q5 2 11 3t13 0q11 0 21 -5q5 -2 9 -4l8 -4q2 0 3 -0.5t2 -0.5q4 0 1 -3q0 -3 1 -10.5t2 -19.5q2 -11 4 -23t5 -28q3 -14 7 -30.5t9 -34.5l3 -15q5 6 11 10.5t11 9.5t10 11t10 11q-5 9 -11 17.5
t-9 19.5q-2 7 -3.5 14.5t-2.5 14.5q-1 12 0 26q0 10 3 18q1 6 8 18q4 5 9.5 10.5t13.5 10.5q8 4 16.5 4.5t15.5 -0.5q12 -3 22 -11q5 -4 8.5 -7t6.5 -6q7 -6 11 -12.5t7 -14.5q2 -5 3.5 -8t2.5 -8q1 -2 1 -3.5t1 -3.5v-2l1 -2v-4q2 -9 1 -18t-3 -17q-2 -10 -5 -17.5
t-6 -15.5q14 -4 24.5 -3t20.5 5q19 10 28 21q3 3 5 7q1 2 2 3l12 -1q-7 -13 -15 -23.5t-19 -17.5q11 6 21 16.5t20 23.5q11 -1 20 -7zM18 286q2 -12 4 -16.5t1 4.5t-2.5 19t-1.5 18q-1 4 -1 7.5v6.5q0 1 0.5 2t0.5 2v1q-2 -3 -3 -8t0 -11q0 -6 0.5 -13t1.5 -12zM75 71
q0 1 1 1l-2 2q-2 -2 -4 -2q-3 -1 -4 0h-4q0 1 -1 1v1q-6 4 -5 9h-2q-1 -6 2 -9q2 -1 4 -3l1 -1h1h2q3 -3 7 -1zM118 134q11 10 20 20t17 18q-1 0 -1 0.5t-1 0.5l-11.5 -11.5l-12.5 -12.5q-8 -5 -15 -12.5t-14 -12.5q0 -1 0.5 -2t0.5 -2q9 6 17 14zM225 189q4 0 -2 2
q-1 0 -1 -2h3z" />
    <glyph glyph-name="w" unicode="w" horiz-adv-x="474" 
d="M514 220q5 -4 6.5 -8.5t-3.5 -12.5q-7 -9 -17.5 -20.5t-26.5 -22.5q-7 -5 -16.5 -9t-20.5 -6q-19 -4 -45 -1q-7 1 -14 3t-15 4q-9 -11 -18.5 -21.5t-19.5 -20.5q-8 -8 -15.5 -15t-15.5 -15q-5 -3 -9 -6.5t-10 -7.5q-3 -4 -6.5 -7t-7.5 -6h-1q-1 -1 -5 -2q-2 -2 -5 -2
q0 -1 -5 -3h-4h-12q-2 1 -5 1q-1 2 -3 2q0 1 -1 1q-4 2 -5 3h-1q-8 5 -12.5 15t-3.5 20q-1 2 -2 5t-1 6l-7 23l-7 18q-7 -10 -15 -19t-17 -17q-14 -13 -25 -25q-3 -2 -7 -5.5t-8 -6.5q-3 -3 -6.5 -6t-7.5 -6l-2 2l-1 -1q-3 -2 -9 -4q-6 0 -9 -1q-2 0 -4 0.5t-3 0.5
q-2 0 -2.5 0.5t-1.5 0.5t-2 1l-2 1q-1 0 -5 2l-1 1q-7 5 -10.5 12.5t-3.5 14.5h-1v3q-2 5 -5 10l-5 22l-13 41q-7 23 -12.5 43t-10.5 38q-4 18 -6 33.5t-4 29.5q-3 11 0 21q0 5 1 6q0 1 1 2q1 0 4 1q2 1 5 1t7 1q-4 -8 -4.5 -17.5t1.5 -18.5q1 -11 2 -20t3 -17q2 -9 3.5 -17
t3.5 -14q2 -7 3 -13q0 12 -8 49q-1 8 -2 17t-2 19v16t2 16q5 1 11 0.5t11 -1.5q6 -2 12 -3.5t10 -3.5q5 -2 9.5 -3.5l7.5 -2.5q4 -4 6 -4q-2 0 0 -25q1 -11 3.5 -24.5t5.5 -29.5q3 -17 6.5 -34t7.5 -36l6 -23q5 3 9.5 6.5t9.5 7.5q13 12 25 25t21 24l-4 16l-4 16
q-4 17 -6.5 30.5t-3.5 24.5q-1 5 -1 10v8v6q2 1 5 3q4 3 12 6q-1 -8 -1 -14.5v-12.5q1 -9 1.5 -17t2.5 -16q2 -11 4.5 -22.5t5.5 -23.5q0 2 2 4q-2 12 -4.5 24.5t-4.5 24.5l-2 14t-2 15q0 6 -0.5 12.5t1.5 12.5q5 2 10.5 3t10.5 0q16 0 24 -5q9 -2 16 -8q1 0 2 -0.5t2 -0.5
q2 0 1 -3q0 -6 3 -30q2 -11 5.5 -23t6.5 -28q3 -14 6.5 -30.5t8.5 -34.5l3 -15q5 6 10.5 10.5t11.5 9.5q5 5 10 11t10 11q-6 9 -11 17.5t-9 19.5q-3 7 -4 14.5t-3 14.5q-1 12 0 26q0 10 5 18q2 9 8 18q6 10 21 21q8 4 16.5 4.5t15.5 -0.5q14 -3 22 -11q6 -4 9.5 -7t6.5 -6
q5 -6 10.5 -12.5t8.5 -14.5q2 -5 3 -8t2 -8q1 -2 1 -3.5t1 -3.5v-2l1 -2v-4q1 -18 -2 -35q-2 -10 -4.5 -17.5t-5.5 -15.5q11 -4 22.5 -3t21.5 5q20 12 28 21q5 5 6 7t2 3l11 -1q-7 -13 -15.5 -23.5t-19.5 -17.5q12 6 22 16.5t19 23.5q12 -2 21 -7zM184 285q4 -12 6.5 -16.5
t1.5 4.5q-2 9 -3.5 19t-1.5 18q-2 4 -2.5 7.5t-0.5 6.5q3 3 3 4v1q-7 -7 -5 -19q0 -6 0.5 -13t1.5 -12zM193 148q1 -4 2 -7.5t2 -5.5q1 -4 1 -6q0 9 -4 20q-1 0 -1 -1zM245 70q0 1 1 1l-2 2q-2 -2 -4 -2q-5 -2 -7 0h-4q0 1 -1 1l-1 1q-4 4 -3 9h-2q-1 -6 2 -9l3 -3l1 -1h1h1
q2 -1 5 -2t6 1zM287 133q10 10 19.5 20t17.5 18q-2 0 -2 0.5t-1 0.5q-5 -5 -11 -11.5t-13 -12.5q-6 -5 -14 -12.5t-15 -12.5q0 -1 0.5 -2t0.5 -2q4 3 9 6t9 8zM394 188q7 0 -3 2q-1 0 -1 -2h4z" />
    <glyph glyph-name="x" unicode="x" horiz-adv-x="292" 
d="M312 151q9 -5 18.5 -12t4.5 -14q-6 -6 -15 -15.5t-20 -18.5q-10 -10 -24.5 -21t-32.5 -19q-10 -4 -22 -7t-24 -3q-14 0 -26.5 3t-23.5 8q-12 6 -21.5 13t-17.5 14q-8 8 -15 15.5t-12 15.5q-7 8 -12.5 15.5t-10.5 15.5l-54 -41l-8 5l9 16l-12 -11q-9 7 -17 14t-5 12
q5 8 16 20.5t24 26.5l12 12q-5 6 -8 11.5t-5 10.5l-28 44l3 3l4 4t5 6q5 -14 18 -34t22 -35l1 2q-8 16 -20 36.5t-19 31.5q7 6 16.5 13.5t18.5 13.5t16.5 7.5t10.5 -4.5q4 -6 10.5 -18t14.5 -29q11 12 19.5 23.5t15.5 19.5q8 10 14 18l13 -12q-5 -4 -11 -10.5t-11 -12.5
q-6 -8 -13 -16q2 1 7 5.5t11 10.5t11 11.5t8 9.5q7 -5 17 -12t18 -14t13 -12.5t3 -8.5q-5 -5 -16 -15t-25 -24q-9 -7 -18 -14.5t-20 -15.5q5 -5 8 -11.5t6 -11.5q8 -15 18 -27.5t20 -19.5q20 -18 40 -12q13 2 24.5 8t20.5 12q11 7 19 12.5t13 9.5q2 3 4 5l4 4t2 3q1 0 3 -1
t3 -2t3 -2q-5 -7 -8.5 -12.5t-7.5 -12.5q11 12 21 20zM165 293q-1 -2 -2 -5q-2 -7 -6 -8q-4 -3 0 4t8 9zM13 288q1 -3 4.5 -8.5t7 -10t6 -6.5t0.5 2q-5 10 -11 16zM27 127q4 1 8 9q2 4 3 7q-5 -4 -10 -11t-1 -5zM129 231q2 3 -6.5 -2t-17.5 -13q1 -1 1 -2t1 -2
q7 5 13.5 10.5t8.5 8.5zM97 167q7 -14 15.5 -26.5t17.5 -17.5q-3 4 -7 9q-6 9 -12 21q-4 6 -6.5 10.5t-5.5 8.5q-1 -1 -1.5 -1t-1.5 -1q0 -1 0.5 -1.5t0.5 -1.5zM254 114q7 7 2 5q-6 -3 -12 -12l-8 -8q11 3 18 15z" />
    <glyph glyph-name="y" unicode="y" 
d="M400 194q4 -2 4 -10t-8 -18q-20 -27 -49 -54t-64 -56l-26 -21v-49q-1 -27 -2 -56t-3 -59q-1 -8 -1.5 -15.5t-2.5 -15.5l-1 -8q0 -4 -1 -9t-1.5 -8.5t-1.5 -7.5q-4 -16 -9.5 -31.5t-13.5 -30.5q-13 -35 -30 -61q-7 -8 -12.5 -15t-11.5 -15q-8 -6 -15.5 -12t-20.5 -11
q-8 -8 -21 -11q-7 -1 -13.5 -1.5t-14.5 1.5q-13 2 -23.5 8t-19.5 12q-17 11 -28 27q-2 5 -5 8t-5 7q-3 5 -5.5 8.5t-4.5 7.5q-9 17 -14.5 35.5t-5.5 37.5q0 37 17 71q6 16 15 29.5t17 27.5q11 13 20.5 23.5t19.5 22.5q21 20 42 38t41 33q8 7 16 13.5t16 13.5q-1 7 -1 13v12
q-6 -5 -14 -9.5t-17 -9.5q-8 -3 -16 -4.5t-16 -3.5q-8 -1 -17.5 -0.5t-18.5 2.5q-4 1 -9 2.5t-10 3.5l-9 4.5t-9 5.5q-8 7 -13.5 16.5t-9.5 18.5q-2 8 -3.5 14.5t-2.5 14.5q-4 13 -5 25q-1 11 -1.5 22.5t-0.5 22.5q0 21 1 40t4 36q3 34 8 53q1 5 2.5 9.5l2.5 7.5q1 4 2 7h16
q-3 -10 -6 -19t-5 -18q-7 -25 -8 -42q-3 -20 -3 -34v-15q2 4 3.5 19.5t5.5 34.5q2 19 6.5 38.5t9.5 34.5q5 0 10.5 -2.5t10.5 -4.5q7 -2 11.5 -4.5t9.5 -4.5t8.5 -5t7.5 -5q6 -4 4 -6q-2 -3 -4 -13t-6 -24q-3 -13 -5.5 -30t-4.5 -35q-1 -10 -1.5 -20.5t-0.5 -19.5
q0 -11 0.5 -20t1.5 -20q0 -2 1 -3.5t1 -3.5l1 -4v-3q1 -1 1 -1.5t1 -1.5t3 -2q1 0 2 -0.5t3 -0.5q5 -1 12 0q7 0 14 3.5t15 8.5t14.5 11t13.5 14l6 6q-2 29 -3 53t-2 41l-2 48q1 1 3 4l4.5 4.5l5.5 5.5q1 -26 3.5 -63t5.5 -76q2 2 2.5 3t1.5 2q-2 39 -5.5 75t-5.5 60
q11 6 22.5 12.5t21.5 6.5q13 1 19.5 -4.5t8.5 -23.5q1 -8 1 -15.5t1 -16.5q3 1 9 1q5 0 9.5 -2t4.5 -9q0 -14 -4 -30.5t-11 -34.5q-1 -3 -2 -8t-3 -8v-2q1 -17 1 -34.5t1 -36.5q20 16 37 30t29 24q9 8 15 14.5t11 11.5l8 10h3q2 0 4 0.5t6 0.5q-13 -20 -29.5 -37.5
t-33.5 -34.5q18 17 36.5 34.5t32.5 37.5q7 1 13.5 0.5t10.5 -3.5zM53 313q-1 -8 -1 -12t2 4q2 5 3 10.5t2 11.5q1 2 1 4t1 4q0 2 1 3q-3 -3 -5.5 -11t-3.5 -14zM60 102l5.5 -5.5t4.5 -3.5q-2 1 -6 9q-3 4 -3 6l-1 2l-1 3q-1 5 -1 9t-1 8q-2 17 -1.5 33t-0.5 22q-1 7 -2.5 -4
t-1.5 -28q1 -8 1.5 -18t2.5 -19q1 -2 1.5 -4t1.5 -4q0 -4 2 -6zM202 323q-1 -10 0.5 -32t3.5 -42q1 -9 1.5 -16.5t1 -11t1 -2t0.5 9.5q0 15 -1.5 32t-3 30.5l-2.5 22.5zM189 81q0 -8 0.5 -15t0.5 -13l2 2v28l-2 -2h-1zM190 44v-4q1 0 1 0.5t1 0.5v5zM157 15q-6 -6 -11 -10.5
t-9 -8.5t-9 -7q12 8 23.5 17.5t22.5 19.5v7q-5 -5 -8.5 -9.5t-8.5 -8.5zM106 -301q14 14 25 37q14 22 23 47t14 49v3q1 1 1 2v5l1 14q1 7 1.5 13t0.5 12q1 14 1.5 27t0.5 25v34q-10 -10 -21 -20t-24 -22q-18 -18 -36 -38t-32 -41q-12 -22 -20 -45q-2 -11 -2.5 -21.5
t1.5 -20.5t7 -19.5t12 -20.5q4 -5 8 -9.5t7 -8.5q4 -4 7.5 -5.5t5.5 -2.5q5 -1 8 0q3 0 11 6zM224 -146q2 20 3 36.5t1 24.5q0 12 -3 -13l-5 -32l-2 -21l-1 -11l-1 -6q0 -2 -0.5 -3t-0.5 -2q-9 -48 -34 -95q-22 -50 -53 -74q5 3 10 7t10.5 9t10.5 13q10 14 22 33.5t20 42.5
q8 20 15 46q0 4 2 10l1 7q1 2 1 6q2 14 4 22z" />
    <glyph glyph-name="z" unicode="z" horiz-adv-x="399" 
d="M444 194q4 -2 3.5 -10.5t-9.5 -20.5q-21 -26 -51.5 -53.5t-66.5 -57.5l-20 -17v-7q2 -28 1.5 -58t-3.5 -62q-2 -16 -3.5 -31.5t-3.5 -30.5l-2 -16v-2q0 -2 -1 -3v-7l-2 -7q-2 -8 -4 -16.5t-6 -17.5q-6 -16 -12.5 -31.5t-14.5 -31.5t-18.5 -31t-24.5 -31q-8 -6 -17 -12.5
t-20 -11.5q-10 -6 -25 -8t-28 1q-25 9 -40 24q-11 7 -17 14.5t-12 15.5q-9 14 -18 32t-14 38q-6 40 6 75q6 19 14 34t17 28q8 14 19 26.5t20 22.5q23 23 43.5 42.5t41.5 35.5q11 8 21.5 17t20.5 17q0 4 -0.5 7.5t-0.5 7.5l-6 3q-6 3 -10.5 5.5t-8.5 4.5q-11 7 -19 12.5
t-13 13.5q-5 5 -7 14q-1 2 -1 4v6q-1 2 -0.5 3t0.5 3q0 7 3.5 16t10.5 16q2 5 5 9l6 8l8 13l21 29l2 3l1 2l-1 23l-1 11q-5 0 -9.5 -1t-9.5 -1q-11 -2 -22.5 -4t-21.5 -6q-11 -5 -17 -11q-5 -5 -9 -7q-1 -1 -2 -3t-3 -4q-1 -1 -1.5 -4t-2.5 -7t-3 -10q-2 -6 -2.5 -13
t-1.5 -13q-2 -26 0 -46q1 -11 2.5 -19t3.5 -13q2 -6 3 -11l-8 -5q-6 7 -13 21q2 -6 4.5 -12t4.5 -11q-9 -7 -19.5 -12.5t-15.5 1.5q-8 16 -14.5 41t-8.5 56q0 2 -2.5 18.5t-5.5 34.5q-4 21 -7 47l-4 4t-3 4q-5 4 -6.5 8t-3.5 7t-2.5 6.5t-1.5 6.5v4l-2 3v2v6v9.5t2 9.5
q1 5 2 12t3 13q2 3 3.5 6t6.5 8q3 4 12 9q6 5 17 8q3 0 3 1h1q9 0 22 -4q5 -3 8.5 -6t6.5 -5q6 -8 8 -11q2 -2 2.5 -4t1.5 -4q2 -8 3 -14.5t2 -11.5q0 -4 0.5 -7.5t0.5 -7.5h3h2q13 6 24.5 10t22.5 7q16 3 29.5 4.5t25.5 2.5h37q8 0 14 -1v-2q0 -4 1 -6q11 1 17.5 -4.5
t7.5 -25.5l4 -54v-17l1 -15q-1 -5 -1 -9.5t-2 -8.5q-4 -8 -9.5 -16t-7.5 -11l-13 -17l-11 -16l-1 -1v-1h1v-1l4 -1q3 -2 5.5 -4t6.5 -4q5 -1 11 -8q4 -2 6 -5l3.5 -3.5t4.5 -6.5q21 17 38.5 31.5t30.5 25.5q9 8 16 15l12 12q5 6 9 11h3q5 0 8 1q-11 -20 -29 -38.5t-36 -35.5
q11 8 20 17t19 17q10 10 18 19.5t15 20.5h14t12 -3zM181 322q3 -1 14 -0.5t24 0.5h23q2 1 3.5 2t3.5 2q-8 0 -17 0.5t-17 -0.5q-7 0 -13 -0.5t-11 -1.5zM217 75l-1 1v1h-2zM215 -138q3 29 4 54.5t1 51.5q-14 -11 -28.5 -25t-28.5 -26q-20 -20 -37.5 -41t-28.5 -44
q-12 -25 -15 -45q-1 -12 0 -22.5t6 -21.5q3 -9 11 -20q3 -6 6.5 -10.5t7.5 -9.5q6 -4 9.5 -6t6.5 -4q3 -1 7 -1q2 1 5 2t6 4q4 2 7.5 6.5t7.5 9.5q8 9 14.5 20.5t11.5 24.5q6 13 10 26t9 26q2 6 3 12.5t3 13.5l1 12zM228 221l-1 8l-1 26h-3l1 -33v-2v-2l-1 -2l-3 -3
q-4 -6 -7 -11t-8 -10l-21 -30q-2 -4 -5 -7.5t-5 -8.5l-4 -10t-3 -8q0 -2 -0.5 -3.5t-0.5 -3.5q0 -7 3 -10q2 -3 4.5 -6.5t5.5 -6.5q5 -6 14 -11t18 -9l3 -1h5h-1q-7 4 -14.5 7.5t-14.5 8.5q-8 6 -12 12q-5 7 -6 12q-2 5 -0.5 8.5t2.5 6.5q2 9 7 18q2 3 4.5 7t6.5 9l10 13
l15 21l7 11l2 3l2 2q0 2 1 3v2zM231 67q0 -1 1 -1h2v2q-2 1 -3 1v-2zM234 57v3q-1 0 -2 -1v-6l1 1h1v3zM231 78h3h-3zM237 65q1 0 1 1q1 0 1 1zM241 69l1 1h1q-1 0 -2 -1zM247 76q2 0 3 1q-1 0 -1 -1h-2zM251 77l1 1q-1 0 -1 -1zM252 78h1h-1zM255 78h3q1 0 1 1q0 -1 -1 -1
h-3z" />
    <glyph glyph-name="ampersand" unicode="&#x26;" horiz-adv-x="390" 
d="M345 330q11 0 17 -9q6 -7 1 -28q-5 -22 -15.5 -53.5t-29.5 -70.5l-10 -20t-11 -20q4 -5 7.5 -9t7.5 -7l14 -17.5t11 -12.5q5 -6 9 -11v-4q0 -2 -0.5 -4.5t-0.5 -4.5q-28 29 -56 56l-1 -1l28 -30t27 -32q-3 -16 -13 -22q-5 -2 -10 -0.5t-13 10.5q-8 10 -19 21l-23 23
q-2 -2 -4.5 -5t-5.5 -5q-3 -3 -6 -5.5t-6 -5.5q-7 -5 -13.5 -9t-13.5 -9q-29 -15 -62 -21q-19 -3 -36 -2q-19 0 -40 9q-20 7 -36 24q-8 8 -14 17t-10 16q-4 8 -7.5 17t-5.5 19t-3.5 20t-0.5 20q1 21 9 41q8 19 18 35q11 15 22.5 27t24.5 23q6 6 10 9q-2 5 -4 8.5t-4 8.5
q-7 14 -12 30t-7 35q-1 16 2 39q1 2 1 4.5t1 4.5q2 3 2 5t2 4q2 5 3.5 9t3.5 9q5 8 11 17t16 17t22.5 13t26.5 5q6 0 12.5 -0.5t13.5 -2.5q12 -4 23 -12q19 -12 32 -33q11 -19 14.5 -41t0.5 -42q-4 -19 -14 -39l-2 -4l-2 -4q-2 -3 -3.5 -5.5t-3.5 -4.5q-3 -5 -6.5 -8.5
t-6.5 -7.5q-9 -8 -17 -15.5t-16 -13.5q11 -17 23 -32t23 -29l8 -8t8 -9q2 7 5 13l6 12q5 14 9.5 26t7.5 23t5 19t4 13q2 6 3 11q2 1 5 2q2 1 5.5 1.5t7.5 2.5q-3 -14 -9.5 -34.5t-14.5 -43.5q-5 -14 -11 -28t-13 -28q1 -1 1 -2t2 -2q17 34 28 67q8 21 12.5 39.5t7.5 32.5
q11 4 24 7.5t24 1.5zM204 223q-8 9 -18 21.5t-20 23.5q-1 0 -1 -0.5t-1 -0.5l-1 -1q11 -15 25 -29q12 -14 18 -19t-2 5zM175 402q0 20 -12 32q-2 1 -3 2t-3 1q-1 2 -2 2t-2 1q-5 0 -8 -1q-2 -1 -5 -3.5t-5 -6.5q-2 -3 -4.5 -8t-4.5 -10q-4 -8 -4 -18t2 -21q3 -15 11 -33
q3 2 6 5l5 5q11 9 17 16l1 2l2 2q0 2 2 4q1 2 2 5t2 5q3 9 3 19zM32 149q-2 28 10 51q5 13 12.5 23.5t15.5 19.5q8 8 15.5 16t15.5 14q-2 2 -2 3q-5 -5 -11.5 -10.5t-12.5 -11.5q-8 -8 -16 -17t-15 -20q-12 -21 -17 -49q-2 -14 0 -26.5t6 -23.5q2 -5 4.5 -9.5t4.5 -9.5
q2 -2 2.5 -4t2.5 -4l2 -4t3 -4q5 -8 10.5 -12t10.5 -6q3 -2 4 -3t-1 1t-5.5 4.5t-8.5 8.5q-2 2 -4.5 5.5t-5.5 7.5q-2 4 -4.5 7.5t-4.5 8.5q-4 10 -7 20.5t-4 23.5zM109 107q10 -4 30 -2q8 2 16.5 5t15.5 7q8 4 14 10q4 2 6.5 4.5t5.5 4.5q2 3 4 5.5t4 5.5q-16 17 -32.5 35
t-33.5 38q-3 5 -5.5 8.5t-6.5 6.5q-6 -6 -10 -9q-19 -19 -28 -37q-5 -8 -7 -17t-2 -17q1 -8 3.5 -16t8.5 -17l1 -2l1 -2l2 -3q2 -2 4 -3q3 -3 9 -5zM216 133l2 1q-2 1 -3 2q-3 -3 -5.5 -6.5t-5.5 -6.5q-6 -6 -12.5 -10t-13.5 -8q-12 -7 -19.5 -9t-7.5 -3q5 2 15.5 5.5
t23.5 11.5q7 4 13.5 9t12.5 13v1zM317 296q2 7 2 12t1 10q0 4 1 9q-2 -10 -7.5 -31t-10.5 -39q-5 -17 -7 -26t3 6q6 14 11 29.5t7 29.5z" />
    <glyph glyph-name="exclam" unicode="!" horiz-adv-x="229" 
d="M165 132q6 -11 9 -19q0 -5 0.5 -10t-0.5 -10q0 -6 -3 -13q-3 -3 -4 -7q-2 -2 -2 -3l-1 -1h-1v-1l-2 -2q-2 -3 -4.5 -5t-5.5 -4q-8 -5 -15 -6q-7 -2 -12.5 -1.5t-8.5 1.5h-8l-2 1l3 15q0 -1 1 -1t2 -0.5t3 -0.5q2 -1 8 -1q5 -2 12 1q2 1 5.5 2.5t5.5 1.5q1 1 1.5 2t1.5 2
l3 3h1l1 1v1q2 2 2 3l2 3q-1 -1 -4 -5q-2 -2 -1.5 -1t-1.5 -1l-3 -2q-1 -1 -7 -5q-2 -1 -5 -1t-6 -1q-5 -1 -9 0t-6 1h-6q1 1 1 4q-3 -5 -7 -3l-4.5 4.5t-5.5 7.5l-4 8t-4 11q-1 4 -2 7.5t0 8.5q0 7 4 15q2 2 3 5t3 6q3 2 6 4.5t7 4.5q3 1 6.5 1.5t5.5 1.5h11q2 -1 8 -1
q1 0 3 -1t1 -1h1q-2 1 -1.5 0.5t0.5 0.5v-1h4q2 -2 4 -3q6 -4 7 -5q6 -6 10 -12zM169 658q10 0 22 -0.5t22.5 -2.5t17 -5.5t5.5 -9.5q-3 -13 -9.5 -38t-14.5 -57q-8 -33 -18.5 -70t-18.5 -74t-14 -71.5t-8 -60.5q-2 -14 -3 -24t-2 -18q-1 -9 -2 -16q-1 -1 -2 -1l-7 -2
q-1 8 -1.5 15.5t-2.5 15.5q0 -8 -0.5 -16.5t-0.5 -16.5q-11 -2 -22 -2.5t-11 7.5q-2 19 -2 48.5t2 65.5q2 35 6.5 74t11.5 76t13 70t11 59l11 54h15q-3 -10 -6.5 -26t-6.5 -32q-4 -18 -7 -38q2 3 5.5 15t6.5 27l6 30t4 24zM146 275q2 8 0 20l-2 12q-1 -6 -1 -13t0.5 -12.5
t1 -8t1.5 1.5zM181 529q0 4 -3 -4t-7.5 -22t-8 -30t-3.5 -26l10 36q4 14 7.5 27.5t4.5 18.5zM190 628q1 5 1.5 9.5t0.5 9.5v10q-2 -3 -3.5 -9.5t-2 -12.5t0.5 -9t3 2z" />
    <glyph glyph-name="at" unicode="@" horiz-adv-x="870" 
d="M847 192q8 1 16 0t11 -5t-1.5 -12.5t-21.5 -22.5q-20 -17 -43 -34t-51 -37q-27 -18 -58.5 -36t-68.5 -35q-36 -17 -76.5 -30t-85.5 -21q-23 -3 -47 -4.5t-49 0.5q-50 2 -99 21q-24 10 -47.5 24t-43.5 33q-20 20 -35.5 42.5t-26.5 48.5q-7 13 -11 26l-8 26t-6.5 26
t-3.5 27q-5 27 -5.5 55t3.5 55q6 55 27 107.5t57 97.5q17 22 38.5 40.5t46.5 34.5q24 15 50.5 26t54.5 16q54 10 111 4q27 -4 53.5 -11.5t51.5 -20.5t46 -29.5t40 -35.5q36 -42 55 -88q21 -47 26 -95.5t-3 -94.5q-5 -23 -12.5 -44t-18.5 -41q-5 -10 -11.5 -18.5t-11.5 -17.5
q-4 -4 -7 -7.5t-7 -7.5q-3 -4 -6 -7l-7 -7q-13 -14 -26 -26t-30 -23q-8 -5 -16.5 -10t-19.5 -9q-5 -3 -11 -3q-10 -2 -14 -2q-13 -1 -28 2q-13 3 -24 10.5t-19 17.5q-1 1 -2 1h-2q-8 -11 -20 -21t-26 -18q-8 -5 -16 -8t-18 -5q-18 -6 -41 -1q-10 2 -20 6l-4 2q-2 0 -6 2
q-2 2 -5 3.5t-5 3.5q-6 6 -9 8q-2 3 -3.5 5.5t-3.5 4.5q-6 10 -10 18q-8 17 -10 33.5t-3 32.5q-1 29 5 61q2 8 4.5 16t7.5 16q1 1 1.5 3.5t1.5 4.5q1 1 2 1.5t2 2.5l2 4q3 3 5.5 6t6.5 7q11 12 24 20.5t24 13.5q13 5 24.5 8.5t22.5 4.5q22 5 38.5 6.5t27.5 0.5
q6 0 10.5 -0.5t7.5 -0.5h6q0 -1 1 -4q1 -2 1.5 -5t2.5 -7q-16 2 -41.5 2t-51.5 -5q-25 -4 -42 -13q-10 -3 -14 -6q-3 -2 -4 -3q6 4 26 10q9 3 20 5.5t22 4.5q21 4 41 4t34 -1q2 0 3 0.5t2 0.5q11 2 17.5 -9.5t8.5 -42.5v-2q3 1 5.5 1.5t5.5 0.5q12 2 12 -12q0 -30 -16 -68
q2 -6 3 -11.5t3 -10.5t3.5 -9t2.5 -6l1 -1h2q2 0 4 1q9 3 20 12q6 5 12.5 10t12.5 10l12 12t11 14q5 6 11 12t10 13q18 28 27 64t6 74q-5 39 -21 77.5t-45 69.5q-14 15 -31.5 28t-37.5 21q-19 10 -40.5 15t-44.5 6q-44 4 -91 -8q-44 -13 -81 -39q-38 -28 -64.5 -67
t-41.5 -85q-14 -45 -15.5 -92.5t6.5 -93.5l6 -22t7 -21q4 -11 8.5 -21t9.5 -19q11 -19 25 -34.5t31 -28.5q34 -23 73 -36q20 -6 40 -8.5t40 -2.5q39 -1 76.5 6t70.5 18q34 11 64 24t56 27q25 14 46 26.5t38 23.5q17 12 29.5 21.5t21.5 16.5q11 8 18 14q2 1 5 1h5.5t7.5 1
q-31 -28 -63.5 -52.5t-67.5 -47.5q38 23 72 48t68 52zM449 142q0 1 0.5 1t0.5 1v1zM456 179q0 -3 1 -4q1 1 3 5q-5 23 -7 49q-1 7 -1.5 13t-0.5 12h-3q1 -8 1.5 -16.5t0.5 -17.5q2 -20 6 -41zM471 296h1v5h-1v-5zM472 253l2 -22t3 -22q0 2 1 3t1 3q-2 23 -3 38h-4zM463 163
q-1 2 -1 6q-2 -4 -2 -5v-5q2 1 2 2t1 2zM459 299q-8 -2 -3 -3zM319 188q2 10 5 19t5 17l3.5 7t3.5 5q1 2 2.5 4t2.5 3q3 6 -5 -2q-3 -3 -7 -9.5t-8 -16.5q-2 -10 -4.5 -20.5t-2.5 -21.5q-1 -11 0.5 -20.5t3.5 -16.5v16v16.5t1 19.5zM356 114q5 -3 11.5 -4t15.5 1
q8 2 16.5 7.5t16.5 11.5q17 14 29 29q-2 6 -3 11t-1 10q-4 22 -5.5 37.5t-2.5 26.5q0 6 -1 9q-14 -1 -28.5 -3.5t-28.5 -10.5q-8 -6 -11 -9l-3 -3l-3 -3q-2 0 -2 -4q-5 -7 -7 -17t-4 -21t-2 -22t2 -22q2 -5 2.5 -9t2.5 -7q0 -2 2 -4q0 -1 1 -1q0 -2 3 -3zM720 265
q-5 -17 -13 -34t-20 -34q-6 -9 -12.5 -17.5t-14.5 -15.5q-7 -8 -14.5 -15.5l-15.5 -15.5q-14 -14 -35 -27q-5 -5 -10 -7.5t-12 -5.5q-6 -3 -12.5 -5t-15.5 -3q-16 -2 -30 3q-14 6 -26 19q-4 4 -4 7q-2 -2 -3 -4q0 -2 2 -2q10 -14 27 -22q18 -8 35 -5q11 2 17.5 4t12.5 5
q13 6 23.5 13.5t20.5 15.5q8 8 16.5 16t16.5 16l7.5 7.5t7.5 8.5q5 5 8 9t7 9q7 9 12 19t10 18q10 20 15.5 37.5t8.5 33.5q3 15 4 27.5t1 21.5v19q0 -12 -1.5 -37t-12.5 -59zM329 606q-17 -7 -31 -15t-25 -16q6 5 14 9q7 4 17 8.5t23 9.5q14 4 29 8t32 6q37 5 74 0
q39 -5 75 -20q34 -15 61 -37q25 -22 40 -43t20 -32q4 -5 5.5 -6t-0.5 2t-4.5 9t-8.5 14q-5 9 -13 20t-19 22t-24.5 22t-30.5 21q-17 9 -36 16.5t-39 11.5q-43 9 -83 5q-20 -1 -39.5 -5.5t-36.5 -9.5zM530 22q10 4 -7 0q-11 -2 -23.5 -5.5t-26.5 -5.5t-27.5 -4.5t-27.5 -3.5
q-14 -2 -25.5 -1.5t-20.5 0.5q-11 0 -19 1q16 -2 33.5 -3t35.5 1q19 1 36 3.5t32 5.5l24.5 7t15.5 5z" />
    <glyph glyph-name="less" unicode="&#x3c;" horiz-adv-x="832" 
d="M684 76q27 5 55 7.5t45 4.5q4 -9 7.5 -21t4.5 -22.5t-2.5 -18t-13.5 -7.5q-11 0 -27.5 -1.5t-37.5 -3.5q-21 -3 -47 -7t-55 -10t-59.5 -14t-62.5 -16q-64 -19 -134 -36q-35 -9 -68 -16t-64 -12q-32 -5 -61 -7.5t-55 -2.5q-25 -1 -45.5 -0.5t-34.5 2.5q7 -10 13.5 -18.5
t14.5 -16.5q9 -11 17 -20t13 -15q12 -15 12 -14l-6 -8q-6 5 -11.5 8.5t-11.5 8.5q5 -5 10 -10.5t10 -11.5q-7 -8 -15.5 -15.5t-13.5 -2.5q-5 4 -10.5 10t-13.5 13t-17.5 14.5t-19.5 18.5q-11 10 -21.5 22.5t-18.5 27.5l-1 2l-2 2l-1.5 3l-1.5 3q-1 4 -5 12q-3 6 -4.5 12.5
t-3.5 12.5t-3.5 12t-3.5 13l-3 12l-1 6q-1 3 -1 6q17 5 33 9t33 9l8 2l5 2l7 3q3 2 6.5 2.5t6.5 2.5q14 6 22 12.5t13 13.5q5 6 6.5 11.5t3.5 10.5q2 6 2 8v2h4q6 0 11 1q0 -3 -1 -8t-3 -10t-3.5 -9.5t-5.5 -8.5q-6 -9 -11 -14l-5 -5q3 1 9.5 6t12.5 14q5 8 7.5 18t2.5 17
q10 1 21.5 1.5t22.5 0.5q11 -1 17.5 -4t5.5 -10q0 -16 -11 -39q-6 -14 -16 -27t-24 -24q-8 -7 -17.5 -12.5t-20.5 -10.5h14q49 3 109 15q58 10 123 30q31 8 63 18.5t64 20.5q32 11 62.5 20.5t59.5 16.5q29 8 56 14.5t51 11.5q23 5 42 6.5t33 3.5q16 1 28 2q1 -1 2 -4t5 -11
q-9 0 -22 -0.5t-27 -2.5q-30 -2 -60 -9q-14 -2 -27 -4.5t-22 -4.5q-11 -3 -20 -5q7 0 29 4t50 8zM112 52q-1 -5 -0.5 -7.5t2.5 1.5t2 8.5v8.5q0 2 -0.5 3t-0.5 3q-1 2 -1 3q-1 -4 -1 -9.5t-1 -10.5zM12 -42q-11 -3 -18 -6l9 2h9h4q2 0 2 0.5t1 0.5l4 1q6 2 12.5 4t11.5 3
q6 3 10.5 5t6.5 4q4 2 -4 -0.5t-22 -6.5zM55 -149q-5 7 -14 12l-10 6q3 -4 8 -8.5t9 -7.5t6.5 -4t0.5 2zM22 -92h14t15 1q-8 0 -15.5 0.5t-15.5 1.5q0 -1 2 -3zM156 -95q5 1 9 2t7 2q4 1 7 2q-11 -2 -24.5 -3.5t-23.5 -3.5q-11 -2 -15 -3t4 -1q8 -1 17.5 1t18.5 4zM570 14
q8 3 -7 0.5t-41 -8.5t-54 -14.5t-45 -15.5l65 16q26 7 50 13t32 9zM739 59q-9 0 -4.5 1.5t15.5 3.5t23 2.5t19 -0.5q0 1 -18 -2.5t-35 -4.5z" />
    <glyph glyph-name="greater" unicode="&#x3e;" horiz-adv-x="374" 
d="M350 -39v-3v-3v-5q-17 -5 -33.5 -8.5t-32.5 -8.5l-3 -2l-2 -1l-4 -1l-7 -2q-5 -2 -13 -6q-25 -12 -33 -25q-8 -11 -10 -22q-2 -6 -2 -8v-3h-15q1 4 1.5 8.5t2.5 9.5q1 5 3.5 9.5t5.5 8.5q2 4 5.5 8t5.5 6l5 5q-3 0 -10 -5.5t-12 -13.5t-7.5 -18.5t-2.5 -17.5
q-9 -1 -21 -1.5t-23 -0.5q-25 2 -24 14q1 6 3.5 16.5t7.5 22.5q5 13 15 26.5t24 24.5q18 14 40 23h-14q-24 -2 -51.5 -5t-56.5 -9q-30 -6 -61 -13.5t-63 -16.5q-32 -10 -63.5 -19.5t-63.5 -20.5t-63 -20t-60 -17q-29 -9 -55.5 -15t-49.5 -10q-24 -5 -43 -7t-33 -4
q-16 -2 -28 -2q-2 1 -3 4q-2 2 -5 11q21 0 50 3l30 4l30 4q14 2 26.5 5t22.5 5l20 5q-7 0 -29 -4t-50 -8q-27 -5 -55 -7.5t-45 -4.5q-4 9 -7.5 21t-4.5 22.5t2.5 18t13.5 7.5q24 2 65 6q21 2 46.5 5.5t54.5 9.5q29 7 60 15t63 16q33 10 66.5 19t67.5 18q34 8 67.5 15
t64.5 12q32 5 61 7.5t55 3.5q23 0 41 -0.5t32 -1.5q-6 7 -13 13t-13 11q-11 10 -19.5 18t-14.5 15q-6 5 -10 11q-2 3 -3 4l1 2q1 1 1.5 2.5t2.5 3.5l12 -8l12 -8q-5 5 -10.5 10t-9.5 11q6 8 15 15.5t13 3.5q7 -7 25 -20l18 -13.5t21 -15.5q5 -5 11.5 -9.5t13.5 -9.5l12 -12
q2 -3 6 -8.5t9 -10.5q7 -11 11.5 -23t7.5 -25q2 -6 2 -11.5v-11.5v-13zM-465 -130q10 2 15 4t-4 1q-17 -1 -35 -4t-19 -3q7 -1 19.5 -0.5t23.5 2.5zM-237 -72q26 6 54 14.5t45 16.5l-65 -17q-26 -7 -50 -13t-32 -9q-8 -2 7.5 0.5t40.5 7.5zM154 30q11 2 15.5 3t-3.5 1
q-17 0 -37 -5q-5 -1 -9 -2t-7 -2q-4 -1 -7 -2q11 2 24 3.5t24 3.5zM173 -118q2 12 -2 7q-2 -5 -2 -9.5v-8.5t1 -6q0 -2 1 -3q0 3 0.5 9t1.5 11zM223 73q2 -3 6.5 -5.5t9.5 -4.5q5 -3 10 -4q-4 3 -9.5 7t-10 6t-6.5 3t0 -2zM262 26q-7 0 -13.5 -0.5t-14.5 -0.5q8 -1 15.5 -1
t15.5 -1zM273 -24q5 2 10 3.5t8 3.5l-8 -1l-9 -1q-3 -1 -5 -1.5l-6 -1.5q-7 -2 -13 -3.5t-13 -3.5q-5 -3 -9.5 -4.5t-6.5 -3.5q-4 -3 4.5 0t20.5 6z" />
    <glyph glyph-name="question" unicode="?" horiz-adv-x="351" 
d="M173 132q8 -11 8 -19q1 -5 1.5 -10t-0.5 -10q-1 -3 -1 -6t-1 -7q-1 -1 -5 -7q-2 -2 -2 -3l-1 -1h-1v-1l-1 -2q-3 -3 -5.5 -5t-5.5 -4q-6 -5 -15 -6q-7 -2 -12 -1.5t-8 1.5h-9l-2 1l3 15q2 0 3 -0.5t4 -1.5q1 -1 7 -1q5 -2 13 1l5 2.5t5 1.5q2 1 2.5 2t1.5 2l3 3l1 1h1v1
q0 1 1 1.5t1 1.5l2 3q-2 -1 -2.5 -2t-2.5 -3t-1.5 -1t-1.5 -1l-2 -2q-2 -1 -3.5 -2t-3.5 -3q-3 -1 -5.5 -1t-6.5 -1q-5 -1 -8.5 0t-5.5 1h-6q1 1 1 2t1 2q-6 -4 -7 -3q-6 4 -11 12q-5 6 -9 19q-1 4 -1.5 7.5t-0.5 8.5q0 7 5 15q2 7 6 11q3 2 6 4.5t6 4.5q5 1 13 3h10
q3 -1 7 -1q2 0 4.5 -1t1.5 -1h1q-2 1 -1.5 0.5t0.5 0.5v-1h3q1 -1 5 -3q2 -2 4 -3l4 -2q3 -4 4.5 -7t3.5 -5zM291 598q5 -8 9 -17t9 -19q3 -9 4 -18.5t1 -20.5q1 -19 -3 -36t-9 -32q-6 -17 -13 -30l-14 -26q-14 -26 -28 -47t-25 -38q-11 -19 -19 -33t-13 -24q-5 -9 -7 -16
q-1 -4 -2 -6h-10q2 11 5 22t7 22q-5 -11 -10 -22.5t-7 -22.5q-6 -1 -12 -1.5t-11 1.5q-12 1 -9 15q5 17 12.5 35.5t18.5 39.5q11 20 23 42t24 45q6 12 11.5 24t10.5 24t8 24t4 23q1 23 -7 39q-4 9 -11 15q-1 2 -1.5 3.5t-2.5 3.5q-4 2 -5 4t-3.5 4t-4.5 4q-8 8 -13 9
q-2 0 -2.5 0.5t-1.5 0.5h-1q-1 -1 -2 -1l-2 -2t-4 -5l-4 -6q-5 -8 -7.5 -17t-4.5 -17q-2 -9 -2.5 -18t-0.5 -17q0 -17 2.5 -28.5t4.5 -19.5q3 -8 5 -10q1 -2 3 -3l-12 -12q-3 5 -6.5 12.5t-5.5 17.5q-4 10 -5 21t-1 22t1 20.5t3 16.5q2 8 3 11t1 5q-2 -3 -3.5 -8t-3.5 -13
t-3 -18t-1 -20q0 -12 1.5 -22.5t3.5 -19.5l7.5 -15t6.5 -12q-7 -8 -14.5 -16.5t-15.5 -16.5q-6 -8 -16 -8q-9 0 -16 10q-7 13 -13.5 32t-9.5 43q-1 12 -1 25t2 27q3 25 14 59q7 17 16 30q5 8 11.5 15.5t16.5 15.5q11 9 21 13q13 4 27 6q7 0 14 -1t13 -3q14 -5 21 -10
q10 -5 17.5 -12t13.5 -14q5 -5 11 -13l3 -3l2 -3q1 -1 7 -9zM152 414l-3 3q-3 3 -6 9q-5 5 -8.5 13t-5.5 16q-1 7 1 3t5 -12q2 -5 4.5 -9.5t4.5 -8.5q7 -10 8 -14zM234 618q5 -4 9.5 -8t8.5 -8l7 -7l3.5 -3.5t2.5 -3.5l-2 4q-3 3 -4 5q-2 1 -4 6q-6 7 -14 15t-21 15
q-6 2 -12.5 4.5t-14.5 2.5q-8 1 -15 -1.5t-12 -4.5q-11 -6 -17 -13t-8 -11q-3 -3 -1 -2t7 6q3 2 6 5t8 7q4 2 9.5 5t12.5 4q7 0 14 -0.5t14 -2.5l12 -6t11 -8zM220 324q4 5 8 13t7.5 15.5t5 13l1.5 5.5q-5 -8 -10.5 -18t-9 -18t-4.5 -12t2 1z" />
    <glyph glyph-name="period" unicode="." horiz-adv-x="252" 
d="M173 132q8 -11 8 -19q1 -5 1.5 -10t-0.5 -10q-1 -3 -1 -6t-1 -7q-1 -1 -5 -7q-2 -2 -2 -3l-1 -1h-1v-1l-1 -2q-3 -3 -5.5 -5t-5.5 -4q-6 -5 -15 -6q-7 -2 -12 -1.5t-8 1.5h-9l-2 1l3 15q2 0 3 -0.5t4 -1.5q1 -1 7 -1q5 -2 13 1l5 2.5t5 1.5q2 1 2.5 2t1.5 2l3 3l1 1h1v1
q0 1 1 1.5t1 1.5l2 3q-2 -1 -2.5 -2t-2.5 -3t-1.5 -1t-1.5 -1l-2 -2q-2 -1 -3.5 -2t-3.5 -3q-3 -1 -5.5 -1t-6.5 -1q-5 -1 -8.5 0t-5.5 1h-6q1 1 1 2t1 2q-6 -4 -7 -3q-6 4 -11 12q-5 6 -9 19q-1 4 -1.5 7.5t-0.5 8.5q0 7 5 15q2 7 6 11q3 2 6 4.5t6 4.5q5 1 13 3h10
q3 -1 7 -1q2 0 4.5 -1t1.5 -1h1q-2 1 -1.5 0.5t0.5 0.5v-1h3q1 -1 5 -3q2 -2 4 -3l4 -2q3 -4 4.5 -7t3.5 -5z" />
    <glyph glyph-name="numbersign" unicode="#" horiz-adv-x="649" 
d="M594 265q3 -11 3.5 -22.5t-8.5 -12.5q-20 -2 -51 -3t-69 -3q2 -9 3 -17.5t1 -16.5l3.5 -28t2.5 -21q1 -11 2 -18q-1 0 -2 -1t-2.5 -1.5t-3.5 -2.5l-11 34l6 -36q-9 -5 -20.5 -7.5t-13.5 5.5q-5 18 -11 46t-13 62q-39 -2 -79 -2t-76 -2q-3 -50 -6 -86q-2 -19 -2 -33.5
t-1 -25.5q-1 -12 -1 -22q-1 0 -3 -1l-6 -3l-6 41v-43q-11 -3 -22 -4t-12 10q-2 25 -3 64.5t-1 87.5v13q-17 -1 -30.5 -1h-22.5q-11 0 -19 -1q0 1 -1 4q-2 6 -2 12q13 -1 35.5 -0.5t39.5 0.5v3q-18 1 -40.5 0.5t-35.5 -1.5q-2 10 -4 22t-2.5 22.5t2 17.5t8.5 7
q11 0 29.5 -0.5t42.5 -1.5q0 26 0.5 53t0.5 53v16q-11 -2 -22 -3.5t-22 -3.5q-14 -2 -25.5 -2.5t-19.5 -1.5q-10 -1 -17 -1q0 1 -1 4t-3 11q11 0 29.5 0.5t35.5 3.5l16 2t14 2q7 1 13 2q-5 1 -18.5 -0.5t-29.5 -2.5q-17 -2 -33.5 -2.5t-27.5 -1.5q-2 10 -3 22t-1 22.5
t2 17.5t8 7q12 -1 36.5 -0.5t58.5 5.5q6 0 10 2v40.5t-1 36.5v75q1 0 4 1q2 1 4.5 1.5t6.5 2.5l1 -132q2 5 2.5 22t0.5 37t-0.5 40.5t-1.5 33.5q9 3 21 5.5t22.5 3.5t17.5 -2t7 -11q1 -17 0.5 -53t-2.5 -82v-5q14 4 28.5 6.5t28.5 6.5q9 2 18.5 4t19.5 4q-2 17 -2.5 30.5
t-1.5 23.5q-1 11 -1 21q1 1 4 2q6 2 11 3q0 -11 0.5 -30t1.5 -37q0 -6 1 -10q2 0 4 1q-1 20 -2.5 41.5t-2.5 35.5q10 3 21.5 5.5t22 3t18 -2t7.5 -9.5q0 -8 0.5 -24t0.5 -37q6 1 11.5 2t10.5 2q14 2 26.5 3t20.5 2q10 1 18 2q0 -1 1 -3t1 -3t1 -3q-8 -3 -15.5 -5.5
t-15.5 -4.5q8 2 16.5 2.5t16.5 2.5q5 -11 6.5 -22t-6.5 -13q-16 -3 -39 -8.5t-52 -13.5q2 -36 3 -75t4 -79q1 -14 2 -27.5t3 -27.5q26 -2 48.5 -3t39.5 -2q19 -1 36 -2q0 -1 1 -2q2 -4 3 -7l-33 -5h34zM405 624q-2 -4 -1.5 -12t1.5 -14.5t2.5 -9.5t1.5 2t-0.5 11.5
t-1.5 11.5q-1 6 -2 11zM230 666q0 -5 0.5 -14t1 -17t1.5 -12t2 3t0 14t-2 13q-2 7 -3 13zM103 449q6 1 9 2.5t-2 1.5q-5 1 -10 0.5t-10 -1.5t-11 -3q4 -2 11 -2t13 2zM111 255q6 1 11 2t10.5 1h10.5q5 -1 2 -2t-9.5 -2t-13.5 -1t-11 2zM428 481q-1 5 -2 -4.5t-1 -26.5
t1.5 -35t4.5 -29l-2 42q0 17 -0.5 32.5t-0.5 20.5zM470 550q-8 0 -18 -5v-3q11 3 17.5 6t0.5 2zM245 484q-1 0 -1 -1v-3q1 1 3 1v4q-1 0 -2 -1zM273 486q8 2 13.5 4t9.5 4l-23 -3v-5zM245 432q-2 -1 -6 -1v-55q1 8 2 17q1 8 1.5 18t2.5 21zM261 296q33 -1 68 -3t69 -4
q-5 28 -8.5 57t-7.5 58q-2 18 -3.5 34.5t-3.5 32.5q-22 -7 -43.5 -13.5t-44.5 -12.5q-4 -2 -8 -3t-9 -3q-3 -62 -9 -121v-22zM242 139q2 12 0 28q-1 8 -3 17v-18t0.5 -17.5t1 -11t1.5 1.5zM258 267q7 -1 18 -1.5l22 -1t21.5 -0.5t17.5 2q-16 1 -30 2q-13 1 -26 1.5t-23 1.5
v-4zM466 194q0 6 -3.5 15t-5.5 15h-1q2 -14 6 -26t4 -4zM485 271q7 0 15 0.5t14 1t8.5 1.5t-1.5 2q-5 1 -10.5 0t-11.5 -2q-7 -2 -14 -3z" />
    <glyph glyph-name="quotesingle" unicode="'" horiz-adv-x="114" 
d="M62 506q10 2 21.5 4.5t22 4.5t17.5 2.5t7 -2.5q2 -5 0 -17q-1 -6 -3 -12.5t-4 -13.5q-4 -8 -8.5 -13.5t-9.5 -11.5q-5 -5 -10 -8.5t-10 -7.5q-11 -6 -19.5 -10t-15.5 -6l-14 -6l-6 8l3 8l-6 -4q-7 8 -14 17.5t-5 11.5q4 4 9.5 9t10.5 10q5 6 9.5 11.5t6.5 11.5q3 3 3 6
q0 2 -0.5 2t-0.5 1l-2 2q1 0 4 1q2 0 12 2q-1 -2 -0.5 -3.5t0.5 -3.5v-5q3 0 3 6q1 2 -1 6zM47 421q3 0 3 4v5q-2 -2 -4 -5.5t1 -3.5zM84 511q1 -2 2 -3q2 -4 2 -5q0 -2 -4 2q-2 4 0 6zM86 470q-9 -7 -9 -13q1 1 3 2l3 1.5t3 2.5q2 3 5.5 6.5t3.5 5.5t-3 0t-6 -5z" />
    <glyph glyph-name="exclamdown" unicode="&#xa1;" horiz-adv-x="229" 
d="M165 625q2 -5 4 -9.5t4 -9.5q1 -4 2 -7.5t0 -9.5q0 -7 -4 -15q-3 -6 -6 -10q-6 -6 -13 -9q-3 -2 -6.5 -2.5t-5.5 -1.5q-4 -1 -6.5 -0.5t-4.5 0.5t-4 0.5t-4 0.5q-1 0 -3 0.5t-1 0.5h-1q1 -1 2 0h-1q-1 1 -4 1l-4 4q-6 3 -7 5q-7 5 -10 12q-3 5 -5 9.5t-4 8.5q0 5 -0.5 10
t0.5 10q0 5 3 13q3 3 4 8q1 1 3 1v2l1 1l2 2v1q2 2 4.5 4t5.5 4q7 4 15 6q7 2 12.5 2t8.5 -1l7 -2h3l-3 -15l-7 3q-1 0 -2.5 0.5t-4.5 0.5q-7 0 -12 -1q-2 -2 -5.5 -3.5t-5.5 -3.5q-2 0 -3 -1q-2 -1 -4 -3v-1l-1 -1v-1q-2 -2 -2 -3l-2 -3q2 1 2 2t2 3t1.5 1t1.5 1l3 2l3 3
t4 1q2 1 5 2t6 1q5 1 8.5 0t5.5 -1q4 -1 7 -1q-1 -1 -2 -3q5 4 7 2q2 -1 5 -4zM124 500q11 2 22.5 2.5t12.5 -7.5q1 -19 1 -49t-2 -65q-2 -36 -6.5 -74.5t-11.5 -75.5t-13 -70t-11 -58l-11 -55h-15q2 10 5.5 26.5t6.5 32.5q4 18 8 38q-2 -4 -5.5 -16t-6.5 -27l-6 -30t-4 -24
q-10 0 -22.5 0.5t-23 2.5t-17 5.5t-4.5 9.5q2 13 9 38t15 58q8 32 18 69.5t19 73.5q8 37 14 71t8 61q4 27 5 42.5t2 15.5t2 1q2 2 7 3q1 -8 1.5 -16t2.5 -15v32zM65 49q2 3 3.5 10t2 13t-0.5 8.5t-3 -1.5q-2 -5 -2 -10v-10v-10zM76 177q0 -5 3 3.5t7.5 22.5t8 30t3.5 27
l-10 -37q-5 -14 -8 -27.5t-4 -18.5zM113 399q1 6 1 13v12.5t-1 8t-1 -1.5q-3 -7 -1 -20z" />
    <glyph glyph-name="questiondown" unicode="&#xbf;" horiz-adv-x="298" 
d="M173 575q-4 5 -5 9.5t-2 8.5q-1 5 -1.5 10t0.5 10q1 2 1 5.5t1 7.5q1 2 2 3.5l3 4.5l1 1l2 2v1h1l1 2v1q3 3 11 8q6 5 14 6q8 2 13 2t8 -1l8 -2h2l-3 -15l-6 3q-1 0 -3 0.5t-4 0.5h-5.5t-7.5 -1q-2 -2 -5 -3.5t-5 -3.5q-3 0 -5 -1q-1 -1 -1 -1.5t-1 -1.5v-1l-1 -1l-1 -1
q0 -1 -1 -1.5t-1 -1.5l-2 -3l2 2l3 3l2 2l3 2q4 4 7 4q3 1 5.5 2t6.5 1q5 1 8.5 0t5.5 -1q3 -1 6 -1q-1 -1 -2 -3q6 3 7 2q3 -1 5.5 -4t5.5 -6q2 -5 4.5 -9.5t4.5 -9.5q1 -4 1.5 -7.5t-0.5 -9.5q0 -3 -0.5 -6.5t-3.5 -8.5q-1 -3 -2.5 -5t-3.5 -5q-6 -6 -13 -9
q-3 -2 -6.5 -2.5t-5.5 -1.5q-3 -1 -5.5 -0.5t-4.5 0.5t-4 0.5t-3 0.5h-4q-2 0 -3 1q1 -1 2 0h-1q-2 1 -3 1q-1 1 -2 1.5t-3 2.5t-4 2.5t-4 2.5q-5 4 -9 12zM242 305q7 -11 13.5 -30t8.5 -44q3 -24 0 -51q-2 -15 -5.5 -29.5t-9.5 -29.5q-3 -8 -6.5 -16t-9.5 -16
q-5 -8 -11 -15t-16 -15q-5 -5 -10 -7.5l-11 -5.5q-15 -5 -27 -5q-7 0 -14 0.5t-13 2.5t-11 4.5t-10 4.5q-17 11 -31 26q-3 4 -6 7.5t-6 6.5l-2 4l-2 2q-2 2 -3.5 4t-3.5 4q-11 17 -18 37q-5 20 -5 39q-1 20 3 37t9 32q6 16 13 29.5t14 25.5q14 26 28 47t25 39t19 32t13 24
q2 5 4 9t3 7t2 5l10 2q-2 -11 -5 -22t-7 -22l10 22t7 23q6 1 12 1.5t11 -1.5q12 -3 9 -17q-9 -32 -31 -74q-11 -20 -23.5 -42t-23.5 -44q-6 -13 -11.5 -24.5t-10.5 -23.5q-5 -13 -8 -25t-4 -23q-1 -22 7 -39q2 -8 11 -16l4 -6q3 -3 5 -4q1 -2 3.5 -4t4.5 -4q5 -5 13 -9
q0 -1 2 -1h1h2q1 0 2 1q1 0 1 1l1 2q2 2 4 4.5t4 6.5q9 15 12 34q2 9 2.5 18t0.5 17q0 15 -2.5 27.5t-5.5 20.5l-5 10q-1 2 -1 3l3 3q4 4 7 8q9 -11 13 -31q4 -9 5 -20t1 -22t-1 -20t-3 -17q-1 -5 -3 -11q-1 -3 -1 -4q4 6 7 21q2 8 3 17.5t1 20.5q0 10 -2 20.5t-4 20.5
q-6 16 -13 27q6 8 14 17t16 16q6 8 16 8q9 2 16 -11zM126 381q-4 -5 -8 -12.5t-7 -15.5t-4.5 -13.5l-1.5 -5.5q5 8 10 18.5t9 18.5t5 11.5t-3 -1.5zM206 97q3 3 1 1l-7 -7q-3 -2 -6 -5t-8 -6q-7 -6 -22 -9q-13 -3 -28 4q-6 2 -12 5.5t-11 7.5q-9 6 -18 17l-7 7q-2 2 -3.5 3
t-2.5 3l2 -4q3 -3 4 -5q3 -3 4 -5q6 -7 14 -15.5t21 -14.5q10 -6 27 -8q8 0 14.5 2t12.5 4q11 7 17 13.5t8 11.5zM211 261q3 -8 5.5 -12.5t0.5 3.5t-5 15.5t-8 12.5q-3 6 -6 9l-3 3q1 -3 3 -6t5 -8l4 -8t4 -9z" />
    <glyph glyph-name="acute" unicode="&#xb4;" horiz-adv-x="191" 
d="M89 432q9 0 21 0.5t22.5 0.5t17.5 -1t7 -4q-1 -2 -1 -7t-1 -10q-4 -10 -13 -24q-10 -14 -22 -21q-6 -4 -11.5 -7t-11.5 -5q-11 -5 -20.5 -6.5t-16.5 -3.5l-15 -3l-4 9l4 7l-7 -3l-10 20t-3 12q5 3 10.5 7t12.5 9q13 10 21 18q2 3 2 7v3l-1 2h16q0 -4 -1 -7
q0 -1 -0.5 -1.5t-0.5 -1.5v-1q3 0 5 4v7zM58 351q1 -1 4 4l2 4q-3 -1 -5.5 -4t-0.5 -4zM110 432q2 -1 3 -2q2 -3 0 -5t-4 2q0 4 1 5zM106 392q-4 -2 -7.5 -4.5t-4.5 -6.5l10 5q9 6 11 9q0 2 -3 0.5t-6 -3.5z" />
    <glyph glyph-name="dieresis" unicode="&#xa8;" horiz-adv-x="282" 
d="M256 424q0 -5 -0.5 -9.5t-2.5 -11.5q-2 -6 -5.5 -13t-11.5 -14q-5 -4 -9.5 -5.5t-8.5 -3.5q-9 -3 -17 -3q-14 1 -21 6q-9 2 -11 4l-6 4q-1 1 -2 1l2 4q1 3 6 9q2 -2 7 -5.5t12 -5.5q4 -2 8 -2h7h8q-2 1 -5 1t-6 1q-3 0 -6 1t-7 3q-5 2 -9 4.5t-8 4.5l6 8t7 8q-13 2 -13 4
q-1 2 -1 6q-1 5 0 14q0 2 0.5 5.5t3.5 8.5q2 3 3 5.5t5 5.5q3 2 5.5 4t5.5 3q5 3 10 4t9 2h12q24 -2 29 -25l1 -6q3 -6 3 -17zM212 420q-1 2 -1 3t-1 3q0 -1 -1 -2.5t-2 -3.5q-2 -2 -3 -2l1 -1h3q2 0 4 3zM205 415q-1 -1 -1 -2l2 -2q0 2 -0.5 2.5t-0.5 1.5zM188 409h-3h6h-3
zM138 432q2 -3 2 -4.5t1 -3.5l1 -2l-15 -4q0 3 -1 6q0 1 -2 7q-1 5 -7 11q-2 3 -4.5 4.5t-4.5 3.5q-1 1 -2 1t-3 1q-1 1 -1.5 1t-1.5 1h-1h-1h-1q-1 0 -1.5 0.5t-1.5 0.5h-1h-2q0 -1 1 -1t1.5 -0.5t2.5 -0.5q3 -1 2 -0.5t2 -1.5l1 -1q3 -2 9 -4q4 -6 7 -9q3 -5 4 -8.5
t2 -5.5q0 -2 0.5 -2.5t0.5 -1.5v-1q-1 0 -1.5 -0.5t-2.5 -0.5q3 -1 5 -2.5t1 -2.5q0 -6 -5 -14q-4 -8 -13 -17q-3 -2 -6.5 -4.5t-8.5 -4.5q-2 -1 -5.5 -1.5t-9.5 -0.5q-7 0 -12 1q-6 0 -13 7q-6 4 -9 9q-2 4 -4 10q-3 3 -3 6q-1 1 -1 4v2h-1q1 -1 1 0h-1v3v5q0 4 2 10
q4 10 6 13q7 10 13 16q10 7 18 9l6 2t6 1h9q3 0 4 -1h1h1l3 -1q4 -1 6.5 -2t5.5 -3q7 -5 13 -10q9 -12 9 -19z" />
    <glyph glyph-name="grave" unicode="`" horiz-adv-x="206" 
d="M174 429q1 -10 1 -21.5t-2 -12.5q-5 -2 -14.5 -3.5t-20.5 -1.5q-11 -2 -24.5 -1.5t-27.5 3.5q-27 5 -47 16l-7 3.5t-5 3.5q-3 2 -5 3q1 1 2 3t2.5 4.5t3.5 5.5q5 -5 17 -12q2 -1 4.5 -1.5t4.5 -1.5t3 -2q-1 2 -4 4t-8 6q-5 3 -9 5t-7 4q5 8 12 18t13 18.5t10.5 14
t6.5 4.5q5 -5 17 -14q10 -9 30 -18q8 -2 17.5 -4.5t17.5 -4.5l18 -3l1 -10l-9 -5h9zM44 452q0 -4 5.5 -4.5t3.5 1.5q-3 3 -6 3h-3zM88 439l8 -4t8 0q-1 1 -3 2l-6 3q-9 7 -11 7q-4 0 4 -8zM144 436q4 -1 8 0.5t1 3.5q-1 1 -5 -1q-2 -1 -4 -3z" />
    <glyph glyph-name="plus" unicode="+" horiz-adv-x="370" 
d="M344 361q2 -11 3 -23t-4 -13q-19 -4 -53 -7.5t-72 -7.5q-2 -32 -4 -62t-4 -53q-2 -27 -3 -50q-1 -1 -3 -1q-2 -1 -4 -1t-4 -1l-5 25v-26q-12 -2 -23 -3t-12 7q-2 23 -4.5 67t-4.5 92q-22 -2 -41 -3t-33 -2q-17 -1 -31 -1v4q0 2 -0.5 4.5t-0.5 6.5h18t22 1q12 0 26 1
q-2 1 -10.5 1.5t-19 0.5t-20.5 -0.5t-16 -1.5q-2 10 -3 22.5t-1.5 23t0.5 18t5 7.5q8 0 25.5 -0.5t40.5 -1.5l36 -2q-2 27 -2.5 51.5t-1.5 42.5q-1 21 -1 39q2 0 5 1q2 1 5 1t7 1q-1 -9 -0.5 -22.5t0.5 -27.5v-32q1 3 2 13t1 23v25.5t-1 20.5q9 2 21 3.5t22.5 2t18 -1.5
t7.5 -7q0 -16 -1.5 -53t-4.5 -83q24 -1 45.5 -1.5t38 -1.5t26.5 -1.5l10 -0.5q0 -1 1 -2q0 -1 2 -5l-22 -6h22zM37 338q3 2 7 3q8 2 14 2q3 -1 0.5 -2.5t-6.5 -2.5t-8.5 -1t-6.5 1zM180 522q2 -5 3 -9q2 -9 0 -17q-1 -4 -2 -1.5t-2 7.5t-1 11t2 9zM197 416q-2 5 -3.5 -6.5
t-2.5 -28.5l4 -1q2 11 2.5 21.5t-0.5 14.5zM122 357q-3 -2 4.5 -3t18.5 -2v5q-8 1 -14.5 1t-8.5 -1zM203 199q2 6 -2 17l-4 10q0 -5 0.5 -11t1 -10.5t2 -6.5t2.5 1zM275 365q8 -1 17.5 1.5t4.5 3.5q-6 0 -14 -2q-4 -1 -8 -3z" />
    <glyph glyph-name="multiply" unicode="&#xd7;" horiz-adv-x="374" 
d="M221 365q21 -17 42 -29.5t37 -22.5q8 -5 15 -9t12 -7l9 -6v-3q0 -2 -0.5 -3.5t-0.5 -3.5l-22 5l20 -10q-4 -11 -8.5 -21.5t-9.5 -8.5q-12 5 -31.5 12t-41.5 18q-37 15 -73 37q-17 -22 -33 -42t-29 -36l-27 -38l-10 5l10 21l-15 -20q-11 5 -20.5 11t-6.5 11q10 20 30 55.5
t45 73.5q-5 3 -8 6.5t-5 6.5q-11 9 -18.5 19t-13.5 21q-5 11 -9.5 19t-6.5 15q-2 3 -2 6t-1 5q-1 3 -1 4q1 1 4 2q2 1 5 1.5t6 2.5q2 -10 6 -23q3 -7 6 -12.5t6 -11.5t6.5 -11t5.5 -9l6 -8q0 4 -5.5 12.5t-11.5 20.5q-6 11 -10 23t-6 20q9 4 21.5 7t23 4.5t18 1.5t7.5 -2
q1 -6 4.5 -18t13.5 -28q2 -5 5 -6q15 16 29 31t25 26q8 8 16 13.5t14 9.5q7 4 12 8q1 -2 3 -4t3.5 -4t3.5 -5q-8 -4 -20 -12t-21 -16q-6 -5 -10 -9.5t-7 -7.5q-4 -4 -5 -7q3 2 9.5 8.5t17.5 14.5q10 8 21 15.5t17 11.5q6 -7 13 -17t12 -19.5t8 -17t0 -9.5q-4 -2 -9.5 -4
t-11.5 -6q-8 -5 -15 -12t-17 -15q-7 -6 -14.5 -13.5t-15.5 -13.5q2 -1 2 -1.5t2 -1.5zM264 469q-3 -4 -3 -6.5t2 -0.5q3 2 6 5t6 5l6 6q-4 0 -8.5 -3t-8.5 -6zM91 453l4.5 -6t0.5 2q0 6 -4 14q-2 4 -4 7q-1 -2 0 -7t3 -10zM294 309q-2 2 -6 2t-8 1q-4 0 -10 1q8 -3 18 -5.5
t6 1.5zM176 367q-2 -2 -2 -3l2 -1l2 2zM199 391l-3 -3l-3 -3q2 0 4 -3q14 14 18 22q2 2 -3.5 -1.5t-12.5 -11.5zM143 400q-2 1 -2 0t2 -3q0 1 0.5 1t0.5 1zM103 242q4 4 8 14q2 4 2 10q-3 -4 -5.5 -9t-4 -9t-2 -6t1.5 0z" />
    <glyph glyph-name="zero" unicode="0" horiz-adv-x="587" 
d="M516 495q5 -10 8 -21t4 -23q5 -21 4 -44q0 -23 -3 -43t-8 -40q-10 -40 -26 -76t-36 -68q-20 -34 -44.5 -62.5t-55.5 -51.5q-26 -23 -62 -40q-17 -8 -35 -13.5t-37 -6.5q-19 -2 -37 -1t-35 4q-5 2 -8.5 2.5t-6.5 2.5q-6 2 -9 4l-4 1l-4 2q-18 6 -31 19q-16 12 -26.5 26.5
t-16.5 28.5q-11 26 -13 54q-4 24 -3.5 44t2.5 35q2 16 3 28t2 20l4 17q2 1 5 3q2 2 5.5 4t7.5 4q-5 -21 -10 -49.5t-5 -63.5q0 -17 1.5 -35t6.5 -37q6 -19 18 -38q13 -20 28 -30q15 -13 35 -20q7 -3 15.5 -5.5t16.5 -3.5q16 -3 30.5 -3.5t27.5 1.5q22 1 37 8q8 2 10 3t4 1
q-4 -2 -11.5 -3.5t-16.5 -3.5t-20.5 -3t-25.5 -1q-29 0 -58 10q-8 3 -15.5 6.5t-15.5 8.5t-15.5 11t-12.5 14q-13 15 -20.5 32.5t-10.5 34.5t-3.5 34t0.5 32q2 31 5 56.5t8 45.5q12 5 25.5 9t24.5 2h1l2 -1q-6 11 -13 21t-13 22q-8 12 -15 26t-14 31q-6 14 -11.5 31t-7.5 35
q-3 17 -3 37.5t6 40.5q3 10 6.5 20t10.5 20q5 8 12 17t15 17q14 15 33.5 26.5t40.5 16.5q22 6 43.5 7t41.5 -2q21 -2 41 -7t40 -13q19 -8 37.5 -17.5t36.5 -21.5q33 -23 63 -54q15 -15 28 -33t22 -41zM83 275q2 8 3 16t2 13q1 6 2 11q-2 -6 -5 -16.5t-6 -23.5l-4 -26t-3 -26
q-2 -25 0 -35q1 -4 1 -2v11q2 19 4.5 40t5.5 38zM86 516q0 -14 2 -26t4 -22q3 -11 6.5 -18.5t5.5 -10.5q4 -6 0 5q-2 8 -5 17t-5 18q-3 10 -3.5 20t-0.5 19q-1 10 0 18t2 14q1 7 3 12q-4 -9 -6.5 -21.5t-2.5 -24.5zM262 102q25 10 49.5 29t45.5 44q45 51 72 118q14 31 23 67
q3 16 5 32.5t1 33.5q-1 8 -2 15.5t-2 14.5q-4 14 -13 28q-8 14 -18.5 28t-22.5 25q-27 23 -56.5 41t-61.5 29t-63 12t-57 -10q-13 -5 -23.5 -13.5t-18.5 -18.5q-10 -14 -12 -24q-3 -5 -4.5 -11t-2.5 -11q-2 -14 -1.5 -27t2.5 -26q4 -14 7 -26.5t8 -23.5q10 -23 21 -43.5
t24 -37.5q12 -19 23 -33t21 -26q10 -11 18.5 -19.5t13.5 -14.5q6 -7 11 -12q1 -2 1 -4v-4.5t1 -5.5q-46 36 -86 85q20 -26 41 -49t46 -44q0 -7 -0.5 -14t-4.5 -11t-11 -2.5t-20 12.5q-32 27 -63 64q-6 6 -11 13t-12 15q1 -4 0.5 -10t-1.5 -12q-2 -12 -5 -26.5t-5 -33.5
q-1 -8 -1 -17.5v-17.5q0 -10 1 -20t4 -19q2 -8 5.5 -16t8.5 -13l5 -5t6 -5q2 0 4 -1l4 -2q3 -2 11 -4q10 -3 21.5 -5t24.5 -1q25 2 49 13zM470 311q18 59 15 105q0 -6 -1 -13q-1 -6 -1.5 -14.5t-2.5 -18.5q-3 -20 -10.5 -45t-20.5 -53q-12 -26 -27 -51t-30 -45
q-17 -20 -29 -34t-20 -20q-7 -7 -3 -4t15 12q11 11 27.5 29t33.5 43q16 23 30 51.5t24 57.5z" />
    <glyph glyph-name="one" unicode="1" horiz-adv-x="580" 
d="M495 681q11 9 25 7.5t23 -12.5q8 -11 7 -24.5t-10 -22.5q-2 0 -2 -1l2 -4q-21 -16 -39 -35t-32 -39q-30 -43 -50 -90q-20 -46 -34.5 -92t-25.5 -87l-35 -132q-1 -5 -2 -9t-2 -7q14 1 24.5 1.5t20.5 0.5h46q1 -1 1 -3q0 -4 1 -6q-5 -2 -10.5 -3.5t-10.5 -3.5q5 0 11 0.5
t11 0.5q3 -10 4 -22t-5 -13q-13 -2 -33.5 -5t-43.5 -8q-26 -5 -51 -12t-47 -18q-24 -10 -43.5 -21.5t-33.5 -21.5q-17 -11 -29 -23l-11 11q5 5 13.5 11.5t18.5 12.5q5 3 9 6t7 5q4 3 7 4q-2 -1 -10.5 -4.5t-17.5 -9.5q-9 -5 -17 -11.5t-13 -11.5q-7 6 -16 15t-16 17.5
t-10.5 15t1.5 9.5q8 8 25.5 18.5t41.5 22.5q37 19 80 30q1 2 1 3.5t1 3.5q5 14 11 36.5t13 52.5q9 29 19.5 64t24.5 76q9 34 22.5 69.5t32.5 72.5q-36 -22 -69.5 -42.5t-62.5 -37.5q-32 -22 -57 -39.5t-40 -31.5q-36 -28 -36 -29l-11 1q13 15 27.5 28.5t28.5 27.5
q-17 -13 -32.5 -26.5t-29.5 -28.5q-12 2 -21.5 9t4.5 24q15 16 34.5 33.5t43.5 37.5q24 17 51.5 37t59.5 39q30 22 61.5 43t65.5 44q32 22 64 46t59 51l3 -2l2 1zM102 5q3 0 6.5 3t6.5 6.5t4 5.5t-2 1q-4 -2 -6.5 -5t-4.5 -5q-3 -4 -4 -6zM214 422q9 4 20.5 13t22.5 17
q12 10 26 21q-14 -10 -29 -21t-27 -20q-12 -7 -17 -11.5t4 1.5zM283 148q3 14 4.5 21.5t-2.5 -4.5q-4 -9 -6.5 -18.5t-5.5 -19.5q2 1 5 1q2 5 3 10zM193 75q11 3 23 7.5t19 9.5q-5 -1 -9 -2t-9 -2t-11 -3q-11 -5 -20 -8.5t-12 -6.5q-3 -2 3.5 -0.5t15.5 5.5zM362 128
q-5 1 -15 -3q-4 -2 -9 -5q8 1 18.5 4t5.5 4zM335 243q5 20 9.5 37t8.5 31q4 16 8 29q-4 -10 -13.5 -40.5t-19.5 -68.5q-8 -26 -15 -52t-12 -49q2 0 3 1q8 26 15.5 55t15.5 57zM344 417q-2 -7 -0.5 -4.5t6 12t11 24t14.5 32.5q7 11 13.5 23.5t13.5 24.5q-3 -1 -8 -6
q-20 -33 -33.5 -64.5t-16.5 -41.5z" />
    <glyph glyph-name="two" unicode="2" horiz-adv-x="580" 
d="M523 635q2 -3 2.5 -6.5t2.5 -6.5q6 -30 3 -59q-1 -14 -4.5 -26t-8.5 -26q-9 -25 -22 -45.5t-27 -40.5q-29 -38 -60 -70.5t-62 -58.5q-32 -28 -62 -51t-56 -42q-6 -5 -13 -10t-13 -8q42 -20 84.5 -41.5t85.5 -31.5q3 -1 5.5 -1.5t6.5 -1.5q3 0 5.5 -0.5t5.5 -0.5h18
q20 0 28 5q4 5 8 10.5t8 13.5q7 20 8 34q2 17 3 31.5t3 23.5l2 22q1 0 3 1t4 1t4 1q0 -10 0.5 -20t1.5 -21q1 11 1.5 21.5t2.5 21.5q11 2 22.5 2t11.5 -10v-28t-2 -35q-1 -11 -2 -21.5t-3 -22.5t-5.5 -25.5t-13.5 -27.5q-8 -13 -25 -27q-13 -9 -32 -14q-18 -5 -33 -5t-29 1
q-14 2 -27.5 4.5t-27.5 6.5q-27 6 -51 15t-46 18.5t-41 17.5q-20 8 -37 13.5t-32 9.5h-3h-2h-3q-2 0 -6 2q-8 2 -16.5 2.5t-14.5 0.5h-12h-5l-4 17h12.5t14.5 -1q-1 0 -1 2v1q-8 1 -14.5 1h-12.5q-2 9 -4.5 21.5t-3.5 23t2 18t12 7.5q11 0 26 -1t33 -5q6 -2 13 -3.5t13 -3.5
q31 23 67 52.5t75 64.5q29 28 57.5 57.5t54.5 61.5q12 17 23 34t19 34q9 17 14.5 34t5.5 34q0 12 -5 27q-4 7 -7 12.5t-7 9.5q-6 6 -16 8q-12 3 -21 1q-14 -2 -27.5 -7.5t-24.5 -13.5q-12 -8 -23.5 -16.5t-19.5 -16.5q-17 -20 -27.5 -36.5t-15.5 -27.5q-5 -12 -5 -18t-1 -6
h-4q-2 0 -5 -1l-6 -2q1 8 3.5 20.5t10.5 26.5t18.5 28t22.5 25q11 12 23 21.5t21 14.5q5 3 8 5l6 4t6 3q-4 -2 -11 -5t-18 -11q-11 -6 -22.5 -15t-22.5 -22q-11 -11 -20.5 -24.5t-16.5 -27.5q-6 -13 -8.5 -24.5t-2.5 -19.5q-11 -3 -22 -8q-6 -2 -12 -3.5t-11 -1.5
q-9 -3 -18 2q-9 9 -6 27q2 24 13 48q5 14 13.5 27t19.5 27q20 28 51 53q16 12 34 23.5t41 20.5q11 5 23 8t26 5q13 1 28 0t31 -6q31 -13 52 -39q5 -6 9 -12.5t6 -13.5l2 -6t3 -7zM234 553q1 3 -5 -3q-4 -10 -8 -21t-4 -22q-1 -5 -1 -9.5v-7.5q0 -4 1 -7q0 9 3 23
q2 8 3.5 15.5t3.5 12.5q2 8 4 12.5t3 6.5zM468 138q0 -3 -0.5 -5.5t-0.5 -4.5v-3q2 5 4 14t2 16q1 7 0 10t-3 -1q-1 -5 -1 -12t-1 -14zM46 173q5 -2 14 -2h18q8 0 11.5 1t-2.5 3q-15 2 -27 0q-3 -1 -5.5 -1h-4.5q-3 0 -4 -1zM116 144q-2 -1 -2.5 -2t-2.5 -1q2 0 3 -0.5
t2 -0.5q1 1 2 1t2 1q-1 1 -3 1zM215 149q-6 2 4 -4.5t27 -15.5t37 -17.5t34 -10.5q-7 2 -14 6q-6 3 -14.5 6.5t-16.5 8.5q-17 8 -33.5 16.5t-23.5 10.5zM168 125q-2 2 -11 5t-21 8l-3 -3l14 -3.5t11 -3.5t10 -3zM272 248q5 4 8 8t6 7q3 4 6 7q-11 -9 -24 -20.5t-23 -20.5
t-13.5 -13.5t4.5 0.5t18 14.5t18 17.5zM444 683q7 -4 14.5 -8.5t12.5 -12.5q8 -6 12 -15t9 -17q5 -9 6.5 -18t3.5 -19q2 -19 -0.5 -35.5t-5.5 -28.5q1 3 2 7q1 3 2 7.5t3 11.5t3 14.5t0 15.5q0 18 -6 36q-3 18 -17 35q-12 17 -26 24q-16 10 -30 10q-7 2 -11.5 2h-6.5
q-5 -1 -3 -2h4.5t7.5 -1q11 0 26 -6z" />
    <glyph glyph-name="three" unicode="3" horiz-adv-x="572" 
d="M465 300q28 -36 45 -84q2 -11 4 -23t2 -25q0 -12 -1 -23.5t-3 -22.5q-5 -24 -18 -46q-11 -20 -28 -36q-37 -32 -77 -38q-18 -5 -37 -7.5t-36 -2.5q-17 -1 -33 0.5t-31 3.5q-30 4 -56 8t-48 12q-42 12 -64 23t-22 10q-1 1 -2 4q-2 4 -2 9q25 -11 50 -18.5t53 -14.5
q-28 8 -54 17.5t-51 21.5q-5 17 2 27q2 4 7.5 4.5t17.5 -4.5q29 -14 71 -25.5t92 -16.5q26 -3 52.5 -3t53.5 5t49 15q21 10 35 32q5 8 9 20t5 26v14v7q0 1 -0.5 2.5t-0.5 3.5q0 8 -2 13.5t-4 13.5q-8 26 -27.5 49t-44.5 44q-49 38 -111 68q-14 6 -29 11.5t-31 10.5
q-15 5 -30 8.5t-30 5.5q-17 2 -26.5 15.5t-6.5 28.5q2 14 12 24.5t24 10.5h30.5t27.5 1q28 0 51 3q12 1 22.5 3.5t19.5 4.5q8 2 16 7l2 1v1h1v1v1q1 3 1 5.5v4.5q-2 9 -5 14q-10 12 -36 23q-12 3 -25 6l-26 6q-14 2 -26 3.5t-23 2.5q-22 2 -40 2h-31h-26q-1 1 -3 4l-4.5 4.5
t-4.5 6.5q18 1 41.5 1t50.5 -2q26 -2 53.5 -5.5t50.5 -9.5q11 -5 22.5 -9t19.5 -8q8 -5 13 -10.5t8 -9.5q5 -9 5 -16v-8q1 6 0 14q-1 5 -3 9.5t-7 9.5q-8 9 -28 20q-11 5 -21.5 8.5t-22.5 5.5q-24 7 -49.5 9t-49.5 4q-25 1 -46.5 0.5t-37.5 -0.5q-7 10 -13.5 21.5t-8.5 22.5
q-1 11 6 19t28 8h28t33 -1q37 -1 87 -9q13 -2 25.5 -4.5t26.5 -6.5q29 -8 58 -25q8 -4 16 -9.5t16 -13.5q15 -13 24 -38q9 -24 8 -45q0 -8 -1 -11t-1 -5t-2 -7q-1 -7 -3.5 -14t-4.5 -13q-3 -5 -7.5 -9.5t-9.5 -7.5l-4 -4t-5 -4l-3 -1l-2 -1l-4 -2q-7 -2 -14 -5.5t-14 -5.5
q38 -23 77 -49q34 -30 66 -66zM129 608q21 0 30.5 0.5t-7.5 2.5t-35 1.5t-33 -1.5q-18 -1 -34 -3q11 -1 35 -0.5t44 0.5zM148 449v-6h1l1 6h-2zM148 431v-4l1 4h-1zM204 431l8 -2t9 -2h8q-3 1 -5.5 2t-6.5 2h-3h-10zM303 438q-4 -1 -9 -2t-13 -2q2 -2 4 -2q12 1 17 4
q5 2 5.5 2t-4.5 0zM147 449v-5l1 -1v6h-1zM147 426l1 1v4h-1v-5zM279 404h1q1 0 2 -0.5t2 -0.5h2q-3 1 -7 1zM365 6q9 2 17 5t14 5q7 3 13 6q-11 -4 -23 -7.5t-24 -6.5q-14 -2 -25.5 -3.5t-22.5 -1.5q-10 0 -17.5 -0.5t-11.5 -0.5t-3 -0.5t9 -1.5q14 -2 34.5 0t39.5 6z" />
    <glyph glyph-name="four" unicode="4" horiz-adv-x="557" 
d="M456 331q12 2 24.5 3.5t25.5 3.5q7 -10 9.5 -21t-13.5 -14q-18 -3 -42 -9q4 -45 6 -87q1 -52 0 -94q-3 -42 -7 -66t-3 -24q-1 -1 -3 -1t-3.5 -0.5t-3.5 -0.5v23.5t-1 22.5q-1 -11 -2 -23t-3 -24q-5 -1 -11.5 -1.5t-11.5 0.5t-8.5 3.5t-2.5 8.5q2 26 2.5 66t-4.5 89
q-2 21 -4.5 44t-5.5 46q-26 -8 -55 -16.5t-61 -17.5q-19 -5 -36.5 -11t-37.5 -11q-9 -2 -18.5 -4.5t-20.5 -5.5l-10 -2t-11 -3l-10 -1q-8 -2 -18 -3q-9 -2 -18 -2.5t-17 0.5t-15.5 3t-14.5 4q-6 3 -12 7.5t-9 11.5q-4 10 -5 14q-1 2 -1 6v3v4v7v4v2l1 1q5 9 6 17q2 9 6 17
t9 16l8 20l10 19q35 73 77.5 134.5t86.5 102.5q21 21 42.5 35.5t38.5 22.5q9 5 17 7.5t14 4.5v6l15 5v-16q2 0 4 -4q0 6 -0.5 11t-0.5 10q9 3 21.5 5.5t23 2.5t18.5 -2.5t8 -10.5q0 -19 1 -54.5t4 -83.5q4 -41 10 -88.5t11 -95.5q2 0 4 1q16 1 26 3q5 1 9 1q0 -1 2 -2
q1 -2 2.5 -3.5l3.5 -3.5q-11 -2 -22.5 -5t-23.5 -7zM411 495q-1 8 -1 -5.5t2 -33.5q2 -22 5 -45.5t8 -38.5q-3 29 -6 55q-2 22 -4 41.5t-4 26.5zM380 679q-2 -5 -1.5 -15t2.5 -19q1 -8 2 -12.5t2 3.5q0 7 -0.5 15t-1.5 14q-1 7 -3 14zM360 625h-1q-1 0 -1.5 -0.5t-1.5 -0.5
q1 -1 1 -2l2 1h1v2zM343 621q-5 -2 -9.5 -4t-8.5 -4q-6 -3 -10 -5.5t-6 -4.5q-3 -3 5 1l14 6t15 7v4zM364 577q-2 0 -2.5 -0.5t-1.5 -0.5q1 -10 2 -18.5t2 -14.5q1 -8 2 -14q1 3 0 16t-2 32zM355 650v-4q3 0 5 1v3h-5zM237 582q-14 -13 -24 -24.5t-18 -20.5q-9 -11 -15 -20
q6 6 24 26t44 43q25 23 57 41q8 6 17.5 9.5t18.5 5.5v3q-11 -3 -22 -7t-21 -11q-17 -10 -33 -21.5t-28 -23.5zM88 300q-2 -4 -2 -5l12 20q5 11 12.5 24t15.5 27q15 26 32 50t22 33q5 8 -7.5 -6t-30.5 -39l-16 -28t-16 -29q-4 -8 -7 -15t-7 -14l-6 -12zM292 295q12 3 27 7.5
t26 8.5t16 6t-3 1q-9 -2 -20 -5.5t-22 -7.5q-12 -4 -24 -10zM237 296q37 10 69 17.5t61 14.5q9 3 17 3q-3 17 -5.5 32t-5.5 31q-8 50 -15 95t-11 81q-2 0 -3 -1q-7 -3 -15.5 -8t-18.5 -11q-17 -14 -39 -34.5t-42 -46.5q-23 -27 -43.5 -57.5t-40.5 -63.5q-5 -10 -9 -18.5
t-9 -16.5l-9 -18l-3 -4l-1 -3v-1l-1 -2q-2 -2 -3.5 -4t-2.5 -5q0 -3 2 -4t5 -1h6h2h4q10 2 19 3.5t19 3.5q19 5 37.5 9.5t35.5 8.5zM458 122q1 5 0.5 13t-2.5 16l-4 18q0 -8 1 -18.5t1.5 -19t1.5 -12t2 2.5z" />
    <glyph glyph-name="five" unicode="5" horiz-adv-x="603" 
d="M543 345q20 -50 14 -103q-6 -50 -31 -94q-13 -22 -27.5 -40t-34.5 -34q-8 -8 -19 -14t-23 -11q-3 -2 -6 -2.5t-6 -2.5q-3 -1 -5.5 -2t-4.5 -2l-12 -2l-12 -2q-22 -4 -42 -3.5t-38 2.5q-38 4 -70.5 14.5t-57.5 23.5q-25 14 -43.5 27.5t-29.5 24.5q-6 5 -10 10t-7 8l-6 6
q0 3 1 6q1 2 2 5t3 7q9 -12 24.5 -27.5t35.5 -30.5q19 -14 42.5 -25.5t46.5 -19.5q23 -7 44 -10.5t37 -5.5q8 -1 15 -1h12h10q-6 1 -19 2t-31 3q-17 3 -38 8t-43 13q-23 8 -43 19.5t-38 25.5q-19 13 -32.5 27t-22.5 25q5 12 11.5 23.5t15.5 17.5q4 2 8.5 4.5t9.5 1.5
q9 0 17 -11q7 -8 17 -18t27 -21q14 -11 34 -21.5t45 -18.5q13 -3 25.5 -5.5t26.5 -4.5q30 -3 55 1q3 1 7 1q2 0 6 2q2 0 6 2t6 2q6 2 10.5 5.5t11.5 8.5q11 8 21.5 20t18.5 26q17 26 23.5 57.5t-1.5 61.5q-2 4 -2.5 7t-2.5 7l-3 8q-1 2 -1 3.5t-2 2.5q-3 8 -6.5 14t-7.5 13
q-11 10 -24 19t-27 15q-15 7 -30.5 9.5t-31.5 4.5q-35 3 -66 -3q-16 -2 -30.5 -7t-28.5 -10l-7 -3l-3 -2l-7 -2q-6 -3 -11.5 -6.5t-10.5 -6.5q-11 -10 -23 -19.5t-21 -18.5l-4.5 4.5t-2.5 8.5l-4 19q-3 8 -5.5 16t-4.5 17q-2 8 -3 17t-3 17l-2 13l-2 11q-2 20 -5 37t-6 31
q-4 25 -9 41l-5 15q1 1 2 3q2 4 5 7q8 -19 14.5 -39.5t11.5 -40.5q-4 22 -9.5 43.5t-14.5 41.5q1 1 1 1.5t1 1.5q-9 2 -15.5 2.5t-11.5 1.5l-10 2l-1 16q8 -2 21.5 -4t26.5 -6q2 1 2 2t1 1q-2 2 -4 2q-13 2 -26 4.5t-21 2.5v22.5t1.5 23t5 18t9.5 6.5q12 -2 35.5 -8
t52.5 -16t60.5 -21t63.5 -20q29 -6 60 -11q14 -1 27 -1h24q11 1 19.5 2.5t14.5 3.5q7 2 13 3q1 -1 2 -3q2 -4 4 -6q-11 -6 -25 -11q8 1 14.5 3t13.5 3q7 -9 10.5 -20t-2.5 -14q-9 -3 -20 -7t-25 -7q-27 -8 -61 -8h-35t-35 2q-18 2 -35.5 6t-34.5 9q-22 5 -42.5 9.5
t-38.5 8.5q8 -19 14 -41.5t11 -48.5l6 -28l3 -15l1 -8v-1q1 -3 1 -9l2 -4l1 -2l2 2t4.5 3t4.5 3l2 1l1 1h1l4 2q5 2 10 4.5t10 4.5q44 17 86 23q23 3 46.5 2.5t49.5 -5.5q23 -5 47.5 -14.5t45.5 -25.5q11 -7 20.5 -17t17.5 -21q5 -5 8 -11t6 -11q2 -2 3.5 -5.5t2.5 -6.5z
M368 601q-2 -1 -3.5 -1t-3.5 -1t-3 -2q5 0 11 1t11 2.5t7 3t-2 1.5q-3 0 -7.5 -1t-9.5 -3zM165 632q-4 1 3.5 -3t19.5 -8.5t26 -9t23 -4.5l-31 12l-24 8t-17 5zM51 641q3 -2 9 -2.5t11.5 -1t8 0t-1.5 2.5q-8 3 -18 2t-9 -1zM133 599q-3 3 -16 6l1 -1q0 -1 1 -2q3 -1 5.5 -1
t4.5 -1t4 -1zM203 398l-3 -1l-3 -2q-2 -2 -3.5 -2t-3.5 -2q-5 -3 -8.5 -5t-8.5 -5q-8 -7 -16.5 -13t-16.5 -14h-3h-1h-1l-1 4l-4 12q-2 5 -3 10t-3 7q-2 8 -2.5 8.5t1.5 -10.5q1 -5 2 -10.5t3 -10.5q2 -10 4 -14l1 -1v-1h1l4 -2q6 6 12.5 12t11.5 11q8 5 13 9.5t9 7.5l15 9z
M155 130q7 -2 -4 5q-10 9 -21 19t-21 18q-11 11 -14 15t-5 6q2 -5 7 -10.5t10 -13.5q7 -6 14 -12.5t13 -11.5q15 -12 21 -15zM507 220q5 21 5 40t-3 33v-9v-23q0 -14 -4 -32t-14 -37q-8 -17 -20 -33t-23 -29q-13 -12 -24 -18t-16 -10q-4 -2 -4.5 -2.5t1.5 0.5q3 0 13 5
t23 15t25 25q14 15 24.5 34t16.5 41z" />
    <glyph glyph-name="six" unicode="6" horiz-adv-x="549" 
d="M429 349q48 -46 68 -113q4 -17 6 -34.5t1 -35.5q-2 -38 -18 -72q-8 -19 -21.5 -34.5t-29.5 -27.5q-5 -3 -9 -6t-8 -5q-3 -2 -5.5 -2.5t-5.5 -2.5l-7 -4q-8 -5 -16 -7l-16 -4q-68 -24 -142 -18q-18 2 -36 5t-38 11q-17 5 -34.5 15.5t-31.5 25.5q-30 30 -41 72
q-3 10 -4 19.5t-1 19.5l-1 16v17q1 32 4.5 63t11.5 62q8 29 17.5 55.5t20.5 52.5q11 23 22.5 45t22.5 40q22 38 38.5 68.5t28.5 52.5l9 18l7 14l6 12q2 0 5 1q2 1 5.5 1t7.5 1q-6 -16 -16.5 -36t-23.5 -44l-55 -96q-13 -23 -24.5 -45t-19.5 -38q-9 -17 -12 -29q-2 -6 -3 -10
q2 6 8.5 20t16.5 33q10 17 21.5 38.5t24.5 44.5t26 45t24 44q12 21 21 40t16 34q12 2 25.5 2t22.5 -3q12 -4 15.5 -14t-5.5 -29q-11 -20 -27 -50.5t-39 -66.5q-22 -38 -46.5 -80t-44.5 -93q-18 -49 -27 -106q-2 -14 -3 -29t-2 -29v-15v-13q1 -11 5 -22q5 -11 10 -20.5
t16 -17.5q16 -15 44 -23q27 -8 56.5 -8.5t58.5 4.5q15 2 28.5 5.5t27.5 8.5q4 2 7.5 2.5t6.5 2.5q4 2 7 3t5 3q9 6 17 14q18 17 26.5 40.5t7.5 48.5q-2 26 -10 49.5t-21 42.5q-13 20 -29.5 32.5t-33.5 20.5q-17 5 -35 5t-33 -5q-15 -3 -28 -9t-24 -12t-18.5 -12t-12.5 -11
q-3 -2 -4.5 -4t-3.5 -3l-2 -2h-4q-2 0 -4.5 0.5t-4.5 0.5q34 39 79 62q-24 -11 -46 -26t-40 -35q-17 1 -24 9q-8 10 9 27q13 11 28.5 24t35.5 25q10 5 20.5 9t24.5 9q12 3 25.5 6t28.5 3q14 1 29 -2t31 -8q14 -7 28 -14.5t27 -18.5zM240 602q-9 -17 -12.5 -26t4.5 5
t16.5 29.5t14.5 29.5q5 12 9 23l3 9q-5 -10 -16 -31t-19 -39zM139 56q9 -6 19 -10t18 -6q-5 1 -10 4q-5 2 -10.5 5t-12.5 8t-14.5 11t-14.5 14q-13 20 -19 40q-1 5 -1.5 10.5t-1.5 12.5v12v12q0 13 1 24t1 21q2 22 5 38t5 24q1 15 -5 -12q-4 -12 -6.5 -32.5t-3.5 -45.5
q-1 -6 -1 -12.5v-12.5v-13t1 -13q2 -12 5 -24t11 -23q7 -11 16.5 -19t17.5 -13zM413 294q5 -7 9.5 -12t7.5 -10q4 -5 7 -10q-5 9 -10.5 18.5t-13.5 17.5q-7 8 -14.5 14.5t-14.5 11.5q-8 5 -14 7l-9 3t-2.5 0t5.5 -3q5 -4 12 -7.5t13 -8.5q6 -4 12 -9.5t12 -11.5z" />
    <glyph glyph-name="seven" unicode="7" horiz-adv-x="549" 
d="M428 688q7 2 13.5 5t11.5 8q8 -8 15 -18t0 -14q-6 -5 -13 -9t-16 -9q12 -2 20.5 -6.5t5.5 -12.5q-4 -18 -12.5 -53t-22.5 -82q-4 -14 -8 -31t-9 -34h23l2 -14q-6 1 -13.5 1h-15.5q0 -1 -0.5 -1.5t-0.5 -2.5h16.5t14.5 1q1 -11 2.5 -23.5t1.5 -23t-1.5 -18t-6.5 -7.5
q-8 0 -20 1.5t-29 3.5q-5 -14 -9 -27t-9 -26q-18 -52 -37 -98.5t-35 -81.5q-17 -35 -27.5 -55.5t-9.5 -20.5h-11q3 11 6.5 21t6.5 20q-5 -10 -9.5 -19.5t-8.5 -21.5q-11 2 -22.5 6t-7.5 14q10 25 23.5 62t28.5 82q14 37 25.5 76.5t22.5 79.5l-28 4t-28 3q-24 2 -50 0
q-12 -1 -21.5 -3t-17.5 -4q-18 -5 -28 -9.5t-10 -3.5l-7 7q5 4 9 7.5t7 7.5q-4 -2 -8.5 -5t-9.5 -6q-7 8 -13.5 17.5t-1.5 13.5q6 5 13.5 10t18.5 10q24 13 50 17q14 3 28.5 5t28.5 4q15 2 30 2t29 -1h14t14 -1q10 41 17.5 76t14.5 64l10 55q-2 -1 -4 -1t-5 -1
q-15 -4 -31.5 -7t-32.5 -7q-34 -5 -63 -14q-31 -9 -57 -20t-45.5 -20.5t-30.5 -16l-11 -6.5l-3 3l-4.5 4.5t-4.5 5.5q9 3 22 10t25 13t21 9l10 4q-4 0 -14.5 -3t-22.5 -9q-11 -5 -23 -11.5t-18 -11.5l-13.5 18t-13 19.5t-7.5 16.5t3 10q11 6 33.5 16t52.5 20q16 6 33.5 10.5
t34.5 9.5l36 6t37 5q18 2 34.5 3t32.5 3q15 2 28.5 3.5t24.5 3.5t19 5.5t14 6.5q7 4 13 6l6 -8q-5 -5 -10.5 -9t-11.5 -8zM67 570l7 7q3 2 7 4.5t8 3.5t2.5 -1t-5.5 -5t-9.5 -6t-9.5 -3zM192 636q14 3 29 6t23 8l-10 -2t-11.5 -1.5t-13.5 -2.5q-14 -2 -25 -5.5t-16 -5.5
t3.5 -0.5t20.5 3.5zM169 368q2 0 5.5 1.5t6.5 3.5q4 2 7 4q-8 -1 -16.5 -5t-2.5 -4zM442 392q-4 -2 -8 -3q-10 -2 -14 -1t-2 2t6.5 2t9.5 1t8 -1zM395 688q-7 0 -16.5 -6t-10.5 -6q5 1 11.5 2.5t11.5 4.5q5 2 6.5 4t-2.5 1zM392 635q-5 -17 -9.5 -37.5t-8.5 -37.5
q-4 -20 -9 -41q3 4 6.5 17.5t8 30t8.5 35t7 33.5h-3zM382 438q-1 -1 -1 -2t-1 -3q4 0 6 -1q9 31 11 43q1 6 -3 -5.5t-12 -31.5zM380 418q0 1 0.5 1.5t0.5 1.5h-5q-1 -1 -1 -2q2 -1 5 -1zM320 388q-10 2 -18.5 2.5t-15.5 -1.5l27 -4q2 0 3.5 -0.5t2.5 -0.5q0 3 1 4zM292 127
q3 5 5 11.5t4 14.5t3 18q-3 -8 -6 -18t-5.5 -17.5t-3 -10.5t2.5 2zM419 642q-2 -6 -3.5 -13.5t-2 -13t0 -7.5t2.5 3q3 9 4 18t2 15q-1 -1 -1.5 -1t-1.5 -1z" />
    <glyph glyph-name="eight" unicode="8" horiz-adv-x="458" 
d="M381 270q6 -8 11.5 -16.5t10.5 -19.5q8 -22 8 -44q0 -11 -2.5 -21.5t-5.5 -19.5q-9 -20 -21 -34.5t-25 -25.5q-14 -12 -27.5 -20.5t-27.5 -15.5q-16 -7 -30 -11.5t-29 -7.5q-6 -2 -15 -3q-4 -1 -7.5 -1t-7.5 -1q-7 0 -14.5 1t-14.5 3q-16 4 -28.5 10.5t-22.5 14.5
q-11 9 -18 19t-12 19q-5 10 -8 19t-6 17q-4 18 -4.5 31.5t0.5 22.5v5q-9 -3 -19 -3q-11 0 -16 12t2 37q5 14 12.5 30.5t19.5 35.5q9 14 21.5 29.5t27.5 32.5q-14 7 -25 19q-15 14 -28 37q-6 8 -10.5 20t-8.5 25q-1 6 -1.5 11.5t-0.5 12.5v24q1 11 4 22t7 21q15 43 51 76
q18 14 37 25t41 16q20 5 41 7t41 -1q24 -2 42 -7q2 -1 4.5 -1t4.5 -2q2 -1 5.5 -1.5t5.5 -2.5q5 -3 10.5 -5.5t10.5 -5.5q4 -4 9.5 -8.5t10.5 -9.5q4 -5 8.5 -11t7.5 -14q4 -6 5.5 -13.5t2.5 -14.5v-14t-2 -13q-2 -12 -6 -21.5t-9 -18.5q-8 -19 -18 -32q-5 -6 -10 -13
t-11 -13q-3 -6 -10 -13l-10 -12q-5 -3 -6 -6l-6 -4l-9 -10q-6 -6 -11 -10.5t-10 -9.5l-32 -29q12 -11 33 -22q17 -10 31.5 -20.5t29.5 -23.5q9 -6 15.5 -13.5t13.5 -15.5zM126 224q5 14 14 29.5t20 30.5q7 11 15.5 20t17.5 18q-2 0 -4 2q-22 -21 -38 -46q-10 -14 -17 -27.5
t-12 -26.5h4zM224 450q12 10 23 20.5t20 18.5l5 5l5 4q2 3 4.5 6t4.5 6q5 5 9.5 10.5t9.5 10.5q5 6 8 12t5 11q7 10 9 19v6q0 1 -1 2q0 1 -3 3q-2 2 -4 2.5t-4 2.5q-1 2 -4 3t-5 3h-3l-3 2q-2 1 -3.5 1t-3.5 1q-8 2 -14.5 3t-13.5 2q-14 1 -28.5 -1t-28.5 -7t-26 -12
t-21 -17q-19 -24 -26 -50q-3 -15 -2.5 -27t5.5 -23q11 -28 35 -45q6 -6 10 -9q11 9 20.5 18.5t20.5 18.5zM344 471q8 11 8 8l-18 -18l-12 -13q-2 -3 -4 -5t-3 -4l-9 -7q-14 -13 -31 -28t-34 -31l2 -2l42 39q5 5 10 9.5t10 7.5q5 4 8 8t8 8l7 9l6 7q2 3 5 6t5 6zM111 535
q0 1 1 3l4 8q2 5 5.5 11.5t10.5 14.5q5 8 13 15.5t16 15.5q11 6 23 11.5t24 8.5q13 5 27 6t28 0q11 0 24.5 -2.5t24.5 -5.5q3 -2 9 -4q6 -4 8 -6q8 -3 14 -9q5 -5 7 -10t2 -8q2 -5 2 -3t-0.5 5.5t-2.5 8.5q-5 13 -24 23q-5 2 -9.5 4t-10.5 4q-12 4 -27 7q-26 4 -57 0
q-13 -3 -26.5 -8t-27.5 -14q-24 -14 -38 -35q-16 -24 -20 -41zM112 265q-5 -9 -8.5 -17.5t-5.5 -16.5q-2 -6 -2.5 -11t-2.5 -10q2 1 2 1.5t1 1.5q1 4 2.5 8.5t3.5 9.5q7 22 20 44l11 16.5t7 12.5q3 4 1.5 3t-7.5 -9q-13 -16 -22 -33zM99 152q6 -32 25 -57q-10 13 -15.5 28
t-7.5 32q-1 10 -1.5 20.5t1.5 20.5q-1 0 -5 -2q-2 -21 3 -42zM239 91q12 4 23.5 8.5t22.5 12.5q24 11 42 32q8 10 14 20t7 21q3 20 -13 38q-6 11 -16 20t-24 19l-28 18t-31 18q-8 5 -15.5 8.5t-14.5 8.5q-3 -4 -7 -7t-7 -7q-24 -29 -36 -48q-5 -10 -8.5 -18.5t-6.5 -14.5
q-1 -4 -3 -8v-6.5t-1 -8.5q-2 -14 -0.5 -31.5t9.5 -34.5q4 -8 8 -15t11 -13q6 -6 14.5 -10t17.5 -6q5 -1 8.5 -1.5t8.5 0.5q3 1 6 1l3 1l3 1q8 2 13 2zM364 113q4 8 6 10t3 4q-7 -11 -17.5 -21t-22.5 -19q-11 -9 -22.5 -16t-22.5 -12t-18.5 -8t-11.5 -5q-4 -1 -3 -1.5t9 1.5
q8 3 17.5 6.5t20.5 8.5q18 10 36 26q9 7 15 14t11 12z" />
    <glyph glyph-name="nine" unicode="9" horiz-adv-x="488" 
d="M323 695q16 -2 31 -4t30 -6q13 -3 25 -7l21 -7q0 -11 -1.5 -24t-5.5 -22q-10 -23 -25 -18l-10 4t-12 4q0 -17 0.5 -37.5t1.5 -43.5q0 -34 -0.5 -72t-2.5 -78q11 0 14 1q3 0 5 1l6 -8l-12 -4t-14 -3v-3q8 1 15 2t15 3q3 -5 6.5 -9.5t5.5 -9.5q2 -13 -13 -16q-14 -5 -32 -6
q0 -5 -1 -8q-5 -55 -18 -104q-5 -25 -12.5 -46.5t-15.5 -40.5q-17 -36 -32 -55.5t-14 -19.5q-1 1 -3 1q-4 0 -6 1q5 9 9.5 19.5t9.5 20.5l-12 -20t-13 -18q-11 3 -20.5 9.5t-4.5 15.5q6 11 13 23.5t14 29.5q14 35 23 78q5 27 7.5 56t3.5 59q-26 4 -56 10.5t-61 19.5
q-34 10 -68 32q-17 10 -32 22t-29 30q-8 9 -14 19.5t-10 21.5q-8 24 -6 53q1 3 1 5.5t1 5.5q2 10 3 12l1 5l1 6q1 4 5 10q7 20 23 39q28 36 63 55q37 18 70 27q35 8 66.5 9.5t57.5 -0.5t47.5 -6t36.5 -9q7 -2 12.5 -4t9.5 -3q4 -2 7 -2q0 -2 1 -5q0 -2 0.5 -5.5t0.5 -7.5
q-21 10 -52 17q-16 4 -32.5 6t-31.5 4q-17 2 -30.5 2t-24.5 -1q-12 -1 -23 -2q4 -1 12 -0.5t20 0.5q11 0 25.5 -1t29.5 -3zM308 535q1 4 1.5 14t0 23t-1.5 28l-2 30q-1 0 -1.5 0.5t-2.5 0.5l2 -34t2 -31q1 -16 2 -31zM347 465q-1 -21 -1 -43.5t2 -37.5q0 3 1 18.5t1 33.5
q1 21 1 40t-1 26t-2 -5t-1 -32zM100 605q-9 -11 -14.5 -22t-7.5 -19q0 2 2 5q1 2 3 5t4 7q5 8 13 16.5t19 16.5q20 17 43 25q11 5 19 7.5t12 4.5q5 2 3 2t-9 -2q-8 -2 -18.5 -5t-21.5 -9q-25 -10 -47 -32zM267 385q11 -2 15.5 -1.5t-3.5 3.5q-7 2 -16.5 4t-20.5 4l-21 3
q10 -4 23 -7.5t23 -5.5zM187 428q26 -13 53 -21.5t51 -14.5q6 -2 9 -2v23q-2 50 -4.5 95.5t-4.5 80.5q-3 24 -3 42q-25 1 -51 0q-28 -3 -56 -12t-49 -27t-33 -45l-1 -1l-1 -5q-2 -2 -2 -6q0 -2 -0.5 -4t-0.5 -4q0 -12 3 -22q13 -24 38 -43q11 -10 24.5 -18.5t27.5 -15.5z
M328 171q2 10 2 13v5q-2 -7 -5 -17t-5 -18q-5 -19 0 -10q3 5 5 12.5t3 14.5zM428 647l-19 5q-17 5 -34 9v4q3 -1 13 -3q10 -3 22.5 -6.5t17.5 -8.5z" />
    <glyph glyph-name="dollar" unicode="$" horiz-adv-x="389" 
d="M313 480q11 -9 18 -25q3 -8 5 -15.5t2 -15.5q1 -3 0.5 -6t-0.5 -7q-2 -10 -3 -13q-6 -26 -25 -47q-18 -19 -38 -28q-4 -2 -5 -3q2 -5 6 -9l3 -3l-11 -12q-2 4 -6 8.5t-8 9.5v1q-1 0 -1 -0.5t-1 -0.5q6 -12 14 -20q-7 -8 -14.5 -16.5t-15.5 -16.5t-15.5 -11t-12.5 4
q-12 13 -23 39q-2 2 -2.5 3.5t-2.5 3.5h-10q-5 -1 -9 -1h-9q-3 -1 -5 -0.5t-4 0.5t-5 0.5t-6 0.5q-23 4 -36 18q-5 7 -10 16q-1 2 -2 4.5t-2 4.5t-1.5 3.5t-0.5 3.5q-5 16 -6 23v4v2v4l-1 9q-2 8 -2 16v13t2 9q1 2 1 3q1 1 3 2t4 1t5 1q-3 -9 -3 -18q0 -5 1 -9t2 -9
q0 -4 1 -7.5t2 -8.5q1 -2 1 -7q2 -6 2 -9q0 2 -0.5 4.5t-0.5 4.5t-0.5 4t-0.5 4q0 7 -2 17q-1 5 -1 9.5v8.5q1 4 2 9t3 9q12 0 22 -5l6.5 -6.5t1.5 -5.5v-4t1 -7q2 -10 3 -22v-7l2 -4q2 -8 2 -10q3 -3 2 -3l2 -2q0 -1 1 -2t1 -2q2 -2 4.5 -2h4.5h3h7q5 0 7 1q-7 23 -11 50
t-6 56q-1 0 -2 1q-12 4 -23.5 9t-22.5 13q-9 7 -18 18q-2 2 -3 2.5t-2 2.5t-2 3.5t-3 3.5l-2 4l-2 3l-2 4q-12 22 -16 46q-2 12 -2 25t6 30q2 6 5.5 13.5t9.5 13.5l12 12q4 2 7 3q2 2 6 4q6 4 12.5 6t12.5 4q7 1 13 1.5t12 0.5q5 0 11.5 -0.5t11.5 -0.5q0 5 3 5q2 5 4 8t4 5
q2 3 2 5l9 -3q-2 -7 -4 -12t-3 -11h1q4 10 12 21q10 -4 20 -10.5t8 -11.5q-4 -6 -5 -12q29 -12 47.5 -27t32.5 -29l10.5 -14t7.5 -11q4 -5 6 -10q-1 -2 -3 -5q-2 -2 -4 -5.5t-4 -5.5q-4 14 -14 28t-24 27q-13 11 -28.5 21t-32.5 18v-4q2 0 6 -2q30 -17 57 -41q26 -23 34 -50
q-7 -13 -17 -14q-5 -4 -12 -5.5t-12 -2.5t-9 -1h-8q-8 0 -10 4q-1 2 -3 5.5t-7 9.5t-11 11.5t-15 11.5q1 -5 1 -9t1 -8q0 -3 0.5 -5.5t0.5 -5.5l2 -7l2 -18l20 -4l9 -3q7 0 12 -3q11 -3 22 -7t23 -12q9 -5 21 -17zM247 599q-2 2 -1.5 1t4.5 -5q5 -8 12 -15.5t12 -15.5
q3 -5 4.5 -8t3.5 -5q2 -3 3 -5q0 2 -1.5 7.5t-5.5 11.5q-8 15 -17 21q-7 9 -14 13zM250 383l9 9t6 8q2 2 2.5 4.5t1.5 4.5v5v3q0 1 1 2q0 2 -0.5 3t-0.5 3q-1 1 -1 2t-1 2q-5 5 -17 10q-4 2 -7.5 3t-8.5 3q-2 0 -6 2q-3 0 -5 1h-4q5 -20 10.5 -37t10.5 -33q4 1 10 5z
M136 581q1 6 1 11.5t1 10.5q-8 2 -11 -1h-1h-1q-1 0 -1 -0.5t-1 -0.5q0 -2 -0.5 -6.5t0.5 -10.5q2 -13 9 -23q1 -2 0.5 -1.5t0.5 -1.5q1 -1 1.5 -2t2.5 -2l-1 9v18zM169 456q1 -5 1.5 -12t1.5 -15q2 -13 4 -27t4 -19q2 -4 1 5t-3 25q-1 10 -2.5 21.5t-3.5 21.5h-3zM139 673
q-8 0 -14 -1t-11 -2t-9 -2q6 2 18 3t27 -1h4q0 1 0.5 1.5t0.5 1.5h-16zM108 541q4 -8 9 -12q5 -3 10 -7t11 -7v5q-3 2 -6 3.5t-5 3.5q-3 2 -5 4l-5 5q-6 8 -7 10q-4 5 -6 11.5t-4 11.5q-4 11 -4 20v13q0 2 -1 1q0 -1 -0.5 -2.5t-0.5 -5.5q-2 -8 0 -19t8 -25q2 -3 3 -5.5
t3 -4.5zM145 306q15 -2 30 3q-1 0 -1 3q-10 -2 -14 -2q-14 -2 -18 -3q-2 0 -1.5 -0.5t4.5 -0.5zM240 283q2 -2 3.5 -3t2.5 -2t2 -1q-4 8 -14 18q-2 5 -4.5 7t-0.5 -3q5 -10 11 -16z" />
    <glyph glyph-name="hyphen" unicode="-" horiz-adv-x="389" 
d="M326 195q1 -11 1.5 -22.5t-4.5 -12.5q-11 -2 -27 -3.5t-35.5 -3t-40.5 -2.5l-42 -2q-48 -3 -104 -5l-2 15q5 -1 14.5 -0.5t18.5 0.5q11 0 21 1q-2 1 -8.5 1.5t-15 1t-17 0t-13.5 -0.5q-1 10 -2 22.5t-1.5 23t1 17.5t4.5 7q7 0 21.5 -1t33.5 -2.5t40.5 -3.5t43.5 -4
l110 -11q1 -1 1 -2q0 -4 1 -7l-18 -6h19zM70 185q4 -2 12 0t4 4q-4 1 -10 -1q-3 -1 -6 -3zM142 201q-3 -1 2 -2.5t13 -2.5t17 -1.5t15 1.5q-11 1 -21 3l-16 2t-10 0zM268 202q6 -1 14.5 1.5t4.5 4.5q-6 0 -12 -3q-4 -2 -7 -3z" />
    <glyph glyph-name="underscore" unicode="_" horiz-adv-x="481" 
d="M54 76q-2 11 -2.5 22t6.5 13q15 1 38 2.5t51 3t59 3t61 2.5q70 3 150 6q0 -2 1 -5t3 -11q-9 0 -23 -0.5t-27 -0.5h-31q3 -2 13 -3t22.5 -1h25t20.5 1q1 -9 2.5 -21t1.5 -22.5t-1.5 -18t-6.5 -7.5q-11 0 -31.5 1t-47.5 2.5t-58.5 3t-62.5 3.5q-73 4 -159 11q-1 1 -1 3
t-0.5 3.5t-0.5 3.5l23 6h-25zM423 86q-3 1 -8.5 1t-10.5 -0.5t-7 -1.5t2 -2t8 -0.5t8 1.5zM320 70q4 1 -3 2.5t-19 2.5t-25.5 1.5t-21.5 -1.5q17 -2 31 -3q12 -2 23 -2.5t15 0.5zM136 70q-4 0 -10 -0.5t-10.5 -1.5t-6 -2t1.5 -2q3 -2 7 -1t8 3z" />
    <glyph glyph-name="Euro" unicode="&#x20ac;" horiz-adv-x="427" 
d="M338 367q11 -6 18.5 -15t-3.5 -19q-7 -5 -15 -11.5t-19 -12.5q-10 -6 -21 -13t-28 -13q-8 -2 -16.5 -4t-16.5 -3q-21 -2 -42 5q-10 4 -18 8q-10 5 -17 11q-8 5 -15 11t-14 14q-28 31 -41 65q-8 -1 -15 -1h-12q-6 0 -11 -1l-1 16q5 -1 15.5 -0.5t18.5 0.5q-3 3 -2 3
q-8 1 -17.5 0.5t-14.5 -0.5q-1 9 -2 21t-1 22.5t0.5 18t3.5 7.5h13q-3 16 -3 34q-5 -1 -9 -1h-6q-4 0 -5 -1l-2 17h21v2h-21q-1 9 -2 21.5t-1.5 23t0 18t3.5 7.5h9.5t12.5 -1q2 5 2.5 10t2.5 11q5 19 11.5 38t18.5 36q7 10 15 19t18 17q11 8 24 11.5t26 4.5q14 1 25.5 -1.5
t21.5 -6.5t17.5 -8t15.5 -10q16 -11 26.5 -22.5t18.5 -22.5q18 -23 28 -43t15 -37q4 -16 4.5 -25.5t1.5 -9.5l-4 -4q-6 -4 -11 -6q0 13 -2.5 27.5t-9.5 30.5q-6 15 -14.5 30.5t-17.5 29.5q-11 12 -22 22.5t-21 18.5q-5 3 -8.5 5.5t-6.5 4.5l-6 3l11 -9q4 -2 7 -5q6 -4 10 -8
q20 -17 39 -44q8 -13 15 -27t13 -28q5 -14 7.5 -27.5t3.5 -24.5q-9 -5 -23 -8q-12 -3 -21 -3q-6 0 -10.5 1t-8.5 3q-7 3 -9 8q-1 8 -4 22t-12 31q-4 8 -9 16.5t-13 16.5q-2 4 -6 7.5t-8 6.5q-4 5 -8.5 7t-9.5 4q-5 5 -12 5q-4 0 -9 -4q-8 -4 -14 -14q-3 -5 -6 -10.5
t-6 -13.5q-5 -11 -7 -20.5t-5 -20.5q3 -1 4.5 -1t3.5 -1q33 -11 54 -20q12 -5 23 -10l-1 -8l-13 -3l12 -3q-2 -11 -4.5 -22.5t-6.5 -10.5q-11 0 -31.5 2.5t-42.5 4.5q0 -8 1 -12v-13.5t2 -13.5q20 -2 40.5 -4.5t37.5 -4.5q19 -3 36 -5l1 -10l-13 -6h14q2 -11 2 -22t-4 -12
q-13 -3 -38.5 -5.5t-53.5 -4.5q2 -5 4 -8.5t5 -6.5q13 -22 33 -35q16 -12 36 -12q8 1 17 4t17 7q8 3 15.5 7t11.5 8q6 3 10.5 5.5t8.5 4.5t7 4q1 0 3 -1q4 -2 7 -4q-11 -8 -22 -17t-21 -18q11 8 23 17t24 17zM193 551q-2 2 -7 0l-6 -2q5 -2 10.5 -1t2.5 3zM308 581
q-5 11 -7.5 15t-1.5 -5q3 -8 6 -17t5 -17q2 -10 3 -14q1 -3 1 -5q1 7 0 19q-1 6 -2.5 12.5t-3.5 11.5zM38 549q2 -2 9 0t3 3t-8 -1zM138 668q-8 -11 -14 -23.5t-9 -26.5q-5 -17 -6 -32h2q2 11 5 23t9 26q6 12 12.5 22.5t14.5 17.5q8 8 14 9.5t9 3.5q2 1 1 2q-3 0 -6 -1
q-4 -2 -7.5 -3t-8.5 -4q-4 -2 -8 -6zM142 439q2 0 2 1h-2v-1zM223 451q-4 1 -9 -2l-6 -4q5 0 11.5 2t3.5 4zM49 428q3 -2 10.5 0t2.5 4q-3 1 -8 -1q-3 -1 -5 -3zM231 325q2 1 -2 2h-14q-5 1 -15 5t-13 6l-6 3q7 -6 18 -13q5 -2 10 -3t10 -1q8 -1 12 1z" />
    <glyph glyph-name="cent" unicode="&#xa2;" horiz-adv-x="397" 
d="M349 430q11 -6 18 -15.5t-3 -17.5q-8 -5 -15.5 -10.5t-17.5 -12.5q-8 -5 -18 -11.5t-24 -12.5t-29 -11t-34 -6h-14v-10l1 -66q-1 0 -3 -1q-4 -2 -6 -2l-6 34l3 -36q-12 -4 -23.5 -5t-13.5 7q-2 16 -5.5 39.5t-5.5 52.5q-17 7 -32.5 16t-29.5 22q-14 14 -25.5 30.5
t-19.5 35.5q-15 37 -17 78q0 11 1.5 20.5t3.5 20.5q0 5 1 9.5t3 9.5q1 2 1 5t1 5q2 2 3 4.5t2 4.5q8 21 20.5 36.5t26.5 29.5q28 25 60 40l4 2q2 8 2.5 15.5t2.5 12.5q1 6 3 10h16q-2 -7 -4 -15t-4 -17q3 0 5 1q2 9 3.5 17t3.5 14q9 0 21.5 -1.5t23 -4t17 -6.5t5.5 -10
l-2 -4q10 -2 21 -6.5t21 -10.5q15 -10 24 -19l5 -5t5 -6q4 -4 6 -7.5t5 -7.5q3 -6 4.5 -11t3.5 -10t3 -9l2 -8q3 -8 4 -15t1 -12q1 -3 0.5 -6t-0.5 -5v-4q-2 -2 -5 -3q-4 -2 -13 -4q1 6 3 15q0 5 -0.5 8.5t-1.5 7.5q-1 8 -3 16t-4 15q-2 4 -3.5 7.5t-3.5 7.5q-1 2 -2 5.5
t-2 5.5q-2 2 -3.5 4t-3.5 4q-13 15 -30 23q-17 12 -31 13q-2 1 -3 1t-2 1q-1 -1 -1 -3q9 0 17 -5q6 -2 13.5 -6.5t15.5 -9.5q2 -2 5.5 -5t6.5 -6q4 -3 6 -6q5 -3 6 -7l3 -6q0 -1 0.5 -1t0.5 -1t1 -1q1 -2 3 -8q2 -4 2.5 -7.5t2.5 -6.5q2 -7 3.5 -13.5t3.5 -13.5q0 -4 0.5 -7
t0.5 -8q-2 -11 -4 -14q-12 -4 -23 1q-10 2 -14 3q-2 1 -4.5 2t-4.5 2q-5 2 -8.5 4t-5.5 3q-4 2 -5 3t-2 1q0 2 -3 11q0 8 -2 12q-1 3 -1 7q-11 13 -29 17q0 -4 -2 -12q-5 -35 -9 -76t-6 -81q-1 -22 -1 -41.5v-39.5q18 -3 37 2q20 5 35.5 14t27.5 14l23 15q1 0 3 -1
q4 -2 7 -3q-11 -9 -21 -17.5t-21 -16.5q12 8 23 15t23 15zM311 618q-4 10 -6.5 14t-0.5 -4t4.5 -16.5t3.5 -16.5q1 -9 -2 -14q-1 -1 -1 -2h-1q4 0 5 4q1 2 1 5.5v6.5q0 12 -3 23zM162 657q1 1 2 1q1 1 1 2q-2 0 -3 -1v-2zM191 581q-2 -16 -3 -34t1 -29q0 6 1 13q1 6 1.5 13
t2.5 15q2 16 3.5 31t1.5 20q0 6 -2.5 -3.5t-5.5 -25.5zM146 423q-2 29 -3 59t-1 60q0 37 3 72q-6 -5 -11 -10t-10 -11q-10 -13 -12 -20q-3 -7 -4.5 -13t-3.5 -13q-5 -28 1 -55t22 -47q5 -7 9.5 -12t9.5 -10zM206 750q-2 -3 -3.5 -10t-1.5 -13q1 1 2 1l2 8t1 7v7zM84 575l4 8
t4 9t6 9.5t7 9.5q8 10 17.5 18t18.5 13q1 4 6 6q0 2 0.5 3t0.5 2q-5 -3 -11 -7t-11 -9q-11 -7 -19.5 -16.5t-15.5 -20.5q-12 -24 -12 -44q0 2 1 5q1 2 1.5 5.5t2.5 8.5zM206 333h-4q1 -5 2 -7t2 2v5zM234 381q8 2 11.5 4t-3.5 1q-5 -1 -13.5 -2t-16.5 -2v-3q10 -1 22 2z" />
    <glyph glyph-name="sterling" unicode="&#xa3;" horiz-adv-x="361" 
d="M267 721q19 -13 30.5 -27.5t16.5 -25.5q7 -14 8 -19l2 -8q-2 -1 -4 -3l-4 -4t-5 -4q-2 5 -3.5 13.5t-5.5 16.5l-10 16t-13 15q-14 15 -32.5 25t-37.5 12q-19 4 -39 1q-16 -1 -29 -8q-14 -6 -19 -11l-7 -3q4 2 6 2l8 5q5 2 10.5 4.5t12.5 4.5q14 4 32 4.5t35 -3.5
q40 -13 63 -40q12 -14 18.5 -29.5t7.5 -26.5l-10 -6t-11 -5q-12 -4 -23 -4q-5 0 -9.5 0.5t-8.5 0.5q-7 3 -9 7q-2 9 -10 20q-5 5 -12.5 10t-17.5 7q-12 3 -22 0q-8 0 -12 -3q-6 -2 -12 -8q-4 -3 -10 -9l-3 -3q-1 -1 -1 -2q-1 -1 -1 -2t1 -3q0 -3 2 -5q4 -6 10.5 -13
t13.5 -13q10 -8 19.5 -14t19.5 -14l5 -3l7 -5q5 -3 10 -6.5t10 -6.5q10 -3 18 -11q3 -4 5.5 -7.5t4.5 -5.5q3 -4 4 -8q1 -3 1 -9q0 -11 -4 -16q-2 -4 -3.5 -8t-5.5 -9q-2 0 -3.5 -2t-3.5 -4t-4 -4.5t-4 -4.5l-14 -13q13 -4 25 -6.5t20 -4.5q10 -2 18 -3v-9q-6 -2 -18 -4h18
q1 -12 0.5 -24.5t-4.5 -12.5q-11 -1 -27 -1t-37 2q-11 0 -23 2t-25 5l-7 -7q-4 -4 -7 -8.5t-5 -8.5l-4 -3v-1v-1l-3 -4q-3 -3 -4 -7l-3 -4v-1l-1 -1l1 -1l12 -6l3 -1l2 -1l4 -1q5 -1 9 -2l8 -2q16 -2 28.5 -1.5t26.5 2.5q12 2 21.5 4t16.5 4l14 4q0 -1 2 -3q1 -2 2.5 -3
t3.5 -3q-15 -5 -28.5 -10t-28.5 -9q16 2 30.5 6t30.5 8q8 -9 12 -19.5t-11 -15.5q-8 -2 -17.5 -5t-19.5 -6q-11 -3 -24 -6t-27 -5q-15 0 -31 1t-30 4l-4 1l-6 2q-5 1 -13 3q-7 2 -13 4t-11 4l-50 15q0 3 1 4l1 5l6 10l8 20q5 11 10 20t11 19q1 3 2.5 6t3.5 5l5 7
q2 2 2.5 4.5t2.5 4.5q-12 6 -23 10t-20 9q-7 3 -12 6.5t-9 5.5q-4 3 -8 5q1 1 2 4q1 2 6 11q5 -5 13 -10t17 -10l7 -3.5t6 -3.5t6 -3q-1 2 -7 6t-13 9q-15 10 -28 17q4 8 10.5 18.5t13 19.5t11.5 14.5t8 3.5q5 -4 15 -11.5t24 -17.5q7 -4 15.5 -8.5t16.5 -8.5l4 4l4 4l8 8
l1 1l1 1q1 2 2 2.5t2 1.5l-1 2q-1 0 -2 1l-4 2h-1l-2 1l-7 5l-11 6q-11 8 -25 17q-14 10 -26 20.5t-23 26.5q-5 7 -10.5 16.5t-8.5 21.5q-5 27 5 49q5 11 11 19t12 14q5 7 11.5 12t11.5 10l6 4t8 4q4 2 14 6q15 8 30 9q32 6 56 -2q14 -2 25.5 -7.5t20.5 -11.5zM52 484
q1 -2 4 -4t6.5 -3t5.5 -1.5t0 1.5q-4 4 -10 6q-3 1 -6 1zM260 673q-6 4 1 -3q13 -18 19 -34q2 -5 2.5 -8.5t1.5 -5.5q1 -3 2 -5q2 8 -3 20q-3 13 -12 24q-3 5 -6.5 8t-4.5 4zM121 463q-4 0 0 -3.5t11 -8.5h1q1 0 1 -0.5t1 -0.5q3 1 4 4q-6 2 -11 5t-7 4zM120 333
q3 -2 8.5 -3.5t10.5 -2.5l15 -3q11 -2 16 -1.5t-3 2.5q-4 2 -7 2h-6h-2q-3 1 -13 3zM253 431q-5 2 -11 0q-4 -1 -8 -3q7 -2 15 -0.5t4 3.5zM145 579q-11 8 -19.5 18t-13.5 20q-5 9 -4 15t2 10q2 4 0 2q-1 -1 -4 -7q-2 -5 0 -15q1 -5 3 -10t7 -10q8 -12 19.5 -22t23.5 -18
q10 -9 23 -16q5 -1 13 -5q4 -3 12 -7l-7 4l-6 5l-9 4q-8 6 -18.5 14t-21.5 18z" />
    <glyph glyph-name="yen" unicode="&#xa5;" horiz-adv-x="374" 
d="M232 509q14 -2 26 -5t21 -6q8 -2 14.5 -4t11.5 -4l10 -4v-2q0 -1 -2 -7h-19q5 -2 9 -2.5t9 -1.5q-2 -12 -6.5 -23.5t-8.5 -10.5q-9 1 -22.5 3t-30.5 2q-6 0 -13 -0.5t-14 -0.5q-1 -7 -1.5 -14t-1.5 -14q11 -1 20 -1.5t17 -0.5q5 -1 10 -1.5t8 -0.5q4 -1 7 -1l2 -10
l-12 -6l12 1q1 -11 1.5 -22t-1.5 -13q-11 -2 -29 -6t-40 -7q-2 -19 -3.5 -35t-3.5 -29q-2 -15 -3 -28l-10 -1l-5 16v-17q-11 -2 -22 -2.5t-12 4.5q-3 13 -5 35.5t-4 47.5q-15 -2 -27 -3q-6 -1 -10.5 -1h-7.5h-6l-1 16q4 -1 11.5 -0.5t14.5 0.5q8 0 17 1q-4 3 -19.5 3
t-23.5 -1q-1 9 -1.5 21.5t-0.5 23t1 18t4 7.5q5 0 15 -1t24 -2h4v5.5t-1 7.5q-16 -4 -33 -6q-16 -2 -22 -3q-5 -1 -9 -1q0 1 -1 4q-2 6 -2 12q6 -1 15 0t18 3q10 2 21 3q-3 1 -10 1t-15 -1l-16 -2t-13 -2q-2 10 -4 22.5t-3 23.5t-0.5 18t3.5 7q8 1 20.5 1h29.5
q-11 12 -22 25.5t-22 30.5t-21 38q-9 18 -14 36q-5 19 -4.5 30t-0.5 11h4q2 0 5 0.5t6 0.5q0 -8 0.5 -18.5t3.5 -19.5q1 -10 5 -17q2 -4 3 -7q0 5 -5 28q-2 10 -2.5 19t-0.5 15q10 1 22 1t22.5 -1t17.5 -2t7 -3v-13t4 -22q3 -14 10.5 -31t18.5 -34l6 -12t6 -13
q11 19 23 35.5t22 33.5q3 5 4.5 9t3.5 8q1 0 3 4l1 5q3 4 4 8q3 8 5 16l4 16q1 8 2 13.5t2 10.5t1 10l9 2q2 -5 3 -9.5t3 -9.5v20q11 1 22 1t12 -4q2 -12 3 -31t-4 -42q0 -12 -5 -25l-1 -7l-2 -5q-1 -4 -1.5 -6.5t-1.5 -5.5q-5 -13 -9.5 -23t-9.5 -21q-15 -28 -23 -49z
M239 686q-2 -3 0 -11q1 -4 3 -7q2 5 0.5 13.5t-3.5 4.5zM62 465q5 -2 13.5 1t3.5 3q-5 1 -11 -1q-3 -1 -6 -3zM88 375q3 -2 10 -0.5t2 3.5q-4 1 -8 -1zM220 518q-1 0 -5 -7q2 0 3 -1q0 2 0.5 3.5t0.5 2.5t1 2zM190 547q-1 -2 3.5 2t9.5 12q5 7 9 15t6 15q-1 -3 -3 -6
q-2 -2 -4.5 -5t-4.5 -6q-6 -8 -11 -16t-5 -11zM74 670q1 3 -1 10l-2 6q-3 -3 -1 -13q3 -5 4 -3zM99 625q-2 2 -2 -3t3 -12q2 -7 6 -14.5t9 -11.5l-2 6l-2.5 5l-3.5 7q-2 8 -4.5 14.5t-3.5 8.5zM131 486q-1 0 2 -1v2q-1 -1 -2 -1zM189 417q2 7 0 9q-1 2 -4 -9h4zM196 290
q0 4 -3 10q-2 4 -3 7q-1 -5 1.5 -13.5t4.5 -3.5zM249 405q-4 1 -9 -2q-3 -2 -5 -4q5 0 11.5 2t2.5 4zM257 490q6 -2 14 -1t4 2q-4 3 -11 1q-4 -1 -7 -2z" />
    <glyph glyph-name="ydieresis" unicode="&#xff;" 
d="M400 194q4 -2 4 -10t-8 -18q-20 -27 -49 -54t-64 -56l-26 -21v-49q-1 -27 -2 -56t-3 -59q-1 -8 -1.5 -15.5t-2.5 -15.5l-1 -8q0 -4 -1 -9t-1.5 -8.5t-1.5 -7.5q-4 -16 -9.5 -31.5t-13.5 -30.5q-13 -35 -30 -61q-7 -8 -12.5 -15t-11.5 -15q-8 -6 -15.5 -12t-20.5 -11
q-8 -8 -21 -11q-7 -1 -13.5 -1.5t-14.5 1.5q-13 2 -23.5 8t-19.5 12q-17 11 -28 27q-2 5 -5 8t-5 7q-3 5 -5.5 8.5t-4.5 7.5q-9 17 -14.5 35.5t-5.5 37.5q0 37 17 71q6 16 15 29.5t17 27.5q11 13 20.5 23.5t19.5 22.5q21 20 42 38t41 33q8 7 16 13.5t16 13.5q-1 7 -1 13v12
q-6 -5 -14 -9.5t-17 -9.5q-8 -3 -16 -4.5t-16 -3.5q-8 -1 -17.5 -0.5t-18.5 2.5q-4 1 -9 2.5t-10 3.5l-9 4.5t-9 5.5q-8 7 -13.5 16.5t-9.5 18.5q-2 8 -3.5 14.5t-2.5 14.5q-4 13 -5 25q-1 11 -1.5 22.5t-0.5 22.5q0 21 1 40t4 36q3 34 8 53q1 5 2.5 9.5l2.5 7.5q1 4 2 7h16
q-3 -10 -6 -19t-5 -18q-7 -25 -8 -42q-3 -20 -3 -34v-15q2 4 3.5 19.5t5.5 34.5q2 19 6.5 38.5t9.5 34.5q5 0 10.5 -2.5t10.5 -4.5q7 -2 11.5 -4.5t9.5 -4.5t8.5 -5t7.5 -5q6 -4 4 -6q-2 -3 -4 -13t-6 -24q-3 -13 -5.5 -30t-4.5 -35q-1 -10 -1.5 -20.5t-0.5 -19.5
q0 -11 0.5 -20t1.5 -20q0 -2 1 -3.5t1 -3.5l1 -4v-3q1 -1 1 -1.5t1 -1.5t3 -2q1 0 2 -0.5t3 -0.5q5 -1 12 0q7 0 14 3.5t15 8.5t14.5 11t13.5 14l6 6q-2 29 -3 53t-2 41l-2 48q1 1 3 4l4.5 4.5l5.5 5.5q1 -26 3.5 -63t5.5 -76q2 2 2.5 3t1.5 2q-2 39 -5.5 75t-5.5 60
q11 6 22.5 12.5t21.5 6.5q13 1 19.5 -4.5t8.5 -23.5q1 -8 1 -15.5t1 -16.5q3 1 9 1q5 0 9.5 -2t4.5 -9q0 -14 -4 -30.5t-11 -34.5q-1 -3 -2 -8t-3 -8v-2q1 -17 1 -34.5t1 -36.5q20 16 37 30t29 24q9 8 15 14.5t11 11.5l8 10h3q2 0 4 0.5t6 0.5q-13 -20 -29.5 -37.5
t-33.5 -34.5q18 17 36.5 34.5t32.5 37.5q7 1 13.5 0.5t10.5 -3.5zM53 313q-1 -8 -1 -12t2 4q2 5 3 10.5t2 11.5q1 2 1 4t1 4q0 2 1 3q-3 -3 -5.5 -11t-3.5 -14zM60 102l5.5 -5.5t4.5 -3.5q-2 1 -6 9q-3 4 -3 6l-1 2l-1 3q-1 5 -1 9t-1 8q-2 17 -1.5 33t-0.5 22q-1 7 -2.5 -4
t-1.5 -28q1 -8 1.5 -18t2.5 -19q1 -2 1.5 -4t1.5 -4q0 -4 2 -6zM202 323q-1 -10 0.5 -32t3.5 -42q1 -9 1.5 -16.5t1 -11t1 -2t0.5 9.5q0 15 -1.5 32t-3 30.5l-2.5 22.5zM189 81q0 -8 0.5 -15t0.5 -13l2 2v28l-2 -2h-1zM190 44v-4q1 0 1 0.5t1 0.5v5zM157 15q-6 -6 -11 -10.5
t-9 -8.5t-9 -7q12 8 23.5 17.5t22.5 19.5v7q-5 -5 -8.5 -9.5t-8.5 -8.5zM106 -301q14 14 25 37q14 22 23 47t14 49v3q1 1 1 2v5l1 14q1 7 1.5 13t0.5 12q1 14 1.5 27t0.5 25v34q-10 -10 -21 -20t-24 -22q-18 -18 -36 -38t-32 -41q-12 -22 -20 -45q-2 -11 -2.5 -21.5
t1.5 -20.5t7 -19.5t12 -20.5q4 -5 8 -9.5t7 -8.5q4 -4 7.5 -5.5t5.5 -2.5q5 -1 8 0q3 0 11 6zM224 -146q2 20 3 36.5t1 24.5q0 12 -3 -13l-5 -32l-2 -21l-1 -11l-1 -6q0 -2 -0.5 -3t-0.5 -2q-9 -48 -34 -95q-22 -50 -53 -74q5 3 10 7t10.5 9t10.5 13q10 14 22 33.5t20 42.5
q8 20 15 46q0 4 2 10l1 7q1 2 1 6q2 14 4 22zM260 407q0 -5 -0.5 -9.5t-2.5 -11.5q-2 -6 -5.5 -13t-11.5 -14q-5 -4 -9.5 -5.5t-8.5 -3.5q-9 -3 -17 -3q-14 1 -21 6q-9 2 -11 4l-6 4q-1 1 -2 1l2 4q1 3 6 9q2 -2 7 -5.5t12 -5.5q4 -2 8 -2h7h8q-2 1 -5 1t-6 1q-3 0 -6 1
t-7 3q-5 2 -9 4.5t-8 4.5l6 8t7 8q-13 2 -13 4q-1 2 -1 6q-1 5 0 14q0 2 0.5 5.5t3.5 8.5q2 3 3 5.5t5 5.5q3 2 5.5 4t5.5 3q5 3 10 4t9 2h12q24 -2 29 -25l1 -6q3 -6 3 -17zM216 403q-1 2 -1 3t-1 3q0 -1 -1 -2.5t-2 -3.5q-2 -2 -3 -2l1 -1h3q2 0 4 3zM209 398q-1 -1 -1 -2
l2 -2q0 2 -0.5 2.5t-0.5 1.5zM192 392h-3h6h-3zM142 415q2 -3 2 -4.5t1 -3.5l1 -2l-15 -4q0 3 -1 6q0 1 -2 7q-1 5 -7 11q-2 3 -4.5 4.5t-4.5 3.5q-1 1 -2 1t-3 1q-1 1 -1.5 1t-1.5 1h-1h-1h-1q-1 0 -1.5 0.5t-1.5 0.5h-1h-2q0 -1 1 -1t1.5 -0.5t2.5 -0.5q3 -1 2 -0.5
t2 -1.5l1 -1q3 -2 9 -4q4 -6 7 -9q3 -5 4 -8.5t2 -5.5q0 -2 0.5 -2.5t0.5 -1.5v-1q-1 0 -1.5 -0.5t-2.5 -0.5q3 -1 5 -2.5t1 -2.5q0 -6 -5 -14q-4 -8 -13 -17q-3 -2 -6.5 -4.5t-8.5 -4.5q-2 -1 -5.5 -1.5t-9.5 -0.5q-7 0 -12 1q-6 0 -13 7q-6 4 -9 9q-2 4 -4 10q-3 3 -3 6
q-1 1 -1 4v2h-1q1 -1 1 0h-1v3v5q0 4 2 10q4 10 6 13q7 10 13 16q10 7 18 9l6 2t6 1h9q3 0 4 -1h1h1l3 -1q4 -1 6.5 -2t5.5 -3q7 -5 13 -10q9 -12 9 -19z" />
    <glyph glyph-name="yacute" unicode="&#xfd;" 
d="M400 194q4 -2 4 -10t-8 -18q-20 -27 -49 -54t-64 -56l-26 -21v-49q-1 -27 -2 -56t-3 -59q-1 -8 -1.5 -15.5t-2.5 -15.5l-1 -8q0 -4 -1 -9t-1.5 -8.5t-1.5 -7.5q-4 -16 -9.5 -31.5t-13.5 -30.5q-13 -35 -30 -61q-7 -8 -12.5 -15t-11.5 -15q-8 -6 -15.5 -12t-20.5 -11
q-8 -8 -21 -11q-7 -1 -13.5 -1.5t-14.5 1.5q-13 2 -23.5 8t-19.5 12q-17 11 -28 27q-2 5 -5 8t-5 7q-3 5 -5.5 8.5t-4.5 7.5q-9 17 -14.5 35.5t-5.5 37.5q0 37 17 71q6 16 15 29.5t17 27.5q11 13 20.5 23.5t19.5 22.5q21 20 42 38t41 33q8 7 16 13.5t16 13.5q-1 7 -1 13v12
q-6 -5 -14 -9.5t-17 -9.5q-8 -3 -16 -4.5t-16 -3.5q-8 -1 -17.5 -0.5t-18.5 2.5q-4 1 -9 2.5t-10 3.5l-9 4.5t-9 5.5q-8 7 -13.5 16.5t-9.5 18.5q-2 8 -3.5 14.5t-2.5 14.5q-4 13 -5 25q-1 11 -1.5 22.5t-0.5 22.5q0 21 1 40t4 36q3 34 8 53q1 5 2.5 9.5l2.5 7.5q1 4 2 7h16
q-3 -10 -6 -19t-5 -18q-7 -25 -8 -42q-3 -20 -3 -34v-15q2 4 3.5 19.5t5.5 34.5q2 19 6.5 38.5t9.5 34.5q5 0 10.5 -2.5t10.5 -4.5q7 -2 11.5 -4.5t9.5 -4.5t8.5 -5t7.5 -5q6 -4 4 -6q-2 -3 -4 -13t-6 -24q-3 -13 -5.5 -30t-4.5 -35q-1 -10 -1.5 -20.5t-0.5 -19.5
q0 -11 0.5 -20t1.5 -20q0 -2 1 -3.5t1 -3.5l1 -4v-3q1 -1 1 -1.5t1 -1.5t3 -2q1 0 2 -0.5t3 -0.5q5 -1 12 0q7 0 14 3.5t15 8.5t14.5 11t13.5 14l6 6q-2 29 -3 53t-2 41l-2 48q1 1 3 4l4.5 4.5l5.5 5.5q1 -26 3.5 -63t5.5 -76q2 2 2.5 3t1.5 2q-2 39 -5.5 75t-5.5 60
q11 6 22.5 12.5t21.5 6.5q13 1 19.5 -4.5t8.5 -23.5q1 -8 1 -15.5t1 -16.5q3 1 9 1q5 0 9.5 -2t4.5 -9q0 -14 -4 -30.5t-11 -34.5q-1 -3 -2 -8t-3 -8v-2q1 -17 1 -34.5t1 -36.5q20 16 37 30t29 24q9 8 15 14.5t11 11.5l8 10h3q2 0 4 0.5t6 0.5q-13 -20 -29.5 -37.5
t-33.5 -34.5q18 17 36.5 34.5t32.5 37.5q7 1 13.5 0.5t10.5 -3.5zM53 313q-1 -8 -1 -12t2 4q2 5 3 10.5t2 11.5q1 2 1 4t1 4q0 2 1 3q-3 -3 -5.5 -11t-3.5 -14zM60 102l5.5 -5.5t4.5 -3.5q-2 1 -6 9q-3 4 -3 6l-1 2l-1 3q-1 5 -1 9t-1 8q-2 17 -1.5 33t-0.5 22q-1 7 -2.5 -4
t-1.5 -28q1 -8 1.5 -18t2.5 -19q1 -2 1.5 -4t1.5 -4q0 -4 2 -6zM202 323q-1 -10 0.5 -32t3.5 -42q1 -9 1.5 -16.5t1 -11t1 -2t0.5 9.5q0 15 -1.5 32t-3 30.5l-2.5 22.5zM189 81q0 -8 0.5 -15t0.5 -13l2 2v28l-2 -2h-1zM190 44v-4q1 0 1 0.5t1 0.5v5zM157 15q-6 -6 -11 -10.5
t-9 -8.5t-9 -7q12 8 23.5 17.5t22.5 19.5v7q-5 -5 -8.5 -9.5t-8.5 -8.5zM106 -301q14 14 25 37q14 22 23 47t14 49v3q1 1 1 2v5l1 14q1 7 1.5 13t0.5 12q1 14 1.5 27t0.5 25v34q-10 -10 -21 -20t-24 -22q-18 -18 -36 -38t-32 -41q-12 -22 -20 -45q-2 -11 -2.5 -21.5
t1.5 -20.5t7 -19.5t12 -20.5q4 -5 8 -9.5t7 -8.5q4 -4 7.5 -5.5t5.5 -2.5q5 -1 8 0q3 0 11 6zM224 -146q2 20 3 36.5t1 24.5q0 12 -3 -13l-5 -32l-2 -21l-1 -11l-1 -6q0 -2 -0.5 -3t-0.5 -2q-9 -48 -34 -95q-22 -50 -53 -74q5 3 10 7t10.5 9t10.5 13q10 14 22 33.5t20 42.5
q8 20 15 46q0 4 2 10l1 7q1 2 1 6q2 14 4 22zM161 432q9 0 21 0.5t22.5 0.5t17.5 -1t7 -4q-1 -2 -1 -7t-1 -10q-4 -10 -13 -24q-10 -14 -22 -21q-6 -4 -11.5 -7t-11.5 -5q-11 -5 -20.5 -6.5t-16.5 -3.5l-15 -3l-4 9l4 7l-7 -3l-10 20t-3 12q5 3 10.5 7t12.5 9q13 10 21 18
q2 3 2 7v3l-1 2h16q0 -4 -1 -7q0 -1 -0.5 -1.5t-0.5 -1.5v-1q3 0 5 4v7zM130 351q1 -1 4 4l2 4q-3 -1 -5.5 -4t-0.5 -4zM182 432q2 -1 3 -2q2 -3 0 -5t-4 2q0 4 1 5zM178 392q-4 -2 -7.5 -4.5t-4.5 -6.5l10 5q9 6 11 9q0 2 -3 0.5t-6 -3.5z" />
    <glyph glyph-name="udieresis" unicode="&#xfc;" horiz-adv-x="350" 
d="M366 185q10 -6 19 -13.5t4 -13.5q-5 -5 -11.5 -13.5t-15.5 -16.5q-9 -9 -20 -18.5t-26 -17.5q-4 -2 -7.5 -4.5t-7.5 -4.5q-4 -1 -10 -3l-6 -2q-1 0 -2 -0.5t-3 -0.5q-27 -6 -55 7q-11 8 -20 18q-4 -5 -8.5 -10.5t-10.5 -10.5q-10 -9 -21.5 -17t-26.5 -15
q-7 -3 -14.5 -4.5t-16.5 -3.5q-9 -1 -18 -0.5t-18 2.5q-8 1 -19 6q-10 4 -17 10q-9 7 -14.5 16.5t-8.5 18.5q-3 8 -4.5 14.5t-3.5 14.5q-1 5 -2 11.5t-2 13.5q-1 11 -1.5 22.5t-0.5 22.5q0 43 3 76q2 16 4.5 30t5.5 23q1 5 2 9.5t2 7.5q1 4 2 7h18q-5 -10 -7.5 -19t-5.5 -18
q-5 -23 -6 -42q-3 -20 -3 -34v-15q1 4 2.5 19.5t4.5 34.5q2 19 6.5 38.5t11.5 34.5q5 0 10.5 -2.5t10.5 -4.5t10.5 -4.5t9.5 -4.5q5 -2 8.5 -5t7.5 -5q6 -4 5 -6q-6 -8 -11 -37q-2 -13 -4.5 -30t-4.5 -35q-1 -10 -1.5 -20.5t-0.5 -19.5v-20t2 -20q0 -2 0.5 -3.5t0.5 -3.5
l2 -4v-3q0 -1 2 -3l2 -2q1 0 2 -0.5t2 -0.5q6 -2 13 0q13 0 28 12q15 8 29 25q5 4 8 7.5t6 7.5q-4 15 -5.5 29.5t-3.5 27.5q-2 14 -2.5 26.5t-2.5 23.5q-1 10 -1 18.5v14.5q0 7 -1 13q1 0 4 1q3 0 11 2v-22t1 -27v-12.5t1 -10.5q0 -5 1 -9q1 4 1 14v22q-1 12 -1 25t-1 20
q10 1 22.5 3t23 2t18 -1.5t7.5 -6.5v-19t-1 -28q8 2 13 2q11 0 11 -11q0 -29 -12 -65q-2 -5 -3.5 -10t-4.5 -10q1 -3 1.5 -6.5t2.5 -7.5q1 -6 3 -9l2 -3v-2q2 -5 6 -5q0 -1 1 -2h1h1h1h1q2 2 5 2t6 1q10 4 19.5 9.5t17.5 10.5q17 12 26.5 21.5t10.5 9.5l2 -2q1 -1 2 -1.5
t3 -2.5q-6 -11 -13 -20q5 4 9 8t8 9zM50 313q-2 -8 -1.5 -12t2.5 4q2 5 3.5 10.5t2.5 11.5q0 4 2 8q1 2 1 3q-3 -3 -6 -11t-4 -14zM58 102q4 -8 8 -9q-1 1 -2.5 3t-3.5 6q0 2 -0.5 3t-0.5 3l-1 2l-1 3q-1 5 -2 9t-1 8q-2 17 -2 33v22q-1 7 -2.5 -4t-1.5 -28q0 -8 1 -18
t3 -19q2 -6 2 -8q2 -2 2.5 -3.5t1.5 -2.5zM203 297q1 7 -1 17l-2 8q-1 -3 -1 -8.5t1 -10.5t2 -7.5t1 1.5zM302 136q8 5 15.5 13.5t1.5 6.5q-6 -3 -11 -10q-2 -3 -4 -7q-1 -2 -2 -3zM254 408q0 -5 -0.5 -9.5t-2.5 -11.5q-2 -6 -5.5 -13t-11.5 -14q-5 -4 -9.5 -5.5t-8.5 -3.5
q-9 -3 -17 -3q-14 1 -21 6q-9 2 -11 4l-6 4q-1 1 -2 1l2 4q1 3 6 9q2 -2 7 -5.5t12 -5.5q4 -2 8 -2h7h8q-2 1 -5 1t-6 1q-3 0 -6 1t-7 3q-5 2 -9 4.5t-8 4.5l6 8t7 8q-13 2 -13 4q-1 2 -1 6q-1 5 0 14q0 2 0.5 5.5t3.5 8.5q2 3 3 5.5t5 5.5q3 2 5.5 4t5.5 3q5 3 10 4t9 2h12
q24 -2 29 -25l1 -6q3 -6 3 -17zM210 404q-1 2 -1 3t-1 3q0 -1 -1 -2.5t-2 -3.5q-2 -2 -3 -2l1 -1h3q2 0 4 3zM203 399q-1 -1 -1 -2l2 -2q0 2 -0.5 2.5t-0.5 1.5zM186 393h-3h6h-3zM136 416q2 -3 2 -4.5t1 -3.5l1 -2l-15 -4q0 3 -1 6q0 1 -2 7q-1 5 -7 11q-2 3 -4.5 4.5
t-4.5 3.5q-1 1 -2 1t-3 1q-1 1 -1.5 1t-1.5 1h-1h-1h-1q-1 0 -1.5 0.5t-1.5 0.5h-1h-2q0 -1 1 -1t1.5 -0.5t2.5 -0.5q3 -1 2 -0.5t2 -1.5l1 -1q3 -2 9 -4q4 -6 7 -9q3 -5 4 -8.5t2 -5.5q0 -2 0.5 -2.5t0.5 -1.5v-1q-1 0 -1.5 -0.5t-2.5 -0.5q3 -1 5 -2.5t1 -2.5q0 -6 -5 -14
q-4 -8 -13 -17q-3 -2 -6.5 -4.5t-8.5 -4.5q-2 -1 -5.5 -1.5t-9.5 -0.5q-7 0 -12 1q-6 0 -13 7q-6 4 -9 9q-2 4 -4 10q-3 3 -3 6q-1 1 -1 4v2h-1q1 -1 1 0h-1v3v5q0 4 2 10q4 10 6 13q7 10 13 16q10 7 18 9l6 2t6 1h9q3 0 4 -1h1h1l3 -1q4 -1 6.5 -2t5.5 -3q7 -5 13 -10
q9 -12 9 -19z" />
    <glyph glyph-name="uacute" unicode="&#xfa;" horiz-adv-x="350" 
d="M366 185q10 -6 19 -13.5t4 -13.5q-5 -5 -11.5 -13.5t-15.5 -16.5q-9 -9 -20 -18.5t-26 -17.5q-4 -2 -7.5 -4.5t-7.5 -4.5q-4 -1 -10 -3l-6 -2q-1 0 -2 -0.5t-3 -0.5q-27 -6 -55 7q-11 8 -20 18q-4 -5 -8.5 -10.5t-10.5 -10.5q-10 -9 -21.5 -17t-26.5 -15
q-7 -3 -14.5 -4.5t-16.5 -3.5q-9 -1 -18 -0.5t-18 2.5q-8 1 -19 6q-10 4 -17 10q-9 7 -14.5 16.5t-8.5 18.5q-3 8 -4.5 14.5t-3.5 14.5q-1 5 -2 11.5t-2 13.5q-1 11 -1.5 22.5t-0.5 22.5q0 43 3 76q2 16 4.5 30t5.5 23q1 5 2 9.5t2 7.5q1 4 2 7h18q-5 -10 -7.5 -19t-5.5 -18
q-5 -23 -6 -42q-3 -20 -3 -34v-15q1 4 2.5 19.5t4.5 34.5q2 19 6.5 38.5t11.5 34.5q5 0 10.5 -2.5t10.5 -4.5t10.5 -4.5t9.5 -4.5q5 -2 8.5 -5t7.5 -5q6 -4 5 -6q-6 -8 -11 -37q-2 -13 -4.5 -30t-4.5 -35q-1 -10 -1.5 -20.5t-0.5 -19.5v-20t2 -20q0 -2 0.5 -3.5t0.5 -3.5
l2 -4v-3q0 -1 2 -3l2 -2q1 0 2 -0.5t2 -0.5q6 -2 13 0q13 0 28 12q15 8 29 25q5 4 8 7.5t6 7.5q-4 15 -5.5 29.5t-3.5 27.5q-2 14 -2.5 26.5t-2.5 23.5q-1 10 -1 18.5v14.5q0 7 -1 13q1 0 4 1q3 0 11 2v-22t1 -27v-12.5t1 -10.5q0 -5 1 -9q1 4 1 14v22q-1 12 -1 25t-1 20
q10 1 22.5 3t23 2t18 -1.5t7.5 -6.5v-19t-1 -28q8 2 13 2q11 0 11 -11q0 -29 -12 -65q-2 -5 -3.5 -10t-4.5 -10q1 -3 1.5 -6.5t2.5 -7.5q1 -6 3 -9l2 -3v-2q2 -5 6 -5q0 -1 1 -2h1h1h1h1q2 2 5 2t6 1q10 4 19.5 9.5t17.5 10.5q17 12 26.5 21.5t10.5 9.5l2 -2q1 -1 2 -1.5
t3 -2.5q-6 -11 -13 -20q5 4 9 8t8 9zM50 313q-2 -8 -1.5 -12t2.5 4q2 5 3.5 10.5t2.5 11.5q0 4 2 8q1 2 1 3q-3 -3 -6 -11t-4 -14zM58 102q4 -8 8 -9q-1 1 -2.5 3t-3.5 6q0 2 -0.5 3t-0.5 3l-1 2l-1 3q-1 5 -2 9t-1 8q-2 17 -2 33v22q-1 7 -2.5 -4t-1.5 -28q0 -8 1 -18
t3 -19q2 -6 2 -8q2 -2 2.5 -3.5t1.5 -2.5zM203 297q1 7 -1 17l-2 8q-1 -3 -1 -8.5t1 -10.5t2 -7.5t1 1.5zM302 136q8 5 15.5 13.5t1.5 6.5q-6 -3 -11 -10q-2 -3 -4 -7q-1 -2 -2 -3zM158 432q9 0 21 0.5t22.5 0.5t17.5 -1t7 -4q-1 -2 -1 -7t-1 -10q-4 -10 -13 -24
q-10 -14 -22 -21q-6 -4 -11.5 -7t-11.5 -5q-11 -5 -20.5 -6.5t-16.5 -3.5l-15 -3l-4 9l4 7l-7 -3l-10 20t-3 12q5 3 10.5 7t12.5 9q13 10 21 18q2 3 2 7v3l-1 2h16q0 -4 -1 -7q0 -1 -0.5 -1.5t-0.5 -1.5v-1q3 0 5 4v7zM127 351q1 -1 4 4l2 4q-3 -1 -5.5 -4t-0.5 -4zM179 432
q2 -1 3 -2q2 -3 0 -5t-4 2q0 4 1 5zM175 392q-4 -2 -7.5 -4.5t-4.5 -6.5l10 5q9 6 11 9q0 2 -3 0.5t-6 -3.5z" />
    <glyph glyph-name="ugrave" unicode="&#xf9;" horiz-adv-x="350" 
d="M366 185q10 -6 19 -13.5t4 -13.5q-5 -5 -11.5 -13.5t-15.5 -16.5q-9 -9 -20 -18.5t-26 -17.5q-4 -2 -7.5 -4.5t-7.5 -4.5q-4 -1 -10 -3l-6 -2q-1 0 -2 -0.5t-3 -0.5q-27 -6 -55 7q-11 8 -20 18q-4 -5 -8.5 -10.5t-10.5 -10.5q-10 -9 -21.5 -17t-26.5 -15
q-7 -3 -14.5 -4.5t-16.5 -3.5q-9 -1 -18 -0.5t-18 2.5q-8 1 -19 6q-10 4 -17 10q-9 7 -14.5 16.5t-8.5 18.5q-3 8 -4.5 14.5t-3.5 14.5q-1 5 -2 11.5t-2 13.5q-1 11 -1.5 22.5t-0.5 22.5q0 43 3 76q2 16 4.5 30t5.5 23q1 5 2 9.5t2 7.5q1 4 2 7h18q-5 -10 -7.5 -19t-5.5 -18
q-5 -23 -6 -42q-3 -20 -3 -34v-15q1 4 2.5 19.5t4.5 34.5q2 19 6.5 38.5t11.5 34.5q5 0 10.5 -2.5t10.5 -4.5t10.5 -4.5t9.5 -4.5q5 -2 8.5 -5t7.5 -5q6 -4 5 -6q-6 -8 -11 -37q-2 -13 -4.5 -30t-4.5 -35q-1 -10 -1.5 -20.5t-0.5 -19.5v-20t2 -20q0 -2 0.5 -3.5t0.5 -3.5
l2 -4v-3q0 -1 2 -3l2 -2q1 0 2 -0.5t2 -0.5q6 -2 13 0q13 0 28 12q15 8 29 25q5 4 8 7.5t6 7.5q-4 15 -5.5 29.5t-3.5 27.5q-2 14 -2.5 26.5t-2.5 23.5q-1 10 -1 18.5v14.5q0 7 -1 13q1 0 4 1q3 0 11 2v-22t1 -27v-12.5t1 -10.5q0 -5 1 -9q1 4 1 14v22q-1 12 -1 25t-1 20
q10 1 22.5 3t23 2t18 -1.5t7.5 -6.5v-19t-1 -28q8 2 13 2q11 0 11 -11q0 -29 -12 -65q-2 -5 -3.5 -10t-4.5 -10q1 -3 1.5 -6.5t2.5 -7.5q1 -6 3 -9l2 -3v-2q2 -5 6 -5q0 -1 1 -2h1h1h1h1q2 2 5 2t6 1q10 4 19.5 9.5t17.5 10.5q17 12 26.5 21.5t10.5 9.5l2 -2q1 -1 2 -1.5
t3 -2.5q-6 -11 -13 -20q5 4 9 8t8 9zM50 313q-2 -8 -1.5 -12t2.5 4q2 5 3.5 10.5t2.5 11.5q0 4 2 8q1 2 1 3q-3 -3 -6 -11t-4 -14zM58 102q4 -8 8 -9q-1 1 -2.5 3t-3.5 6q0 2 -0.5 3t-0.5 3l-1 2l-1 3q-1 5 -2 9t-1 8q-2 17 -2 33v22q-1 7 -2.5 -4t-1.5 -28q0 -8 1 -18
t3 -19q2 -6 2 -8q2 -2 2.5 -3.5t1.5 -2.5zM203 297q1 7 -1 17l-2 8q-1 -3 -1 -8.5t1 -10.5t2 -7.5t1 1.5zM302 136q8 5 15.5 13.5t1.5 6.5q-6 -3 -11 -10q-2 -3 -4 -7q-1 -2 -2 -3zM209 393q1 -10 1 -21.5t-2 -12.5q-5 -2 -14.5 -3.5t-20.5 -1.5q-11 -2 -24.5 -1.5
t-27.5 3.5q-27 5 -47 16l-7 3.5t-5 3.5q-3 2 -5 3q1 1 2 3t2.5 4.5t3.5 5.5q5 -5 17 -12q2 -1 4.5 -1.5t4.5 -1.5t3 -2q-1 2 -4 4t-8 6q-5 3 -9 5t-7 4q5 8 12 18t13 18.5t10.5 14t6.5 4.5q5 -5 17 -14q10 -9 30 -18q8 -2 17.5 -4.5t17.5 -4.5l18 -3l1 -10l-9 -5h9zM79 416
q0 -4 5.5 -4.5t3.5 1.5q-3 3 -6 3h-3zM123 403l8 -4t8 0q-1 1 -3 2l-6 3q-9 7 -11 7q-4 0 4 -8zM179 400q4 -1 8 0.5t1 3.5q-1 1 -5 -1q-2 -1 -4 -3z" />
    <glyph glyph-name="odieresis" unicode="&#xf6;" 
d="M374 183q9 -5 18 -13t3 -13q-5 -6 -12 -15t-18 -17q-10 -10 -22 -19.5t-29 -19.5q-7 -4 -15 -7.5t-18 -8.5q-11 -3 -21.5 -5.5t-21.5 -2.5q-22 0 -44 8q-13 -11 -29 -18.5t-35 -10.5q-22 -4 -43 0q-5 1 -10.5 2t-10.5 3q-2 2 -4.5 2.5t-4.5 2.5q-8 3 -12 6q-3 2 -5.5 4
t-4.5 5q-2 2 -4.5 6t-4.5 6q-6 6 -10 19q-4 9 -7 18.5t-5 17.5q-6 34 -1 68q2 18 8 34q2 5 2.5 8t2.5 8t4 9t6 9q11 15 24 27t27 19q13 8 26 12t25 6q23 5 41 6t32 1q6 0 10.5 -0.5t8.5 -0.5h7q0 -1 1 -4q1 -5 3 -12q-17 3 -45.5 3t-54.5 -7q-29 -4 -47 -16q-5 -3 -8.5 -5.5
t-5.5 -4.5q-3 -3 -5 -4q7 6 27 17q11 4 23 7t24 5q26 5 51.5 5t40.5 -2q1 0 1 -1q11 5 19 6t11 -10q3 -16 5 -35.5t1 -44.5q-2 -24 -7 -50.5t-19 -54.5q17 -2 35 6q14 6 24.5 12t19.5 11q9 6 16.5 12t12.5 11q6 5 11 10l2 -2q3 -3 6 -5q-4 -5 -8 -10.5t-7 -12.5q10 11 20 20
zM108 237l-4 -2q1 -4 1 -6.5t1 -6.5q1 -8 2 -14t3 -11q2 -6 3 -11q0 5 -2 16t-4 26v9zM66 233q2 3 0.5 2t-4.5 -6q-2 -5 -5 -13t-7 -19q-4 -24 -3 -47q2 -12 5.5 -21.5t6.5 -16.5q0 1 -1 4q-1 2 -1.5 4.5l-1.5 7.5q-3 7 -4 17.5t0 21.5q1 10 3.5 21t4.5 19q2 10 4 16.5
t3 9.5zM107 108q6 -1 14.5 0t15.5 4q-10 13 -17 26t-12 24q-5 16 -10 31t-7 28v1q-4 -6 -5 -14q-3 -9 -5.5 -21.5t-2.5 -24.5v-10.5t2 -12.5q1 -10 5 -17q0 -1 2 -5v-1v-1q1 0 1 -1h1l1 -1q4 -2 8.5 -3t8.5 -2zM200 302q-11 -2 -15 -2.5t3 -2.5q7 -1 14 -0.5t13 0.5v5h-15z
M177 146q-6 9 -10.5 18.5t-6.5 12.5t-1 -4t6 -18l4 -6t4 -7zM193 170q7 14 11 27t6 26q2 8 3 15.5t2 13.5q-8 1 -18.5 2t-22.5 -1q0 -11 2 -23.5t5 -26.5q2 -8 4.5 -16.5t7.5 -16.5zM217 204q2 9 1.5 12.5t-2.5 -1.5q-2 -7 -3.5 -14.5t-2.5 -15.5q-2 -10 -2 -12q-1 -3 -1 -5
q3 7 6 17.5t4 18.5zM229 297v3h-4v-3h4zM302 132q4 3 9.5 7t9 7.5t4 5.5t-3.5 1q-5 -3 -12 -11q-2 -2 -3 -3.5t-2 -3.5t-2 -3zM362 149q2 1 3 2t3 2t3 2q-1 0 -9 -6zM287 409q0 -5 -0.5 -9.5t-2.5 -11.5q-2 -6 -5.5 -13t-11.5 -14q-5 -4 -9.5 -5.5t-8.5 -3.5q-9 -3 -17 -3
q-14 1 -21 6q-9 2 -11 4l-6 4q-1 1 -2 1l2 4q1 3 6 9q2 -2 7 -5.5t12 -5.5q4 -2 8 -2h7h8q-2 1 -5 1t-6 1q-3 0 -6 1t-7 3q-5 2 -9 4.5t-8 4.5l6 8t7 8q-13 2 -13 4q-1 2 -1 6q-1 5 0 14q0 2 0.5 5.5t3.5 8.5q2 3 3 5.5t5 5.5q3 2 5.5 4t5.5 3q5 3 10 4t9 2h12q24 -2 29 -25
l1 -6q3 -6 3 -17zM243 405q-1 2 -1 3t-1 3q0 -1 -1 -2.5t-2 -3.5q-2 -2 -3 -2l1 -1h3q2 0 4 3zM236 400q-1 -1 -1 -2l2 -2q0 2 -0.5 2.5t-0.5 1.5zM219 394h-3h6h-3zM169 417q2 -3 2 -4.5t1 -3.5l1 -2l-15 -4q0 3 -1 6q0 1 -2 7q-1 5 -7 11q-2 3 -4.5 4.5t-4.5 3.5
q-1 1 -2 1t-3 1q-1 1 -1.5 1t-1.5 1h-1h-1h-1q-1 0 -1.5 0.5t-1.5 0.5h-1h-2q0 -1 1 -1t1.5 -0.5t2.5 -0.5q3 -1 2 -0.5t2 -1.5l1 -1q3 -2 9 -4q4 -6 7 -9q3 -5 4 -8.5t2 -5.5q0 -2 0.5 -2.5t0.5 -1.5v-1q-1 0 -1.5 -0.5t-2.5 -0.5q3 -1 5 -2.5t1 -2.5q0 -6 -5 -14
q-4 -8 -13 -17q-3 -2 -6.5 -4.5t-8.5 -4.5q-2 -1 -5.5 -1.5t-9.5 -0.5q-7 0 -12 1q-6 0 -13 7q-6 4 -9 9q-2 4 -4 10q-3 3 -3 6q-1 1 -1 4v2h-1q1 -1 1 0h-1v3v5q0 4 2 10q4 10 6 13q7 10 13 16q10 7 18 9l6 2t6 1h9q3 0 4 -1h1h1l3 -1q4 -1 6.5 -2t5.5 -3q7 -5 13 -10
q9 -12 9 -19z" />
    <glyph glyph-name="oacute" unicode="&#xf3;" 
d="M374 183q9 -5 18 -13t3 -13q-5 -6 -12 -15t-18 -17q-10 -10 -22 -19.5t-29 -19.5q-7 -4 -15 -7.5t-18 -8.5q-11 -3 -21.5 -5.5t-21.5 -2.5q-22 0 -44 8q-13 -11 -29 -18.5t-35 -10.5q-22 -4 -43 0q-5 1 -10.5 2t-10.5 3q-2 2 -4.5 2.5t-4.5 2.5q-8 3 -12 6q-3 2 -5.5 4
t-4.5 5q-2 2 -4.5 6t-4.5 6q-6 6 -10 19q-4 9 -7 18.5t-5 17.5q-6 34 -1 68q2 18 8 34q2 5 2.5 8t2.5 8t4 9t6 9q11 15 24 27t27 19q13 8 26 12t25 6q23 5 41 6t32 1q6 0 10.5 -0.5t8.5 -0.5h7q0 -1 1 -4q1 -5 3 -12q-17 3 -45.5 3t-54.5 -7q-29 -4 -47 -16q-5 -3 -8.5 -5.5
t-5.5 -4.5q-3 -3 -5 -4q7 6 27 17q11 4 23 7t24 5q26 5 51.5 5t40.5 -2q1 0 1 -1q11 5 19 6t11 -10q3 -16 5 -35.5t1 -44.5q-2 -24 -7 -50.5t-19 -54.5q17 -2 35 6q14 6 24.5 12t19.5 11q9 6 16.5 12t12.5 11q6 5 11 10l2 -2q3 -3 6 -5q-4 -5 -8 -10.5t-7 -12.5q10 11 20 20
zM108 237l-4 -2q1 -4 1 -6.5t1 -6.5q1 -8 2 -14t3 -11q2 -6 3 -11q0 5 -2 16t-4 26v9zM66 233q2 3 0.5 2t-4.5 -6q-2 -5 -5 -13t-7 -19q-4 -24 -3 -47q2 -12 5.5 -21.5t6.5 -16.5q0 1 -1 4q-1 2 -1.5 4.5l-1.5 7.5q-3 7 -4 17.5t0 21.5q1 10 3.5 21t4.5 19q2 10 4 16.5
t3 9.5zM107 108q6 -1 14.5 0t15.5 4q-10 13 -17 26t-12 24q-5 16 -10 31t-7 28v1q-4 -6 -5 -14q-3 -9 -5.5 -21.5t-2.5 -24.5v-10.5t2 -12.5q1 -10 5 -17q0 -1 2 -5v-1v-1q1 0 1 -1h1l1 -1q4 -2 8.5 -3t8.5 -2zM200 302q-11 -2 -15 -2.5t3 -2.5q7 -1 14 -0.5t13 0.5v5h-15z
M177 146q-6 9 -10.5 18.5t-6.5 12.5t-1 -4t6 -18l4 -6t4 -7zM193 170q7 14 11 27t6 26q2 8 3 15.5t2 13.5q-8 1 -18.5 2t-22.5 -1q0 -11 2 -23.5t5 -26.5q2 -8 4.5 -16.5t7.5 -16.5zM217 204q2 9 1.5 12.5t-2.5 -1.5q-2 -7 -3.5 -14.5t-2.5 -15.5q-2 -10 -2 -12q-1 -3 -1 -5
q3 7 6 17.5t4 18.5zM229 297v3h-4v-3h4zM302 132q4 3 9.5 7t9 7.5t4 5.5t-3.5 1q-5 -3 -12 -11q-2 -2 -3 -3.5t-2 -3.5t-2 -3zM362 149q2 1 3 2t3 2t3 2q-1 0 -9 -6zM176 432q9 0 21 0.5t22.5 0.5t17.5 -1t7 -4q-1 -2 -1 -7t-1 -10q-4 -10 -13 -24q-10 -14 -22 -21
q-6 -4 -11.5 -7t-11.5 -5q-11 -5 -20.5 -6.5t-16.5 -3.5l-15 -3l-4 9l4 7l-7 -3l-10 20t-3 12q5 3 10.5 7t12.5 9q13 10 21 18q2 3 2 7v3l-1 2h16q0 -4 -1 -7q0 -1 -0.5 -1.5t-0.5 -1.5v-1q3 0 5 4v7zM145 351q1 -1 4 4l2 4q-3 -1 -5.5 -4t-0.5 -4zM197 432q2 -1 3 -2
q2 -3 0 -5t-4 2q0 4 1 5zM193 392q-4 -2 -7.5 -4.5t-4.5 -6.5l10 5q9 6 11 9q0 2 -3 0.5t-6 -3.5z" />
    <glyph glyph-name="ograve" unicode="&#xf2;" 
d="M374 183q9 -5 18 -13t3 -13q-5 -6 -12 -15t-18 -17q-10 -10 -22 -19.5t-29 -19.5q-7 -4 -15 -7.5t-18 -8.5q-11 -3 -21.5 -5.5t-21.5 -2.5q-22 0 -44 8q-13 -11 -29 -18.5t-35 -10.5q-22 -4 -43 0q-5 1 -10.5 2t-10.5 3q-2 2 -4.5 2.5t-4.5 2.5q-8 3 -12 6q-3 2 -5.5 4
t-4.5 5q-2 2 -4.5 6t-4.5 6q-6 6 -10 19q-4 9 -7 18.5t-5 17.5q-6 34 -1 68q2 18 8 34q2 5 2.5 8t2.5 8t4 9t6 9q11 15 24 27t27 19q13 8 26 12t25 6q23 5 41 6t32 1q6 0 10.5 -0.5t8.5 -0.5h7q0 -1 1 -4q1 -5 3 -12q-17 3 -45.5 3t-54.5 -7q-29 -4 -47 -16q-5 -3 -8.5 -5.5
t-5.5 -4.5q-3 -3 -5 -4q7 6 27 17q11 4 23 7t24 5q26 5 51.5 5t40.5 -2q1 0 1 -1q11 5 19 6t11 -10q3 -16 5 -35.5t1 -44.5q-2 -24 -7 -50.5t-19 -54.5q17 -2 35 6q14 6 24.5 12t19.5 11q9 6 16.5 12t12.5 11q6 5 11 10l2 -2q3 -3 6 -5q-4 -5 -8 -10.5t-7 -12.5q10 11 20 20
zM108 237l-4 -2q1 -4 1 -6.5t1 -6.5q1 -8 2 -14t3 -11q2 -6 3 -11q0 5 -2 16t-4 26v9zM66 233q2 3 0.5 2t-4.5 -6q-2 -5 -5 -13t-7 -19q-4 -24 -3 -47q2 -12 5.5 -21.5t6.5 -16.5q0 1 -1 4q-1 2 -1.5 4.5l-1.5 7.5q-3 7 -4 17.5t0 21.5q1 10 3.5 21t4.5 19q2 10 4 16.5
t3 9.5zM107 108q6 -1 14.5 0t15.5 4q-10 13 -17 26t-12 24q-5 16 -10 31t-7 28v1q-4 -6 -5 -14q-3 -9 -5.5 -21.5t-2.5 -24.5v-10.5t2 -12.5q1 -10 5 -17q0 -1 2 -5v-1v-1q1 0 1 -1h1l1 -1q4 -2 8.5 -3t8.5 -2zM200 302q-11 -2 -15 -2.5t3 -2.5q7 -1 14 -0.5t13 0.5v5h-15z
M177 146q-6 9 -10.5 18.5t-6.5 12.5t-1 -4t6 -18l4 -6t4 -7zM193 170q7 14 11 27t6 26q2 8 3 15.5t2 13.5q-8 1 -18.5 2t-22.5 -1q0 -11 2 -23.5t5 -26.5q2 -8 4.5 -16.5t7.5 -16.5zM217 204q2 9 1.5 12.5t-2.5 -1.5q-2 -7 -3.5 -14.5t-2.5 -15.5q-2 -10 -2 -12q-1 -3 -1 -5
q3 7 6 17.5t4 18.5zM229 297v3h-4v-3h4zM302 132q4 3 9.5 7t9 7.5t4 5.5t-3.5 1q-5 -3 -12 -11q-2 -2 -3 -3.5t-2 -3.5t-2 -3zM362 149q2 1 3 2t3 2t3 2q-1 0 -9 -6zM252 394q1 -10 1 -21.5t-2 -12.5q-5 -2 -14.5 -3.5t-20.5 -1.5q-11 -2 -24.5 -1.5t-27.5 3.5q-27 5 -47 16
l-7 3.5t-5 3.5q-3 2 -5 3q1 1 2 3t2.5 4.5t3.5 5.5q5 -5 17 -12q2 -1 4.5 -1.5t4.5 -1.5t3 -2q-1 2 -4 4t-8 6q-5 3 -9 5t-7 4q5 8 12 18t13 18.5t10.5 14t6.5 4.5q5 -5 17 -14q10 -9 30 -18q8 -2 17.5 -4.5t17.5 -4.5l18 -3l1 -10l-9 -5h9zM122 417q0 -4 5.5 -4.5t3.5 1.5
q-3 3 -6 3h-3zM166 404l8 -4t8 0q-1 1 -3 2l-6 3q-9 7 -11 7q-4 0 4 -8zM222 401q4 -1 8 0.5t1 3.5q-1 1 -5 -1q-2 -1 -4 -3z" />
    <glyph glyph-name="idieresis" unicode="&#xef;" horiz-adv-x="180" 
d="M205 154q9 -5 17.5 -13t3.5 -13t-11 -13t-14 -17q-10 -9 -21 -18.5t-25 -17.5q-10 -7 -18 -9l-9 -3q-1 -1 -2 -1t-2 -1q-2 0 -4 -0.5t-4 -0.5q-12 -4 -25.5 -1.5t-25.5 8.5q-7 3 -11.5 8t-9.5 10q-5 3 -6 6q-1 1 -1.5 2t-1.5 2q-4 6 -5 11q-5 8 -8.5 17t-6.5 17
q-5 17 -7 33t-4 30q-4 28 -6 50q-1 11 -1 19v14v13q1 0 4 1q3 0 11 2v-22t1 -26q0 -8 0.5 -13.5t0.5 -10.5t1 -9q1 4 1 14v22t-0.5 25t-0.5 20q10 1 22 3t22.5 2t18 -1.5t7.5 -5.5q0 -10 -1 -31t0 -47v-26t2 -27q1 -7 2 -13l2 -12q2 -7 6 -9l1 -3q0 -1 1 -2q2 -6 6 -6l2 -1
h1h2q2 1 4 1t5 2l20 10t18 10q18 13 26 21q5 5 9 10q1 -1 3 -2t3.5 -2t3.5 -3q-5 -5 -8.5 -9.5t-6.5 -9.5q5 4 9.5 7.5t9.5 8.5zM41 268q1 5 0.5 8.5t-1.5 7.5t-3 8q-1 -3 -1 -8.5t0.5 -10.5t2 -7t2.5 2zM55 168q0 -12 3 -25t8 -19q-1 0 -2.5 8.5t-3.5 19.5q-1 13 -1.5 24
t-1.5 14q-1 5 -1.5 -2.5t-0.5 -19.5zM140 106q4 3 8.5 6.5t7.5 7t3.5 5.5t-2.5 1q-5 -2 -11 -10q-2 -2 -3 -3.5t-2 -3.5t-1 -3zM163 390q0 -5 -0.5 -9.5t-2.5 -11.5q-2 -6 -5.5 -13t-11.5 -14q-5 -4 -9.5 -5.5t-8.5 -3.5q-9 -3 -17 -3q-14 1 -21 6q-9 2 -11 4l-6 4
q-1 1 -2 1l2 4q1 3 6 9q2 -2 7 -5.5t12 -5.5q4 -2 8 -2h7h8q-2 1 -5 1t-6 1q-3 0 -6 1t-7 3q-5 2 -9 4.5t-8 4.5l6 8t7 8q-13 2 -13 4q-1 2 -1 6q-1 5 0 14q0 2 0.5 5.5t3.5 8.5q2 3 3 5.5t5 5.5q3 2 5.5 4t5.5 3q5 3 10 4t9 2h12q24 -2 29 -25l1 -6q3 -6 3 -17zM119 386
q-1 2 -1 3t-1 3q0 -1 -1 -2.5t-2 -3.5q-2 -2 -3 -2l1 -1h3q2 0 4 3zM112 381q-1 -1 -1 -2l2 -2q0 2 -0.5 2.5t-0.5 1.5zM95 375h-3h6h-3zM45 398q2 -3 2 -4.5t1 -3.5l1 -2l-15 -4q0 3 -1 6q0 1 -2 7q-1 5 -7 11q-2 3 -4.5 4.5t-4.5 3.5q-1 1 -2 1t-3 1q-1 1 -1.5 1t-1.5 1
h-1h-1h-1q-1 0 -1.5 0.5t-1.5 0.5h-1h-2q0 -1 1 -1t1.5 -0.5t2.5 -0.5q3 -1 2 -0.5t2 -1.5l1 -1q3 -2 9 -4q4 -6 7 -9q3 -5 4 -8.5t2 -5.5q0 -2 0.5 -2.5t0.5 -1.5v-1q-1 0 -1.5 -0.5t-2.5 -0.5q3 -1 5 -2.5t1 -2.5q0 -6 -5 -14q-4 -8 -13 -17q-3 -2 -6.5 -4.5t-8.5 -4.5
q-2 -1 -5.5 -1.5t-9.5 -0.5q-7 0 -12 1q-6 0 -13 7q-6 4 -9 9q-2 4 -4 10q-3 3 -3 6q-1 1 -1 4v2h-1q1 -1 1 0h-1v3v5q0 4 2 10q4 10 6 13q7 10 13 16q10 7 18 9l6 2t6 1h9q3 0 4 -1h1h1l3 -1q4 -1 6.5 -2t5.5 -3q7 -5 13 -10q9 -12 9 -19z" />
    <glyph glyph-name="iacute" unicode="&#xed;" horiz-adv-x="180" 
d="M205 154q9 -5 17.5 -13t3.5 -13t-11 -13t-14 -17q-10 -9 -21 -18.5t-25 -17.5q-10 -7 -18 -9l-9 -3q-1 -1 -2 -1t-2 -1q-2 0 -4 -0.5t-4 -0.5q-12 -4 -25.5 -1.5t-25.5 8.5q-7 3 -11.5 8t-9.5 10q-5 3 -6 6q-1 1 -1.5 2t-1.5 2q-4 6 -5 11q-5 8 -8.5 17t-6.5 17
q-5 17 -7 33t-4 30q-4 28 -6 50q-1 11 -1 19v14v13q1 0 4 1q3 0 11 2v-22t1 -26q0 -8 0.5 -13.5t0.5 -10.5t1 -9q1 4 1 14v22t-0.5 25t-0.5 20q10 1 22 3t22.5 2t18 -1.5t7.5 -5.5q0 -10 -1 -31t0 -47v-26t2 -27q1 -7 2 -13l2 -12q2 -7 6 -9l1 -3q0 -1 1 -2q2 -6 6 -6l2 -1
h1h2q2 1 4 1t5 2l20 10t18 10q18 13 26 21q5 5 9 10q1 -1 3 -2t3.5 -2t3.5 -3q-5 -5 -8.5 -9.5t-6.5 -9.5q5 4 9.5 7.5t9.5 8.5zM41 268q1 5 0.5 8.5t-1.5 7.5t-3 8q-1 -3 -1 -8.5t0.5 -10.5t2 -7t2.5 2zM55 168q0 -12 3 -25t8 -19q-1 0 -2.5 8.5t-3.5 19.5q-1 13 -1.5 24
t-1.5 14q-1 5 -1.5 -2.5t-0.5 -19.5zM140 106q4 3 8.5 6.5t7.5 7t3.5 5.5t-2.5 1q-5 -2 -11 -10q-2 -2 -3 -3.5t-2 -3.5t-1 -3zM45 432q9 0 21 0.5t22.5 0.5t17.5 -1t7 -4q-1 -2 -1 -7t-1 -10q-4 -10 -13 -24q-10 -14 -22 -21q-6 -4 -11.5 -7t-11.5 -5q-11 -5 -20.5 -6.5
t-16.5 -3.5l-15 -3l-4 9l4 7l-7 -3l-10 20t-3 12q5 3 10.5 7t12.5 9q13 10 21 18q2 3 2 7v3l-1 2h16q0 -4 -1 -7q0 -1 -0.5 -1.5t-0.5 -1.5v-1q3 0 5 4v7zM14 351q1 -1 4 4l2 4q-3 -1 -5.5 -4t-0.5 -4zM66 432q2 -1 3 -2q2 -3 0 -5t-4 2q0 4 1 5zM62 392q-4 -2 -7.5 -4.5
t-4.5 -6.5l10 5q9 6 11 9q0 2 -3 0.5t-6 -3.5z" />
    <glyph glyph-name="igrave" unicode="&#xec;" horiz-adv-x="180" 
d="M205 154q9 -5 17.5 -13t3.5 -13t-11 -13t-14 -17q-10 -9 -21 -18.5t-25 -17.5q-10 -7 -18 -9l-9 -3q-1 -1 -2 -1t-2 -1q-2 0 -4 -0.5t-4 -0.5q-12 -4 -25.5 -1.5t-25.5 8.5q-7 3 -11.5 8t-9.5 10q-5 3 -6 6q-1 1 -1.5 2t-1.5 2q-4 6 -5 11q-5 8 -8.5 17t-6.5 17
q-5 17 -7 33t-4 30q-4 28 -6 50q-1 11 -1 19v14v13q1 0 4 1q3 0 11 2v-22t1 -26q0 -8 0.5 -13.5t0.5 -10.5t1 -9q1 4 1 14v22t-0.5 25t-0.5 20q10 1 22 3t22.5 2t18 -1.5t7.5 -5.5q0 -10 -1 -31t0 -47v-26t2 -27q1 -7 2 -13l2 -12q2 -7 6 -9l1 -3q0 -1 1 -2q2 -6 6 -6l2 -1
h1h2q2 1 4 1t5 2l20 10t18 10q18 13 26 21q5 5 9 10q1 -1 3 -2t3.5 -2t3.5 -3q-5 -5 -8.5 -9.5t-6.5 -9.5q5 4 9.5 7.5t9.5 8.5zM41 268q1 5 0.5 8.5t-1.5 7.5t-3 8q-1 -3 -1 -8.5t0.5 -10.5t2 -7t2.5 2zM55 168q0 -12 3 -25t8 -19q-1 0 -2.5 8.5t-3.5 19.5q-1 13 -1.5 24
t-1.5 14q-1 5 -1.5 -2.5t-0.5 -19.5zM140 106q4 3 8.5 6.5t7.5 7t3.5 5.5t-2.5 1q-5 -2 -11 -10q-2 -2 -3 -3.5t-2 -3.5t-1 -3zM111 381q1 -10 1 -21.5t-2 -12.5q-5 -2 -14.5 -3.5t-20.5 -1.5q-11 -2 -24.5 -1.5t-27.5 3.5q-27 5 -47 16l-7 3.5t-5 3.5q-3 2 -5 3q1 1 2 3
t2.5 4.5t3.5 5.5q5 -5 17 -12q2 -1 4.5 -1.5t4.5 -1.5t3 -2q-1 2 -4 4t-8 6q-5 3 -9 5t-7 4q5 8 12 18t13 18.5t10.5 14t6.5 4.5q5 -5 17 -14q10 -9 30 -18q8 -2 17.5 -4.5t17.5 -4.5l18 -3l1 -10l-9 -5h9zM-19 404q0 -4 5.5 -4.5t3.5 1.5q-3 3 -6 3h-3zM25 391l8 -4t8 0
q-1 1 -3 2l-6 3q-9 7 -11 7q-4 0 4 -8zM81 388q4 -1 8 0.5t1 3.5q-1 1 -5 -1q-2 -1 -4 -3z" />
    <glyph glyph-name="edieresis" unicode="&#xeb;" horiz-adv-x="301" 
d="M342 172q9 -8 0 -20q-14 -16 -31.5 -32t-43.5 -33q-11 -8 -24.5 -15.5t-28.5 -14.5q-32 -14 -71 -18q-18 -2 -41 0q-11 2 -21 4.5t-21 7.5l-3 1.5t-3 0.5q-2 1 -3.5 2t-3.5 2l-3 2l-2 2q-2 1 -3.5 2.5l-2.5 2.5q-3 3 -5 7t-4 6q-5 5 -6 11q-8 11 -11.5 22.5t-5.5 20.5
q-3 22 -3 43.5t5 42.5q3 20 18 44l2 4q1 1 1 1.5t1 1.5l3 4q2 2 3 4.5t3 4.5l8 8t9 8q9 9 19.5 14.5t21.5 9.5q21 9 45 10q11 1 21.5 0.5t21.5 -2.5q3 -1 5.5 -1.5t5.5 -1.5h2l3 -1q5 -1 8 -4q7 -3 13.5 -6.5t11.5 -8.5q10 -12 16.5 -26t7.5 -29q1 -7 0.5 -13t-1.5 -12
q-3 -13 -7 -23q-5 -8 -10.5 -17t-10.5 -15q-10 -13 -24 -23q-11 -11 -22 -17t-22 -11q-11 -6 -19 -10t-16 -6q-4 -1 -7 -2.5l-5 -2.5q2 0 4 -0.5t5 -0.5q13 -2 26 0t26 6q26 6 46 18q22 10 38 21.5t27 20.5q11 8 15.5 13.5t4.5 3.5h3q2 0 3 -0.5l3 -1.5q-7 -10 -16 -20.5
t-20 -20.5q13 10 23 20t19 20q7 -2 13 -3.5t10 -4.5zM65 241q2 3 9 10q14 17 38 25q11 5 23.5 6t23.5 -1q5 -1 10 -1.5t10 -2.5q2 -1 3 -1t2 -1t3 -1q2 -1 2 0l-5 5q-1 0 -7 2q-2 1 -4 1.5l-6 1.5q-5 1 -10.5 1.5t-12.5 0.5q-13 0 -26.5 -3t-24.5 -11q-12 -7 -20 -19
q-2 -2 -3.5 -4t-3.5 -4q-4 -6 -5 -8zM75 195q-1 -3 -1 -7t-1 -8q9 4 24.5 9t32.5 13q8 4 16 10t14 13q3 3 6 6.5t6 6.5l2 6q0 3 1 3q0 2 -1 3l-1 1h-1l-4 1q-1 1 -5 1q-23 8 -46 -3q-11 -4 -19 -12q-5 -4 -8 -9l-3 -2l-2 -1v-1q-2 -4 -2 -5q-3 -5 -4.5 -11.5t-3.5 -13.5z
M75 132q7 1 17 4t19 9q11 4 15.5 6.5t-4.5 0.5q-8 -3 -17.5 -6.5t-17.5 -8.5l-12 -4v-1zM87 110q9 2 22 5.5t27 10.5q15 6 30 15t29 19q14 12 24 25.5t15 26.5q5 10 7 21q1 4 1 9q-1 -6 -3.5 -17t-10.5 -23q-16 -25 -44 -45q-26 -19 -54 -29t-47 -16l1 -1q1 0 1 -0.5t2 -0.5
zM205 105q9 5 12.5 7.5t-3.5 0.5t-15.5 -7t-16.5 -8q-5 -2 -8.5 -4t-6.5 -4l-6 -3q11 3 23.5 8t20.5 10zM261 394q0 -5 -0.5 -9.5t-2.5 -11.5q-2 -6 -5.5 -13t-11.5 -14q-5 -4 -9.5 -5.5t-8.5 -3.5q-9 -3 -17 -3q-14 1 -21 6q-9 2 -11 4l-6 4q-1 1 -2 1l2 4q1 3 6 9
q2 -2 7 -5.5t12 -5.5q4 -2 8 -2h7h8q-2 1 -5 1t-6 1q-3 0 -6 1t-7 3q-5 2 -9 4.5t-8 4.5l6 8t7 8q-13 2 -13 4q-1 2 -1 6q-1 5 0 14q0 2 0.5 5.5t3.5 8.5q2 3 3 5.5t5 5.5q3 2 5.5 4t5.5 3q5 3 10 4t9 2h12q24 -2 29 -25l1 -6q3 -6 3 -17zM217 390q-1 2 -1 3t-1 3
q0 -1 -1 -2.5t-2 -3.5q-2 -2 -3 -2l1 -1h3q2 0 4 3zM210 385q-1 -1 -1 -2l2 -2q0 2 -0.5 2.5t-0.5 1.5zM193 379h-3h6h-3zM143 402q2 -3 2 -4.5t1 -3.5l1 -2l-15 -4q0 3 -1 6q0 1 -2 7q-1 5 -7 11q-2 3 -4.5 4.5t-4.5 3.5q-1 1 -2 1t-3 1q-1 1 -1.5 1t-1.5 1h-1h-1h-1
q-1 0 -1.5 0.5t-1.5 0.5h-1h-2q0 -1 1 -1t1.5 -0.5t2.5 -0.5q3 -1 2 -0.5t2 -1.5l1 -1q3 -2 9 -4q4 -6 7 -9q3 -5 4 -8.5t2 -5.5q0 -2 0.5 -2.5t0.5 -1.5v-1q-1 0 -1.5 -0.5t-2.5 -0.5q3 -1 5 -2.5t1 -2.5q0 -6 -5 -14q-4 -8 -13 -17q-3 -2 -6.5 -4.5t-8.5 -4.5
q-2 -1 -5.5 -1.5t-9.5 -0.5q-7 0 -12 1q-6 0 -13 7q-6 4 -9 9q-2 4 -4 10q-3 3 -3 6q-1 1 -1 4v2h-1q1 -1 1 0h-1v3v5q0 4 2 10q4 10 6 13q7 10 13 16q10 7 18 9l6 2t6 1h9q3 0 4 -1h1h1l3 -1q4 -1 6.5 -2t5.5 -3q7 -5 13 -10q9 -12 9 -19z" />
    <glyph glyph-name="eacute" unicode="&#xe9;" horiz-adv-x="301" 
d="M342 172q9 -8 0 -20q-14 -16 -31.5 -32t-43.5 -33q-11 -8 -24.5 -15.5t-28.5 -14.5q-32 -14 -71 -18q-18 -2 -41 0q-11 2 -21 4.5t-21 7.5l-3 1.5t-3 0.5q-2 1 -3.5 2t-3.5 2l-3 2l-2 2q-2 1 -3.5 2.5l-2.5 2.5q-3 3 -5 7t-4 6q-5 5 -6 11q-8 11 -11.5 22.5t-5.5 20.5
q-3 22 -3 43.5t5 42.5q3 20 18 44l2 4q1 1 1 1.5t1 1.5l3 4q2 2 3 4.5t3 4.5l8 8t9 8q9 9 19.5 14.5t21.5 9.5q21 9 45 10q11 1 21.5 0.5t21.5 -2.5q3 -1 5.5 -1.5t5.5 -1.5h2l3 -1q5 -1 8 -4q7 -3 13.5 -6.5t11.5 -8.5q10 -12 16.5 -26t7.5 -29q1 -7 0.5 -13t-1.5 -12
q-3 -13 -7 -23q-5 -8 -10.5 -17t-10.5 -15q-10 -13 -24 -23q-11 -11 -22 -17t-22 -11q-11 -6 -19 -10t-16 -6q-4 -1 -7 -2.5l-5 -2.5q2 0 4 -0.5t5 -0.5q13 -2 26 0t26 6q26 6 46 18q22 10 38 21.5t27 20.5q11 8 15.5 13.5t4.5 3.5h3q2 0 3 -0.5l3 -1.5q-7 -10 -16 -20.5
t-20 -20.5q13 10 23 20t19 20q7 -2 13 -3.5t10 -4.5zM65 241q2 3 9 10q14 17 38 25q11 5 23.5 6t23.5 -1q5 -1 10 -1.5t10 -2.5q2 -1 3 -1t2 -1t3 -1q2 -1 2 0l-5 5q-1 0 -7 2q-2 1 -4 1.5l-6 1.5q-5 1 -10.5 1.5t-12.5 0.5q-13 0 -26.5 -3t-24.5 -11q-12 -7 -20 -19
q-2 -2 -3.5 -4t-3.5 -4q-4 -6 -5 -8zM75 195q-1 -3 -1 -7t-1 -8q9 4 24.5 9t32.5 13q8 4 16 10t14 13q3 3 6 6.5t6 6.5l2 6q0 3 1 3q0 2 -1 3l-1 1h-1l-4 1q-1 1 -5 1q-23 8 -46 -3q-11 -4 -19 -12q-5 -4 -8 -9l-3 -2l-2 -1v-1q-2 -4 -2 -5q-3 -5 -4.5 -11.5t-3.5 -13.5z
M75 132q7 1 17 4t19 9q11 4 15.5 6.5t-4.5 0.5q-8 -3 -17.5 -6.5t-17.5 -8.5l-12 -4v-1zM87 110q9 2 22 5.5t27 10.5q15 6 30 15t29 19q14 12 24 25.5t15 26.5q5 10 7 21q1 4 1 9q-1 -6 -3.5 -17t-10.5 -23q-16 -25 -44 -45q-26 -19 -54 -29t-47 -16l1 -1q1 0 1 -0.5t2 -0.5
zM205 105q9 5 12.5 7.5t-3.5 0.5t-15.5 -7t-16.5 -8q-5 -2 -8.5 -4t-6.5 -4l-6 -3q11 3 23.5 8t20.5 10zM149 432q9 0 21 0.5t22.5 0.5t17.5 -1t7 -4q-1 -2 -1 -7t-1 -10q-4 -10 -13 -24q-10 -14 -22 -21q-6 -4 -11.5 -7t-11.5 -5q-11 -5 -20.5 -6.5t-16.5 -3.5l-15 -3l-4 9
l4 7l-7 -3l-10 20t-3 12q5 3 10.5 7t12.5 9q13 10 21 18q2 3 2 7v3l-1 2h16q0 -4 -1 -7q0 -1 -0.5 -1.5t-0.5 -1.5v-1q3 0 5 4v7zM118 351q1 -1 4 4l2 4q-3 -1 -5.5 -4t-0.5 -4zM170 432q2 -1 3 -2q2 -3 0 -5t-4 2q0 4 1 5zM166 392q-4 -2 -7.5 -4.5t-4.5 -6.5l10 5
q9 6 11 9q0 2 -3 0.5t-6 -3.5z" />
    <glyph glyph-name="egrave" unicode="&#xe8;" horiz-adv-x="301" 
d="M342 172q9 -8 0 -20q-14 -16 -31.5 -32t-43.5 -33q-11 -8 -24.5 -15.5t-28.5 -14.5q-32 -14 -71 -18q-18 -2 -41 0q-11 2 -21 4.5t-21 7.5l-3 1.5t-3 0.5q-2 1 -3.5 2t-3.5 2l-3 2l-2 2q-2 1 -3.5 2.5l-2.5 2.5q-3 3 -5 7t-4 6q-5 5 -6 11q-8 11 -11.5 22.5t-5.5 20.5
q-3 22 -3 43.5t5 42.5q3 20 18 44l2 4q1 1 1 1.5t1 1.5l3 4q2 2 3 4.5t3 4.5l8 8t9 8q9 9 19.5 14.5t21.5 9.5q21 9 45 10q11 1 21.5 0.5t21.5 -2.5q3 -1 5.5 -1.5t5.5 -1.5h2l3 -1q5 -1 8 -4q7 -3 13.5 -6.5t11.5 -8.5q10 -12 16.5 -26t7.5 -29q1 -7 0.5 -13t-1.5 -12
q-3 -13 -7 -23q-5 -8 -10.5 -17t-10.5 -15q-10 -13 -24 -23q-11 -11 -22 -17t-22 -11q-11 -6 -19 -10t-16 -6q-4 -1 -7 -2.5l-5 -2.5q2 0 4 -0.5t5 -0.5q13 -2 26 0t26 6q26 6 46 18q22 10 38 21.5t27 20.5q11 8 15.5 13.5t4.5 3.5h3q2 0 3 -0.5l3 -1.5q-7 -10 -16 -20.5
t-20 -20.5q13 10 23 20t19 20q7 -2 13 -3.5t10 -4.5zM65 241q2 3 9 10q14 17 38 25q11 5 23.5 6t23.5 -1q5 -1 10 -1.5t10 -2.5q2 -1 3 -1t2 -1t3 -1q2 -1 2 0l-5 5q-1 0 -7 2q-2 1 -4 1.5l-6 1.5q-5 1 -10.5 1.5t-12.5 0.5q-13 0 -26.5 -3t-24.5 -11q-12 -7 -20 -19
q-2 -2 -3.5 -4t-3.5 -4q-4 -6 -5 -8zM75 195q-1 -3 -1 -7t-1 -8q9 4 24.5 9t32.5 13q8 4 16 10t14 13q3 3 6 6.5t6 6.5l2 6q0 3 1 3q0 2 -1 3l-1 1h-1l-4 1q-1 1 -5 1q-23 8 -46 -3q-11 -4 -19 -12q-5 -4 -8 -9l-3 -2l-2 -1v-1q-2 -4 -2 -5q-3 -5 -4.5 -11.5t-3.5 -13.5z
M75 132q7 1 17 4t19 9q11 4 15.5 6.5t-4.5 0.5q-8 -3 -17.5 -6.5t-17.5 -8.5l-12 -4v-1zM87 110q9 2 22 5.5t27 10.5q15 6 30 15t29 19q14 12 24 25.5t15 26.5q5 10 7 21q1 4 1 9q-1 -6 -3.5 -17t-10.5 -23q-16 -25 -44 -45q-26 -19 -54 -29t-47 -16l1 -1q1 0 1 -0.5t2 -0.5
zM205 105q9 5 12.5 7.5t-3.5 0.5t-15.5 -7t-16.5 -8q-5 -2 -8.5 -4t-6.5 -4l-6 -3q11 3 23.5 8t20.5 10zM225 382q1 -10 1 -21.5t-2 -12.5q-5 -2 -14.5 -3.5t-20.5 -1.5q-11 -2 -24.5 -1.5t-27.5 3.5q-27 5 -47 16l-7 3.5t-5 3.5q-3 2 -5 3q1 1 2 3t2.5 4.5t3.5 5.5
q5 -5 17 -12q2 -1 4.5 -1.5t4.5 -1.5t3 -2q-1 2 -4 4t-8 6q-5 3 -9 5t-7 4q5 8 12 18t13 18.5t10.5 14t6.5 4.5q5 -5 17 -14q10 -9 30 -18q8 -2 17.5 -4.5t17.5 -4.5l18 -3l1 -10l-9 -5h9zM95 405q0 -4 5.5 -4.5t3.5 1.5q-3 3 -6 3h-3zM139 392l8 -4t8 0q-1 1 -3 2l-6 3
q-9 7 -11 7q-4 0 4 -8zM195 389q4 -1 8 0.5t1 3.5q-1 1 -5 -1q-2 -1 -4 -3z" />
    </font>
</defs>
</svg>
